<svg width="720" height="406" version="1.1" xmlns="http://www.w3.org/2000/svg" desc="Created with imagetracer.js version 1.2.6" ><path fill="rgb(96,168,218)" stroke="rgb(96,168,218)" stroke-width="1" opacity="1" d="M 352.5 0 L 359.5 8 L 352.5 0 Z " /><path fill="rgb(96,168,218)" stroke="rgb(96,168,218)" stroke-width="1" opacity="1" d="M 2.5 2 L 6.5 7 L 2.5 2 Z " /><path fill="rgb(96,168,218)" stroke="rgb(96,168,218)" stroke-width="1" opacity="1" d="M 363.5 12 L 368.5 18 L 363.5 12 Z " /><path fill="rgb(96,168,218)" stroke="rgb(96,168,218)" stroke-width="1" opacity="1" d="M 12.5 13 L 16.5 18 L 12.5 13 Z " /><path fill="rgb(96,168,218)" stroke="rgb(96,168,218)" stroke-width="1" opacity="1" d="M 21.5 23 L 26.5 29 L 21.5 23 Z " /><path fill="rgb(96,168,218)" stroke="rgb(96,168,218)" stroke-width="1" opacity="1" d="M 373.5 23 L 378.5 29 L 373.5 23 Z " /><path fill="rgb(96,168,218)" stroke="rgb(96,168,218)" stroke-width="1" opacity="1" d="M 31.5 34 L 36.5 40 L 31.5 34 Z " /><path fill="rgb(96,168,218)" stroke="rgb(96,168,218)" stroke-width="1" opacity="1" d="M 383.5 34 L 387.5 39 L 383.5 34 Z " /><path fill="rgb(96,168,218)" stroke="rgb(96,168,218)" stroke-width="1" opacity="1" d="M 392.5 44 L 397.5 50 L 392.5 44 Z " /><path fill="rgb(96,168,218)" stroke="rgb(96,168,218)" stroke-width="1" opacity="1" d="M 41.5 45 L 46.5 51 L 41.5 45 Z " /><path fill="rgb(96,168,218)" stroke="rgb(96,168,218)" stroke-width="1" opacity="1" d="M 400.5 53 L 406.5 60 L 400.5 53 Z " /><path fill="rgb(96,168,218)" stroke="rgb(96,168,218)" stroke-width="1" opacity="1" d="M 51.5 56 L 55.5 61 L 51.5 56 Z " /><path fill="rgb(96,168,218)" stroke="rgb(96,168,218)" stroke-width="1" opacity="1" d="M 410.5 64 L 416.5 71 L 410.5 64 Z " /><path fill="rgb(96,168,218)" stroke="rgb(96,168,218)" stroke-width="1" opacity="1" d="M 60.5 66 L 65.5 72 L 60.5 66 Z " /><path fill="rgb(96,168,218)" stroke="rgb(96,168,218)" stroke-width="1" opacity="1" d="M 418.5 73 L 426.5 82 L 418.5 73 Z " /><path fill="rgb(96,168,218)" stroke="rgb(96,168,218)" stroke-width="1" opacity="1" d="M 71.5 78 L 75.5 83 L 71.5 78 Z " /><path fill="rgb(96,168,218)" stroke="rgb(96,168,218)" stroke-width="1" opacity="1" d="M 429.5 85 L 435.5 92 L 429.5 85 Z " /><path fill="rgb(96,168,218)" stroke="rgb(96,168,218)" stroke-width="1" opacity="1" d="M 80.5 88 L 85.5 94 L 80.5 88 Z " /><path fill="rgb(96,168,218)" stroke="rgb(96,168,218)" stroke-width="1" opacity="1" d="M 438.5 95 L 445.5 103 L 438.5 95 Z " /><path fill="rgb(96,168,218)" stroke="rgb(96,168,218)" stroke-width="1" opacity="1" d="M 90.5 99 L 95.5 105 L 90.5 99 Z " /><path fill="rgb(96,168,218)" stroke="rgb(96,168,218)" stroke-width="1" opacity="1" d="M 448.5 106 L 454.5 113 L 448.5 106 Z " /><path fill="rgb(96,168,218)" stroke="rgb(96,168,218)" stroke-width="1" opacity="1" d="M 100.5 110 L 105.5 116 L 100.5 110 Z " /><path fill="rgb(96,168,218)" stroke="rgb(96,168,218)" stroke-width="1" opacity="1" d="M 457.5 116 L 464.5 124 L 457.5 116 Z " /><path fill="rgb(96,168,218)" stroke="rgb(96,168,218)" stroke-width="1" opacity="1" d="M 110.5 121 L 115.5 127 L 110.5 121 Z " /><path fill="rgb(96,168,218)" stroke="rgb(96,168,218)" stroke-width="1" opacity="1" d="M 467.5 127 L 473.5 134 L 467.5 127 Z " /><path fill="rgb(96,168,218)" stroke="rgb(96,168,218)" stroke-width="1" opacity="1" d="M 367.5 129 L 367 130.5 L 366.5 132 L 366 130.5 L 367.5 129 Z " /><path fill="rgb(96,168,218)" stroke="rgb(96,168,218)" stroke-width="1" opacity="1" d="M 402.5 130 L 404 130.5 L 402 131 L 403 146.5 L 402 146.5 L 401 134 L 398.5 135 L 399.5 133 Q 401.8 133.8 401 131.5 L 402.5 130 Z " /><path fill="rgb(96,168,218)" stroke="rgb(96,168,218)" stroke-width="1" opacity="1" d="M 119.5 131 L 125.5 138 L 119.5 131 Z " /><path fill="rgb(96,168,218)" stroke="rgb(96,168,218)" stroke-width="1" opacity="1" d="M 335.5 133 L 335 134.5 L 335 141.5 L 332.5 156 L 332 149.5 L 334 141.5 L 334 134.5 L 335.5 133 Z " /><path fill="rgb(96,168,218)" stroke="rgb(96,168,218)" stroke-width="1" opacity="1" d="M 397.5 136 L 395 139.5 L 389.5 147 L 391 144.5 L 397.5 136 Z " /><path fill="rgb(96,168,218)" stroke="rgb(96,168,218)" stroke-width="1" opacity="1" d="M 476.5 137 L 483.5 145 L 476.5 137 Z " /><path fill="rgb(96,168,218)" stroke="rgb(96,168,218)" stroke-width="1" opacity="1" d="M 304.5 139 L 305 141.5 L 304 141.5 L 304.5 139 Z " /><path fill="rgb(96,168,218)" stroke="rgb(96,168,218)" stroke-width="1" opacity="1" d="M 341.5 139 L 346 144.5 L 343 142.5 L 341.5 139 Z " /><path fill="rgb(96,168,218)" stroke="rgb(96,168,218)" stroke-width="1" opacity="1" d="M 129.5 142 L 135.5 149 L 129.5 142 Z " /><path fill="rgb(96,168,218)" stroke="rgb(96,168,218)" stroke-width="1" opacity="1" d="M 304.5 143 L 306 146.5 L 303 146.5 L 304.5 143 Z " /><path fill="rgb(96,168,218)" stroke="rgb(96,168,218)" stroke-width="1" opacity="1" d="M 428.5 145 L 431.5 146 L 433 145.5 L 430.5 149 L 431 147.5 Q 431.8 144.9 428.5 146 L 426 147.5 L 428.5 145 Z " /><path fill="rgb(96,168,218)" stroke="rgb(96,168,218)" stroke-width="1" opacity="1" d="M 346.5 146 L 347.5 148 L 346.5 146 Z " /><path fill="rgb(96,168,218)" stroke="rgb(96,168,218)" stroke-width="1" opacity="1" d="M 403.5 148 L 405 161.5 L 404 161.5 L 403.5 148 Z " /><path fill="rgb(96,168,218)" stroke="rgb(96,168,218)" stroke-width="1" opacity="1" d="M 486.5 148 L 492.5 155 L 486.5 148 Z " /><path fill="rgb(96,168,218)" stroke="rgb(96,168,218)" stroke-width="1" opacity="1" d="M 357.5 152 L 358 153.5 L 355.5 158 L 353.5 155 L 356 156 L 357.5 152 Z " /><path fill="rgb(96,168,218)" stroke="rgb(96,168,218)" stroke-width="1" opacity="1" d="M 139.5 153 L 144.5 159 L 139.5 153 Z " /><path fill="rgb(96,168,218)" stroke="rgb(96,168,218)" stroke-width="1" opacity="1" d="M 314.5 153 L 321 158.5 L 316.5 155 L 314.5 153 Z " /><path fill="rgb(96,168,218)" stroke="rgb(96,168,218)" stroke-width="1" opacity="1" d="M 384.5 153 L 382.5 156 L 384.5 153 Z " /><path fill="rgb(96,168,218)" stroke="rgb(96,168,218)" stroke-width="1" opacity="1" d="M 416.5 154 L 413.5 158 L 416.5 154 Z " /><path fill="rgb(96,168,218)" stroke="rgb(96,168,218)" stroke-width="1" opacity="1" d="M 379.5 155 L 381 157.5 L 379 156.5 L 379.5 155 Z " /><path fill="rgb(96,168,218)" stroke="rgb(96,168,218)" stroke-width="1" opacity="1" d="M 331.5 157 L 332 162.5 L 331 162.5 L 331.5 157 Z " /><path fill="rgb(96,168,218)" stroke="rgb(96,168,218)" stroke-width="1" opacity="1" d="M 322.5 159 L 327 162.5 L 325.5 162 L 322.5 159 Z " /><path fill="rgb(96,168,218)" stroke="rgb(96,168,218)" stroke-width="1" opacity="1" d="M 410.5 159 L 407.5 163 L 406 162.5 L 410.5 159 Z " /><path fill="rgb(96,168,218)" stroke="rgb(96,168,218)" stroke-width="1" opacity="1" d="M 496.5 159 L 502.5 166 L 496.5 159 Z " /><path fill="rgb(96,168,218)" stroke="rgb(96,168,218)" stroke-width="1" opacity="1" d="M 150.5 165 L 154.5 170 L 150.5 165 Z " /><path fill="rgb(96,168,218)" stroke="rgb(96,168,218)" stroke-width="1" opacity="1" d="M 277.5 165 L 279 170.5 L 278 170.5 L 277.5 165 Z " /><path fill="rgb(96,168,218)" stroke="rgb(96,168,218)" stroke-width="1" opacity="1" d="M 455.5 166 L 459 167.5 L 457.5 170 L 458 168.5 Q 458.8 165.9 455.5 167 L 454 167.5 L 455.5 166 Z " /><path fill="rgb(96,168,218)" stroke="rgb(96,168,218)" stroke-width="1" opacity="1" d="M 286.5 168 L 292 170.5 L 290.5 171 L 286.5 169 L 286.5 168 Z " /><path fill="rgb(96,168,218)" stroke="rgb(96,168,218)" stroke-width="1" opacity="1" d="M 451.5 168 L 453 168.5 L 446.5 171 L 446.5 170 L 451.5 168 Z " /><path fill="rgb(96,168,218)" stroke="rgb(96,168,218)" stroke-width="1" opacity="1" d="M 504.5 168 L 512.5 177 L 504.5 168 Z " /><path fill="rgb(96,168,218)" stroke="rgb(96,168,218)" stroke-width="1" opacity="1" d="M 160.5 176 L 164.5 181 L 160.5 176 Z " /><path fill="rgb(96,168,218)" stroke="rgb(96,168,218)" stroke-width="1" opacity="1" d="M 431.5 176 L 433 176.5 L 429.5 178 L 429.5 177 L 431.5 176 Z " /><path fill="rgb(96,168,218)" stroke="rgb(96,168,218)" stroke-width="1" opacity="1" d="M 426.5 177 L 427.5 179 L 426.5 177 Z " /><path fill="rgb(96,168,218)" stroke="rgb(96,168,218)" stroke-width="1" opacity="1" d="M 515.5 180 L 521.5 187 L 515.5 180 Z " /><path fill="rgb(96,168,218)" stroke="rgb(96,168,218)" stroke-width="1" opacity="1" d="M 170.5 187 L 174.5 192 L 170.5 187 Z " /><path fill="rgb(96,168,218)" stroke="rgb(96,168,218)" stroke-width="1" opacity="1" d="M 524.5 190 L 531.5 198 L 524.5 190 Z " /><path fill="rgb(96,168,218)" stroke="rgb(96,168,218)" stroke-width="1" opacity="1" d="M 258.5 191 L 261 195.5 L 258 193.5 L 258.5 191 Z " /><path fill="rgb(96,168,218)" stroke="rgb(96,168,218)" stroke-width="1" opacity="1" d="M 262.5 191 L 267 191.5 L 262.5 192 L 262.5 191 Z " /><path fill="rgb(96,168,218)" stroke="rgb(96,168,218)" stroke-width="1" opacity="1" d="M 475.5 191 L 477 191.5 L 474.5 193 L 462.5 194 L 462.5 193 L 468.5 193 L 475.5 191 Z " /><path fill="rgb(96,168,218)" stroke="rgb(96,168,218)" stroke-width="1" opacity="1" d="M 269.5 192 L 281 193.5 L 275.5 194 Q 274.2 191.8 269.5 193 L 269.5 192 Z " /><path fill="rgb(96,168,218)" stroke="rgb(96,168,218)" stroke-width="1" opacity="1" d="M 478.5 192 L 479 193.5 L 478 196 L 474.5 198 L 478 193.5 L 478.5 192 Z " /><path fill="rgb(96,168,218)" stroke="rgb(96,168,218)" stroke-width="1" opacity="1" d="M 288.5 193 L 287.5 195 L 286 194.5 L 288.5 193 Z " /><path fill="rgb(96,168,218)" stroke="rgb(96,168,218)" stroke-width="1" opacity="1" d="M 179.5 197 L 184.5 203 L 179.5 197 Z " /><path fill="rgb(96,168,218)" stroke="rgb(96,168,218)" stroke-width="1" opacity="1" d="M 471.5 201 L 469.5 204 L 471.5 201 Z " /><path fill="rgb(96,168,218)" stroke="rgb(96,168,218)" stroke-width="1" opacity="1" d="M 534.5 201 L 540.5 208 L 534.5 201 Z " /><path fill="rgb(96,168,218)" stroke="rgb(96,168,218)" stroke-width="1" opacity="1" d="M 266.5 203 L 268.5 206 L 266.5 203 Z " /><path fill="rgb(96,168,218)" stroke="rgb(96,168,218)" stroke-width="1" opacity="1" d="M 189.5 208 L 194.5 214 L 189.5 208 Z " /><path fill="rgb(96,168,218)" stroke="rgb(96,168,218)" stroke-width="1" opacity="1" d="M 271.5 209 L 272.5 211 L 271.5 209 Z " /><path fill="rgb(96,168,218)" stroke="rgb(96,168,218)" stroke-width="1" opacity="1" d="M 464.5 210 L 463 212.5 L 459.5 218 L 459 216.5 L 464.5 210 Z " /><path fill="rgb(96,168,218)" stroke="rgb(96,168,218)" stroke-width="1" opacity="1" d="M 543.5 211 L 550.5 219 L 543.5 211 Z " /><path fill="rgb(96,168,218)" stroke="rgb(96,168,218)" stroke-width="1" opacity="1" d="M 273.5 212 Q 276.5 212.5 276 216.5 L 275 216.5 L 273.5 212 Z " /><path fill="rgb(96,168,218)" stroke="rgb(96,168,218)" stroke-width="1" opacity="1" d="M 199.5 219 L 203.5 224 L 199.5 219 Z " /><path fill="rgb(96,168,218)" stroke="rgb(96,168,218)" stroke-width="1" opacity="1" d="M 553.5 222 L 559.5 229 L 553.5 222 Z " /><path fill="rgb(96,168,218)" stroke="rgb(96,168,218)" stroke-width="1" opacity="1" d="M 250.5 225 L 252.5 228 L 250.5 225 Z " /><path fill="rgb(96,168,218)" stroke="rgb(96,168,218)" stroke-width="1" opacity="1" d="M 486.5 226 L 485.5 228 L 486.5 226 Z " /><path fill="rgb(96,168,218)" stroke="rgb(96,168,218)" stroke-width="1" opacity="1" d="M 255.5 229 L 258.5 233 L 255.5 229 Z " /><path fill="rgb(96,168,218)" stroke="rgb(96,168,218)" stroke-width="1" opacity="1" d="M 482.5 229 L 478.5 234 L 476.5 235 L 477.5 233 L 482.5 229 Z " /><path fill="rgb(96,168,218)" stroke="rgb(96,168,218)" stroke-width="1" opacity="1" d="M 209.5 230 L 213.5 235 L 209.5 230 Z " /><path fill="rgb(96,168,218)" stroke="rgb(96,168,218)" stroke-width="1" opacity="1" d="M 562.5 232 L 569.5 240 L 562.5 232 Z " /><path fill="rgb(96,168,218)" stroke="rgb(96,168,218)" stroke-width="1" opacity="1" d="M 260.5 233 L 261.5 235 L 260.5 233 Z " /><path fill="rgb(96,168,218)" stroke="rgb(96,168,218)" stroke-width="1" opacity="1" d="M 269.5 240 L 270.5 242 L 269.5 240 Z " /><path fill="rgb(96,168,218)" stroke="rgb(96,168,218)" stroke-width="1" opacity="1" d="M 468.5 240 L 467.5 242 L 465.5 243 L 466.5 241 L 468.5 240 Z " /><path fill="rgb(96,168,218)" stroke="rgb(96,168,218)" stroke-width="1" opacity="1" d="M 219.5 241 L 223.5 246 L 219.5 241 Z " /><path fill="rgb(96,168,218)" stroke="rgb(96,168,218)" stroke-width="1" opacity="1" d="M 261.5 245 L 263 245.5 L 259.5 247 L 259.5 246 L 261.5 245 Z " /><path fill="rgb(96,168,218)" stroke="rgb(96,168,218)" stroke-width="1" opacity="1" d="M 574.5 245 L 578.5 250 L 574.5 245 Z " /><path fill="rgb(96,168,218)" stroke="rgb(96,168,218)" stroke-width="1" opacity="1" d="M 475.5 246 L 479 247.5 L 477.5 248 L 475.5 246 Z " /><path fill="rgb(96,168,218)" stroke="rgb(96,168,218)" stroke-width="1" opacity="1" d="M 232.5 248 L 239 252.5 L 237.5 253 L 232 250 L 232.5 248 Z " /><path fill="rgb(96,168,218)" stroke="rgb(96,168,218)" stroke-width="1" opacity="1" d="M 229.5 252 L 233.5 257 L 229.5 252 Z " /><path fill="rgb(96,168,218)" stroke="rgb(96,168,218)" stroke-width="1" opacity="1" d="M 490.5 252 L 494 253 L 493.5 255 L 490.5 252 Z " /><path fill="rgb(96,168,218)" stroke="rgb(96,168,218)" stroke-width="1" opacity="1" d="M 241 253 L 243 253.5 L 241 254.5 L 241 253 Z " /><path fill="rgb(96,168,218)" stroke="rgb(96,168,218)" stroke-width="1" opacity="1" d="M 472.5 255 L 475 255.5 L 472.5 256 L 472.5 255 Z " /><path fill="rgb(96,168,218)" stroke="rgb(96,168,218)" stroke-width="1" opacity="1" d="M 583.5 255 L 588.5 261 L 583.5 255 Z " /><path fill="rgb(96,168,218)" stroke="rgb(96,168,218)" stroke-width="1" opacity="1" d="M 239.5 263 L 243.5 268 L 239.5 263 Z " /><path fill="rgb(96,168,218)" stroke="rgb(96,168,218)" stroke-width="1" opacity="1" d="M 592.5 265 L 598.5 272 L 592.5 265 Z " /><path fill="rgb(96,168,218)" stroke="rgb(96,168,218)" stroke-width="1" opacity="1" d="M 248.5 273 L 253.5 279 L 248.5 273 Z " /><path fill="rgb(96,168,218)" stroke="rgb(96,168,218)" stroke-width="1" opacity="1" d="M 602.5 276 L 607.5 282 L 602.5 276 Z " /><path fill="rgb(96,168,218)" stroke="rgb(96,168,218)" stroke-width="1" opacity="1" d="M 258.5 284 L 263.5 290 L 258.5 284 Z " /><path fill="rgb(96,168,218)" stroke="rgb(96,168,218)" stroke-width="1" opacity="1" d="M 612.5 287 L 617.5 293 L 612.5 287 Z " /><path fill="rgb(96,168,218)" stroke="rgb(96,168,218)" stroke-width="1" opacity="1" d="M 268.5 295 L 272.5 300 L 268.5 295 Z " /><path fill="rgb(96,168,218)" stroke="rgb(96,168,218)" stroke-width="1" opacity="1" d="M 621.5 297 L 626.5 303 L 621.5 297 Z " /><path fill="rgb(96,168,218)" stroke="rgb(96,168,218)" stroke-width="1" opacity="1" d="M 278.5 306 L 282.5 311 L 278.5 306 Z " /><path fill="rgb(96,168,218)" stroke="rgb(96,168,218)" stroke-width="1" opacity="1" d="M 631.5 308 L 636.5 314 L 631.5 308 Z " /><path fill="rgb(96,168,218)" stroke="rgb(96,168,218)" stroke-width="1" opacity="1" d="M 288.5 317 L 292.5 322 L 288.5 317 Z " /><path fill="rgb(96,168,218)" stroke="rgb(96,168,218)" stroke-width="1" opacity="1" d="M 641.5 319 L 645.5 324 L 641.5 319 Z " /><path fill="rgb(96,168,218)" stroke="rgb(96,168,218)" stroke-width="1" opacity="1" d="M 298.5 328 L 302.5 333 L 298.5 328 Z " /><path fill="rgb(96,168,218)" stroke="rgb(96,168,218)" stroke-width="1" opacity="1" d="M 650.5 329 L 655.5 335 L 650.5 329 Z " /><path fill="rgb(96,168,218)" stroke="rgb(96,168,218)" stroke-width="1" opacity="1" d="M 308.5 339 L 312.5 344 L 308.5 339 Z " /><path fill="rgb(96,168,218)" stroke="rgb(96,168,218)" stroke-width="1" opacity="1" d="M 660.5 340 L 664.5 345 L 660.5 340 Z " /><path fill="rgb(96,168,218)" stroke="rgb(96,168,218)" stroke-width="1" opacity="1" d="M 317.5 349 L 322.5 355 L 317.5 349 Z " /><path fill="rgb(96,168,218)" stroke="rgb(96,168,218)" stroke-width="1" opacity="1" d="M 669.5 350 L 674.5 356 L 669.5 350 Z " /><path fill="rgb(96,168,218)" stroke="rgb(96,168,218)" stroke-width="1" opacity="1" d="M 326.5 359 L 331.5 365 L 326.5 359 Z " /><path fill="rgb(96,168,218)" stroke="rgb(96,168,218)" stroke-width="1" opacity="1" d="M 679.5 361 L 684.5 367 L 679.5 361 Z " /><path fill="rgb(96,168,218)" stroke="rgb(96,168,218)" stroke-width="1" opacity="1" d="M 336.5 370 L 341.5 376 L 336.5 370 Z " /><path fill="rgb(96,168,218)" stroke="rgb(96,168,218)" stroke-width="1" opacity="1" d="M 688.5 371 L 693.5 377 L 688.5 371 Z " /><path fill="rgb(96,168,218)" stroke="rgb(96,168,218)" stroke-width="1" opacity="1" d="M 346.5 381 L 351.5 387 L 346.5 381 Z " /><path fill="rgb(96,168,218)" stroke="rgb(96,168,218)" stroke-width="1" opacity="1" d="M 698.5 382 L 703.5 388 L 698.5 382 Z " /><path fill="rgb(96,168,218)" stroke="rgb(96,168,218)" stroke-width="1" opacity="1" d="M 356.5 392 L 361.5 398 L 356.5 392 Z " /><path fill="rgb(96,168,218)" stroke="rgb(96,168,218)" stroke-width="1" opacity="1" d="M 708.5 393 L 712.5 398 L 708.5 393 Z " /><path fill="rgb(96,168,218)" stroke="rgb(96,168,218)" stroke-width="1" opacity="1" d="M 714.5 400 L 718.5 405 L 714.5 400 Z " /><path fill="rgb(96,168,218)" stroke="rgb(96,168,218)" stroke-width="1" opacity="1" d="M 367.5 404 L 368.5 406 L 367.5 404 Z " /><path fill="rgb(69,158,168)" stroke="rgb(69,158,168)" stroke-width="1" opacity="1" d="M 0.5 0 L 1.5 2 L 0.5 0 Z " /><path fill="rgb(69,158,168)" stroke="rgb(69,158,168)" stroke-width="1" opacity="1" d="M 6.5 7 L 11.5 13 L 6.5 7 Z " /><path fill="rgb(69,158,168)" stroke="rgb(69,158,168)" stroke-width="1" opacity="1" d="M 16.5 18 L 20.5 23 L 16.5 18 Z " /><path fill="rgb(69,158,168)" stroke="rgb(69,158,168)" stroke-width="1" opacity="1" d="M 26.5 29 L 30.5 34 L 26.5 29 Z " /><path fill="rgb(69,158,168)" stroke="rgb(69,158,168)" stroke-width="1" opacity="1" d="M 36.5 40 L 40.5 45 L 36.5 40 Z " /><path fill="rgb(69,158,168)" stroke="rgb(69,158,168)" stroke-width="1" opacity="1" d="M 46.5 51 L 50.5 56 L 46.5 51 Z " /><path fill="rgb(69,158,168)" stroke="rgb(69,158,168)" stroke-width="1" opacity="1" d="M 56.5 62 L 59.5 66 L 56.5 62 Z " /><path fill="rgb(69,158,168)" stroke="rgb(69,158,168)" stroke-width="1" opacity="1" d="M 66.5 73 L 70.5 78 L 66.5 73 Z " /><path fill="rgb(69,158,168)" stroke="rgb(69,158,168)" stroke-width="1" opacity="1" d="M 75.5 83 L 79.5 88 L 75.5 83 Z " /><path fill="rgb(69,158,168)" stroke="rgb(69,158,168)" stroke-width="1" opacity="1" d="M 85.5 94 L 89.5 99 L 85.5 94 Z " /><path fill="rgb(69,158,168)" stroke="rgb(69,158,168)" stroke-width="1" opacity="1" d="M 95.5 105 L 99.5 110 L 95.5 105 Z " /><path fill="rgb(69,158,168)" stroke="rgb(69,158,168)" stroke-width="1" opacity="1" d="M 105.5 116 L 109.5 121 L 105.5 116 Z " /><path fill="rgb(69,158,168)" stroke="rgb(69,158,168)" stroke-width="1" opacity="1" d="M 115.5 127 L 118.5 131 L 115.5 127 Z " /><path fill="rgb(69,158,168)" stroke="rgb(69,158,168)" stroke-width="1" opacity="1" d="M 336.5 133 L 337.5 135 L 336.5 133 Z " /><path fill="rgb(69,158,168)" stroke="rgb(69,158,168)" stroke-width="1" opacity="1" d="M 339.5 137 L 340.5 139 L 339.5 137 Z " /><path fill="rgb(69,158,168)" stroke="rgb(69,158,168)" stroke-width="1" opacity="1" d="M 125.5 138 L 128.5 142 L 125.5 138 Z " /><path fill="rgb(69,158,168)" stroke="rgb(69,158,168)" stroke-width="1" opacity="1" d="M 306.5 147 L 307.5 149 L 306.5 147 Z " /><path fill="rgb(69,158,168)" stroke="rgb(69,158,168)" stroke-width="1" opacity="1" d="M 389.5 147 L 388.5 149 L 389.5 147 Z " /><path fill="rgb(69,158,168)" stroke="rgb(69,158,168)" stroke-width="1" opacity="1" d="M 135.5 149 L 138.5 153 L 135.5 149 Z " /><path fill="rgb(69,158,168)" stroke="rgb(69,158,168)" stroke-width="1" opacity="1" d="M 377.5 151 L 379 154.5 L 378 154.5 L 377.5 151 Z " /><path fill="rgb(69,158,168)" stroke="rgb(69,158,168)" stroke-width="1" opacity="1" d="M 418.5 153 L 417.5 155 L 418.5 153 Z " /><path fill="rgb(69,158,168)" stroke="rgb(69,158,168)" stroke-width="1" opacity="1" d="M 144.5 159 L 149.5 165 L 144.5 159 Z " /><path fill="rgb(69,158,168)" stroke="rgb(69,158,168)" stroke-width="1" opacity="1" d="M 154.5 170 L 159.5 176 L 154.5 170 Z " /><path fill="rgb(69,158,168)" stroke="rgb(69,158,168)" stroke-width="1" opacity="1" d="M 164.5 181 L 169.5 187 L 164.5 181 Z " /><path fill="rgb(69,158,168)" stroke="rgb(69,158,168)" stroke-width="1" opacity="1" d="M 174.5 192 L 178.5 197 L 174.5 192 Z " /><path fill="rgb(69,158,168)" stroke="rgb(69,158,168)" stroke-width="1" opacity="1" d="M 282.5 194 L 286 194.5 L 282.5 195 L 282.5 194 Z " /><path fill="rgb(69,158,168)" stroke="rgb(69,158,168)" stroke-width="1" opacity="1" d="M 456.5 194 L 461 194.5 L 456.5 195 L 456.5 194 Z " /><path fill="rgb(69,158,168)" stroke="rgb(69,158,168)" stroke-width="1" opacity="1" d="M 473.5 198 L 472.5 200 L 473.5 198 Z " /><path fill="rgb(69,158,168)" stroke="rgb(69,158,168)" stroke-width="1" opacity="1" d="M 264.5 200 L 265.5 202 L 264.5 200 Z " /><path fill="rgb(69,158,168)" stroke="rgb(69,158,168)" stroke-width="1" opacity="1" d="M 184.5 203 L 188.5 208 L 184.5 203 Z " /><path fill="rgb(69,158,168)" stroke="rgb(69,158,168)" stroke-width="1" opacity="1" d="M 194.5 214 L 198.5 219 L 194.5 214 Z " /><path fill="rgb(69,158,168)" stroke="rgb(69,158,168)" stroke-width="1" opacity="1" d="M 270.5 217 L 274 217.5 L 270.5 218 L 270.5 217 Z " /><path fill="rgb(69,158,168)" stroke="rgb(69,158,168)" stroke-width="1" opacity="1" d="M 203.5 224 L 208.5 230 L 203.5 224 Z " /><path fill="rgb(69,158,168)" stroke="rgb(69,158,168)" stroke-width="1" opacity="1" d="M 213.5 235 L 218.5 241 L 213.5 235 Z " /><path fill="rgb(69,158,168)" stroke="rgb(69,158,168)" stroke-width="1" opacity="1" d="M 470.5 238 L 469.5 240 L 470.5 238 Z " /><path fill="rgb(69,158,168)" stroke="rgb(69,158,168)" stroke-width="1" opacity="1" d="M 223.5 246 L 228.5 252 L 223.5 246 Z " /><path fill="rgb(69,158,168)" stroke="rgb(69,158,168)" stroke-width="1" opacity="1" d="M 233.5 257 L 238.5 263 L 233.5 257 Z " /><path fill="rgb(69,158,168)" stroke="rgb(69,158,168)" stroke-width="1" opacity="1" d="M 243.5 268 L 247.5 273 L 243.5 268 Z " /><path fill="rgb(69,158,168)" stroke="rgb(69,158,168)" stroke-width="1" opacity="1" d="M 253.5 279 L 257.5 284 L 253.5 279 Z " /><path fill="rgb(69,158,168)" stroke="rgb(69,158,168)" stroke-width="1" opacity="1" d="M 263.5 290 L 267.5 295 L 263.5 290 Z " /><path fill="rgb(69,158,168)" stroke="rgb(69,158,168)" stroke-width="1" opacity="1" d="M 272.5 300 L 277.5 306 L 272.5 300 Z " /><path fill="rgb(69,158,168)" stroke="rgb(69,158,168)" stroke-width="1" opacity="1" d="M 282.5 311 L 287.5 317 L 282.5 311 Z " /><path fill="rgb(69,158,168)" stroke="rgb(69,158,168)" stroke-width="1" opacity="1" d="M 292.5 322 L 297.5 328 L 292.5 322 Z " /><path fill="rgb(69,158,168)" stroke="rgb(69,158,168)" stroke-width="1" opacity="1" d="M 302.5 333 L 307.5 339 L 302.5 333 Z " /><path fill="rgb(69,158,168)" stroke="rgb(69,158,168)" stroke-width="1" opacity="1" d="M 312.5 344 L 316.5 349 L 312.5 344 Z " /><path fill="rgb(69,158,168)" stroke="rgb(69,158,168)" stroke-width="1" opacity="1" d="M 322.5 355 L 325.5 359 L 322.5 355 Z " /><path fill="rgb(69,158,168)" stroke="rgb(69,158,168)" stroke-width="1" opacity="1" d="M 332.5 366 L 335.5 370 L 332.5 366 Z " /><path fill="rgb(69,158,168)" stroke="rgb(69,158,168)" stroke-width="1" opacity="1" d="M 341.5 376 L 345.5 381 L 341.5 376 Z " /><path fill="rgb(69,158,168)" stroke="rgb(69,158,168)" stroke-width="1" opacity="1" d="M 351.5 387 L 355.5 392 L 351.5 387 Z " /><path fill="rgb(69,158,168)" stroke="rgb(69,158,168)" stroke-width="1" opacity="1" d="M 361.5 398 L 366.5 404 L 361.5 398 Z " /><path fill="rgb(42,175,154)" stroke="rgb(42,175,154)" stroke-width="1" opacity="1" d="M 353.5 0 L 720 0 L 720 404.5 L 714 399.5 L 370 19.5 L 353.5 0 Z " /><path fill="rgb(174,48,75)" stroke="rgb(174,48,75)" stroke-width="1" opacity="1" d="M 0.5 1 L 5.5 7 L 0.5 1 Z " /><path fill="rgb(174,48,75)" stroke="rgb(174,48,75)" stroke-width="1" opacity="1" d="M 6.5 8 L 15.5 18 L 6.5 8 Z " /><path fill="rgb(174,48,75)" stroke="rgb(174,48,75)" stroke-width="1" opacity="1" d="M 16.5 19 L 25.5 29 L 16.5 19 Z " /><path fill="rgb(174,48,75)" stroke="rgb(174,48,75)" stroke-width="1" opacity="1" d="M 26.5 30 L 35.5 40 L 26.5 30 Z " /><path fill="rgb(174,48,75)" stroke="rgb(174,48,75)" stroke-width="1" opacity="1" d="M 36.5 41 L 45.5 51 L 36.5 41 Z " /><path fill="rgb(174,48,75)" stroke="rgb(174,48,75)" stroke-width="1" opacity="1" d="M 46.5 52 L 55.5 62 L 46.5 52 Z " /><path fill="rgb(174,48,75)" stroke="rgb(174,48,75)" stroke-width="1" opacity="1" d="M 56.5 63 L 65.5 73 L 56.5 63 Z " /><path fill="rgb(174,48,75)" stroke="rgb(174,48,75)" stroke-width="1" opacity="1" d="M 66.5 74 L 74.5 83 L 66.5 74 Z " /><path fill="rgb(174,48,75)" stroke="rgb(174,48,75)" stroke-width="1" opacity="1" d="M 75.5 84 L 84.5 94 L 75.5 84 Z " /><path fill="rgb(174,48,75)" stroke="rgb(174,48,75)" stroke-width="1" opacity="1" d="M 85.5 95 L 94.5 105 L 85.5 95 Z " /><path fill="rgb(174,48,75)" stroke="rgb(174,48,75)" stroke-width="1" opacity="1" d="M 95.5 106 L 104.5 116 L 95.5 106 Z " /><path fill="rgb(174,48,75)" stroke="rgb(174,48,75)" stroke-width="1" opacity="1" d="M 105.5 117 L 114.5 127 L 105.5 117 Z " /><path fill="rgb(174,48,75)" stroke="rgb(174,48,75)" stroke-width="1" opacity="1" d="M 115.5 128 L 124.5 138 L 115.5 128 Z " /><path fill="rgb(174,48,75)" stroke="rgb(174,48,75)" stroke-width="1" opacity="1" d="M 125.5 139 L 134.5 149 L 125.5 139 Z " /><path fill="rgb(174,48,75)" stroke="rgb(174,48,75)" stroke-width="1" opacity="1" d="M 135.5 150 L 143.5 159 L 135.5 150 Z " /><path fill="rgb(174,48,75)" stroke="rgb(174,48,75)" stroke-width="1" opacity="1" d="M 144.5 160 L 153.5 170 L 144.5 160 Z " /><path fill="rgb(174,48,75)" stroke="rgb(174,48,75)" stroke-width="1" opacity="1" d="M 154.5 171 L 163.5 181 L 154.5 171 Z " /><path fill="rgb(174,48,75)" stroke="rgb(174,48,75)" stroke-width="1" opacity="1" d="M 164.5 182 L 173.5 192 L 164.5 182 Z " /><path fill="rgb(174,48,75)" stroke="rgb(174,48,75)" stroke-width="1" opacity="1" d="M 174.5 193 L 183.5 203 L 174.5 193 Z " /><path fill="rgb(174,48,75)" stroke="rgb(174,48,75)" stroke-width="1" opacity="1" d="M 184.5 204 L 193.5 214 L 184.5 204 Z " /><path fill="rgb(174,48,75)" stroke="rgb(174,48,75)" stroke-width="1" opacity="1" d="M 194.5 215 L 202.5 224 L 194.5 215 Z " /><path fill="rgb(174,48,75)" stroke="rgb(174,48,75)" stroke-width="1" opacity="1" d="M 203.5 225 L 212.5 235 L 203.5 225 Z " /><path fill="rgb(174,48,75)" stroke="rgb(174,48,75)" stroke-width="1" opacity="1" d="M 213.5 236 L 222.5 246 L 213.5 236 Z " /><path fill="rgb(174,48,75)" stroke="rgb(174,48,75)" stroke-width="1" opacity="1" d="M 223.5 247 L 232.5 257 L 223.5 247 Z " /><path fill="rgb(174,48,75)" stroke="rgb(174,48,75)" stroke-width="1" opacity="1" d="M 233.5 258 L 242.5 268 L 233.5 258 Z " /><path fill="rgb(174,48,75)" stroke="rgb(174,48,75)" stroke-width="1" opacity="1" d="M 243.5 269 L 252.5 279 L 243.5 269 Z " /><path fill="rgb(174,48,75)" stroke="rgb(174,48,75)" stroke-width="1" opacity="1" d="M 253.5 280 L 262.5 290 L 253.5 280 Z " /><path fill="rgb(174,48,75)" stroke="rgb(174,48,75)" stroke-width="1" opacity="1" d="M 263.5 291 L 271.5 300 L 263.5 291 Z " /><path fill="rgb(174,48,75)" stroke="rgb(174,48,75)" stroke-width="1" opacity="1" d="M 272.5 301 L 281.5 311 L 272.5 301 Z " /><path fill="rgb(174,48,75)" stroke="rgb(174,48,75)" stroke-width="1" opacity="1" d="M 282.5 312 L 291.5 322 L 282.5 312 Z " /><path fill="rgb(174,48,75)" stroke="rgb(174,48,75)" stroke-width="1" opacity="1" d="M 292.5 323 L 301.5 333 L 292.5 323 Z " /><path fill="rgb(174,48,75)" stroke="rgb(174,48,75)" stroke-width="1" opacity="1" d="M 302.5 334 L 311.5 344 L 302.5 334 Z " /><path fill="rgb(174,48,75)" stroke="rgb(174,48,75)" stroke-width="1" opacity="1" d="M 312.5 345 L 321.5 355 L 312.5 345 Z " /><path fill="rgb(174,48,75)" stroke="rgb(174,48,75)" stroke-width="1" opacity="1" d="M 322.5 356 L 331.5 366 L 322.5 356 Z " /><path fill="rgb(174,48,75)" stroke="rgb(174,48,75)" stroke-width="1" opacity="1" d="M 332.5 367 L 340.5 376 L 332.5 367 Z " /><path fill="rgb(174,48,75)" stroke="rgb(174,48,75)" stroke-width="1" opacity="1" d="M 341.5 377 L 350.5 387 L 341.5 377 Z " /><path fill="rgb(174,48,75)" stroke="rgb(174,48,75)" stroke-width="1" opacity="1" d="M 351.5 388 L 360.5 398 L 351.5 388 Z " /><path fill="rgb(174,48,75)" stroke="rgb(174,48,75)" stroke-width="1" opacity="1" d="M 361.5 399 L 367.5 406 L 361.5 399 Z " /><path fill="rgb(86,174,246)" stroke="rgb(86,174,246)" stroke-width="1" opacity="1" d="M 1.5 0 L 351.5 0 L 363 11.5 L 719 405.5 L 369.5 406 L 7 7.5 L 1.5 0 Z M 368 129 L 356 156 L 353 155 Q 354 152 351 153 L 338 135 Q 339 132 336 133 L 334 135 L 331 165 L 310 150 Q 305 149 305 143 L 303 147 L 307 176 L 277 165 L 277 169 L 288 194 L 289 195 L 275 192 L 258 191 L 258 194 L 275 215 L 275 217 L 261 218 L 253 220 L 246 220 L 246 223 L 267 238 L 270 243 Q 257 245 248 252 L 241 253 L 242 255 L 448 255 L 450 255 Q 455 254 457 256 Q 458 254 464 255 L 468 255 L 473 256 L 481 255 L 483 255 L 494 255 L 494 253 L 489 252 L 485 249 L 482 249 L 466 243 L 479 234 L 485 228 L 490 226 L 491 224 L 490 222 L 460 218 L 472 201 L 478 196 L 479 192 L 477 191 L 446 196 L 454 177 L 459 169 L 458 166 L 428 178 L 426 179 L 427 178 L 430 150 L 433 146 L 431 145 L 429 145 L 406 163 L 403 141 L 402 140 L 402 132 L 401 132 Q 402 134 400 133 L 382 156 Q 383 158 380 157 L 370 134 L 370 131 L 368 129 Z M 305 139 L 304 142 L 305 142 L 305 139 Z M 233 248 Q 231 251 234 250 L 233 248 Z M 235 250 L 236 252 L 237 252 L 235 250 Z " /><path fill="rgb(190,27,46)" stroke="rgb(190,27,46)" stroke-width="1" opacity="1" d="M 0.5 2 L 367 405.5 L 0 406 L 0.5 2 Z " /><path fill="rgb(212,180,90)" stroke="rgb(212,180,90)" stroke-width="1" opacity="1" d="M 368.5 129 L 370 131.5 L 370 133.5 L 377 149.5 L 377 152.5 L 380.5 158 Q 382.8 158.8 382 156.5 L 399 134 Q 402.5 132.9 401 140.5 L 402 141.5 L 404 161.5 L 405.5 164 L 422.5 150 L 428.5 146 L 431 146 L 430 148.5 L 427 176.5 L 426 179 L 458 167 L 446 196 L 449.5 195 L 468.5 194 L 476.5 192 L 478 193.5 L 472 199.5 L 458 217.5 L 475.5 221 L 490 222 L 488.5 225 L 465 242.5 Q 472.5 247.5 483.5 249 L 493 254.5 L 242.5 255 L 243.5 253 L 272 241.5 L 249.5 224 L 246 223 L 246 220 L 254.5 220 L 263.5 218 L 273.5 218 L 277 216.5 L 259 193.5 L 259 191 L 267.5 193 L 289 195 L 278 165.5 L 279.5 166 L 307 177 L 303 147.5 Q 305.2 143.7 307.5 149 L 330.5 166 L 332 162.5 L 335 134 L 339 136.5 L 355.5 158 L 368.5 129 Z " /></svg>