<svg width="1730" height="1150" version="1.1" xmlns="http://www.w3.org/2000/svg" desc="Created with imagetracer.js version 1.2.6" ><path fill="rgb(19,135,189)" stroke="rgb(19,135,189)" stroke-width="1" opacity="1" d="M 1 0 L 4 0.5 L 4 1129.5 Q 6.3 1130.8 5 1135.5 L 4 1136.5 L 4 1145.5 L 5 1150 L 1 1149.5 L 1 0 Z " /><path fill="rgb(19,135,189)" stroke="rgb(19,135,189)" stroke-width="1" opacity="1" d="M 1728.5 0 L 1729 1149.5 L 1728 1149.5 L 1728.5 0 Z " /><path fill="rgb(19,135,189)" stroke="rgb(19,135,189)" stroke-width="1" opacity="1" d="M 861.5 143 Q 866.8 141.8 868 144.5 L 869 149.5 L 874 157.5 L 874 163.5 L 877 167.5 L 876.5 169 Q 879.1 168.2 878 171.5 Q 881.7 174.9 881 181 L 883 181 L 883 184 Q 885.7 182.9 885 185.5 L 886 188.5 L 885 189.5 L 889.5 194 L 896 196 Q 894.7 199.3 899.5 198 L 908.5 203 Q 915.8 201.8 918 205.5 Q 917.2 208.1 920.5 207 L 924.5 210 L 934.5 213 L 938 216.5 L 935.5 220 L 926 223.5 L 928 226.5 L 926 227.5 Q 927.7 222.7 923.5 224 L 918 226.5 L 916.5 229 L 906.5 231 Q 903.7 235.2 897.5 236 L 896 235.5 Q 896.8 238.1 893.5 237 L 885 241.5 L 885 246.5 L 883 250 Q 879.3 248.7 881 254.5 L 878 263.5 L 874 267.5 Q 873.6 277.1 869 282.5 L 869 287 L 862.5 289 L 860 288 L 860 284.5 L 854 274.5 Q 854.9 267.1 851 264.5 L 851.5 263 L 849 261.5 L 847 251.5 L 843 246.5 Q 844.3 241.3 841.5 240 L 826.5 235 L 814.5 229 L 811.5 231 L 811.5 230 L 813 229.5 L 810 227.5 L 809 224 L 837.5 235 L 844 239.5 L 863.5 286 L 868 278.5 L 883 240.5 L 886.5 237 L 935 216.5 L 927.5 212 L 907.5 205 L 885 194.5 L 867 149.5 L 863.5 144 L 848 179.5 L 845 189.5 L 839.5 197 L 824.5 202 L 792 216.5 L 808 223 Q 809.3 226 805.5 225 L 800.5 222 L 798.5 223 L 789 217.5 L 791.5 214 Q 796 209.8 804 210 Q 802.8 207 806.5 208 L 810 207 L 812.5 203 L 819.5 203 L 825.5 199 L 832 198 Q 830.9 195.3 833.5 196 L 842 190.5 Q 841.5 182.5 845.5 179 Q 848.5 179.9 847 175.5 L 851 167.5 L 851 162.5 L 859 150.5 L 859 148.5 Q 858.3 143.8 861.5 143 Z " /><path fill="rgb(19,135,189)" stroke="rgb(19,135,189)" stroke-width="1" opacity="1" d="M 852 144 Q 854.7 142.9 854 145.5 L 852 146.5 L 852 144 Z " /><path fill="rgb(19,135,189)" stroke="rgb(19,135,189)" stroke-width="1" opacity="1" d="M 874 144 L 877 145.5 L 875.5 149 Q 873 147.8 874 144 Z " /><path fill="rgb(19,135,189)" stroke="rgb(19,135,189)" stroke-width="1" opacity="1" d="M 863.5 161 L 864.5 163 L 863.5 161 Z " /><path fill="rgb(19,135,189)" stroke="rgb(19,135,189)" stroke-width="1" opacity="1" d="M 836 187 Q 839.7 185.8 838 191 Q 834.3 192.2 836 187 Z " /><path fill="rgb(19,135,189)" stroke="rgb(19,135,189)" stroke-width="1" opacity="1" d="M 890.5 188 L 892 190.5 L 890 191 L 890.5 188 Z " /><path fill="rgb(19,135,189)" stroke="rgb(19,135,189)" stroke-width="1" opacity="1" d="M 806 197 L 810 197 L 810 198.5 L 806 200 L 806 197 Z " /><path fill="rgb(19,135,189)" stroke="rgb(19,135,189)" stroke-width="1" opacity="1" d="M 918 197 Q 922.5 195.5 921 200 Q 916.5 201.5 918 197 Z " /><path fill="rgb(19,135,189)" stroke="rgb(19,135,189)" stroke-width="1" opacity="1" d="M 808.5 201 L 811 201.5 L 808.5 202 L 808.5 201 Z " /><path fill="rgb(19,135,189)" stroke="rgb(19,135,189)" stroke-width="1" opacity="1" d="M 916.5 215 L 917.5 217 L 916.5 215 Z " /><path fill="rgb(19,135,189)" stroke="rgb(19,135,189)" stroke-width="1" opacity="1" d="M 785.5 217 L 788 217.5 L 784.5 219 L 785.5 217 Z " /><path fill="rgb(19,135,189)" stroke="rgb(19,135,189)" stroke-width="1" opacity="1" d="M 848.5 232 L 850 234.5 L 848 233.5 L 848.5 232 Z " /><path fill="rgb(19,135,189)" stroke="rgb(19,135,189)" stroke-width="1" opacity="1" d="M 808.5 233 Q 810.8 232.3 810 234.5 L 808.5 233 Z " /><path fill="rgb(19,135,189)" stroke="rgb(19,135,189)" stroke-width="1" opacity="1" d="M 919.5 233 L 918.5 235 L 919.5 233 Z " /><path fill="rgb(19,135,189)" stroke="rgb(19,135,189)" stroke-width="1" opacity="1" d="M 903.5 236 L 904 238 L 908 238.5 L 904.5 240 Q 902 239 903.5 236 Z " /><path fill="rgb(19,135,189)" stroke="rgb(19,135,189)" stroke-width="1" opacity="1" d="M 824.5 237 L 828 239.5 L 825.5 240 L 823.5 240 Q 819.8 241 821 238 L 824.5 237 Z " /><path fill="rgb(19,135,189)" stroke="rgb(19,135,189)" stroke-width="1" opacity="1" d="M 836.5 240 Q 839.3 241.3 838 246.5 L 836 247.5 L 834 241.5 L 836.5 240 Z " /><path fill="rgb(19,135,189)" stroke="rgb(19,135,189)" stroke-width="1" opacity="1" d="M 890 241 L 892 241 L 892 246 Q 889.3 247.1 890 244.5 L 890 242.5 L 890 241 Z " /><path fill="rgb(19,135,189)" stroke="rgb(19,135,189)" stroke-width="1" opacity="1" d="M 879.5 268 L 880 272 Q 877 273.3 878 269.5 L 879.5 268 Z " /><path fill="rgb(19,135,189)" stroke="rgb(19,135,189)" stroke-width="1" opacity="1" d="M 852 284 L 855 285.5 Q 856.1 289.7 852 288 L 852 284 Z " /><path fill="rgb(19,135,189)" stroke="rgb(19,135,189)" stroke-width="1" opacity="1" d="M 873 285 L 876 286.5 L 873 288 L 873 285 Z " /><path fill="rgb(19,135,189)" stroke="rgb(19,135,189)" stroke-width="1" opacity="1" d="M 583.5 448 L 590 463.5 L 590 467.5 L 593 473.5 L 593 479 L 597 481.5 L 599 490 Q 601.7 488.9 601 491.5 L 604 497.5 L 603 500.5 Q 604 503 608.5 502 L 615 506.5 Q 614.1 509.9 619.5 508 L 621.5 508 L 623 508.5 L 622 511 L 626.5 511 L 633.5 515 L 639.5 516 L 641.5 518 L 652.5 522 L 655 524.5 Q 656.5 528.9 653.5 528 L 648.5 529 L 643.5 533 L 640 533 Q 641.1 535.7 638.5 535 L 638.5 536 Q 641.1 535.3 640 538 Q 635.8 539 636.5 536 L 631.5 536 L 628.5 541 L 624.5 540 L 613.5 545 L 608 545 L 605.5 549 Q 603.3 548.3 604 550.5 L 604 552.5 Q 604.5 556.5 601.5 557 Q 599.3 556.3 600 558.5 L 599 561 L 597 561.5 L 597 563.5 L 595 571 Q 592.3 569.9 593 572.5 L 591 581.5 L 582.5 601 L 579 599.5 L 576 595.5 L 575 587.5 L 572 584.5 L 570 575 Q 567.3 576.1 568 573.5 L 563 566.5 Q 563.6 559.2 561 556 Q 557 557.4 559 550.5 L 553 546.5 Q 553.8 543.9 550.5 545 L 544.5 543 L 542.5 544 L 534.5 540 L 530.5 536 L 522.5 535 L 519.5 532 L 512 532 L 513 529.5 L 506 527.5 L 506 525.5 L 507.5 522 L 511.5 521 Q 513 523.5 514.5 520 L 524.5 515 L 526.5 516 L 534.5 512 L 538.5 508 Q 543.3 509.2 544.5 507 L 546.5 507 Q 552.8 506.3 555.5 502 L 559 502 L 559 495.5 L 566 480.5 L 565 477.5 L 570 472.5 Q 570 466 573.5 463 Q 576.3 463.6 575 457.5 L 579.5 450 Q 584 451.3 583.5 448 Z M 580 453 L 561 499 L 560 504 L 513 523 L 510 526 L 527 533 Q 529 532 528 535 L 530 534 L 559 546 L 562 550 L 564 558 L 581 596 L 584 591 L 601 547 L 652 526 L 645 521 L 602 504 L 601 499 L 590 475 L 591 473 L 589 472 L 582 456 Q 583 452 580 453 Z " /><path fill="rgb(19,135,189)" stroke="rgb(19,135,189)" stroke-width="1" opacity="1" d="M 870.5 448 Q 873.8 446.9 873 449.5 L 871.5 452 L 870.5 449 L 869 449.5 L 870.5 448 Z " /><path fill="rgb(19,135,189)" stroke="rgb(19,135,189)" stroke-width="1" opacity="1" d="M 860.5 451 L 867.5 451 L 868 452.5 L 871.5 463 L 874 459 Q 878.9 457.4 877 463 L 873 464 L 873 467.5 L 877.5 478 L 879 477.5 L 878 480.5 L 884 490.5 L 885 496 Q 887.7 494.9 887 497.5 L 887 499.5 Q 886.3 501.8 888.5 501 L 897.5 507 L 903.5 508 L 906.5 511 L 920 514 Q 918.9 516.7 921.5 516 L 923.5 517 L 925.5 516 L 925 517.5 L 925.5 519 L 927.5 518 Q 929 520.5 934.5 519 L 938 522.5 Q 939.3 528.6 936.5 528 L 935.5 529 L 929 529 L 927.5 532 L 924.5 532 L 913.5 538 L 909 538 Q 910.3 541.3 905.5 540 L 894.5 545 L 887 550.5 L 878 565.5 L 876 575.5 L 874 577.5 L 869 591.5 L 870 594.5 L 867.5 598 L 861.5 599 L 859 596.5 L 857 586.5 L 851 575.5 L 849 566.5 L 847 564.5 L 847 560 Q 842.9 561.7 844 557.5 L 838.5 548 L 831 545 Q 832.4 541.3 826.5 543 L 821.5 540 L 819.5 541 L 818.5 538 L 813.5 539 L 810.5 536 L 799 530.5 Q 799.5 527.5 792.5 529 L 788 525.5 Q 786.9 522.2 789.5 523 Q 794 519 802 518.5 L 800 515 L 803.5 517 L 810 517 L 811 514.5 L 806 514 Q 804.6 510 811.5 512 L 814.5 514 Q 816.9 510.2 823 511 L 824.5 508 L 830.5 507 L 840 502 L 841 498.5 L 840 497.5 L 843 494.5 L 844 489.5 L 850 480.5 L 849 477.5 L 855 467.5 L 855 462.5 L 860.5 451 Z M 864 454 L 858 465 L 843 503 L 837 507 L 792 526 L 842 546 L 845 551 L 864 595 Q 871 583 875 569 L 877 567 L 877 564 L 883 550 L 891 544 L 935 526 L 885 504 L 871 468 L 865 456 Q 866 453 864 454 Z " /><path fill="rgb(19,135,189)" stroke="rgb(19,135,189)" stroke-width="1" opacity="1" d="M 1148.5 451 Q 1155.3 449.2 1157 452.5 L 1158 463 Q 1161.7 464.5 1161 461.5 L 1163.5 458 L 1165 463 Q 1159 460.8 1161 467.5 L 1163 471.5 L 1162.5 473 Q 1164.8 472.3 1164 474.5 L 1165.5 477 L 1167 476.5 L 1166 482 Q 1169 480.8 1168 484.5 L 1172 490.5 L 1172 494.5 L 1177.5 502 L 1182.5 506 L 1194 509 Q 1192.8 512 1196.5 511 Q 1198.8 513.7 1204.5 513 L 1211.5 517 L 1214.5 515 L 1212.5 519 L 1215.5 520 Q 1216.8 517.8 1221.5 519 L 1225 521.5 L 1226 528 L 1217 529 L 1215.5 532 L 1212.5 532 L 1201.5 538 L 1197 538 Q 1198.3 541.3 1193.5 540 L 1182 545 L 1180.5 548 Q 1175.8 547.3 1175 550.5 L 1166 568.5 L 1166.5 570 Q 1163.5 569.1 1165 573.5 L 1162 577.5 L 1162 580.5 L 1157 591.5 L 1158 594.5 L 1155.5 598 L 1149.5 599 L 1146 597 L 1145 587.5 L 1146 586.5 L 1143 583.5 L 1137 568.5 Q 1139.5 567 1136 565.5 L 1135 560 L 1131 558 L 1131 555.5 L 1126.5 548 L 1110.5 540 L 1106.5 540 L 1101.5 538 L 1087 530.5 Q 1087.5 527.5 1080.5 529 L 1076 525.5 Q 1074.9 522.2 1077.5 523 L 1085.5 519 L 1095.5 518 L 1099 515.5 L 1099 514 L 1094 514 L 1094 512 L 1098.5 512 L 1102.5 514 L 1104.5 512 L 1113 509.5 L 1112.5 508 L 1124 505 Q 1122.9 502.3 1125.5 503 L 1131 495.5 L 1132 490.5 L 1138 480.5 L 1137 477.5 L 1143 467.5 L 1143 464.5 L 1140 463 L 1140.5 459 L 1143.5 462 L 1146 461.5 L 1147 457.5 L 1147 455.5 Q 1146.3 451.8 1148.5 451 Z M 1152 454 L 1146 465 L 1131 503 L 1128 506 L 1118 509 L 1080 526 L 1130 546 L 1134 553 L 1146 582 L 1145 584 L 1147 584 L 1151 593 Q 1150 595 1153 594 L 1171 550 L 1181 543 L 1224 526 L 1173 504 L 1172 499 L 1153 456 Q 1154 453 1152 454 Z " /><path fill="rgb(19,135,189)" stroke="rgb(19,135,189)" stroke-width="1" opacity="1" d="M 564.5 464 L 567 465.5 L 564.5 469 Q 561.5 469.9 563 465.5 L 564.5 464 Z " /><path fill="rgb(19,135,189)" stroke="rgb(19,135,189)" stroke-width="1" opacity="1" d="M 848 464 Q 851.7 462.8 850 468 Q 846.3 469.2 848 464 Z " /><path fill="rgb(19,135,189)" stroke="rgb(19,135,189)" stroke-width="1" opacity="1" d="M 1136 464 Q 1139.7 462.8 1138 468 Q 1134.3 469.2 1136 464 Z " /><path fill="rgb(19,135,189)" stroke="rgb(19,135,189)" stroke-width="1" opacity="1" d="M 1167.5 464 L 1168 466.5 L 1166 465.5 L 1167.5 464 Z " /><path fill="rgb(19,135,189)" stroke="rgb(19,135,189)" stroke-width="1" opacity="1" d="M 878.5 465 Q 880.8 464.3 880 466.5 L 878.5 465 Z " /><path fill="rgb(19,135,189)" stroke="rgb(19,135,189)" stroke-width="1" opacity="1" d="M 580.5 470 L 581.5 472 L 580.5 470 Z " /><path fill="rgb(19,135,189)" stroke="rgb(19,135,189)" stroke-width="1" opacity="1" d="M 1151.5 470 L 1152.5 472 L 1151.5 470 Z " /><path fill="rgb(19,135,189)" stroke="rgb(19,135,189)" stroke-width="1" opacity="1" d="M 602.5 480 L 605 481.5 L 603.5 484 Q 601.3 484.8 602 482.5 Q 599.8 481.3 602.5 480 Z " /><path fill="rgb(19,135,189)" stroke="rgb(19,135,189)" stroke-width="1" opacity="1" d="M 1125.5 487 L 1127 492.5 L 1124.5 496 L 1124 488.5 L 1125.5 487 Z " /><path fill="rgb(19,135,189)" stroke="rgb(19,135,189)" stroke-width="1" opacity="1" d="M 836 488 Q 838.7 486.9 838 489.5 L 840 494.5 L 836.5 496 Q 834 495 835 490.5 L 836 488 Z " /><path fill="rgb(19,135,189)" stroke="rgb(19,135,189)" stroke-width="1" opacity="1" d="M 1178.5 489 Q 1181.3 490.3 1180 495.5 L 1178 494.5 L 1178.5 489 Z " /><path fill="rgb(19,135,189)" stroke="rgb(19,135,189)" stroke-width="1" opacity="1" d="M 890 491 L 892 491 L 892 496 L 890 496 L 890 491 Z " /><path fill="rgb(19,135,189)" stroke="rgb(19,135,189)" stroke-width="1" opacity="1" d="M 528.5 496 Q 532.3 495 531 498 L 528.5 496 Z " /><path fill="rgb(19,135,189)" stroke="rgb(19,135,189)" stroke-width="1" opacity="1" d="M 606 496 L 608 496.5 L 606 497.5 L 606 496 Z " /><path fill="rgb(19,135,189)" stroke="rgb(19,135,189)" stroke-width="1" opacity="1" d="M 1185 500 Q 1188 499 1187 502 Q 1184 503 1185 500 Z " /><path fill="rgb(19,135,189)" stroke="rgb(19,135,189)" stroke-width="1" opacity="1" d="M 1099.5 524 L 1098.5 526 L 1099.5 524 Z " /><path fill="rgb(19,135,189)" stroke="rgb(19,135,189)" stroke-width="1" opacity="1" d="M 646.5 537 Q 649.8 535.9 649 538.5 Q 647.8 541 644 540 Q 642.9 537.3 645.5 538 L 646.5 537 Z " /><path fill="rgb(19,135,189)" stroke="rgb(19,135,189)" stroke-width="1" opacity="1" d="M 926.5 537 Q 929.1 536.3 928 539 L 925 538.5 L 926.5 537 Z " /><path fill="rgb(19,135,189)" stroke="rgb(19,135,189)" stroke-width="1" opacity="1" d="M 1088 537 Q 1091.7 535.5 1091 538.5 Q 1089.5 541.5 1088 538.5 L 1088 537 Z " /><path fill="rgb(19,135,189)" stroke="rgb(19,135,189)" stroke-width="1" opacity="1" d="M 1214.5 537 Q 1217.1 536.3 1216 539 L 1213 538.5 L 1214.5 537 Z " /><path fill="rgb(19,135,189)" stroke="rgb(19,135,189)" stroke-width="1" opacity="1" d="M 631.5 541 L 634 542.5 L 630.5 543 L 631.5 541 Z " /><path fill="rgb(19,135,189)" stroke="rgb(19,135,189)" stroke-width="1" opacity="1" d="M 552.5 553 L 556 554.5 L 553.5 555 L 552.5 553 Z " /><path fill="rgb(19,135,189)" stroke="rgb(19,135,189)" stroke-width="1" opacity="1" d="M 834 554 L 838 556.5 L 837.5 559 L 834 554 Z " /><path fill="rgb(19,135,189)" stroke="rgb(19,135,189)" stroke-width="1" opacity="1" d="M 892.5 554 L 892 555.5 Q 893.3 560.3 890 559 Q 889.3 555.2 892.5 554 Z " /><path fill="rgb(19,135,189)" stroke="rgb(19,135,189)" stroke-width="1" opacity="1" d="M 1179.5 554 Q 1182.8 552.9 1182 555.5 L 1178.5 560 L 1177 557.5 L 1179.5 554 Z " /><path fill="rgb(19,135,189)" stroke="rgb(19,135,189)" stroke-width="1" opacity="1" d="M 1124.5 556 L 1126 558.5 L 1124 557.5 L 1124.5 556 Z " /><path fill="rgb(19,135,189)" stroke="rgb(19,135,189)" stroke-width="1" opacity="1" d="M 602 561 Q 605.7 559.8 604 565 Q 600.3 566.2 602 561 Z " /><path fill="rgb(19,135,189)" stroke="rgb(19,135,189)" stroke-width="1" opacity="1" d="M 581.5 576 L 582 578 L 580 577.5 L 581.5 576 Z " /><path fill="rgb(19,135,189)" stroke="rgb(19,135,189)" stroke-width="1" opacity="1" d="M 864.5 576 L 863.5 578 L 864.5 576 Z " /><path fill="rgb(19,135,189)" stroke="rgb(19,135,189)" stroke-width="1" opacity="1" d="M 1152.5 576 L 1151.5 578 L 1152.5 576 Z " /><path fill="rgb(19,135,189)" stroke="rgb(19,135,189)" stroke-width="1" opacity="1" d="M 563 577 Q 566.7 575.6 565 581.5 L 564 581.5 L 563 577 Z " /><path fill="rgb(19,135,189)" stroke="rgb(19,135,189)" stroke-width="1" opacity="1" d="M 875.5 588 L 877 590.5 L 874.5 592 Q 871 590 875.5 588 Z " /><path fill="rgb(19,135,189)" stroke="rgb(19,135,189)" stroke-width="1" opacity="1" d="M 1163.5 588 L 1165 590.5 L 1162.5 592 Q 1159 590 1163.5 588 Z " /><path fill="rgb(19,135,189)" stroke="rgb(19,135,189)" stroke-width="1" opacity="1" d="M 590 593 Q 593.3 591.7 592 596.5 L 590 595.5 L 590 593 Z " /><path fill="rgb(19,135,189)" stroke="rgb(19,135,189)" stroke-width="1" opacity="1" d="M 817 788 L 820 788.5 L 817.5 790 L 817 788 Z " /><path fill="rgb(19,135,189)" stroke="rgb(19,135,189)" stroke-width="1" opacity="1" d="M 801.5 789 L 806 790.5 L 801.5 792 Q 798.5 790.5 801.5 789 Z " /><path fill="rgb(19,135,189)" stroke="rgb(19,135,189)" stroke-width="1" opacity="1" d="M 830.5 794 L 832.5 796 L 846.5 796 L 847.5 795 L 863.5 795 L 864.5 796 L 892.5 797 L 895.5 796 L 896.5 797 L 912 797 L 911.5 795 L 896.5 795 L 896.5 794 L 911.5 794 L 919.5 796 L 923.5 799 L 946.5 799 L 953.5 801 L 961.5 801 L 976.5 804 L 983.5 804 L 989.5 807 L 998.5 807 L 1013.5 810 L 1021.5 812 L 1025.5 815 L 1032.5 815 L 1034.5 817 L 1045.5 818 L 1073 829.5 Q 1072.4 832.3 1078.5 831 Q 1080.2 833.8 1085.5 833 L 1087 832.5 L 1089.5 836 L 1104.5 843 L 1107.5 843 L 1111.5 847 L 1122.5 851 L 1126.5 855 L 1137 861 Q 1135.8 864 1139.5 863 L 1146 867 L 1152 874.5 L 1153 880.5 L 1157 885.5 L 1157 895.5 L 1157 897.5 L 1156 903.5 L 1153 907.5 L 1153 914 Q 1159 913.1 1162 916.5 Q 1161.3 918.8 1163.5 918 L 1171.5 921 L 1175.5 920 L 1178 920.5 Q 1176.5 924.9 1179.5 924 L 1180.5 927 L 1189.5 930 Q 1191.4 933.7 1196.5 934 L 1201.5 939 L 1207 940 L 1208.5 943 L 1220.5 950 L 1222 949.5 L 1225.5 954 L 1231 955 L 1232 959.5 L 1230 963 L 1216 970.5 L 1214.5 973 L 1204.5 980 L 1202.5 980 L 1200 981.5 Q 1200.8 983.8 1198.5 983 L 1191 988.5 L 1192 991.5 L 1190.5 991 L 1185 992 Q 1183.9 999.3 1188 1002.5 L 1188 1013.5 L 1189 1014.5 L 1189 1025.5 L 1190 1026.5 L 1190 1028.5 L 1193 1041.5 L 1193 1054.5 L 1196 1066.5 L 1195 1069 L 1192.5 1070 L 1186 1069 Q 1187.3 1066 1183.5 1067 L 1179 1065 L 1178.5 1063 L 1177 1063.5 L 1175.5 1061 L 1169 1059.5 L 1170.5 1057 Q 1167.5 1054.2 1162 1055 L 1160.5 1052 Q 1155.3 1052.2 1153.5 1049 L 1149.5 1049 L 1139.5 1044 L 1136.5 1046 L 1137 1044.5 L 1138 1041.5 L 1133.5 1041 L 1119.5 1034 L 1109.5 1033 L 1106.5 1030 L 1096.5 1028 L 1095.5 1029 L 1091.5 1025 L 1082.5 1025 L 1074.5 1022 L 1069.5 1022 L 1060.5 1019 L 1056 1019 L 1055.5 1017 L 1046.5 1017 Q 1045.3 1019.3 1040.5 1018 L 1038.5 1016 Q 1032.4 1016.6 1029.5 1014 L 1011.5 1014 Q 1007.9 1011.1 1000.5 1012 L 999 1010.5 Q 999.8 1007.9 996.5 1009 L 992.5 1006 L 988.5 1006 L 986 1003.5 L 981 993.5 L 983 989.5 Q 980.2 987.7 982 981.5 L 985 975.5 L 985 973.5 Q 987.7 968.9 987 962 L 989.5 963 L 990 961.5 L 989.5 960 Q 992.3 960.6 991 954.5 Q 994.6 952.6 994 946.5 L 993 944.5 L 995 937.5 L 998 933.5 L 999 925.5 L 1001 922.5 L 1000 920 L 997.5 919 L 995.5 920 L 991 919 L 990.5 917 L 981.5 917 L 976.5 915 Q 975 917.5 969.5 916 L 965.5 913 L 955.5 913 Q 949.4 909.6 938.5 911 L 936.5 909 L 928.5 909 Q 927.3 911.3 922.5 910 Q 921 907.5 915.5 909 L 911.5 907 L 881.5 907 L 879.5 905 L 848.5 905 L 846.5 907 L 808.5 907 L 798.5 909 L 796.5 909 Q 790.3 907.2 788.5 910 L 784.5 910 L 773.5 912 L 752.5 913 Q 744.5 916.5 733.5 917 L 727.5 920 L 719 920 L 719 924.5 Q 722 923.8 721 928 L 726.5 928 L 727 929.5 L 725 931.5 L 725 943 Q 728 941.8 727 945.5 L 730 956.5 L 733 961.5 L 734 972.5 L 737 976.5 L 737 997.5 L 732.5 1005 L 720 1010.5 Q 720.5 1013.5 713.5 1012 L 704.5 1014 Q 703.3 1011.8 698.5 1013 L 697.5 1014 L 689.5 1014 L 686.5 1016 L 667 1017 Q 668.1 1019.7 665.5 1019 L 636.5 1024 L 630 1026 L 629.5 1028 L 621.5 1028 Q 616.8 1031.8 608.5 1032 L 593.5 1039 L 583 1041 L 581.5 1044 Q 566.7 1047.7 556.5 1056 L 550 1057 L 548.5 1060 Q 541.4 1060.4 538.5 1065 L 533 1066 Q 534.8 1070.5 529.5 1069 L 527 1068.5 L 527 1050.5 L 529 1048.5 L 528 1043.5 L 530 1039.5 L 530 1024.5 L 534 1007.5 L 535 993.5 L 534 991 L 528 987.5 L 526.5 985 L 522 985 Q 523.1 982.3 520.5 983 L 515 980 L 513.5 976 Q 506 975.5 503 970.5 Q 503.8 967.9 500.5 969 L 499 966 L 492.5 965 L 489 962.5 L 489 957.5 L 492.5 953 L 493.5 955 L 506 946.5 Q 505.3 944.3 507.5 945 L 513 943 L 515.5 939 L 522 936.5 L 521.5 935 Q 526.8 936.3 528 933.5 Q 526.9 930.2 529.5 931 L 538 927 L 539.5 924 L 551.5 921 L 560 916.5 L 560.5 913 L 565.5 914 L 568 913 L 565 904.5 L 564 887.5 L 566 885.5 L 567 877.5 L 569 875.5 Q 566.5 874 570 872.5 Q 569.3 870.3 571.5 871 Q 576.5 864.5 585 861.5 L 584 859.5 L 586.5 857 L 590.5 857 L 600 853 L 601 849.5 L 598.5 849 L 597 848.5 L 602.5 848 L 607 849.5 L 608.5 847 Q 611.8 848.1 611 845.5 L 622.5 839 L 625 839 L 626.5 836 L 631.5 836 L 635.5 833 L 646 831 L 647.5 828 L 654.5 827 L 660.5 823 L 671.5 820 L 673.5 820 Q 678.1 820.6 679.5 818 L 681 818.5 Q 680.2 815.9 683.5 817 L 687.5 815 L 689.5 815 Q 695.6 816.3 695 813.5 L 696.5 811 L 701.5 812 L 704.5 811 L 706.5 811 L 721.5 807 L 727.5 807 L 733.5 804 L 743.5 804 L 751.5 802 L 754.5 803 L 767.5 800 L 770.5 801 L 777.5 799 L 800 799 Q 798.9 795.5 806.5 797 L 807.5 796 L 815.5 796 L 816.5 797 L 825.5 797 L 827.5 796 L 831.5 797 L 831.5 796 L 829 795.5 L 830.5 794 Z M 827 798 L 826 799 L 809 799 L 808 800 L 792 800 L 791 801 L 781 801 L 780 802 L 769 802 L 763 804 L 748 805 L 716 811 L 683 819 L 680 821 L 654 829 L 625 841 L 593 858 L 578 869 Q 569 875 567 888 L 567 899 L 570 911 L 572 914 L 570 916 L 558 920 L 539 929 L 495 957 L 493 960 L 538 991 L 535 1021 L 532 1036 L 532 1043 L 528 1064 L 529 1067 L 548 1056 L 575 1043 L 596 1034 L 614 1029 L 617 1027 L 657 1017 L 682 1014 L 689 1012 L 700 1012 L 701 1011 L 716 1010 L 729 1004 Q 734 1000 736 992 L 736 986 L 732 971 L 716 920 L 732 915 L 761 910 L 784 908 L 785 907 L 794 907 L 795 906 L 824 905 L 825 904 L 899 904 L 900 905 L 928 906 L 929 907 L 946 908 L 955 910 L 962 910 L 968 912 L 974 912 L 999 917 L 1004 920 L 995 954 L 985 984 Q 984 994 988 1000 Q 994 1008 1007 1010 L 1021 1011 L 1022 1012 L 1032 1012 L 1033 1013 L 1040 1013 L 1059 1017 L 1064 1017 L 1108 1028 L 1149 1044 L 1192 1066 L 1190 1046 L 1189 1045 L 1189 1038 L 1185 1016 L 1185 1009 L 1183 1001 L 1183 992 L 1227 960 Q 1229 961 1228 958 L 1188 932 L 1171 923 L 1149 915 L 1154 897 Q 1155 881 1147 874 Q 1139 864 1129 858 L 1085 836 L 1045 821 L 1006 811 L 1001 811 L 996 809 L 985 808 L 973 805 L 952 803 L 951 802 L 931 801 L 930 800 L 896 799 L 895 798 L 827 798 Z " /><path fill="rgb(19,135,189)" stroke="rgb(19,135,189)" stroke-width="1" opacity="1" d="M 737.5 800 L 738 802 L 736 801.5 L 737.5 800 Z " /><path fill="rgb(19,135,189)" stroke="rgb(19,135,189)" stroke-width="1" opacity="1" d="M 739.5 800 L 743 800.5 L 739.5 801 L 739.5 800 Z " /><path fill="rgb(19,135,189)" stroke="rgb(19,135,189)" stroke-width="1" opacity="1" d="M 821.5 803 L 832 803.5 L 821.5 804 L 821.5 803 Z " /><path fill="rgb(19,135,189)" stroke="rgb(19,135,189)" stroke-width="1" opacity="1" d="M 888.5 803 L 899 803.5 L 888.5 804 L 888.5 803 Z " /><path fill="rgb(19,135,189)" stroke="rgb(19,135,189)" stroke-width="1" opacity="1" d="M 803.5 804 L 808 804.5 L 803.5 805 L 803.5 804 Z " /><path fill="rgb(19,135,189)" stroke="rgb(19,135,189)" stroke-width="1" opacity="1" d="M 912.5 804 L 918 804.5 L 912.5 805 L 912.5 804 Z " /><path fill="rgb(19,135,189)" stroke="rgb(19,135,189)" stroke-width="1" opacity="1" d="M 791.5 805 L 794 805.5 L 791.5 806 L 791.5 805 Z " /><path fill="rgb(19,135,189)" stroke="rgb(19,135,189)" stroke-width="1" opacity="1" d="M 928.5 805 L 931 805.5 L 928.5 806 L 928.5 805 Z " /><path fill="rgb(19,135,189)" stroke="rgb(19,135,189)" stroke-width="1" opacity="1" d="M 779.5 806 L 783 806.5 L 779.5 807 L 779.5 806 Z " /><path fill="rgb(19,135,189)" stroke="rgb(19,135,189)" stroke-width="1" opacity="1" d="M 938.5 806 L 942 806.5 L 938.5 807 L 938.5 806 Z " /><path fill="rgb(19,135,189)" stroke="rgb(19,135,189)" stroke-width="1" opacity="1" d="M 770.5 807 L 773 807.5 L 770.5 808 L 770.5 807 Z " /><path fill="rgb(19,135,189)" stroke="rgb(19,135,189)" stroke-width="1" opacity="1" d="M 948.5 807 L 951 807.5 L 948.5 808 L 948.5 807 Z " /><path fill="rgb(19,135,189)" stroke="rgb(19,135,189)" stroke-width="1" opacity="1" d="M 761.5 808 L 764 808.5 L 761.5 809 L 761.5 808 Z " /><path fill="rgb(19,135,189)" stroke="rgb(19,135,189)" stroke-width="1" opacity="1" d="M 957.5 808 L 960 808.5 L 957.5 809 L 957.5 808 Z " /><path fill="rgb(19,135,189)" stroke="rgb(19,135,189)" stroke-width="1" opacity="1" d="M 964.5 809 L 967 809.5 L 964.5 810 L 964.5 809 Z " /><path fill="rgb(19,135,189)" stroke="rgb(19,135,189)" stroke-width="1" opacity="1" d="M 659.5 816 L 665 817.5 L 660.5 818 L 659.5 816 Z " /><path fill="rgb(19,135,189)" stroke="rgb(19,135,189)" stroke-width="1" opacity="1" d="M 1069 822 Q 1073.1 820.7 1072 824 Q 1067.9 825.3 1069 822 Z " /><path fill="rgb(19,135,189)" stroke="rgb(19,135,189)" stroke-width="1" opacity="1" d="M 845.5 831 L 848 831.5 L 845.5 832 L 845.5 831 Z " /><path fill="rgb(19,135,189)" stroke="rgb(19,135,189)" stroke-width="1" opacity="1" d="M 805.5 833 L 811 833.5 L 805.5 834 L 805.5 833 Z " /><path fill="rgb(19,135,189)" stroke="rgb(19,135,189)" stroke-width="1" opacity="1" d="M 796.5 834 L 797 838.5 L 796 838.5 L 796.5 834 Z " /><path fill="rgb(19,135,189)" stroke="rgb(19,135,189)" stroke-width="1" opacity="1" d="M 853.5 834 L 854.5 836 L 853.5 834 Z " /><path fill="rgb(19,135,189)" stroke="rgb(19,135,189)" stroke-width="1" opacity="1" d="M 921.5 835 L 924.5 839 L 921.5 835 Z " /><path fill="rgb(19,135,189)" stroke="rgb(19,135,189)" stroke-width="1" opacity="1" d="M 788.5 836 L 791.5 840 L 788.5 836 Z " /><path fill="rgb(19,135,189)" stroke="rgb(19,135,189)" stroke-width="1" opacity="1" d="M 903.5 836 L 902.5 838 L 903.5 836 Z " /><path fill="rgb(19,135,189)" stroke="rgb(19,135,189)" stroke-width="1" opacity="1" d="M 1109.5 836 Q 1113.3 835.3 1114 837.5 Q 1115.3 841.7 1110.5 840 Q 1106 838 1109.5 836 Z " /><path fill="rgb(19,135,189)" stroke="rgb(19,135,189)" stroke-width="1" opacity="1" d="M 771.5 837 L 769.5 840 L 771.5 837 Z " /><path fill="rgb(19,135,189)" stroke="rgb(19,135,189)" stroke-width="1" opacity="1" d="M 830.5 837 L 830 838.5 L 829.5 840 L 829 838.5 L 830.5 837 Z " /><path fill="rgb(19,135,189)" stroke="rgb(19,135,189)" stroke-width="1" opacity="1" d="M 819.5 838 L 823 838.5 L 819.5 839 L 819.5 838 Z " /><path fill="rgb(19,135,189)" stroke="rgb(19,135,189)" stroke-width="1" opacity="1" d="M 949.5 838 L 952 838.5 L 949.5 839 L 949.5 838 Z " /><path fill="rgb(19,135,189)" stroke="rgb(19,135,189)" stroke-width="1" opacity="1" d="M 756.5 839 L 760 839.5 L 756.5 840 L 756.5 839 Z " /><path fill="rgb(19,135,189)" stroke="rgb(19,135,189)" stroke-width="1" opacity="1" d="M 800.5 839 Q 805.8 837.8 807 840.5 L 806.5 843 L 806 840 L 800.5 840 L 800.5 839 Z " /><path fill="rgb(19,135,189)" stroke="rgb(19,135,189)" stroke-width="1" opacity="1" d="M 784.5 841 Q 785.9 844.6 791 844.5 L 787.5 845 L 784.5 841 Z " /><path fill="rgb(19,135,189)" stroke="rgb(19,135,189)" stroke-width="1" opacity="1" d="M 813.5 841 L 814 844.5 L 813 844.5 L 813.5 841 Z " /><path fill="rgb(19,135,189)" stroke="rgb(19,135,189)" stroke-width="1" opacity="1" d="M 882.5 841 L 885.5 845 L 882.5 841 Z " /><path fill="rgb(19,135,189)" stroke="rgb(19,135,189)" stroke-width="1" opacity="1" d="M 942.5 841 L 941.5 843 L 942.5 841 Z " /><path fill="rgb(19,135,189)" stroke="rgb(19,135,189)" stroke-width="1" opacity="1" d="M 874.5 842 L 873.5 844 L 874.5 842 Z " /><path fill="rgb(19,135,189)" stroke="rgb(19,135,189)" stroke-width="1" opacity="1" d="M 753.5 844 L 754 846.5 L 753 846.5 L 753.5 844 Z " /><path fill="rgb(19,135,189)" stroke="rgb(19,135,189)" stroke-width="1" opacity="1" d="M 858.5 844 L 859 847.5 L 858 847.5 L 858.5 844 Z " /><path fill="rgb(19,135,189)" stroke="rgb(19,135,189)" stroke-width="1" opacity="1" d="M 992.5 845 L 995 845.5 L 992.5 846 L 992.5 845 Z " /><path fill="rgb(19,135,189)" stroke="rgb(19,135,189)" stroke-width="1" opacity="1" d="M 827.5 846 L 828 850.5 L 827 850.5 L 827.5 846 Z " /><path fill="rgb(19,135,189)" stroke="rgb(19,135,189)" stroke-width="1" opacity="1" d="M 946.5 846 L 948 848.5 L 947 848.5 L 946.5 846 Z " /><path fill="rgb(19,135,189)" stroke="rgb(19,135,189)" stroke-width="1" opacity="1" d="M 1118 846 L 1120 846.5 L 1118 847.5 L 1118 846 Z " /><path fill="rgb(19,135,189)" stroke="rgb(19,135,189)" stroke-width="1" opacity="1" d="M 902.5 848 L 903.5 850 L 902.5 848 Z " /><path fill="rgb(19,135,189)" stroke="rgb(19,135,189)" stroke-width="1" opacity="1" d="M 858.5 849 L 859 852.5 L 858 852.5 L 858.5 849 Z " /><path fill="rgb(19,135,189)" stroke="rgb(19,135,189)" stroke-width="1" opacity="1" d="M 921.5 849 L 922.5 851 L 921.5 849 Z " /><path fill="rgb(19,135,189)" stroke="rgb(19,135,189)" stroke-width="1" opacity="1" d="M 1101.5 849 L 1104 850.5 L 1102.5 851 L 1101.5 849 Z " /><path fill="rgb(19,135,189)" stroke="rgb(19,135,189)" stroke-width="1" opacity="1" d="M 769.5 850 L 771.5 853 L 769.5 850 Z " /><path fill="rgb(19,135,189)" stroke="rgb(19,135,189)" stroke-width="1" opacity="1" d="M 790.5 850 L 794 852.5 L 791.5 851 L 790.5 850 Z " /><path fill="rgb(19,135,189)" stroke="rgb(19,135,189)" stroke-width="1" opacity="1" d="M 994.5 850 L 995 852.5 L 994 852.5 L 994.5 850 Z " /><path fill="rgb(19,135,189)" stroke="rgb(19,135,189)" stroke-width="1" opacity="1" d="M 1133 851 L 1136 851 L 1136 856 L 1133.5 857 L 1133 851 Z " /><path fill="rgb(19,135,189)" stroke="rgb(19,135,189)" stroke-width="1" opacity="1" d="M 873.5 852 L 874.5 854 L 873.5 852 Z " /><path fill="rgb(19,135,189)" stroke="rgb(19,135,189)" stroke-width="1" opacity="1" d="M 884.5 852 L 883.5 854 L 884.5 852 Z " /><path fill="rgb(19,135,189)" stroke="rgb(19,135,189)" stroke-width="1" opacity="1" d="M 974.5 853 L 974 854.5 L 973.5 856 L 973 854.5 L 974.5 853 Z " /><path fill="rgb(19,135,189)" stroke="rgb(19,135,189)" stroke-width="1" opacity="1" d="M 1024.5 853 L 1026 855.5 L 1025 855.5 L 1024.5 853 Z " /><path fill="rgb(19,135,189)" stroke="rgb(19,135,189)" stroke-width="1" opacity="1" d="M 918.5 855 L 919.5 857 L 918.5 855 Z " /><path fill="rgb(19,135,189)" stroke="rgb(19,135,189)" stroke-width="1" opacity="1" d="M 787.5 856 L 788.5 858 L 787.5 856 Z " /><path fill="rgb(19,135,189)" stroke="rgb(19,135,189)" stroke-width="1" opacity="1" d="M 807.5 856 L 808 860.5 L 807 860.5 L 807.5 856 Z " /><path fill="rgb(19,135,189)" stroke="rgb(19,135,189)" stroke-width="1" opacity="1" d="M 849.5 856 L 847.5 859 L 849.5 856 Z " /><path fill="rgb(19,135,189)" stroke="rgb(19,135,189)" stroke-width="1" opacity="1" d="M 966.5 857 L 967 859.5 L 966 859.5 L 966.5 857 Z " /><path fill="rgb(19,135,189)" stroke="rgb(19,135,189)" stroke-width="1" opacity="1" d="M 1015.5 857 L 1015 858.5 L 1014.5 860 L 1014 858.5 L 1015.5 857 Z " /><path fill="rgb(19,135,189)" stroke="rgb(19,135,189)" stroke-width="1" opacity="1" d="M 774.5 858 L 776 860.5 L 775 860.5 L 774.5 858 Z " /><path fill="rgb(19,135,189)" stroke="rgb(19,135,189)" stroke-width="1" opacity="1" d="M 919.5 858 L 920 859.5 L 918 860.5 L 919.5 858 Z " /><path fill="rgb(19,135,189)" stroke="rgb(19,135,189)" stroke-width="1" opacity="1" d="M 945.5 858 L 949 858.5 L 945.5 859 L 945.5 858 Z " /><path fill="rgb(19,135,189)" stroke="rgb(19,135,189)" stroke-width="1" opacity="1" d="M 814.5 859 L 815 865.5 L 814 865.5 L 814.5 859 Z " /><path fill="rgb(19,135,189)" stroke="rgb(19,135,189)" stroke-width="1" opacity="1" d="M 830.5 859 L 831.5 861 L 830.5 859 Z " /><path fill="rgb(19,135,189)" stroke="rgb(19,135,189)" stroke-width="1" opacity="1" d="M 840.5 859 L 846 859.5 L 840.5 860 L 840.5 859 Z " /><path fill="rgb(19,135,189)" stroke="rgb(19,135,189)" stroke-width="1" opacity="1" d="M 788.5 860 L 787.5 862 L 788.5 860 Z " /><path fill="rgb(19,135,189)" stroke="rgb(19,135,189)" stroke-width="1" opacity="1" d="M 1044.5 860 L 1045 862.5 L 1044 862.5 L 1044.5 860 Z " /><path fill="rgb(19,135,189)" stroke="rgb(19,135,189)" stroke-width="1" opacity="1" d="M 595.5 862 L 594.5 864 L 595.5 862 Z " /><path fill="rgb(19,135,189)" stroke="rgb(19,135,189)" stroke-width="1" opacity="1" d="M 924.5 863 L 923.5 865 L 924.5 863 Z " /><path fill="rgb(19,135,189)" stroke="rgb(19,135,189)" stroke-width="1" opacity="1" d="M 770.5 864 L 772.5 867 L 770.5 864 Z " /><path fill="rgb(19,135,189)" stroke="rgb(19,135,189)" stroke-width="1" opacity="1" d="M 590.5 865 L 589.5 867 L 590.5 865 Z " /><path fill="rgb(19,135,189)" stroke="rgb(19,135,189)" stroke-width="1" opacity="1" d="M 841.5 865 L 845 865.5 L 841.5 866 L 841.5 865 Z " /><path fill="rgb(19,135,189)" stroke="rgb(19,135,189)" stroke-width="1" opacity="1" d="M 921.5 865 L 920.5 867 L 921.5 865 Z " /><path fill="rgb(19,135,189)" stroke="rgb(19,135,189)" stroke-width="1" opacity="1" d="M 730.5 867 L 731 872.5 L 730 872.5 L 730.5 867 Z " /><path fill="rgb(19,135,189)" stroke="rgb(19,135,189)" stroke-width="1" opacity="1" d="M 911.5 867 L 915 867.5 L 911.5 868 L 911.5 867 Z " /><path fill="rgb(19,135,189)" stroke="rgb(19,135,189)" stroke-width="1" opacity="1" d="M 1037.5 867 L 1036.5 869 L 1037.5 867 Z " /><path fill="rgb(19,135,189)" stroke="rgb(19,135,189)" stroke-width="1" opacity="1" d="M 1133.5 867 L 1134.5 869 L 1133.5 867 Z " /><path fill="rgb(19,135,189)" stroke="rgb(19,135,189)" stroke-width="1" opacity="1" d="M 710.5 868 L 712 868.5 L 710 869 L 709.5 872 L 709 869.5 L 710.5 868 Z " /><path fill="rgb(19,135,189)" stroke="rgb(19,135,189)" stroke-width="1" opacity="1" d="M 761.5 868 L 760.5 870 L 761.5 868 Z " /><path fill="rgb(19,135,189)" stroke="rgb(19,135,189)" stroke-width="1" opacity="1" d="M 1029.5 868 L 1028.5 870 L 1029.5 868 Z " /><path fill="rgb(19,135,189)" stroke="rgb(19,135,189)" stroke-width="1" opacity="1" d="M 584.5 869 L 583.5 871 L 584.5 869 Z " /><path fill="rgb(19,135,189)" stroke="rgb(19,135,189)" stroke-width="1" opacity="1" d="M 642.5 869 L 643.5 871 L 642.5 869 Z " /><path fill="rgb(19,135,189)" stroke="rgb(19,135,189)" stroke-width="1" opacity="1" d="M 738.5 869 L 739.5 871 L 738.5 869 Z " /><path fill="rgb(19,135,189)" stroke="rgb(19,135,189)" stroke-width="1" opacity="1" d="M 1045.5 869 L 1046 871.5 L 1045 871.5 L 1045.5 869 Z " /><path fill="rgb(19,135,189)" stroke="rgb(19,135,189)" stroke-width="1" opacity="1" d="M 669.5 870 Q 672.3 871.3 670 872.5 L 669.5 874 L 669 872.5 L 669.5 870 Z " /><path fill="rgb(19,135,189)" stroke="rgb(19,135,189)" stroke-width="1" opacity="1" d="M 580.5 872 L 579.5 874 L 580.5 872 Z " /><path fill="rgb(19,135,189)" stroke="rgb(19,135,189)" stroke-width="1" opacity="1" d="M 723.5 872 L 722.5 874 L 723.5 872 Z " /><path fill="rgb(19,135,189)" stroke="rgb(19,135,189)" stroke-width="1" opacity="1" d="M 970.5 872 L 971 873.5 L 968.5 875 L 968.5 874 Q 971 874.7 970.5 872 Z " /><path fill="rgb(19,135,189)" stroke="rgb(19,135,189)" stroke-width="1" opacity="1" d="M 646.5 874 L 650.5 879 L 646.5 874 Z " /><path fill="rgb(19,135,189)" stroke="rgb(19,135,189)" stroke-width="1" opacity="1" d="M 673.5 874 L 674.5 876 L 673.5 874 Z " /><path fill="rgb(19,135,189)" stroke="rgb(19,135,189)" stroke-width="1" opacity="1" d="M 729.5 874 L 730 875.5 L 727 877.5 L 729.5 874 Z " /><path fill="rgb(19,135,189)" stroke="rgb(19,135,189)" stroke-width="1" opacity="1" d="M 1039.5 875 L 1040 878.5 L 1039 878.5 L 1039.5 875 Z " /><path fill="rgb(19,135,189)" stroke="rgb(19,135,189)" stroke-width="1" opacity="1" d="M 1142.5 875 L 1143.5 877 L 1142.5 875 Z " /><path fill="rgb(19,135,189)" stroke="rgb(19,135,189)" stroke-width="1" opacity="1" d="M 676.5 877 L 677.5 879 L 676.5 877 Z " /><path fill="rgb(19,135,189)" stroke="rgb(19,135,189)" stroke-width="1" opacity="1" d="M 712.5 877 L 713.5 879 L 712.5 877 Z " /><path fill="rgb(19,135,189)" stroke="rgb(19,135,189)" stroke-width="1" opacity="1" d="M 1023.5 877 L 1023 878.5 L 1021.5 881 L 1022 879.5 L 1023.5 877 Z " /><path fill="rgb(19,135,189)" stroke="rgb(19,135,189)" stroke-width="1" opacity="1" d="M 1003.5 879 L 1004 882.5 L 1003 882.5 L 1003.5 879 Z " /><path fill="rgb(19,135,189)" stroke="rgb(19,135,189)" stroke-width="1" opacity="1" d="M 643.5 880 L 645.5 883 L 643.5 880 Z " /><path fill="rgb(19,135,189)" stroke="rgb(19,135,189)" stroke-width="1" opacity="1" d="M 679.5 880 L 682.5 884 L 679.5 880 Z " /><path fill="rgb(19,135,189)" stroke="rgb(19,135,189)" stroke-width="1" opacity="1" d="M 1046.5 880 L 1047 883.5 L 1046 883.5 L 1046.5 880 Z " /><path fill="rgb(19,135,189)" stroke="rgb(19,135,189)" stroke-width="1" opacity="1" d="M 1093.5 880 L 1092.5 882 L 1091 881.5 L 1093.5 880 Z " /><path fill="rgb(19,135,189)" stroke="rgb(19,135,189)" stroke-width="1" opacity="1" d="M 652.5 881 L 655.5 885 L 652.5 881 Z " /><path fill="rgb(19,135,189)" stroke="rgb(19,135,189)" stroke-width="1" opacity="1" d="M 1075.5 881 L 1077 883.5 L 1075 882.5 L 1075.5 881 Z " /><path fill="rgb(19,135,189)" stroke="rgb(19,135,189)" stroke-width="1" opacity="1" d="M 619.5 883 L 623 885.5 L 620.5 884 L 619.5 883 Z " /><path fill="rgb(19,135,189)" stroke="rgb(19,135,189)" stroke-width="1" opacity="1" d="M 605.5 884 L 604.5 886 L 605.5 884 Z " /><path fill="rgb(19,135,189)" stroke="rgb(19,135,189)" stroke-width="1" opacity="1" d="M 641.5 884 L 643 890.5 L 641 889.5 L 641.5 884 Z " /><path fill="rgb(19,135,189)" stroke="rgb(19,135,189)" stroke-width="1" opacity="1" d="M 647.5 885 L 648.5 887 L 647.5 885 Z " /><path fill="rgb(19,135,189)" stroke="rgb(19,135,189)" stroke-width="1" opacity="1" d="M 684.5 885 L 686.5 888 L 684.5 885 Z " /><path fill="rgb(19,135,189)" stroke="rgb(19,135,189)" stroke-width="1" opacity="1" d="M 657.5 886 L 662 891.5 L 657 887.5 L 657.5 886 Z " /><path fill="rgb(19,135,189)" stroke="rgb(19,135,189)" stroke-width="1" opacity="1" d="M 1040.5 888 L 1041 891.5 L 1040 891.5 L 1040.5 888 Z " /><path fill="rgb(19,135,189)" stroke="rgb(19,135,189)" stroke-width="1" opacity="1" d="M 617.5 889 L 618.5 891 L 617.5 889 Z " /><path fill="rgb(19,135,189)" stroke="rgb(19,135,189)" stroke-width="1" opacity="1" d="M 571.5 891 L 572 896.5 L 571 896.5 L 571.5 891 Z " /><path fill="rgb(19,135,189)" stroke="rgb(19,135,189)" stroke-width="1" opacity="1" d="M 674.5 891 L 673.5 893 L 672 892.5 L 674.5 891 Z " /><path fill="rgb(19,135,189)" stroke="rgb(19,135,189)" stroke-width="1" opacity="1" d="M 1047.5 891 L 1048 894 L 1046 893.5 L 1047.5 891 Z " /><path fill="rgb(19,135,189)" stroke="rgb(19,135,189)" stroke-width="1" opacity="1" d="M 1115.5 891 L 1118 892.5 L 1116.5 893 L 1115.5 891 Z " /><path fill="rgb(19,135,189)" stroke="rgb(19,135,189)" stroke-width="1" opacity="1" d="M 1162 893 Q 1165 891.8 1164 895.5 Q 1166.3 896.8 1165 901.5 L 1163.5 904 Q 1160.5 902 1161 896.5 L 1162 893 Z " /><path fill="rgb(19,135,189)" stroke="rgb(19,135,189)" stroke-width="1" opacity="1" d="M 635.5 894 L 636 905.5 L 635 905.5 L 635.5 894 Z " /><path fill="rgb(19,135,189)" stroke="rgb(19,135,189)" stroke-width="1" opacity="1" d="M 615.5 895 L 618 895.5 L 615.5 896 L 615.5 895 Z " /><path fill="rgb(19,135,189)" stroke="rgb(19,135,189)" stroke-width="1" opacity="1" d="M 627.5 896 L 628.5 898 L 627.5 896 Z " /><path fill="rgb(19,135,189)" stroke="rgb(19,135,189)" stroke-width="1" opacity="1" d="M 656.5 896 L 659 897.5 L 657.5 898 L 656.5 896 Z " /><path fill="rgb(19,135,189)" stroke="rgb(19,135,189)" stroke-width="1" opacity="1" d="M 1062.5 896 L 1063 898.5 L 1062 898.5 L 1062.5 896 Z " /><path fill="rgb(19,135,189)" stroke="rgb(19,135,189)" stroke-width="1" opacity="1" d="M 856.5 898 L 864 898.5 L 856.5 899 L 856.5 898 Z " /><path fill="rgb(19,135,189)" stroke="rgb(19,135,189)" stroke-width="1" opacity="1" d="M 601.5 899 L 603.5 902 L 601.5 899 Z " /><path fill="rgb(19,135,189)" stroke="rgb(19,135,189)" stroke-width="1" opacity="1" d="M 816.5 899 L 824 899.5 L 816.5 900 L 816.5 899 Z " /><path fill="rgb(19,135,189)" stroke="rgb(19,135,189)" stroke-width="1" opacity="1" d="M 896.5 899 L 904 899.5 L 896.5 900 L 896.5 899 Z " /><path fill="rgb(19,135,189)" stroke="rgb(19,135,189)" stroke-width="1" opacity="1" d="M 801.5 900 L 807 900.5 L 801.5 901 L 801.5 900 Z " /><path fill="rgb(19,135,189)" stroke="rgb(19,135,189)" stroke-width="1" opacity="1" d="M 915.5 900 L 918 900.5 L 915.5 901 L 915.5 900 Z " /><path fill="rgb(19,135,189)" stroke="rgb(19,135,189)" stroke-width="1" opacity="1" d="M 1066.5 900 L 1069 900.5 L 1066.5 901 L 1066.5 900 Z " /><path fill="rgb(19,135,189)" stroke="rgb(19,135,189)" stroke-width="1" opacity="1" d="M 618.5 901 L 622 901.5 L 618.5 902 L 618.5 901 Z " /><path fill="rgb(19,135,189)" stroke="rgb(19,135,189)" stroke-width="1" opacity="1" d="M 790.5 901 L 793 901.5 L 790.5 902 L 790.5 901 Z " /><path fill="rgb(19,135,189)" stroke="rgb(19,135,189)" stroke-width="1" opacity="1" d="M 928.5 901 L 931 901.5 L 928.5 902 L 928.5 901 Z " /><path fill="rgb(19,135,189)" stroke="rgb(19,135,189)" stroke-width="1" opacity="1" d="M 610.5 902 L 613 902.5 L 610.5 903 L 610.5 902 Z " /><path fill="rgb(19,135,189)" stroke="rgb(19,135,189)" stroke-width="1" opacity="1" d="M 780.5 902 L 783 902.5 L 780.5 903 L 780.5 902 Z " /><path fill="rgb(19,135,189)" stroke="rgb(19,135,189)" stroke-width="1" opacity="1" d="M 938.5 902 L 941 902.5 L 938.5 903 L 938.5 902 Z " /><path fill="rgb(19,135,189)" stroke="rgb(19,135,189)" stroke-width="1" opacity="1" d="M 1098.5 903 L 1098 904.5 L 1099 907.5 L 1097 906.5 L 1098.5 903 Z " /><path fill="rgb(19,135,189)" stroke="rgb(19,135,189)" stroke-width="1" opacity="1" d="M 560.5 907 Q 563 908.2 562 912 Q 557.9 913.2 560.5 907 Z " /><path fill="rgb(19,135,189)" stroke="rgb(19,135,189)" stroke-width="1" opacity="1" d="M 614.5 910 L 618 910.5 L 614.5 911 L 614.5 910 Z " /><path fill="rgb(19,135,189)" stroke="rgb(19,135,189)" stroke-width="1" opacity="1" d="M 628.5 910 L 627.5 912 L 628.5 910 Z " /><path fill="rgb(19,135,189)" stroke="rgb(19,135,189)" stroke-width="1" opacity="1" d="M 606.5 912 L 611 915.5 L 609.5 915 L 606.5 912 Z " /><path fill="rgb(19,135,189)" stroke="rgb(19,135,189)" stroke-width="1" opacity="1" d="M 1166 912 L 1168 912.5 L 1166 913.5 L 1166 912 Z " /><path fill="rgb(19,135,189)" stroke="rgb(19,135,189)" stroke-width="1" opacity="1" d="M 747.5 918 Q 752.3 916.7 751 920 Q 747.2 920.8 747.5 918 Z " /><path fill="rgb(19,135,189)" stroke="rgb(19,135,189)" stroke-width="1" opacity="1" d="M 710.5 920 L 711.5 922 L 710.5 920 Z " /><path fill="rgb(19,135,189)" stroke="rgb(19,135,189)" stroke-width="1" opacity="1" d="M 736.5 922 L 741 922.5 L 737.5 924 L 736.5 922 Z " /><path fill="rgb(19,135,189)" stroke="rgb(19,135,189)" stroke-width="1" opacity="1" d="M 1201.5 932 L 1209 932 L 1209 936 L 1202.5 934 L 1201.5 932 Z " /><path fill="rgb(19,135,189)" stroke="rgb(19,135,189)" stroke-width="1" opacity="1" d="M 731.5 939 L 733 942.5 L 730 944 Q 729 940.2 731.5 939 Z " /><path fill="rgb(19,135,189)" stroke="rgb(19,135,189)" stroke-width="1" opacity="1" d="M 1189.5 939 L 1190.5 941 L 1189.5 939 Z " /><path fill="rgb(19,135,189)" stroke="rgb(19,135,189)" stroke-width="1" opacity="1" d="M 1081.5 940 L 1085 942.5 L 1083.5 942 L 1081.5 940 Z " /><path fill="rgb(19,135,189)" stroke="rgb(19,135,189)" stroke-width="1" opacity="1" d="M 1192.5 941 L 1193.5 943 L 1192.5 941 Z " /><path fill="rgb(19,135,189)" stroke="rgb(19,135,189)" stroke-width="1" opacity="1" d="M 1077.5 944 L 1080 945.5 L 1078.5 946 L 1077.5 944 Z " /><path fill="rgb(19,135,189)" stroke="rgb(19,135,189)" stroke-width="1" opacity="1" d="M 521.5 945 L 520.5 947 L 521.5 945 Z " /><path fill="rgb(19,135,189)" stroke="rgb(19,135,189)" stroke-width="1" opacity="1" d="M 518.5 947 L 517.5 949 L 518.5 947 Z " /><path fill="rgb(19,135,189)" stroke="rgb(19,135,189)" stroke-width="1" opacity="1" d="M 1094.5 947 L 1095.5 949 L 1094.5 947 Z " /><path fill="rgb(19,135,189)" stroke="rgb(19,135,189)" stroke-width="1" opacity="1" d="M 635.5 948 L 634.5 950 L 635.5 948 Z " /><path fill="rgb(19,135,189)" stroke="rgb(19,135,189)" stroke-width="1" opacity="1" d="M 1099.5 950 L 1100.5 952 L 1099.5 950 Z " /><path fill="rgb(19,135,189)" stroke="rgb(19,135,189)" stroke-width="1" opacity="1" d="M 1090.5 951 L 1091.5 953 L 1090.5 951 Z " /><path fill="rgb(19,135,189)" stroke="rgb(19,135,189)" stroke-width="1" opacity="1" d="M 616.5 953 L 615.5 955 L 616.5 953 Z " /><path fill="rgb(19,135,189)" stroke="rgb(19,135,189)" stroke-width="1" opacity="1" d="M 626.5 953 L 625.5 955 L 626.5 953 Z " /><path fill="rgb(19,135,189)" stroke="rgb(19,135,189)" stroke-width="1" opacity="1" d="M 1093.5 953 L 1096 954.5 L 1094.5 955 L 1093.5 953 Z " /><path fill="rgb(19,135,189)" stroke="rgb(19,135,189)" stroke-width="1" opacity="1" d="M 1211.5 953 L 1212.5 955 L 1211.5 953 Z " /><path fill="rgb(19,135,189)" stroke="rgb(19,135,189)" stroke-width="1" opacity="1" d="M 1097.5 955 L 1098.5 957 L 1097.5 955 Z " /><path fill="rgb(19,135,189)" stroke="rgb(19,135,189)" stroke-width="1" opacity="1" d="M 1106.5 955 L 1107.5 957 L 1106.5 955 Z " /><path fill="rgb(19,135,189)" stroke="rgb(19,135,189)" stroke-width="1" opacity="1" d="M 481.5 956 L 482 958.5 L 481 958.5 L 481.5 956 Z " /><path fill="rgb(19,135,189)" stroke="rgb(19,135,189)" stroke-width="1" opacity="1" d="M 611.5 957 L 610.5 959 L 611.5 957 Z " /><path fill="rgb(19,135,189)" stroke="rgb(19,135,189)" stroke-width="1" opacity="1" d="M 1100.5 957 L 1106 961.5 L 1103.5 960 L 1100.5 957 Z " /><path fill="rgb(19,135,189)" stroke="rgb(19,135,189)" stroke-width="1" opacity="1" d="M 1217.5 957 L 1218.5 959 L 1217.5 957 Z " /><path fill="rgb(19,135,189)" stroke="rgb(19,135,189)" stroke-width="1" opacity="1" d="M 618.5 958 L 617.5 960 L 618.5 958 Z " /><path fill="rgb(19,135,189)" stroke="rgb(19,135,189)" stroke-width="1" opacity="1" d="M 1110.5 958 L 1111.5 960 L 1110.5 958 Z " /><path fill="rgb(19,135,189)" stroke="rgb(19,135,189)" stroke-width="1" opacity="1" d="M 980.5 960 Q 984.3 958.8 983 962.5 L 980.5 964 L 979 961.5 L 980.5 960 Z " /><path fill="rgb(19,135,189)" stroke="rgb(19,135,189)" stroke-width="1" opacity="1" d="M 606.5 961 L 601.5 967 L 606.5 961 Z " /><path fill="rgb(19,135,189)" stroke="rgb(19,135,189)" stroke-width="1" opacity="1" d="M 613.5 962 L 609.5 967 L 613.5 962 Z " /><path fill="rgb(19,135,189)" stroke="rgb(19,135,189)" stroke-width="1" opacity="1" d="M 1107.5 962 L 1117 972.5 L 1113 969.5 L 1107.5 962 Z " /><path fill="rgb(19,135,189)" stroke="rgb(19,135,189)" stroke-width="1" opacity="1" d="M 507.5 963 L 508.5 965 L 507.5 963 Z " /><path fill="rgb(19,135,189)" stroke="rgb(19,135,189)" stroke-width="1" opacity="1" d="M 709.5 965 L 718 965.5 L 709.5 966 L 709.5 965 Z " /><path fill="rgb(19,135,189)" stroke="rgb(19,135,189)" stroke-width="1" opacity="1" d="M 1003.5 965 L 1012 965.5 L 1003.5 966 L 1003.5 965 Z " /><path fill="rgb(19,135,189)" stroke="rgb(19,135,189)" stroke-width="1" opacity="1" d="M 511.5 966 L 512.5 968 L 511.5 966 Z " /><path fill="rgb(19,135,189)" stroke="rgb(19,135,189)" stroke-width="1" opacity="1" d="M 514.5 968 L 515.5 970 L 514.5 968 Z " /><path fill="rgb(19,135,189)" stroke="rgb(19,135,189)" stroke-width="1" opacity="1" d="M 607.5 968 L 605.5 971 L 607.5 968 Z " /><path fill="rgb(19,135,189)" stroke="rgb(19,135,189)" stroke-width="1" opacity="1" d="M 517.5 970 L 518.5 972 L 517.5 970 Z " /><path fill="rgb(19,135,189)" stroke="rgb(19,135,189)" stroke-width="1" opacity="1" d="M 711.5 970 L 714 970.5 L 711.5 971 L 711.5 970 Z " /><path fill="rgb(19,135,189)" stroke="rgb(19,135,189)" stroke-width="1" opacity="1" d="M 980.5 970 Q 983 971.2 982 975 Q 978.3 976.5 979 973.5 L 980.5 970 Z " /><path fill="rgb(19,135,189)" stroke="rgb(19,135,189)" stroke-width="1" opacity="1" d="M 1002.5 970 L 1005 970.5 L 1002.5 971 L 1002.5 970 Z " /><path fill="rgb(19,135,189)" stroke="rgb(19,135,189)" stroke-width="1" opacity="1" d="M 604.5 972 L 603.5 974 L 604.5 972 Z " /><path fill="rgb(19,135,189)" stroke="rgb(19,135,189)" stroke-width="1" opacity="1" d="M 997.5 972 L 996.5 974 L 997.5 972 Z " /><path fill="rgb(19,135,189)" stroke="rgb(19,135,189)" stroke-width="1" opacity="1" d="M 686.5 973 L 688 973.5 L 685.5 975 L 686.5 973 Z " /><path fill="rgb(19,135,189)" stroke="rgb(19,135,189)" stroke-width="1" opacity="1" d="M 724.5 973 L 726.5 976 L 724.5 973 Z " /><path fill="rgb(19,135,189)" stroke="rgb(19,135,189)" stroke-width="1" opacity="1" d="M 496 974 Q 500.1 972.7 499 976 Q 494.9 977.3 496 974 Z " /><path fill="rgb(19,135,189)" stroke="rgb(19,135,189)" stroke-width="1" opacity="1" d="M 1117.5 974 L 1118.5 976 L 1117.5 974 Z " /><path fill="rgb(19,135,189)" stroke="rgb(19,135,189)" stroke-width="1" opacity="1" d="M 1197.5 974 L 1196.5 976 L 1197.5 974 Z " /><path fill="rgb(19,135,189)" stroke="rgb(19,135,189)" stroke-width="1" opacity="1" d="M 524.5 975 L 525.5 977 L 524.5 975 Z " /><path fill="rgb(19,135,189)" stroke="rgb(19,135,189)" stroke-width="1" opacity="1" d="M 602.5 975 L 602 976.5 L 600.5 979 L 601 977.5 L 602.5 975 Z " /><path fill="rgb(19,135,189)" stroke="rgb(19,135,189)" stroke-width="1" opacity="1" d="M 994.5 975 L 993.5 977 L 994.5 975 Z " /><path fill="rgb(19,135,189)" stroke="rgb(19,135,189)" stroke-width="1" opacity="1" d="M 1124.5 976 L 1125.5 978 Q 1122.7 978.7 1124.5 976 Z " /><path fill="rgb(19,135,189)" stroke="rgb(19,135,189)" stroke-width="1" opacity="1" d="M 527.5 977 L 528.5 979 L 527.5 977 Z " /><path fill="rgb(19,135,189)" stroke="rgb(19,135,189)" stroke-width="1" opacity="1" d="M 727.5 977 L 728.5 979 L 727.5 977 Z " /><path fill="rgb(19,135,189)" stroke="rgb(19,135,189)" stroke-width="1" opacity="1" d="M 676.5 978 L 675.5 980 L 674 979.5 L 676.5 978 Z " /><path fill="rgb(19,135,189)" stroke="rgb(19,135,189)" stroke-width="1" opacity="1" d="M 1214 978 Q 1217 977 1216 980 Q 1213 981 1214 978 Z " /><path fill="rgb(19,135,189)" stroke="rgb(19,135,189)" stroke-width="1" opacity="1" d="M 1187.5 981 L 1186.5 983 L 1187.5 981 Z " /><path fill="rgb(19,135,189)" stroke="rgb(19,135,189)" stroke-width="1" opacity="1" d="M 534.5 982 L 535.5 984 L 534.5 982 Z " /><path fill="rgb(19,135,189)" stroke="rgb(19,135,189)" stroke-width="1" opacity="1" d="M 598.5 983 L 599 985.5 L 598 985.5 L 598.5 983 Z " /><path fill="rgb(19,135,189)" stroke="rgb(19,135,189)" stroke-width="1" opacity="1" d="M 1122.5 984 L 1123 988.5 L 1122 988.5 L 1122.5 984 Z " /><path fill="rgb(19,135,189)" stroke="rgb(19,135,189)" stroke-width="1" opacity="1" d="M 1183.5 984 L 1182.5 986 L 1183.5 984 Z " /><path fill="rgb(19,135,189)" stroke="rgb(19,135,189)" stroke-width="1" opacity="1" d="M 730.5 985 L 731 989.5 L 730 989.5 L 730.5 985 Z " /><path fill="rgb(19,135,189)" stroke="rgb(19,135,189)" stroke-width="1" opacity="1" d="M 1205.5 985 Q 1208.8 983.9 1208 986.5 L 1198 990 Q 1196.3 985.9 1200.5 987 L 1205.5 985 Z " /><path fill="rgb(19,135,189)" stroke="rgb(19,135,189)" stroke-width="1" opacity="1" d="M 1180.5 986 L 1179.5 988 L 1180.5 986 Z " /><path fill="rgb(19,135,189)" stroke="rgb(19,135,189)" stroke-width="1" opacity="1" d="M 541.5 987 L 542.5 989 L 541.5 987 Z " /><path fill="rgb(19,135,189)" stroke="rgb(19,135,189)" stroke-width="1" opacity="1" d="M 654.5 988 L 656 988.5 L 652.5 990 L 652.5 989 L 654.5 988 Z " /><path fill="rgb(19,135,189)" stroke="rgb(19,135,189)" stroke-width="1" opacity="1" d="M 599.5 991 L 605 994.5 L 603.5 995 L 599.5 991 Z " /><path fill="rgb(19,135,189)" stroke="rgb(19,135,189)" stroke-width="1" opacity="1" d="M 1120.5 992 L 1119.5 994 L 1117.5 995 L 1118.5 993 L 1120.5 992 Z " /><path fill="rgb(19,135,189)" stroke="rgb(19,135,189)" stroke-width="1" opacity="1" d="M 528 993 Q 531 991.8 530 995.5 L 528 996.5 L 528 993 Z " /><path fill="rgb(19,135,189)" stroke="rgb(19,135,189)" stroke-width="1" opacity="1" d="M 1125.5 993 L 1124.5 995 L 1125.5 993 Z " /><path fill="rgb(19,135,189)" stroke="rgb(19,135,189)" stroke-width="1" opacity="1" d="M 1092.5 995 L 1095 995.5 L 1092.5 996 L 1092.5 995 Z " /><path fill="rgb(19,135,189)" stroke="rgb(19,135,189)" stroke-width="1" opacity="1" d="M 611.5 996 L 620 996.5 L 611.5 997 L 611.5 996 Z " /><path fill="rgb(19,135,189)" stroke="rgb(19,135,189)" stroke-width="1" opacity="1" d="M 1100.5 996 L 1110 996.5 L 1100.5 997 L 1100.5 996 Z " /><path fill="rgb(19,135,189)" stroke="rgb(19,135,189)" stroke-width="1" opacity="1" d="M 992.5 997 L 995.5 1001 L 992.5 997 Z " /><path fill="rgb(19,135,189)" stroke="rgb(19,135,189)" stroke-width="1" opacity="1" d="M 727.5 998 L 726.5 1000 L 727.5 998 Z " /><path fill="rgb(19,135,189)" stroke="rgb(19,135,189)" stroke-width="1" opacity="1" d="M 625.5 1001 L 628 1001.5 L 625.5 1002 L 625.5 1001 Z " /><path fill="rgb(19,135,189)" stroke="rgb(19,135,189)" stroke-width="1" opacity="1" d="M 1093.5 1001 L 1096 1001.5 L 1093.5 1002 L 1093.5 1001 Z " /><path fill="rgb(19,135,189)" stroke="rgb(19,135,189)" stroke-width="1" opacity="1" d="M 1104.5 1002 L 1107 1002.5 L 1104.5 1003 L 1104.5 1002 Z " /><path fill="rgb(19,135,189)" stroke="rgb(19,135,189)" stroke-width="1" opacity="1" d="M 691.5 1006 L 694 1006.5 L 691.5 1007 L 691.5 1006 Z " /><path fill="rgb(19,135,189)" stroke="rgb(19,135,189)" stroke-width="1" opacity="1" d="M 1026.5 1006 L 1029 1006.5 L 1026.5 1007 L 1026.5 1006 Z " /><path fill="rgb(19,135,189)" stroke="rgb(19,135,189)" stroke-width="1" opacity="1" d="M 677.5 1008 L 680 1008.5 L 677.5 1009 L 677.5 1008 Z " /><path fill="rgb(19,135,189)" stroke="rgb(19,135,189)" stroke-width="1" opacity="1" d="M 1194 1009 Q 1197.5 1007.9 1196 1015.5 L 1195 1015.5 L 1194 1009 Z " /><path fill="rgb(19,135,189)" stroke="rgb(19,135,189)" stroke-width="1" opacity="1" d="M 1001.5 1018 Q 1004.8 1016.9 1004 1019.5 L 1002.5 1019 L 1001.5 1018 Z " /><path fill="rgb(19,135,189)" stroke="rgb(19,135,189)" stroke-width="1" opacity="1" d="M 1195.5 1023 L 1196 1027.5 L 1194 1026.5 L 1195.5 1023 Z " /><path fill="rgb(19,135,189)" stroke="rgb(19,135,189)" stroke-width="1" opacity="1" d="M 1182.5 1030 L 1183 1032.5 L 1182 1032.5 L 1182.5 1030 Z " /><path fill="rgb(19,135,189)" stroke="rgb(19,135,189)" stroke-width="1" opacity="1" d="M 621 1032 Q 625.1 1030.7 624 1034 Q 619.9 1035.3 621 1032 Z " /><path fill="rgb(19,135,189)" stroke="rgb(19,135,189)" stroke-width="1" opacity="1" d="M 537.5 1035 L 538 1037.5 L 537 1037.5 L 537.5 1035 Z " /><path fill="rgb(19,135,189)" stroke="rgb(19,135,189)" stroke-width="1" opacity="1" d="M 606 1038 Q 609 1037 608 1040 Q 605 1041 606 1038 Z " /><path fill="rgb(19,135,189)" stroke="rgb(19,135,189)" stroke-width="1" opacity="1" d="M 582.5 1049 L 585 1050.5 Q 583.8 1053 580 1052 Q 578.9 1049.3 581.5 1050 L 582.5 1049 Z " /><path fill="rgb(19,135,189)" stroke="rgb(19,135,189)" stroke-width="1" opacity="1" d="M 1199.5 1055 L 1200 1058 Q 1197.3 1059.1 1198 1056.5 L 1199.5 1055 Z " /><path fill="rgb(19,135,189)" stroke="rgb(19,135,189)" stroke-width="1" opacity="1" d="M 551.5 1063 L 554 1066.5 Q 553.3 1068.8 549.5 1068 L 548.5 1066 L 551 1064.5 L 551.5 1063 Z " /><path fill="rgb(19,135,189)" stroke="rgb(19,135,189)" stroke-width="1" opacity="1" d="M 542.5 1066 Q 544.8 1065.3 544 1067.5 L 542.5 1066 Z " /><path fill="rgb(19,135,189)" stroke="rgb(19,135,189)" stroke-width="1" opacity="1" d="M 534 1070 Q 539.2 1068.3 538 1072 Q 532.8 1073.7 534 1070 Z " /><path fill="rgb(19,135,189)" stroke="rgb(19,135,189)" stroke-width="1" opacity="1" d="M 6.5 1126 L 7 1135.5 L 6 1135.5 L 6.5 1126 Z " /><path fill="rgb(19,135,189)" stroke="rgb(19,135,189)" stroke-width="1" opacity="1" d="M 6.5 1142 L 7 1149.5 L 6 1149.5 L 6.5 1142 Z " /><path fill="rgb(4,139,205)" stroke="rgb(4,139,205)" stroke-width="1" opacity="1" d="M 0.5 0 L 1 1149.5 L 0 1149.5 L 0.5 0 Z " /><path fill="rgb(4,139,205)" stroke="rgb(4,139,205)" stroke-width="1" opacity="1" d="M 4 0 L 1728 0 L 1728 1150 L 7.5 1150 L 7 1149.5 L 7 1142.5 L 6 1142.5 L 5.5 1150 Q 2.9 1145.1 4 1136.5 Q 6.3 1135.2 5 1130.5 L 4 1129.5 L 4 0 Z M 862 143 Q 858 144 859 149 L 859 151 L 851 163 L 851 168 L 847 176 Q 848 180 846 179 Q 841 182 842 191 L 834 196 Q 831 195 832 198 L 826 199 L 820 203 L 813 203 L 810 207 L 807 208 Q 803 207 804 210 Q 796 210 792 214 L 789 218 L 799 223 L 801 222 L 806 225 L 809 224 L 810 228 L 813 229 L 815 229 L 827 235 L 842 240 Q 844 241 843 247 L 847 252 L 849 262 L 852 263 L 851 265 Q 855 267 854 275 L 860 285 L 860 288 L 863 289 L 869 287 L 869 283 Q 874 277 874 268 L 878 264 L 881 255 Q 879 249 883 250 L 885 247 L 885 242 L 894 237 Q 897 238 896 236 L 898 236 Q 904 235 907 231 L 917 229 L 918 227 L 936 220 L 938 217 L 935 213 L 925 210 L 921 207 Q 917 208 918 206 Q 916 202 909 203 L 900 198 Q 895 199 896 196 Q 889 195 885 190 L 886 187 L 885 187 L 885 186 Q 886 183 883 184 L 883 181 L 881 181 Q 882 175 878 172 Q 879 168 877 169 L 877 168 L 874 164 L 874 158 L 869 150 L 868 145 Q 867 142 862 143 Z M 852 144 L 852 147 L 854 146 Q 855 143 852 144 Z M 874 144 Q 873 148 876 149 L 877 146 L 874 144 Z M 836 187 Q 834 192 838 191 Q 840 186 836 187 Z M 891 188 L 890 191 L 892 191 L 891 188 Z M 806 197 L 806 200 L 810 199 L 810 197 L 806 197 Z M 918 197 Q 917 202 921 200 Q 923 196 918 197 Z M 809 201 L 809 202 L 811 202 L 809 201 Z M 786 217 L 785 219 L 788 218 L 786 217 Z M 927 224 L 926 228 L 928 227 L 927 224 Z M 809 233 L 810 235 Q 811 232 809 233 Z M 904 236 Q 902 239 905 240 L 908 239 L 904 238 L 904 236 Z M 825 237 L 821 238 Q 820 241 824 240 L 826 240 L 828 240 L 825 237 Z M 837 240 L 834 242 L 836 248 L 838 247 Q 839 241 837 240 Z M 890 241 L 890 243 L 890 245 Q 889 247 892 246 L 892 241 L 890 241 Z M 880 268 L 878 270 Q 877 273 880 272 L 880 268 Z M 852 284 L 852 288 Q 856 290 855 286 L 852 284 Z M 873 285 L 873 288 L 876 287 L 873 285 Z M 584 448 Q 584 451 580 450 L 575 458 Q 576 464 574 463 Q 570 466 570 473 L 565 478 L 566 481 L 559 496 L 559 502 L 556 502 Q 553 506 547 507 L 545 507 Q 543 509 539 508 L 535 512 L 527 516 L 525 515 L 515 520 Q 513 523 512 521 L 508 522 L 506 526 L 506 528 L 513 530 L 512 532 L 520 532 L 523 535 L 531 536 L 535 540 L 543 544 L 545 543 L 551 545 Q 554 544 553 547 L 559 551 Q 557 557 561 556 Q 564 559 563 567 L 568 574 Q 567 576 570 575 L 572 585 L 575 588 L 576 596 L 579 600 L 583 601 L 582 600 L 584 600 L 589 586 L 588 584 L 590 584 L 593 573 Q 592 570 595 571 L 597 564 L 597 562 L 599 561 L 600 559 Q 599 556 602 557 Q 605 556 604 553 L 604 551 Q 603 548 606 549 Q 608 548 606 547 L 608 547 L 608 545 L 614 545 L 625 540 L 629 541 L 632 536 L 637 536 Q 636 539 640 538 Q 641 535 639 536 L 639 535 Q 641 536 640 533 L 644 533 L 649 529 L 654 528 Q 657 529 655 525 L 653 522 L 642 518 L 640 516 L 634 515 L 627 511 L 622 511 L 623 509 L 622 508 L 620 508 Q 614 510 615 507 L 609 502 Q 604 503 603 501 L 604 498 L 601 492 Q 602 489 599 490 L 597 482 L 593 479 L 593 474 L 590 468 L 590 464 L 584 448 Z M 871 448 L 872 452 L 873 450 Q 874 447 871 448 Z M 861 451 L 855 463 L 855 468 L 849 478 L 850 481 L 844 490 L 843 495 L 840 498 L 841 499 L 840 502 L 831 507 L 825 508 L 823 511 Q 817 510 815 514 L 812 512 Q 805 510 806 514 L 811 515 L 810 517 L 804 517 L 800 515 L 802 519 Q 794 519 790 523 Q 787 522 788 526 L 793 529 Q 799 527 799 531 L 811 536 L 814 539 L 819 538 L 820 541 L 822 540 L 827 543 Q 832 541 831 545 L 839 548 L 844 558 Q 843 562 847 560 L 847 565 L 849 567 L 851 576 L 857 587 L 859 597 L 862 599 L 868 598 L 870 595 L 869 592 L 874 578 L 876 576 L 878 566 L 887 551 L 895 545 L 906 540 Q 910 541 909 538 L 914 538 L 925 532 L 928 532 L 929 529 L 936 529 L 937 528 Q 939 529 938 523 L 935 519 Q 929 521 928 518 L 926 519 L 925 518 L 926 516 L 924 517 L 922 516 Q 919 517 920 514 L 907 511 L 904 508 L 898 507 L 889 501 Q 886 502 887 500 L 887 498 Q 888 495 885 496 L 884 491 L 878 481 L 879 478 L 878 478 L 873 468 L 873 464 L 877 463 Q 879 457 874 459 L 872 463 L 868 453 L 868 451 L 861 451 Z M 1149 451 Q 1146 452 1147 456 L 1147 458 L 1146 462 L 1144 462 L 1141 459 L 1140 463 L 1143 465 L 1143 468 L 1137 478 L 1138 481 L 1132 491 L 1131 496 L 1126 503 Q 1123 502 1124 505 L 1113 508 L 1113 510 L 1105 512 L 1103 514 L 1099 512 L 1094 512 L 1094 514 L 1099 514 L 1099 516 L 1096 518 L 1086 519 L 1078 523 Q 1075 522 1076 526 L 1081 529 Q 1087 527 1087 531 L 1089 530 L 1088 532 L 1092 532 L 1107 540 L 1111 540 L 1127 548 L 1131 556 L 1131 558 L 1135 560 L 1136 566 Q 1139 567 1137 569 L 1143 584 L 1146 587 L 1145 588 L 1146 597 L 1150 599 L 1156 598 L 1158 595 L 1157 592 L 1162 581 L 1162 578 L 1165 574 Q 1163 569 1167 570 L 1166 569 L 1175 551 Q 1176 547 1181 548 L 1182 545 L 1194 540 Q 1198 541 1197 538 L 1202 538 L 1213 532 L 1216 532 L 1217 529 L 1226 528 L 1225 522 L 1224 522 L 1224 521 L 1222 519 Q 1217 518 1216 520 L 1213 519 L 1215 515 L 1212 517 L 1205 513 Q 1199 514 1197 511 Q 1193 512 1194 509 L 1192 510 L 1192 509 L 1183 506 L 1178 502 L 1172 495 L 1172 491 L 1168 485 Q 1169 481 1166 482 L 1167 477 L 1166 477 L 1164 475 Q 1165 472 1163 473 L 1163 472 L 1161 468 Q 1163 461 1158 463 L 1157 453 Q 1155 449 1149 451 Z M 1164 458 L 1161 462 L 1161 463 L 1165 463 L 1164 458 Z M 565 464 L 563 466 Q 561 470 565 469 L 567 466 L 565 464 Z M 848 464 Q 846 469 850 468 Q 852 463 848 464 Z M 1136 464 Q 1134 469 1138 468 Q 1140 463 1136 464 Z M 1168 464 L 1166 466 L 1168 467 L 1168 464 Z M 879 465 L 880 467 Q 881 464 879 465 Z M 603 480 Q 600 481 602 483 Q 601 485 604 484 L 605 482 L 603 480 Z M 1126 487 L 1124 489 L 1125 496 L 1127 493 L 1126 487 Z M 836 488 L 835 491 Q 834 495 837 496 L 840 495 L 838 490 Q 839 487 836 488 Z M 1179 489 L 1178 495 L 1180 496 Q 1181 490 1179 489 Z M 890 491 L 890 496 L 892 496 L 892 491 L 890 491 Z M 529 496 L 531 498 Q 532 495 529 496 Z M 606 496 L 606 498 L 608 497 L 606 496 Z M 1185 500 Q 1184 503 1187 502 Q 1188 499 1185 500 Z M 647 537 L 646 538 Q 643 537 644 540 Q 648 541 649 539 Q 650 536 647 537 Z M 927 537 L 925 539 L 928 539 Q 929 536 927 537 Z M 1088 537 L 1088 539 Q 1090 542 1091 539 Q 1092 536 1088 537 Z M 1215 537 L 1213 539 L 1216 539 Q 1217 536 1215 537 Z M 632 541 L 631 543 L 634 543 L 632 541 Z M 553 553 L 554 555 L 556 555 L 553 553 Z M 834 554 L 838 559 L 838 557 L 834 554 Z M 1180 554 L 1177 558 L 1179 560 L 1182 556 Q 1183 553 1180 554 Z M 892 555 L 890 557 Q 889 560 892 559 L 892 555 Z M 1125 556 L 1124 558 L 1126 559 L 1125 556 Z M 602 561 Q 600 566 604 565 Q 606 560 602 561 Z M 563 577 L 564 582 L 565 582 Q 567 576 563 577 Z M 876 588 Q 871 590 875 592 L 877 591 L 876 588 Z M 1164 588 Q 1159 590 1163 592 L 1165 591 L 1164 588 Z M 590 593 L 590 596 L 592 597 Q 593 592 590 593 Z M 817 788 L 818 790 L 820 789 L 817 788 Z M 802 789 Q 799 791 802 792 L 806 791 L 802 789 Z M 831 794 L 829 796 L 832 796 L 831 794 Z M 897 794 L 897 795 L 912 795 L 897 794 Z M 848 795 L 847 796 L 833 796 L 832 797 L 828 796 L 826 797 L 817 797 L 816 796 L 808 796 L 807 797 Q 799 796 800 799 L 778 799 L 771 801 L 768 800 L 755 803 L 752 802 L 744 804 L 734 804 L 728 807 L 722 807 L 707 811 L 705 811 L 702 812 L 697 811 L 695 814 Q 696 816 690 815 L 688 815 L 684 817 Q 680 816 681 819 L 680 818 Q 678 821 674 820 L 672 820 L 661 823 Q 658 824 660 826 L 659 825 L 655 827 L 648 828 L 646 831 L 636 833 L 632 836 L 627 836 L 627 838 L 626 837 L 625 839 L 623 839 L 611 846 Q 612 848 609 847 L 607 850 L 603 848 L 597 849 L 599 849 L 601 850 L 600 853 L 591 857 L 587 857 L 584 860 L 585 862 Q 576 864 572 871 Q 569 870 570 873 Q 566 874 569 876 L 567 878 L 566 886 L 564 888 L 565 905 L 568 913 L 566 914 L 561 913 L 560 917 L 552 921 L 540 924 L 538 927 L 530 931 Q 527 930 528 934 Q 527 936 522 935 L 522 937 L 516 939 L 513 943 L 508 945 Q 505 944 506 947 L 494 955 L 493 953 L 489 958 L 489 963 L 493 965 L 499 966 L 501 969 Q 504 968 503 971 Q 506 976 514 976 L 515 980 L 521 983 Q 523 982 522 985 L 527 985 L 528 988 L 534 991 L 535 994 L 534 1008 L 530 1025 L 530 1040 L 528 1044 L 529 1049 L 527 1051 L 527 1069 L 530 1069 Q 535 1071 533 1066 L 539 1065 Q 541 1060 549 1060 L 550 1057 L 557 1056 Q 567 1048 582 1044 L 583 1041 L 594 1039 L 609 1032 Q 617 1032 622 1028 L 630 1028 L 630 1026 L 637 1024 L 666 1019 Q 668 1020 667 1017 L 687 1016 L 690 1014 L 698 1014 L 699 1013 Q 703 1012 705 1014 L 714 1012 Q 720 1013 720 1011 L 733 1005 L 737 998 L 737 977 L 734 973 L 733 962 L 730 957 L 727 946 Q 728 942 725 943 L 725 932 L 727 930 L 727 928 L 721 928 Q 722 924 719 925 L 719 920 L 728 920 L 734 917 Q 745 917 753 913 L 774 912 L 785 910 L 789 910 Q 790 907 797 909 L 799 909 L 809 907 L 847 907 L 849 905 L 880 905 L 882 907 L 912 907 L 916 909 Q 921 908 923 910 Q 927 911 929 909 L 937 909 L 939 911 Q 949 910 956 913 L 966 913 L 970 916 Q 975 918 977 915 L 982 917 L 991 917 L 991 919 L 996 920 L 998 919 L 1000 920 L 1001 923 L 999 926 L 998 934 L 995 938 L 993 945 L 994 947 Q 995 953 991 955 Q 992 961 990 960 L 990 962 L 990 963 L 987 962 Q 988 969 985 974 L 985 976 L 982 982 Q 980 988 983 990 L 981 994 L 986 1004 L 989 1006 L 993 1006 L 997 1009 Q 1000 1008 999 1011 L 1001 1012 Q 1008 1011 1012 1014 L 1030 1014 Q 1032 1017 1039 1016 L 1041 1018 Q 1045 1019 1047 1017 L 1056 1017 L 1056 1019 L 1061 1019 L 1070 1022 L 1075 1022 L 1083 1025 L 1092 1025 L 1096 1029 L 1097 1028 L 1107 1030 L 1110 1033 L 1120 1034 L 1134 1041 L 1138 1042 L 1137 1045 L 1137 1046 L 1140 1044 L 1150 1049 L 1154 1049 Q 1155 1052 1161 1052 L 1162 1055 Q 1168 1054 1171 1057 L 1169 1060 L 1176 1061 L 1177 1064 L 1179 1063 L 1179 1065 L 1184 1067 Q 1187 1066 1186 1069 L 1193 1070 L 1195 1069 L 1196 1067 L 1193 1055 L 1193 1042 L 1190 1029 L 1190 1027 L 1189 1026 L 1189 1015 L 1188 1014 L 1188 1003 Q 1184 999 1185 992 L 1189 991 Q 1192 992 1191 989 L 1195 987 L 1198 984 L 1197 983 L 1199 983 Q 1201 984 1200 982 L 1203 980 L 1205 980 L 1215 973 L 1216 971 L 1230 963 L 1232 960 L 1231 955 L 1226 954 L 1222 950 L 1221 950 L 1209 943 L 1207 940 L 1202 939 L 1197 934 Q 1191 934 1190 930 L 1181 927 L 1180 924 Q 1177 925 1178 921 L 1176 920 L 1172 921 L 1164 918 Q 1161 919 1162 917 Q 1159 913 1153 914 L 1153 908 L 1156 904 L 1157 898 L 1157 896 L 1157 886 L 1153 881 L 1152 875 L 1146 867 L 1140 863 Q 1136 864 1137 861 L 1127 855 L 1123 851 L 1112 847 L 1108 843 L 1105 843 L 1090 836 L 1087 833 L 1086 833 Q 1080 834 1079 831 Q 1072 832 1073 830 L 1046 818 L 1035 817 L 1033 815 L 1026 815 L 1022 812 L 1014 810 L 999 807 L 990 807 L 984 804 L 977 804 L 962 801 L 954 801 L 947 799 L 924 799 L 916 795 Q 911 794 912 797 L 897 797 L 896 796 L 893 797 L 848 795 Z M 738 800 L 736 802 L 738 802 L 738 800 Z M 740 800 L 740 801 L 743 801 L 740 800 Z M 660 816 L 661 818 L 665 818 L 660 816 Z M 1069 822 Q 1068 825 1072 824 Q 1073 821 1069 822 Z M 1110 836 Q 1106 838 1111 840 Q 1115 842 1114 838 Q 1113 835 1110 836 Z M 1118 846 L 1118 848 L 1120 847 L 1118 846 Z M 1133 851 L 1134 857 L 1136 856 L 1136 851 L 1133 851 Z M 1162 893 L 1161 897 Q 1160 902 1164 904 L 1165 902 Q 1166 897 1164 896 Q 1165 892 1162 893 Z M 561 907 Q 558 913 562 912 Q 563 908 561 907 Z M 1166 912 L 1166 914 L 1168 913 L 1166 912 Z M 748 918 Q 747 921 751 920 Q 752 917 748 918 Z M 737 922 L 738 924 L 741 923 L 737 922 Z M 1202 932 L 1203 934 L 1209 936 L 1209 932 L 1202 932 Z M 732 939 Q 729 940 730 944 L 733 943 L 732 939 Z M 482 956 L 481 959 L 482 959 L 482 956 Z M 981 960 L 979 962 L 981 964 L 983 963 Q 984 959 981 960 Z M 981 970 L 979 974 Q 978 976 982 975 Q 983 971 981 970 Z M 496 974 Q 495 977 499 976 Q 500 973 496 974 Z M 1214 978 Q 1213 981 1216 980 Q 1217 977 1214 978 Z M 1206 985 L 1201 987 Q 1196 986 1198 990 L 1208 987 Q 1209 984 1206 985 Z M 528 993 L 528 997 L 530 996 Q 531 992 528 993 Z M 1194 1009 L 1195 1016 L 1196 1016 Q 1198 1008 1194 1009 Z M 1002 1018 L 1003 1019 L 1004 1020 Q 1005 1017 1002 1018 Z M 1196 1023 L 1194 1027 L 1196 1028 L 1196 1023 Z M 621 1032 Q 620 1035 624 1034 Q 625 1031 621 1032 Z M 606 1038 Q 605 1041 608 1040 Q 609 1037 606 1038 Z M 583 1049 L 582 1050 Q 579 1049 580 1052 Q 584 1053 585 1051 L 583 1049 Z M 1200 1055 L 1198 1057 Q 1197 1059 1200 1058 L 1200 1055 Z M 552 1063 L 551 1065 L 549 1066 L 550 1068 Q 553 1069 554 1067 L 552 1063 Z M 543 1066 L 544 1068 Q 545 1065 543 1066 Z M 534 1070 Q 533 1074 538 1072 Q 539 1068 534 1070 Z M 7 1126 L 6 1136 L 7 1136 L 7 1126 Z " /><path fill="rgb(4,139,205)" stroke="rgb(4,139,205)" stroke-width="1" opacity="1" d="M 1729.5 0 L 1730 1149.5 L 1729 1149.5 L 1729.5 0 Z " /><path fill="rgb(32,36,37)" stroke="rgb(32,36,37)" stroke-width="1" opacity="1" d="M 863.5 144 L 867 149.5 L 880 183.5 L 886.5 196 L 927.5 212 L 935 216.5 L 890.5 235 L 883 240.5 L 868 278.5 L 863.5 286 L 845 241.5 L 841.5 237 L 792 216.5 L 824.5 202 L 839.5 197 L 843 193.5 L 863.5 144 Z M 864 161 L 848 200 L 810 217 L 848 232 L 864 269 L 867 264 L 879 234 L 918 217 L 882 201 L 864 161 Z " /><path fill="rgb(32,36,37)" stroke="rgb(32,36,37)" stroke-width="1" opacity="1" d="M 580 453 Q 583 451.8 582 455.5 L 596 486.5 L 596 489.5 L 601 498.5 L 602 504 L 644.5 521 L 652 525.5 L 601 547 L 584 590.5 L 580.5 596 L 564 557.5 L 562 549.5 L 558.5 546 L 518.5 530 L 516.5 528 L 513.5 528 L 510 525.5 L 512.5 523 L 560 504 L 561 498.5 L 580 453 Z M 581 470 L 565 509 L 563 511 L 560 511 L 558 513 L 531 524 Q 527 523 528 526 L 566 541 L 574 561 L 574 564 L 580 576 Q 579 579 582 578 L 582 575 L 586 568 L 596 541 L 634 526 L 624 520 L 598 510 L 590 494 L 586 481 L 581 470 Z " /><path fill="rgb(32,36,37)" stroke="rgb(32,36,37)" stroke-width="1" opacity="1" d="M 863.5 454 Q 865.8 453.3 865 455.5 L 871 467.5 L 885 504 L 935 525.5 L 890.5 544 L 883 549.5 L 877 563.5 L 877 566.5 L 875 568.5 Q 871 583.5 863.5 595 L 845 550.5 L 841.5 546 L 792 525.5 L 836.5 507 L 843 502.5 L 858 464.5 L 863.5 454 Z M 864 470 L 853 498 L 849 505 L 848 510 L 810 526 L 849 541 L 864 578 L 877 548 L 878 543 L 903 531 L 918 526 L 880 510 L 864 470 Z " /><path fill="rgb(32,36,37)" stroke="rgb(32,36,37)" stroke-width="1" opacity="1" d="M 1151.5 454 Q 1153.8 453.3 1153 455.5 L 1172 498.5 L 1173 504 L 1224 525.5 L 1180.5 543 L 1171 549.5 L 1153 594 Q 1150.3 595.1 1151 592.5 L 1146 583.5 L 1134 552.5 L 1129.5 546 L 1080 525.5 L 1117.5 509 L 1127.5 506 L 1131 502.5 L 1146 464.5 L 1151.5 454 Z M 1152 470 L 1141 498 L 1137 505 L 1136 510 L 1098 526 L 1137 541 L 1152 578 L 1165 548 L 1166 543 L 1191 531 L 1206 526 L 1168 510 L 1152 470 Z " /><path fill="rgb(32,36,37)" stroke="rgb(32,36,37)" stroke-width="1" opacity="1" d="M 826.5 798 L 894.5 798 L 895.5 799 L 929.5 800 L 930.5 801 L 950.5 802 L 951.5 803 L 972.5 805 L 984.5 808 L 995.5 809 L 1000.5 811 L 1005.5 811 L 1044.5 821 L 1084.5 836 L 1128.5 858 Q 1139.5 864 1147 873.5 Q 1154.6 880.9 1154 896.5 L 1149 915 L 1170.5 923 L 1187.5 932 L 1228 958 Q 1229.1 960.7 1226.5 960 L 1183 991.5 L 1183 1000.5 L 1185 1008.5 L 1185 1015.5 L 1189 1037.5 L 1189 1044.5 L 1190 1045.5 L 1192 1066 L 1148.5 1044 L 1107.5 1028 L 1063.5 1017 L 1058.5 1017 L 1039.5 1013 L 1032.5 1013 L 1031.5 1012 L 1021.5 1012 L 1020.5 1011 L 1006.5 1010 Q 994.4 1007.6 988 999.5 Q 983.7 994.4 985 983.5 L 995 953.5 L 1004 919.5 L 998.5 917 L 973.5 912 L 967.5 912 L 961.5 910 L 954.5 910 L 945.5 908 L 928.5 907 L 927.5 906 L 899.5 905 L 898.5 904 L 824.5 904 L 823.5 905 L 794.5 906 L 793.5 907 L 784.5 907 L 783.5 908 L 760.5 910 L 731.5 915 L 716 919.5 L 732 970.5 L 736 985.5 L 736 991.5 Q 734.3 999.8 728.5 1004 L 715.5 1010 L 700.5 1011 L 699.5 1012 L 688.5 1012 L 681.5 1014 L 656.5 1017 L 616.5 1027 L 613.5 1029 L 595.5 1034 L 574.5 1043 L 547.5 1056 L 528.5 1067 L 528 1063.5 L 532 1042.5 L 532 1035.5 L 535 1020.5 L 538 991 L 493 960 L 494.5 957 L 538.5 929 L 557.5 920 L 569.5 916 L 572 913.5 L 570 910.5 L 567 898.5 L 567 887.5 Q 569.5 875.5 577.5 869 L 592.5 858 L 624.5 841 L 653.5 829 L 679.5 821 L 682.5 819 L 715.5 811 L 747.5 805 L 762.5 804 L 768.5 802 L 779.5 802 L 780.5 801 L 790.5 801 L 791.5 800 L 807.5 800 L 808.5 799 L 825.5 799 L 826.5 798 Z M 822 803 L 821 804 L 804 804 L 803 805 L 792 805 L 791 806 L 780 806 L 779 807 L 748 810 L 691 822 L 665 830 L 639 840 L 610 854 L 581 872 L 574 881 L 571 892 L 572 902 L 582 927 L 596 978 L 600 969 Q 612 955 629 946 L 651 935 L 685 922 L 713 914 L 753 906 L 774 904 L 775 903 L 783 903 L 784 902 L 793 902 L 794 901 L 824 900 L 825 899 L 896 899 L 897 900 L 915 900 L 916 901 L 928 901 L 929 902 L 955 904 L 1000 912 L 1040 923 L 1064 932 L 1094 947 L 1113 960 Q 1121 966 1124 976 Q 1123 979 1126 978 L 1136 936 L 1142 917 L 1149 901 Q 1151 884 1144 877 L 1134 867 L 1119 858 L 1087 842 L 1044 826 L 1015 818 L 980 811 L 974 811 L 960 808 L 952 808 L 951 807 L 943 807 L 942 806 L 932 806 L 931 805 L 900 804 L 899 803 L 822 803 Z M 572 920 Q 532 935 501 960 L 544 989 L 541 1007 L 541 1014 L 537 1036 L 535 1056 L 535 1057 L 582 1034 L 619 1021 L 647 1014 L 674 1009 L 694 1007 L 695 1006 L 715 1005 L 727 1000 L 730 995 L 731 990 Q 731 981 727 976 Q 724 971 718 970 L 703 972 L 667 990 L 649 997 L 625 1002 Q 609 1004 601 999 Q 594 995 592 986 L 582 943 L 575 922 L 572 920 Z M 711 920 Q 682 927 657 938 L 627 953 L 614 962 Q 603 970 598 984 L 599 992 L 604 995 L 612 997 L 634 995 L 654 990 L 697 969 L 707 966 Q 717 964 724 967 L 725 968 L 716 935 L 711 920 Z M 1010 920 L 996 967 L 996 968 L 1001 966 L 1016 966 L 1040 976 L 1068 990 L 1101 997 L 1110 997 L 1120 994 L 1123 989 L 1122 982 L 1115 970 L 1104 959 L 1078 944 L 1038 928 L 1010 920 Z M 1146 920 L 1139 942 L 1128 988 L 1124 996 Q 1120 1001 1112 1002 L 1097 1002 L 1073 997 L 1059 992 L 1026 975 L 1010 970 Q 1002 969 998 972 Q 992 976 990 984 Q 989 993 992 998 L 999 1003 L 1006 1005 L 1026 1006 L 1027 1007 L 1035 1007 L 1042 1009 L 1054 1010 L 1106 1022 L 1140 1034 L 1184 1056 L 1186 1058 L 1177 990 L 1218 961 L 1219 959 L 1181 934 L 1158 923 L 1146 920 Z " /><path fill="rgb(32,36,37)" stroke="rgb(32,36,37)" stroke-width="1" opacity="1" d="M 840.5 831 L 849.5 832 L 856 837.5 L 858 841.5 Q 856.5 847 859 848.5 Q 856.5 850 858 855.5 L 853.5 862 Q 849 866.5 838.5 865 L 832 862 L 828 853.5 L 828 842.5 L 834.5 833 L 840.5 831 Z M 841 837 L 839 838 L 834 845 Q 833 853 836 857 L 841 860 L 848 859 L 852 852 L 851 842 Q 849 836 841 837 Z " /><path fill="rgb(32,36,37)" stroke="rgb(32,36,37)" stroke-width="1" opacity="1" d="M 811.5 833 L 823 833 L 823 838 L 813 839 L 814 845.5 L 814 866 L 808 866 L 808 856.5 L 807 855.5 L 807 840.5 L 805.5 839 Q 800.7 837.8 799.5 840 L 797 839.5 L 797 834 L 810.5 834 L 811.5 833 Z " /><path fill="rgb(32,36,37)" stroke="rgb(32,36,37)" stroke-width="1" opacity="1" d="M 910.5 833 L 919.5 834 L 925 839.5 L 926 844 Q 920.6 845.5 919 842.5 L 916.5 839 Q 908.7 837.2 907 841.5 L 908 846 L 920.5 849 L 925 852.5 L 926 860.5 L 922.5 865 L 919.5 867 L 908.5 867 L 902 864 L 900 856 L 906 856 L 906 858.5 Q 908.2 863.3 916.5 862 L 920 859.5 Q 920.8 855.8 918.5 855 Q 908.1 853.4 902 847.5 L 901 840.5 L 904 835 L 910.5 833 Z " /><path fill="rgb(32,36,37)" stroke="rgb(32,36,37)" stroke-width="1" opacity="1" d="M 776.5 835 Q 789.1 832.9 792 840.5 L 793 844 L 787.5 844 Q 785.9 839.1 778.5 840 L 774 842 L 774 847 L 775.5 847 L 789.5 850 L 794 853.5 L 795 861.5 L 791.5 866 Q 787.4 869.9 778.5 869 L 774.5 868 L 770 863.5 L 769 859 L 774.5 859 L 775 860.5 L 777.5 863 L 781.5 864 L 789 860.5 Q 789.8 856.8 787.5 856 L 772.5 853 L 769 849.5 L 768 842.5 L 773.5 836 L 776.5 835 Z " /><path fill="rgb(32,36,37)" stroke="rgb(32,36,37)" stroke-width="1" opacity="1" d="M 944 838 L 952 839 L 958 872 L 951 872 L 951 866.5 L 950 864 L 938.5 863 L 935 869 L 928 867.5 L 944 838 Z M 947 846 L 941 858 L 949 859 L 948 848 L 947 846 Z " /><path fill="rgb(32,36,37)" stroke="rgb(32,36,37)" stroke-width="1" opacity="1" d="M 753 840 L 760 840 L 760 845.5 L 761 846.5 L 763 864.5 L 760 871 Q 755.3 875.1 744.5 874 L 740 872 L 737 866.5 L 734 843 L 739.5 842 L 741 843.5 L 743 863.5 L 745 868 L 749.5 869 L 755 867 Q 756.6 864.9 756 859.5 L 755 858.5 L 753 840 Z " /><path fill="rgb(32,36,37)" stroke="rgb(32,36,37)" stroke-width="1" opacity="1" d="M 876.5 841 L 881.5 841 L 886 845.5 Q 887.3 852.8 882.5 854 L 877.5 855 L 873 851.5 L 872 846.5 L 876.5 841 Z " /><path fill="rgb(32,36,37)" stroke="rgb(32,36,37)" stroke-width="1" opacity="1" d="M 969 842 Q 974.3 841.3 977 844.5 L 985.5 867 L 989 845 L 995 846 L 990 878 L 983 875.5 L 974.5 853 L 973 854.5 L 973 860.5 L 970 874 Q 965.4 875.3 964 872.5 L 965 871.5 L 969 842 Z " /><path fill="rgb(32,36,37)" stroke="rgb(32,36,37)" stroke-width="1" opacity="1" d="M 723.5 845 Q 727.3 843.8 726 847.5 L 730 864.5 L 730 873.5 L 726.5 878 Q 723.2 880.7 716.5 880 L 712 876.5 L 710 869 L 716 868 Q 715 873.6 719.5 875 L 724 872.5 L 720 846 L 723.5 845 Z " /><path fill="rgb(32,36,37)" stroke="rgb(32,36,37)" stroke-width="1" opacity="1" d="M 1000 849 L 1023.5 853 L 1025 854.5 Q 1025.8 858.3 1023.5 859 L 1015.5 857 L 1014 858.5 L 1014 863.5 L 1010 883 L 1004 883 L 1004 875.5 L 1008 856 L 999 854 L 1000 849 Z " /><path fill="rgb(32,36,37)" stroke="rgb(32,36,37)" stroke-width="1" opacity="1" d="M 682.5 856 Q 687.3 854.3 686 858.5 L 694 887 L 687.5 888 L 669 870.5 L 674 892 L 668 893 L 663 870.5 L 660 863.5 Q 662 860.5 667.5 861 L 681 874.5 L 681 876 L 684.5 878 L 685 875.5 L 680 857 L 682.5 856 Z " /><path fill="rgb(32,36,37)" stroke="rgb(32,36,37)" stroke-width="1" opacity="1" d="M 1036 858 L 1044 859 Q 1045.7 863.5 1045 871.5 L 1046 872.5 L 1047 893 L 1041 892 Q 1041.7 886.7 1038.5 884 L 1028.5 882 L 1025 888 L 1019 887 L 1020 882.5 L 1036 858 Z M 1039 866 L 1033 874 L 1032 878 L 1040 879 L 1039 866 Z " /><path fill="rgb(32,36,37)" stroke="rgb(32,36,37)" stroke-width="1" opacity="1" d="M 641.5 869 L 664 896 L 657.5 897 L 655 893 L 650.5 893 L 642 896 L 642 903.5 L 640.5 904 L 636.5 906 L 636 894.5 L 635 893.5 L 635 872.5 L 641.5 869 Z M 642 878 L 641 890 L 643 891 L 649 888 L 642 878 Z " /><path fill="rgb(32,36,37)" stroke="rgb(32,36,37)" stroke-width="1" opacity="1" d="M 1073 869 L 1095 876 L 1092.5 881 L 1077 876 L 1075 882.5 L 1088 888 L 1087 893 L 1073.5 888 L 1069 900 L 1063 899 L 1064 892.5 L 1073 869 Z " /><path fill="rgb(32,36,37)" stroke="rgb(32,36,37)" stroke-width="1" opacity="1" d="M 1101 880 L 1117.5 886 L 1123 889.5 L 1120.5 894 Q 1114.5 889.5 1105.5 888 Q 1102.2 890 1103 895 L 1117 900.5 L 1114.5 905 L 1100 899 L 1097 906.5 L 1113 914.5 L 1111.5 919 L 1089 910 L 1101 880 Z " /><path fill="rgb(32,36,37)" stroke="rgb(32,36,37)" stroke-width="1" opacity="1" d="M 612.5 882 L 617.5 882 L 624 887.5 L 618.5 890 Q 616.5 887 610.5 888 L 606 891.5 Q 605.3 896.3 608.5 897 L 624.5 895 L 629 898.5 L 631 905.5 L 625.5 913 Q 621.1 917.1 611.5 916 L 606 911.5 Q 604.8 907.8 608.5 909 L 612 908 Q 610.9 910.7 613.5 910 L 617.5 911 L 624 908 L 625 904.5 L 624 902 L 618.5 901 L 608.5 903 L 604.5 902 L 601 898.5 L 600 890.5 L 603.5 886 L 612.5 882 Z " /><path fill="rgb(247,245,223)" stroke="rgb(247,245,223)" stroke-width="1" opacity="1" d="M 863.5 162 L 880 201 L 917 216.5 L 879 232 L 865 268 Q 862.3 269.1 863 266.5 L 849 232 L 810 216.5 L 848 201 L 863.5 162 Z " /><path fill="rgb(247,245,223)" stroke="rgb(247,245,223)" stroke-width="1" opacity="1" d="M 580.5 471 L 584 476.5 L 597.5 510 L 623.5 520 L 634 525.5 L 596 541 L 586 567.5 L 580.5 577 L 566 541 L 528 525.5 L 538.5 520 L 562.5 511 L 565 508.5 L 580.5 471 Z " /><path fill="rgb(247,245,223)" stroke="rgb(247,245,223)" stroke-width="1" opacity="1" d="M 863.5 471 L 872 488.5 L 880 510 L 917 525.5 L 878 542.5 Q 872.4 561.4 863.5 577 L 849 541 L 811 525.5 L 840.5 512 L 848 510 L 849 504.5 L 851 502.5 L 863.5 471 Z " /><path fill="rgb(247,245,223)" stroke="rgb(247,245,223)" stroke-width="1" opacity="1" d="M 1151.5 471 L 1160 488.5 L 1168 510 L 1206 525.5 Q 1184.4 532.4 1166 542.5 Q 1160.6 561.6 1151.5 577 L 1137 541 L 1099 525.5 L 1128.5 512 L 1136 510 L 1137 504.5 L 1139 502.5 L 1151.5 471 Z " /><path fill="rgb(247,245,223)" stroke="rgb(247,245,223)" stroke-width="1" opacity="1" d="M 832.5 803 L 887.5 803 L 888.5 804 L 927.5 805 L 928.5 806 L 947.5 807 L 948.5 808 L 956.5 808 L 957.5 809 L 977.5 811 L 1008.5 817 L 1039.5 825 L 1090.5 844 L 1119.5 859 L 1142 874.5 L 1149 887.5 L 1149 898.5 L 1136 934.5 L 1125.5 977 Q 1120.6 964.9 1110.5 958 L 1094.5 947 L 1066.5 933 L 1027.5 919 L 1004.5 913 L 975.5 907 L 963.5 906 L 956.5 904 L 949.5 904 L 948.5 903 L 941.5 903 L 940.5 902 L 904.5 900 L 903.5 899 L 864.5 899 Q 862.7 896.3 856.5 898 L 855.5 899 L 816.5 899 L 815.5 900 L 801.5 900 L 800.5 901 L 780.5 902 L 779.5 903 L 750.5 906 L 707.5 915 L 674.5 925 L 645.5 937 L 616.5 953 L 601 966.5 L 595.5 978 L 582 925.5 L 572 900.5 L 572 886.5 Q 574.8 876.3 582.5 871 Q 603.6 856.1 628.5 845 L 657.5 833 L 691.5 822 L 703.5 820 L 716.5 816 L 756.5 809 L 782.5 807 L 783.5 806 L 793.5 806 L 794.5 805 L 831.5 804 L 832.5 803 Z M 840 831 L 832 834 L 829 839 L 827 847 L 828 856 L 830 860 Q 834 865 842 866 Q 848 866 853 863 Q 857 859 859 853 Q 860 841 855 836 L 848 831 L 840 831 Z M 806 833 L 805 834 L 796 834 L 796 839 L 798 840 L 806 840 L 807 844 L 807 861 L 808 862 L 808 866 L 815 866 L 815 860 L 814 859 L 814 842 L 813 841 L 815 839 L 823 839 L 823 833 L 806 833 Z M 909 833 L 905 835 L 901 840 L 902 849 Q 908 853 918 855 L 920 858 L 919 860 L 916 862 L 909 860 Q 906 861 907 858 Q 905 854 900 856 L 901 863 Q 905 867 912 868 L 921 867 L 924 865 L 926 862 L 927 857 L 925 851 L 908 845 L 907 843 L 908 840 L 911 839 Q 917 838 919 842 L 919 844 L 925 844 L 926 845 L 925 839 Q 921 831 909 833 Z M 776 835 L 772 837 L 768 842 L 769 851 L 775 854 L 787 856 L 789 860 L 785 863 Q 778 864 776 862 L 775 858 L 769 859 L 770 865 L 777 869 Q 791 871 795 863 Q 796 856 794 853 L 792 850 L 777 848 L 774 844 L 777 841 L 781 840 L 788 845 L 793 844 L 792 840 Q 788 833 776 835 Z M 945 838 L 928 868 L 936 869 L 937 865 L 941 863 L 943 863 L 950 865 L 951 872 L 958 873 L 956 857 L 952 840 L 952 838 L 945 838 Z M 757 839 L 753 840 L 755 861 L 756 862 L 755 866 Q 754 870 747 868 L 744 866 L 741 849 L 741 842 L 734 842 L 735 858 L 738 870 L 745 874 Q 754 875 759 872 L 763 866 L 761 845 L 760 844 Q 762 837 757 839 Z M 877 841 L 875 842 L 872 846 L 873 853 L 877 855 L 884 854 Q 887 852 886 845 Q 885 840 877 841 Z M 970 841 L 964 874 L 970 875 L 971 874 L 973 857 L 975 854 L 983 877 L 991 878 L 992 866 L 995 853 L 995 845 L 989 845 L 986 866 L 977 843 L 970 841 Z M 723 845 L 719 848 L 724 872 Q 723 875 719 874 Q 715 873 716 868 Q 711 866 709 870 L 712 878 L 717 880 Q 724 881 728 878 L 731 873 L 727 847 Q 726 844 723 845 Z M 999 849 L 999 855 L 1008 856 L 1003 883 L 1010 884 L 1015 858 L 1025 859 L 1026 855 L 1021 852 L 999 849 Z M 680 856 L 680 861 L 685 878 L 671 865 Q 672 862 669 863 L 669 861 L 667 860 L 660 862 L 668 894 L 675 892 L 673 888 L 670 873 L 670 871 L 672 872 L 673 875 L 676 876 L 678 879 Q 680 878 679 881 L 684 884 L 687 888 Q 692 889 694 887 L 686 858 L 686 856 L 680 856 Z M 1037 858 L 1022 879 L 1018 887 L 1025 888 L 1029 882 L 1039 885 L 1040 886 L 1040 892 L 1048 894 L 1047 891 L 1045 861 Q 1043 857 1037 858 Z M 1073 868 L 1062 899 L 1069 901 Q 1069 894 1074 889 L 1087 893 Q 1089 892 1088 887 Q 1081 887 1076 883 L 1079 876 L 1093 882 L 1095 876 L 1073 868 Z M 641 869 L 638 871 L 635 872 L 635 906 L 641 904 L 642 904 L 642 896 L 654 893 L 658 898 L 664 896 L 658 888 Q 659 885 656 886 L 644 871 L 641 869 Z M 1102 880 L 1089 907 L 1089 910 L 1112 919 L 1113 913 L 1098 907 L 1101 899 L 1111 904 L 1116 905 L 1117 899 L 1103 894 L 1105 888 L 1122 894 L 1123 888 L 1102 880 Z M 612 882 L 606 884 L 600 891 L 601 900 L 607 903 Q 612 905 614 902 L 624 902 L 624 907 L 620 910 Q 613 912 612 908 Q 606 907 605 911 L 606 913 L 611 916 Q 623 918 628 912 L 631 907 Q 632 900 629 898 L 626 895 L 616 895 L 615 896 Q 608 898 606 895 L 607 890 L 612 888 Q 618 887 619 891 L 624 889 L 623 886 Q 620 881 612 882 Z " /><path fill="rgb(247,245,223)" stroke="rgb(247,245,223)" stroke-width="1" opacity="1" d="M 840.5 837 Q 847.7 836.3 850 840.5 Q 852.7 843.8 852 850.5 Q 850.8 856.3 846.5 859 Q 839.7 859.9 837 858 L 834 850.5 L 834 846.5 L 836 840.5 L 838.5 838 L 840.5 837 Z " /><path fill="rgb(247,245,223)" stroke="rgb(247,245,223)" stroke-width="1" opacity="1" d="M 946.5 847 L 948 849.5 Q 947.2 855.6 949 858 L 942 858 L 942 855.5 L 946.5 847 Z " /><path fill="rgb(247,245,223)" stroke="rgb(247,245,223)" stroke-width="1" opacity="1" d="M 1038.5 866 L 1039 878.5 L 1037.5 878 L 1032 876.5 L 1038.5 866 Z " /><path fill="rgb(247,245,223)" stroke="rgb(247,245,223)" stroke-width="1" opacity="1" d="M 641 879 Q 643.7 877.9 643 880.5 L 649 887.5 L 642 890 L 641 879 Z " /><path fill="rgb(247,245,223)" stroke="rgb(247,245,223)" stroke-width="1" opacity="1" d="M 572.5 920 Q 574.8 919.3 574 921.5 L 580 936.5 L 592 986.5 L 597 997 L 606.5 1002 L 615.5 1003 L 616.5 1002 L 627.5 1002 L 649.5 997 Q 676.2 987.7 698.5 974 L 707.5 971 L 715.5 970 L 722.5 972 L 727 976.5 Q 731.8 981.7 730 993.5 L 724.5 1001 L 713.5 1005 L 691.5 1006 L 690.5 1007 L 677.5 1008 L 624.5 1019 L 580.5 1034 L 535.5 1057 L 535 1052.5 L 536 1051.5 L 544 989.5 L 502 959.5 Q 501.3 957.3 503.5 958 L 544.5 932 L 572.5 920 Z " /><path fill="rgb(247,245,223)" stroke="rgb(247,245,223)" stroke-width="1" opacity="1" d="M 1146 920 L 1159.5 924 L 1172.5 930 Q 1197.5 943 1219 959.5 L 1177 988 L 1179 1010.5 L 1182 1025.5 L 1182 1032.5 L 1186 1057 L 1142.5 1035 L 1103.5 1021 L 1049.5 1009 L 1043.5 1009 L 1028.5 1006 L 1006.5 1005 L 997.5 1002 L 992 996.5 L 990 990.5 L 990 985.5 L 992 978.5 L 995 974 L 1000.5 971 L 1007.5 970 L 1024.5 975 L 1062.5 994 L 1083.5 1000 L 1106.5 1003 L 1116.5 1001 L 1126 993.5 L 1133 970.5 L 1139 942.5 L 1146 920 Z " /><path fill="rgb(247,245,223)" stroke="rgb(247,245,223)" stroke-width="1" opacity="1" d="M 707.5 921 Q 711.3 920.3 712 922.5 L 725 967.5 L 723.5 967 Q 718.5 964 709.5 965 L 686.5 973 Q 669.4 983.9 648.5 991 L 625.5 996 L 607.5 996 L 599 990.5 L 598 986.5 L 600 979.5 L 608 967 L 616 962 Q 614.9 959.3 617.5 960 L 627.5 953 L 650.5 941 L 672.5 932 L 707.5 921 Z " /><path fill="rgb(247,245,223)" stroke="rgb(247,245,223)" stroke-width="1" opacity="1" d="M 1009 921 L 1045.5 931 L 1074.5 943 L 1096.5 955 L 1113 968.5 L 1121 980.5 L 1122 989.5 L 1119.5 993 L 1112.5 996 L 1095.5 996 L 1094.5 995 L 1083.5 994 L 1063.5 988 L 1022.5 968 L 1011.5 965 L 1003.5 965 L 996 967 L 1009 921 Z " /></svg>