<svg version="1.1" id="Layer_1" xmlns="http://www.w3.org/2000/svg" xmlns:xlink="http://www.w3.org/1999/xlink" x="0px" y="0px"
	 width="100%" viewBox="0 0 1536 1024" enable-background="new 0 0 1536 1024" xml:space="preserve">
<path fill="#FFFFFF" opacity="1.000000" stroke="none" 
	d="
M1537.000000,257.000000 
	C1537.000000,427.358246 1537.000000,597.716492 1536.544067,768.542114 
	C1025.903809,769.006470 515.719604,769.003357 5.535311,769.006409 
	C4.372339,769.006470 3.209368,769.098083 1.790471,769.069824 
	C1.356363,768.995117 1.178182,768.997559 1.000000,769.000000 
	C1.000000,598.641785 1.000000,428.283539 1.245623,257.452454 
	C1.491246,256.979614 1.967523,256.857544 2.419507,256.944153 
	C3.371416,257.036469 3.871341,257.047180 4.371266,257.047180 
	C513.429321,257.048737 1022.487366,257.049683 1531.545410,257.042542 
	C1533.039673,257.042511 1534.533936,256.924072 1536.267334,256.922516 
	C1536.506470,256.984131 1537.000000,257.000000 1537.000000,257.000000 
M906.057373,467.953705 
	C906.057373,467.953705 906.179749,467.937866 906.054749,467.299744 
	C905.723572,466.808594 905.392456,466.317444 905.181702,465.351959 
	C905.408386,465.103912 905.683594,464.934875 906.752136,464.974701 
	C909.555542,464.352600 912.359009,463.730530 915.071960,463.084778 
	C915.071960,463.084778 915.083374,463.177612 915.600281,462.986664 
	C915.798950,462.688080 915.997681,462.389496 916.095764,462.078369 
	C916.095764,462.078369 916.121826,462.176422 916.790955,461.893555 
	C917.534607,459.762054 918.494263,457.678040 918.975403,455.488892 
	C919.877197,451.385651 920.501953,447.221558 921.665283,443.003510 
	C921.958008,442.865326 922.105164,442.634369 922.746155,442.037689 
	C927.519287,438.888580 925.924927,434.173279 925.813354,429.784332 
	C925.649109,423.323334 925.696411,423.322174 919.204285,423.247375 
	C913.253418,423.178802 910.979309,420.683075 912.051086,414.327209 
	C913.462585,408.981537 912.780640,406.711609 907.552185,406.082123 
	C901.415466,405.343323 894.419800,404.528656 889.009766,406.729218 
	C881.719482,409.694672 875.563354,405.908020 868.833740,407.055878 
	C870.338318,395.698151 866.416382,391.024109 855.300232,390.155090 
	C854.137878,390.064178 852.952942,390.138092 851.811340,389.943054 
	C850.865234,389.781494 849.774902,389.565247 849.078735,388.980225 
	C843.268188,384.097076 837.360901,379.307983 831.823242,374.126678 
	C825.673767,368.372772 818.648438,364.872772 810.296448,363.801636 
	C805.292175,363.159821 799.838013,363.174042 795.481934,361.053223 
	C790.057251,358.412201 785.386536,354.938629 778.896790,354.193970 
	C774.442505,353.682831 771.065002,353.789948 767.236755,356.152649 
	C763.141174,358.680450 758.492371,360.311951 752.805481,362.921875 
	C752.805481,357.943542 752.987793,354.406799 752.742859,350.899872 
	C752.573303,348.473450 752.336914,344.360352 751.216553,344.021423 
	C748.317688,343.144379 743.543152,342.657166 741.983154,344.323090 
	C738.255127,348.304443 735.293762,347.609436 731.120239,345.733887 
	C724.157837,342.605011 718.094238,344.444336 715.872559,349.737946 
	C713.636047,355.066895 711.319214,355.842102 707.231445,351.682861 
	C702.779297,347.152863 697.523743,349.110107 692.606506,349.048615 
	C685.673767,348.961914 685.388428,349.596924 683.505432,359.099335 
	C683.453918,359.359467 683.059204,359.551605 682.366150,360.212708 
	C680.957214,358.031525 679.617310,355.957306 678.233093,353.814392 
	C674.125977,356.641388 670.087646,359.421021 665.912659,362.294708 
	C665.302979,361.735504 664.723083,361.153412 664.092102,360.633392 
	C660.816162,357.933838 654.260132,358.622620 652.077698,361.881989 
	C649.538025,365.674866 650.664307,369.464111 655.119324,372.253815 
	C656.945862,373.397614 658.945251,374.386505 660.478088,375.851654 
	C663.152344,378.407837 662.421021,381.383087 658.976990,382.730164 
	C658.976990,382.730164 658.854980,382.655212 658.704529,382.359619 
	C658.704529,382.359619 658.408020,382.211182 657.949097,381.765930 
	C652.813232,379.719330 647.710999,377.582214 642.530029,375.656921 
	C638.908142,374.311005 635.758179,375.141907 633.440491,378.533508 
	C633.440491,378.533508 633.326538,378.545471 632.811096,378.971527 
	C631.676147,382.178619 630.813965,385.522339 629.302551,388.540894 
	C628.414551,390.314209 626.703552,392.484344 624.996033,392.875519 
	C621.027832,393.784546 616.840820,393.778839 612.735962,394.040405 
	C608.117310,394.334686 605.010498,396.310303 604.106628,401.362396 
	C606.073975,402.659088 607.980957,403.915924 609.921448,405.073700 
	C609.921448,405.073700 609.825623,405.115692 610.122559,405.754822 
	C610.015686,407.480652 609.908875,409.206482 609.249451,411.198242 
	C608.507141,412.157104 607.764893,413.115936 606.487793,414.370453 
	C605.927063,415.204681 605.366333,416.038910 604.912354,416.898285 
	C604.912354,416.898285 604.895325,416.789978 604.401245,417.019958 
	C604.242310,417.337219 604.083374,417.654480 603.994751,417.988098 
	C603.994751,417.988098 603.957214,417.926483 603.376953,418.269196 
	C599.467346,423.778534 594.689331,428.917511 596.021240,436.576080 
	C596.161865,437.384766 595.711060,438.713837 595.078125,439.175079 
	C588.604553,443.893005 582.882019,450.098663 573.506531,449.987030 
	C573.060974,449.639618 572.615479,449.292236 571.983459,448.419434 
	C571.695496,448.199554 571.407593,447.979645 571.104248,447.876923 
	C571.104248,447.876923 571.217041,447.841766 570.974060,447.199707 
	C568.987976,444.374725 566.799683,442.681763 563.308044,446.007355 
	C563.031372,446.175812 562.898804,446.421906 562.280640,447.155304 
	C558.327576,456.358063 558.070496,466.160950 558.708252,475.813995 
	C559.163391,482.703339 561.437561,489.472504 562.893433,496.841553 
	C563.188477,497.253784 563.483582,497.665985 563.903992,498.666779 
	C564.216248,499.136719 564.528442,499.606628 564.947571,500.728485 
	C565.575317,501.837097 566.203064,502.945709 566.936157,504.824493 
	C568.267456,509.386597 570.059509,513.877502 570.779053,518.534058 
	C571.319275,522.030273 572.356262,524.347961 575.917419,525.082092 
	C575.917419,525.082092 575.818787,525.120483 575.996277,525.823608 
	C579.071350,531.953796 579.941956,532.268372 585.077393,529.079163 
	C585.077393,529.079163 585.141357,529.196777 585.847473,528.912109 
	C586.796143,526.135742 587.744812,523.359375 589.147095,519.255371 
	C594.432495,519.697205 600.770508,520.262085 607.115417,520.732605 
	C608.705994,520.850586 611.342712,521.251343 611.757812,520.525940 
	C614.765869,515.269653 620.182983,515.304871 625.645996,513.858215 
	C626.814880,512.686584 628.437866,511.721466 629.079407,510.310181 
	C633.447327,500.701294 641.534973,496.765869 651.321411,496.592987 
	C657.788025,496.478821 664.336365,497.772491 670.735657,499.015106 
	C672.676758,499.392029 674.242371,501.702454 675.979980,503.127289 
	C675.812683,503.506805 675.645447,503.886353 675.478210,504.265869 
	C665.671814,502.554321 658.156555,505.838989 652.410278,513.788513 
	C649.281555,518.116821 644.619873,520.151245 639.276367,521.033264 
	C632.839600,522.095825 626.575256,523.735046 623.417236,530.581116 
	C622.863342,531.782043 621.322266,532.848145 620.002808,533.316833 
	C615.564514,534.893433 614.180420,537.458374 615.696716,542.112854 
	C616.691956,545.167786 616.766052,548.463440 612.034241,549.213074 
	C611.115479,549.358643 609.845154,551.585388 609.944458,552.749146 
	C610.063477,554.144104 611.515381,556.561279 612.322571,556.534119 
	C614.226379,556.469910 616.524719,555.677185 617.900940,554.373962 
	C628.024597,544.787415 637.960693,535.002869 648.559326,525.029358 
	C649.399902,524.368103 650.240479,523.706909 651.023132,522.998779 
	C651.023132,522.998779 651.037231,523.072021 651.669678,522.928406 
	C652.530273,522.313354 653.390930,521.698364 654.872192,521.073914 
	C655.583374,520.679993 656.294556,520.286072 657.745728,519.850098 
	C666.780518,516.920593 675.764587,513.820312 684.867798,511.121521 
	C690.964478,509.313995 697.156250,509.177032 703.350098,512.846924 
	C707.686340,515.515381 711.860840,518.526306 716.436462,520.688171 
	C718.337158,521.586182 721.940125,521.615784 723.299927,520.398804 
	C727.016968,517.072205 729.702515,518.486694 732.201233,521.301758 
	C738.489136,528.385742 744.518982,535.698181 750.764404,542.820740 
	C754.812500,547.437439 758.279236,553.466125 763.417297,555.990295 
	C769.481079,558.969177 772.369507,563.440308 775.170410,568.673706 
	C777.035461,572.158569 778.826660,575.682983 780.666382,579.488220 
	C780.717896,579.693481 780.832825,579.853210 780.993103,579.985779 
	C780.993103,579.985779 781.016785,579.992676 780.974976,580.776184 
	C784.748535,591.608398 787.076111,602.678833 787.056458,614.225952 
	C786.995300,650.178772 786.941345,686.132202 787.124817,722.084229 
	C787.164185,729.798279 787.414917,737.720032 792.975769,744.028015 
	C792.975769,744.028015 792.884033,744.074951 793.255981,744.760010 
	C797.076233,746.173035 801.011963,748.236145 804.184326,742.682678 
	C804.437805,742.381775 804.691223,742.080872 805.526855,741.699402 
	C805.768677,741.173889 806.010437,740.648376 806.138611,740.102051 
	C806.138611,740.102051 806.171448,740.212830 806.779236,739.765320 
	C807.497803,737.401001 808.667908,735.072937 808.861084,732.666443 
	C810.043030,717.942078 811.002075,703.199829 812.038391,688.463806 
	C813.145508,672.721375 805.267334,659.241943 801.017700,644.394531 
	C801.017700,644.394531 800.869690,643.973755 801.009521,643.193604 
	C801.043518,640.548706 801.055420,637.903259 801.115051,635.258911 
	C801.402649,622.510071 800.699585,609.629456 802.355103,597.059814 
	C803.441711,588.809387 807.942200,581.008606 811.259705,572.516296 
	C811.542297,571.791138 811.824890,571.065979 812.676636,569.929688 
	C813.174805,568.639465 813.672913,567.349304 814.056213,566.043274 
	C814.056213,566.043274 814.062256,566.159119 814.641235,565.917297 
	C814.859680,565.564880 815.078125,565.212463 815.864502,564.545837 
	C818.672974,560.301208 821.058044,555.680725 824.403015,551.912415 
	C828.114807,547.730896 830.885010,548.007385 834.046692,552.372375 
	C836.823608,556.206238 838.812378,560.605957 841.518005,564.499512 
	C842.354858,565.703857 844.400757,566.068115 845.893066,566.817017 
	C846.613464,565.285278 848.239624,563.491699 847.886475,562.270325 
	C846.771301,558.413696 844.914734,554.771423 843.108643,550.416565 
	C842.445984,549.553833 841.783325,548.691101 841.074890,547.927979 
	C841.074890,547.927979 841.176392,547.886597 840.981934,547.288513 
	C840.350403,546.480347 839.718933,545.672241 839.040894,544.950623 
	C839.040894,544.950623 839.134705,544.921326 838.920471,544.192871 
	C838.724548,542.498169 838.528564,540.803467 838.834045,538.885376 
	C839.234436,538.294067 839.634888,537.702759 840.611816,536.771484 
	C842.468384,534.534607 844.324951,532.297729 846.711487,529.854980 
	C847.144958,529.249878 847.578369,528.644714 848.516479,527.816711 
	C848.857910,527.387878 849.199402,526.959106 848.951050,526.187744 
	C849.144836,526.307556 849.338684,526.427429 850.008789,526.263855 
	C850.386353,525.872192 850.763977,525.480530 851.054077,525.038147 
	C851.054077,525.038147 851.085144,525.134460 851.782715,524.837830 
	C854.249390,517.248840 854.250000,517.246643 862.600525,519.612244 
	C863.064758,519.743774 863.505737,519.956848 864.221191,520.697571 
	C865.144104,521.799255 866.067017,522.901001 867.100891,524.691040 
	C869.027100,526.192444 870.953369,527.693848 872.907898,529.095093 
	C872.907898,529.095093 872.811829,529.135315 873.152100,529.675171 
	C874.076111,530.191956 875.000061,530.708801 876.028992,531.660278 
	C876.205322,531.937317 876.457642,532.074829 877.085815,532.767456 
	C877.855591,534.760437 878.811707,536.704224 879.354431,538.757263 
	C880.324036,542.424866 880.795166,546.241821 881.994568,549.822205 
	C882.457092,551.203125 884.337036,552.109253 885.571228,553.231750 
	C886.419556,551.952393 887.711243,550.774658 888.032227,549.374451 
	C888.954285,545.350708 889.451599,541.231140 890.176208,537.160034 
	C890.949707,532.814392 893.939392,531.012512 897.989868,531.172363 
	C899.651611,531.237915 901.267517,532.464478 902.932251,533.065735 
	C902.932251,533.065735 902.840881,533.109070 903.205627,533.686157 
	C905.443787,534.869873 907.681946,536.053650 910.103333,537.759583 
	C910.687195,538.187439 911.271057,538.615234 912.066406,539.552673 
	C912.360535,539.762512 912.654724,539.972351 913.091614,540.698730 
	C913.609497,541.170166 914.127380,541.641602 914.934570,542.736084 
	C917.243408,544.892395 919.552246,547.048706 921.909668,549.098694 
	C921.909668,549.098694 921.802490,549.145508 922.211853,549.776611 
	C924.344727,549.984009 926.477661,550.191467 928.610535,550.398865 
	C928.403442,548.600708 928.196350,546.802612 927.853882,544.337097 
	C925.231995,541.805542 922.613831,539.270142 919.987183,536.743408 
	C916.807129,533.684204 916.799072,530.903809 919.623474,527.243591 
	C922.379456,523.671997 924.095215,519.299683 926.286682,515.289246 
	C926.912537,514.143982 927.541138,512.991394 928.276855,511.916290 
	C933.132080,504.821747 938.046265,497.767334 942.855469,490.641907 
	C943.476990,489.721130 944.057617,488.384338 943.874939,487.382874 
	C943.346191,484.483704 943.270142,480.026245 941.493042,479.098663 
	C935.409424,475.923248 929.169983,472.239227 921.642578,473.665009 
	C916.169434,474.701660 910.650452,475.353119 907.108154,468.565216 
	C906.760254,468.320312 906.412354,468.075409 906.057373,467.953705 
M441.962402,566.058899 
	C441.962402,566.058899 441.872894,566.086975 442.272491,566.665710 
	C443.128296,566.883911 443.984070,567.102051 444.679901,567.316406 
	C444.679901,567.316406 444.677856,567.476440 444.776611,568.132080 
	C445.800079,568.510132 446.823547,568.888123 447.935760,569.176575 
	C447.935760,569.176575 447.829834,569.108154 447.948364,569.747620 
	C448.346771,569.912231 448.745178,570.076843 449.578033,570.831787 
	C449.891754,573.297119 450.768097,575.850098 450.400330,578.209229 
	C449.666809,582.914368 448.250305,587.513062 447.115875,592.155701 
	C447.485809,592.389771 447.855774,592.623779 448.225708,592.857788 
	C452.527557,588.041077 456.829437,583.224365 461.256775,578.267090 
	C467.250885,581.932617 472.470184,585.124329 478.023376,588.779541 
	C478.269989,588.391296 478.516571,588.002991 478.555298,586.884399 
	C476.955780,583.075195 475.700500,579.069519 473.667389,575.507874 
	C471.265533,571.300354 472.396393,568.665344 475.953735,565.940857 
	C479.208710,563.447937 482.027039,560.384827 486.088806,556.591370 
	C478.542603,557.410034 472.654663,558.048767 466.654449,558.699646 
	C465.120270,555.329712 463.630219,552.056763 462.065338,548.059265 
	C460.991730,545.741455 459.918121,543.423706 458.257629,539.838989 
	C456.869995,547.452698 455.732727,553.692505 454.272034,559.878601 
	C454.272034,559.878601 453.991669,560.048584 453.162720,560.156433 
	C446.765808,560.719177 440.368866,561.281982 433.035645,561.927063 
	C435.850189,563.230286 437.886261,564.173035 439.984558,565.042419 
	C439.984558,565.042419 439.890839,565.063965 440.258942,565.552917 
	C440.828888,565.752747 441.398834,565.952576 441.962402,566.058899 
M512.085815,691.214600 
	C511.831268,691.299500 511.576752,691.384399 511.322205,691.469360 
	C511.509674,691.680664 511.697144,691.891907 511.964294,692.829407 
	C513.983093,697.383911 515.833801,702.023682 518.084106,706.460815 
	C519.422302,709.099304 518.860779,710.548157 516.606628,712.280212 
	C512.925476,715.108704 509.556061,718.342957 505.204895,722.150024 
	C511.194153,721.558167 515.898254,721.482483 520.415100,720.524170 
	C524.049866,719.752991 525.524963,721.102600 526.768555,724.132202 
	C528.513977,728.384277 530.588806,732.501221 533.143555,738.015930 
	C534.289062,732.062683 535.442261,727.466797 535.971130,722.800110 
	C536.291443,719.973877 537.453796,719.192749 540.044861,719.058594 
	C545.225586,718.790283 550.392334,718.249512 555.564819,717.821228 
	C551.718384,714.685120 547.846863,712.093262 543.630920,710.320374 
	C540.012695,708.798828 539.596680,706.629517 540.349548,703.293518 
	C541.364563,698.795837 542.072205,694.228821 543.079041,688.787415 
	C537.857788,693.568298 533.260315,697.777954 528.622559,702.024536 
	C523.021973,698.363159 517.736023,694.907532 512.085815,691.214600 
M491.086639,405.134674 
	C491.393097,398.333466 491.699585,391.532257 492.006042,384.731049 
	C491.670410,384.676239 491.334778,384.621429 490.999146,384.566620 
	C490.236786,386.002350 489.474457,387.438080 488.173340,389.261200 
	C486.058960,392.632812 483.783600,395.916565 481.880371,399.403442 
	C480.313354,402.274323 478.623260,403.447235 475.156677,402.396210 
	C470.448914,400.968872 465.538727,400.209259 459.841187,398.973694 
	C463.771790,403.304688 466.926178,406.923401 470.244507,410.384918 
	C472.347717,412.578796 472.378967,414.574432 470.652802,417.011505 
	C467.466949,421.509308 464.460602,426.134186 460.765076,431.617828 
	C468.051483,428.433899 474.331635,425.689667 480.526184,422.982849 
	C484.700500,428.099792 488.561096,432.832184 493.310791,438.654449 
	C492.808502,432.122070 492.567932,427.148529 491.996124,422.213348 
	C491.622528,418.988800 492.830719,417.396423 495.864502,416.422729 
	C500.624939,414.894867 505.265320,412.992950 509.956512,411.249451 
	C509.895233,410.944946 509.833923,410.640442 509.772614,410.335938 
	C504.174683,409.250519 498.576782,408.165100 492.487091,406.935242 
	C492.316315,406.932037 492.145508,406.928802 491.680359,406.609161 
	C491.479126,406.402527 491.267395,406.207306 491.086639,405.134674 
M1075.068726,431.047729 
	C1075.322632,430.955780 1075.576660,430.863831 1075.830566,430.771912 
	C1075.625000,430.445709 1075.419556,430.119507 1075.005005,429.146393 
	C1072.308960,425.356415 1069.715210,421.487946 1066.885132,417.800842 
	C1064.551147,414.759949 1064.595093,412.449524 1067.668091,409.791382 
	C1071.157227,406.773376 1074.178711,403.214661 1077.403564,399.891022 
	C1071.843506,400.227875 1066.963257,401.141815 1062.219849,402.524445 
	C1059.213867,403.400604 1057.663208,402.511658 1056.228394,399.908447 
	C1053.480713,394.922821 1050.432495,390.102722 1047.509033,385.213928 
	C1047.224976,385.308105 1046.940796,385.402283 1046.656738,385.496460 
	C1046.656738,392.548218 1046.656738,399.600006 1046.656738,406.596954 
	C1040.299805,407.934906 1034.321289,409.193237 1026.909424,410.753204 
	C1032.836914,412.956482 1037.237793,414.828308 1041.787964,416.208008 
	C1045.350708,417.288361 1046.358887,419.311890 1045.884644,422.819275 
	C1045.235352,427.621216 1044.928345,432.469452 1044.360107,438.516907 
	C1049.124268,432.714813 1053.083740,427.892670 1057.005249,423.116974 
	C1063.066162,425.748871 1068.834229,428.253571 1075.068726,431.047729 
M442.670685,509.167267 
	C448.684113,506.099945 454.697540,503.032623 460.740356,499.950317 
	C465.225159,505.069427 469.339264,509.765411 474.331970,515.464233 
	C473.466064,508.950409 472.844513,503.744507 472.057678,498.563721 
	C471.619507,495.678802 472.668427,493.944061 475.281189,492.676910 
	C479.901947,490.435883 484.399353,487.940521 489.544128,485.238739 
	C483.634033,484.500092 478.547852,483.639740 473.427307,483.304352 
	C470.083740,483.085388 469.307922,481.337555 469.106689,478.520538 
	C468.746094,473.472504 468.225922,468.435852 467.632751,461.841339 
	C464.509308,467.723785 461.952118,472.268036 459.669037,476.946045 
	C458.390564,479.565613 456.805969,480.682648 453.808624,480.021057 
	C448.735626,478.901337 443.601868,478.057068 437.242249,476.861786 
	C441.951324,481.354767 445.686188,485.102997 449.634796,488.610596 
	C451.725830,490.468048 452.187897,491.939270 450.532349,494.479736 
	C447.470886,499.177673 444.840851,504.156769 441.770386,509.134949 
	C441.831421,509.073059 441.892487,509.011169 442.670685,509.167267 
M1085.878906,587.621765 
	C1087.372437,589.276794 1088.865967,590.931824 1091.289673,593.617676 
	C1089.988159,587.132141 1089.360352,582.016602 1087.869263,577.166443 
	C1086.537964,572.835938 1088.179688,570.755310 1091.743408,568.946533 
	C1095.998413,566.786987 1100.084595,564.294861 1104.243896,561.946777 
	C1098.534302,560.858276 1093.217163,560.870056 1087.900024,560.853577 
	C1085.027100,560.844666 1083.429199,559.752502 1082.969360,556.541443 
	C1082.193237,551.120361 1080.853149,545.780029 1079.466309,539.022339 
	C1077.194336,545.130493 1075.260376,549.858887 1073.698486,554.707153 
	C1072.779785,557.559204 1071.374023,558.679321 1068.305908,558.293823 
	C1063.475098,557.686890 1058.596191,557.462769 1052.742798,556.997498 
	C1057.149780,561.009583 1060.644409,564.534912 1064.513916,567.584656 
	C1066.832886,569.412354 1067.000610,570.963867 1065.830688,573.454895 
	C1063.572144,578.263611 1061.602905,583.208130 1059.053833,589.172546 
	C1065.622437,585.270081 1071.005005,582.072266 1077.909180,577.970459 
	C1080.335938,580.936707 1082.863403,584.026062 1085.878906,587.621765 
M1063.761475,653.246277 
	C1069.061035,651.987366 1074.360596,650.728455 1080.713623,649.219299 
	C1074.981934,646.850525 1070.443481,644.883911 1065.833008,643.104309 
	C1063.133911,642.062317 1062.048462,640.686279 1062.529541,637.495911 
	C1063.305298,632.349487 1063.348022,627.092529 1063.770752,620.843750 
	C1059.025757,626.717529 1054.901367,631.822998 1050.757324,636.952820 
	C1044.882690,634.461609 1039.252441,632.074036 1032.406372,629.170776 
	C1036.465454,636.065063 1039.725952,641.602600 1042.941895,647.064758 
	C1038.856201,651.811829 1035.046143,656.238525 1030.400757,661.635681 
	C1036.379761,660.263855 1041.080444,659.298645 1045.714600,658.080322 
	C1048.587280,657.325134 1050.350098,658.158691 1051.784912,660.737671 
	C1054.261963,665.190002 1056.999756,669.497253 1059.628174,673.865356 
	C1060.088501,673.828247 1060.548706,673.791199 1061.009033,673.754150 
	C1061.009033,668.523926 1060.864258,663.287231 1061.098755,658.067566 
	C1061.167725,656.533203 1062.311890,655.047241 1063.761475,653.246277 
M539.039001,341.523834 
	C537.618103,341.072510 536.218445,340.326904 534.772522,340.222961 
	C529.654724,339.854950 528.226868,337.109558 528.686035,332.301453 
	C529.084351,328.129272 528.768860,323.888947 528.768860,318.302551 
	C524.982117,323.527161 521.907104,327.465210 519.187378,331.635010 
	C517.519653,334.191864 515.780273,334.784698 512.967041,333.654205 
	C507.821625,331.586548 502.572815,329.776184 496.590424,327.572357 
	C501.420380,333.795074 505.657196,339.253571 509.918732,344.743988 
	C506.227600,350.262085 502.765106,355.438324 498.790497,361.380157 
	C504.092468,359.411346 508.607086,357.904480 512.976624,356.054810 
	C516.081604,354.740356 518.058777,355.071899 519.928528,358.195709 
	C522.385864,362.301300 525.437622,366.051086 528.885559,370.863647 
	C528.885559,364.422058 529.048767,359.429626 528.822632,354.454895 
	C528.693176,351.606354 529.813232,350.203979 532.395874,349.381683 
	C537.283447,347.825439 542.117188,346.100098 548.302917,343.991852 
	C544.526855,343.012939 542.171326,342.402252 539.039001,341.523834 
M1029.609375,357.826233 
	C1032.505249,358.880890 1035.401123,359.935516 1039.166748,361.306946 
	C1035.750366,356.397156 1032.946777,352.172852 1029.929688,348.106964 
	C1028.192627,345.766144 1028.088989,343.830719 1029.995483,341.512024 
	C1033.528320,337.215179 1036.854858,332.748718 1040.946289,327.478424 
	C1035.139771,329.785248 1030.238159,331.638397 1025.417236,333.682220 
	C1022.401855,334.960632 1020.354187,334.728821 1018.474548,331.577026 
	C1016.188477,327.743591 1013.233887,324.308777 1010.568481,320.701538 
	C1010.113342,320.895477 1009.658264,321.089417 1009.203186,321.283356 
	C1009.203186,325.518677 1008.875854,329.787018 1009.298706,333.979675 
	C1009.691833,337.877594 1007.950928,339.200287 1004.563660,339.968903 
	C999.868896,341.034241 995.262573,342.489929 989.826965,343.998047 
	C995.673828,346.104401 1000.568176,348.046967 1005.582458,349.602905 
	C1008.335449,350.457123 1009.135071,351.947998 1009.027527,354.682861 
	C1008.835022,359.578400 1008.973145,364.486938 1008.973145,370.501221 
	C1011.624390,366.981934 1013.597351,364.403137 1015.527710,361.792877 
	C1020.667419,354.842865 1020.660156,354.837494 1029.609375,357.826233 
M475.366272,628.273743 
	C475.570068,631.084534 475.567963,633.929565 476.027130,636.697998 
	C476.674683,640.602356 475.535614,642.861023 471.507111,644.063416 
	C467.335480,645.308594 463.383301,647.289124 458.343140,649.354553 
	C461.748627,650.071045 464.089966,650.538269 466.419495,651.058105 
	C477.934723,653.627930 477.893951,653.633240 478.027863,665.467896 
	C478.048889,667.329590 478.615173,669.185059 478.929352,671.043396 
	C479.432434,671.057007 479.935547,671.070557 480.438629,671.084106 
	C482.511749,667.734802 484.914093,664.538574 486.562592,660.992004 
	C488.120453,657.640259 490.210815,657.344055 493.316040,658.213745 
	C497.912170,659.501160 502.578247,660.538818 508.433136,661.983582 
	C504.418640,657.268921 501.347992,653.401978 497.983185,649.810547 
	C496.015137,647.709900 496.070374,646.092590 497.595062,643.755554 
	C500.389160,639.472717 502.817749,634.951355 506.054718,629.405579 
	C500.942932,631.661987 496.940857,632.939209 493.474854,635.083130 
	C489.197815,637.728821 486.765106,636.443176 484.209015,632.700562 
	C481.659546,628.967651 478.528595,625.631897 474.883850,621.183838 
	C475.042389,624.173279 475.128571,625.798706 475.366272,628.273743 
M1061.945557,491.620697 
	C1066.729614,493.070221 1067.684570,496.177490 1066.544678,500.824860 
	C1065.537598,504.929932 1065.304688,509.224884 1064.565918,514.637329 
	C1068.885986,510.035583 1072.491699,506.422363 1075.813110,502.564209 
	C1077.566406,500.527466 1079.041626,500.356720 1081.336060,501.627197 
	C1086.193237,504.316711 1091.203003,506.730682 1097.308594,509.849335 
	C1093.151611,502.962158 1089.688477,497.224548 1086.094604,491.270416 
	C1091.049927,486.589630 1095.848022,482.057251 1100.646240,477.524872 
	C1095.740479,477.820496 1091.382080,478.786896 1087.029907,479.780304 
	C1083.217896,480.650391 1080.360474,479.973419 1078.563721,475.922699 
	C1076.652100,471.613098 1074.152832,467.564148 1071.456299,462.558929 
	C1070.513794,469.963806 1069.709595,476.282959 1068.886230,482.751373 
	C1062.600708,483.640106 1056.686768,484.476318 1049.877808,485.439087 
	C1054.257324,487.659515 1057.780151,489.445557 1061.945557,491.620697 
M1025.243408,715.255127 
	C1024.600708,714.727661 1024.008423,714.118225 1023.306946,713.686218 
	C1019.459229,711.317017 1018.391357,708.633606 1020.993896,704.343323 
	C1023.428345,700.330200 1024.963989,695.771790 1027.324585,690.493408 
	C1020.756714,694.712463 1015.132202,698.325562 1009.457214,701.971008 
	C1004.916443,697.851196 1000.652161,693.982178 995.396851,689.213928 
	C996.350647,694.700317 996.992737,699.022034 997.880554,703.292664 
	C998.535400,706.442810 997.952576,708.519897 994.730164,710.045715 
	C990.492920,712.052063 986.544800,714.669067 981.542664,717.560974 
	C987.816223,718.153259 992.908813,718.368896 997.880981,719.258362 
	C999.458557,719.540649 1001.467468,721.372803 1001.974670,722.922607 
	C1003.404907,727.293274 1004.158020,731.885559 1005.477234,737.712341 
	C1008.013916,732.170593 1010.170227,728.059143 1011.778381,723.743408 
	C1012.919250,720.681702 1014.376404,719.753540 1017.670288,720.401001 
	C1022.445251,721.339600 1027.347778,721.628601 1033.467041,722.343079 
	C1030.222778,719.550903 1027.999390,717.637390 1025.243408,715.255127 
z"/>
<path fill="#C41623" opacity="1.000000" stroke="none" 
	d="
M1536.028198,256.860901 
	C1534.533936,256.924072 1533.039673,257.042511 1531.545410,257.042542 
	C1022.487366,257.049683 513.429321,257.048737 4.371266,257.047180 
	C3.871341,257.047180 3.371416,257.036469 2.313433,256.746338 
	C1.555315,256.223358 1.303523,256.069366 1.000000,256.000000 
	C1.000000,171.017120 1.000000,86.034225 1.000000,1.025671 
	C512.879822,1.025671 1024.759644,1.025671 1537.000000,1.025671 
	C1537.000000,85.695694 1537.000000,170.391891 1536.791260,255.629013 
	C1536.314209,256.333160 1536.129395,256.563477 1536.028198,256.860901 
z"/>
<path fill="#C41623" opacity="1.000000" stroke="none" 
	d="
M1.000000,769.459717 
	C1.178182,768.997559 1.356363,768.995117 2.012239,769.386719 
	C4.144380,769.853760 5.798825,769.990967 7.453273,769.990967 
	C517.302185,770.000244 1027.151123,770.000000 1537.000000,770.000000 
	C1537.000000,854.982605 1537.000000,939.965149 1537.000000,1024.973877 
	C1025.122314,1024.973877 513.244629,1024.973877 1.000000,1024.973877 
	C1.000000,939.973511 1.000000,854.946472 1.000000,769.459717 
z"/>
<path fill="#B70003" opacity="1.000000" stroke="none" 
	d="
M1537.000000,769.750000 
	C1027.151123,770.000000 517.302185,770.000244 7.453273,769.990967 
	C5.798825,769.990967 4.144380,769.853760 2.268165,769.463745 
	C3.209368,769.098083 4.372339,769.006470 5.535311,769.006409 
	C515.719604,769.003357 1025.903809,769.006470 1536.544067,769.004761 
	C1537.000000,769.000000 1537.000000,769.500000 1537.000000,769.750000 
z"/>
<path fill="#BA0007" opacity="1.000000" stroke="none" 
	d="
M1536.267334,256.922516 
	C1536.129395,256.563477 1536.314209,256.333160 1536.791260,256.084961 
	C1537.000000,256.000000 1537.000000,256.500000 1537.000000,256.750000 
	C1537.000000,257.000000 1536.506470,256.984131 1536.267334,256.922516 
z"/>
<path fill="#BA0007" opacity="1.000000" stroke="none" 
	d="
M1.000000,256.250000 
	C1.303523,256.069366 1.555315,256.223358 1.861449,256.659729 
	C1.967523,256.857544 1.491246,256.979614 1.245623,256.989807 
	C1.000000,257.000000 1.000000,256.500000 1.000000,256.250000 
z"/>
<path fill="#C51622" opacity="1.000000" stroke="none" 
	d="
M657.005676,519.892090 
	C656.294556,520.286072 655.583374,520.679993 654.183350,521.057922 
	C652.675354,521.718628 651.856262,522.395325 651.037231,523.072021 
	C651.037231,523.072021 651.023132,522.998779 650.671021,523.019897 
	C649.531189,523.787598 648.743530,524.534119 647.955872,525.280640 
	C637.960693,535.002869 628.024597,544.787415 617.900940,554.373962 
	C616.524719,555.677185 614.226379,556.469910 612.322571,556.534119 
	C611.515381,556.561279 610.063477,554.144104 609.944458,552.749146 
	C609.845154,551.585388 611.115479,549.358643 612.034241,549.213074 
	C616.766052,548.463440 616.691956,545.167786 615.696716,542.112854 
	C614.180420,537.458374 615.564514,534.893433 620.002808,533.316833 
	C621.322266,532.848145 622.863342,531.782043 623.417236,530.581116 
	C626.575256,523.735046 632.839600,522.095825 639.276367,521.033264 
	C644.619873,520.151245 649.281555,518.116821 652.410278,513.788513 
	C658.156555,505.838989 665.671814,502.554321 675.478210,504.265869 
	C675.645447,503.886353 675.812683,503.506805 675.979980,503.127289 
	C674.242371,501.702454 672.676758,499.392029 670.735657,499.015106 
	C664.336365,497.772491 657.788025,496.478821 651.321411,496.592987 
	C641.534973,496.765869 633.447327,500.701294 629.079407,510.310181 
	C628.437866,511.721466 626.814880,512.686584 625.031738,513.611206 
	C619.382446,512.176819 615.463379,513.925476 612.025269,517.637329 
	C611.147888,518.584473 609.257141,519.019897 607.853088,518.978394 
	C601.769897,518.798401 595.696899,518.235474 589.614136,518.113159 
	C588.474365,518.090271 586.535156,519.252136 586.296021,520.202393 
	C585.563232,523.112915 585.478271,526.186584 585.141357,529.196777 
	C585.141357,529.196777 585.077393,529.079163 584.708374,529.065674 
	C580.127197,530.714966 578.866455,525.981445 575.818787,525.120483 
	C575.818787,525.120483 575.917419,525.082092 575.887817,524.755493 
	C574.573730,521.767395 573.208862,519.141235 572.023376,516.436401 
	C570.226990,512.337769 568.555420,508.184418 566.830811,504.054321 
	C566.203064,502.945709 565.575317,501.837097 565.152222,500.230408 
	C564.830750,499.180969 564.304688,498.629578 563.778625,498.078217 
	C563.483582,497.665985 563.188477,497.253784 562.925842,496.139160 
	C561.974609,487.160828 560.245117,478.887024 560.221313,470.608307 
	C560.198486,462.656708 561.942627,454.700043 562.910278,446.745605 
	C562.898804,446.421906 563.031372,446.175812 563.926147,445.988281 
	C566.768494,446.593414 568.992737,447.217590 571.217041,447.841766 
	C571.217041,447.841766 571.104248,447.876923 571.189819,448.090698 
	C571.573547,448.517944 571.871765,448.731384 572.169922,448.944824 
	C572.615479,449.292236 573.060974,449.639618 573.842407,450.463379 
	C575.026062,451.171814 575.890198,451.652222 576.719177,451.597778 
	C585.357117,451.029968 590.646851,444.585052 596.873047,439.845459 
	C597.682251,439.229431 598.066711,437.454712 597.931091,436.300934 
	C597.304871,430.971405 599.313354,426.605133 602.263367,422.404449 
	C603.151855,421.139252 603.410156,419.431488 603.957214,417.926483 
	C603.957214,417.926483 603.994751,417.988098 604.199829,417.857483 
	C604.568359,417.414612 604.731873,417.102295 604.895325,416.789978 
	C604.895325,416.789978 604.912354,416.898285 605.215881,416.886505 
	C606.020447,415.941406 606.521484,415.008087 607.022583,414.074799 
	C607.764893,413.115936 608.507141,412.157104 609.888672,411.045898 
	C613.150635,408.620361 615.112671,406.427490 609.825623,405.115692 
	C609.825623,405.115692 609.921448,405.073700 609.911377,404.756531 
	C608.922729,402.788849 607.944153,401.138367 606.673279,398.995026 
	C608.496155,397.941071 610.031372,396.503754 611.782654,396.156708 
	C615.303711,395.458893 619.011658,395.671722 622.510681,394.906311 
	C625.283997,394.299683 629.260437,393.490540 630.229248,391.541687 
	C632.160767,387.656616 632.392578,382.926514 633.326538,378.545471 
	C633.326538,378.545471 633.440491,378.533508 633.849854,378.561462 
	C638.898254,376.160797 643.360840,376.919800 647.984619,378.915283 
	C651.313232,380.351837 654.923401,381.136017 658.408020,382.211182 
	C658.408020,382.211182 658.704529,382.359619 658.614502,382.629211 
	C658.690430,382.887848 658.856384,382.876923 659.022339,382.865997 
	C662.421021,381.383087 663.152344,378.407837 660.478088,375.851654 
	C658.945251,374.386505 656.945862,373.397614 655.119324,372.253815 
	C650.664307,369.464111 649.538025,365.674866 652.077698,361.881989 
	C654.260132,358.622620 660.816162,357.933838 664.092102,360.633392 
	C664.723083,361.153412 665.302979,361.735504 665.912659,362.294708 
	C670.087646,359.421021 674.125977,356.641388 678.233093,353.814392 
	C679.617310,355.957306 680.957214,358.031525 682.366150,360.212708 
	C683.059204,359.551605 683.453918,359.359467 683.505432,359.099335 
	C685.388428,349.596924 685.673767,348.961914 692.606506,349.048615 
	C697.523743,349.110107 702.779297,347.152863 707.231445,351.682861 
	C711.319214,355.842102 713.636047,355.066895 715.872559,349.737946 
	C718.094238,344.444336 724.157837,342.605011 731.120239,345.733887 
	C735.293762,347.609436 738.255127,348.304443 741.983154,344.323090 
	C743.543152,342.657166 748.317688,343.144379 751.216553,344.021423 
	C752.336914,344.360352 752.573303,348.473450 752.742859,350.899872 
	C752.987793,354.406799 752.805481,357.943542 752.805481,362.921875 
	C758.492371,360.311951 763.141174,358.680450 767.236755,356.152649 
	C771.065002,353.789948 774.442505,353.682831 778.896790,354.193970 
	C785.386536,354.938629 790.057251,358.412201 795.481934,361.053223 
	C799.838013,363.174042 805.292175,363.159821 810.296448,363.801636 
	C818.648438,364.872772 825.673767,368.372772 831.823242,374.126678 
	C837.360901,379.307983 843.268188,384.097076 849.078735,388.980225 
	C849.774902,389.565247 850.865234,389.781494 851.811340,389.943054 
	C852.952942,390.138092 854.137878,390.064178 855.300232,390.155090 
	C866.416382,391.024109 870.338318,395.698151 868.833740,407.055878 
	C875.563354,405.908020 881.719482,409.694672 889.009766,406.729218 
	C894.419800,404.528656 901.415466,405.343323 907.552185,406.082123 
	C912.780640,406.711609 913.462585,408.981537 911.535461,414.765747 
	C908.918152,420.848755 912.128113,425.021423 918.981567,424.919250 
	C922.772156,424.862762 924.658508,425.812317 924.001526,429.877899 
	C923.332825,434.016174 922.735352,438.165924 922.106689,442.310669 
	C922.105164,442.634369 921.958008,442.865326 921.063599,443.068848 
	C919.680908,444.479004 918.453552,445.745056 918.199890,447.182861 
	C917.323975,452.148407 916.787476,457.173798 916.121826,462.176422 
	C916.121826,462.176422 916.095764,462.078369 915.882080,462.172729 
	C915.473389,462.570618 915.278381,462.874115 915.083374,463.177612 
	C915.083374,463.177612 915.071960,463.084778 914.665955,463.060181 
	C911.509033,463.638672 908.758179,464.241760 906.007263,464.844879 
	C905.683594,464.934875 905.408386,465.103912 905.123901,465.917725 
	C905.437317,466.968323 905.808533,467.453094 906.179749,467.937866 
	C906.179749,467.937866 906.057373,467.953705 906.189087,468.189636 
	C906.674622,468.671539 907.028442,468.917542 907.382202,469.163513 
	C910.650452,475.353119 916.169434,474.701660 921.642578,473.665009 
	C929.169983,472.239227 935.409424,475.923248 941.493042,479.098663 
	C943.270142,480.026245 943.346191,484.483704 943.874939,487.382874 
	C944.057617,488.384338 943.476990,489.721130 942.855469,490.641907 
	C938.046265,497.767334 933.132080,504.821747 928.276855,511.916290 
	C927.541138,512.991394 926.912537,514.143982 926.286682,515.289246 
	C924.095215,519.299683 922.379456,523.671997 919.623474,527.243591 
	C916.799072,530.903809 916.807129,533.684204 919.987183,536.743408 
	C922.613831,539.270142 925.231995,541.805542 927.643372,544.895142 
	C926.896606,548.728027 924.516174,549.190918 921.802490,549.145508 
	C921.802490,549.145508 921.909668,549.098694 921.905579,548.790527 
	C919.482727,546.359253 917.064026,544.236206 914.645264,542.113098 
	C914.127380,541.641602 913.609497,541.170166 912.917114,540.183411 
	C912.446716,539.459717 912.150879,539.251343 911.854980,539.043030 
	C911.271057,538.615234 910.687195,538.187439 909.999878,537.131042 
	C907.544617,535.371338 905.192749,534.240234 902.840881,533.109070 
	C902.840881,533.109070 902.932251,533.065735 902.898071,532.726685 
	C897.302490,527.420837 890.628845,529.215576 888.996887,536.226440 
	C888.137512,539.917969 887.714294,543.709167 886.942810,547.424011 
	C886.687744,548.652344 885.959717,549.782410 885.447937,550.957397 
	C884.889709,550.925415 884.331543,550.893372 883.773376,550.861389 
	C882.839355,546.788208 882.195740,542.616760 880.863159,538.678467 
	C880.055115,536.290161 878.181091,534.262573 876.785950,532.072876 
	C876.457642,532.074829 876.205322,531.937317 875.957031,531.066101 
	C874.860657,530.026367 873.836243,529.580811 872.811829,529.135315 
	C872.811829,529.135315 872.907898,529.095093 872.898315,528.793701 
	C870.922424,526.995728 868.956177,525.499207 866.989929,524.002686 
	C866.067017,522.901001 865.144104,521.799255 864.051758,520.037231 
	C860.508667,518.471680 856.963135,516.445618 853.802673,516.930420 
	C849.337585,517.615295 851.395325,522.126282 851.085144,525.134460 
	C851.085144,525.134460 851.054077,525.038147 850.756104,525.073120 
	C850.149536,525.587769 849.841003,526.067505 849.532471,526.547241 
	C849.338684,526.427429 849.144836,526.307556 848.916992,526.302124 
	C848.592590,526.957581 848.302185,527.498596 848.011841,528.039612 
	C847.578369,528.644714 847.144958,529.249878 846.084106,529.961670 
	C843.649658,532.416016 841.842468,534.763733 840.035278,537.111450 
	C839.634888,537.702759 839.234436,538.294067 838.204590,539.006348 
	C834.554199,542.011719 836.126526,543.659729 839.134705,544.921326 
	C839.134705,544.921326 839.040894,544.950623 839.042358,545.283630 
	C839.754639,546.373291 840.465515,547.129944 841.176392,547.886597 
	C841.176392,547.886597 841.074890,547.927979 841.063354,548.269470 
	C841.816284,549.422668 842.580688,550.234436 843.345032,551.046204 
	C844.914734,554.771423 846.771301,558.413696 847.886475,562.270325 
	C848.239624,563.491699 846.613464,565.285278 845.893066,566.817017 
	C844.400757,566.068115 842.354858,565.703857 841.518005,564.499512 
	C838.812378,560.605957 836.823608,556.206238 834.046692,552.372375 
	C830.885010,548.007385 828.114807,547.730896 824.403015,551.912415 
	C821.058044,555.680725 818.672974,560.301208 815.302368,564.849121 
	C814.514221,565.487915 814.288269,565.823547 814.062256,566.159180 
	C814.062256,566.159119 814.056213,566.043274 813.760376,566.180481 
	C813.012207,567.658752 812.559875,568.999817 812.107544,570.340881 
	C811.824890,571.065979 811.542297,571.791138 810.739014,572.818420 
	C809.136414,575.094971 807.979675,577.032532 806.985413,579.050110 
	C802.322083,588.512573 799.208435,598.222961 799.863037,609.090088 
	C800.456482,618.941467 799.947876,628.857117 800.030396,638.743530 
	C800.044983,640.489136 800.576782,642.230469 800.869690,643.973755 
	C800.869690,643.973755 801.017700,644.394531 801.016846,645.053040 
	C801.564514,648.607117 801.516663,651.791870 802.757629,654.351685 
	C811.217407,671.802185 810.739319,690.182007 808.972900,708.758911 
	C807.976501,719.237610 807.101257,729.727783 806.171387,740.212830 
	C806.171448,740.212830 806.138611,740.102051 805.915955,740.190857 
	C805.443787,740.779785 805.194275,741.279907 804.944702,741.780029 
	C804.691223,742.080872 804.437805,742.381775 803.520020,742.847534 
	C799.531799,743.366577 796.207947,743.720764 792.884033,744.074951 
	C792.884033,744.074951 792.975769,744.028015 792.970154,743.677979 
	C788.218445,732.828369 788.990845,721.667236 788.998840,710.586670 
	C789.022217,678.166626 789.427368,645.737976 788.757385,613.331726 
	C788.548950,603.250427 785.451721,593.217651 783.494263,583.198425 
	C783.262817,582.013733 781.870850,581.055725 781.016785,579.992676 
	C781.016785,579.992676 780.993103,579.985779 780.944336,579.845032 
	C780.816162,579.531738 780.734619,579.360229 780.650879,579.189758 
	C778.826660,575.682983 777.035461,572.158569 775.170410,568.673706 
	C772.369507,563.440308 769.481079,558.969177 763.417297,555.990295 
	C758.279236,553.466125 754.812500,547.437439 750.764404,542.820740 
	C744.518982,535.698181 738.489136,528.385742 732.201233,521.301758 
	C729.702515,518.486694 727.016968,517.072205 723.299927,520.398804 
	C721.940125,521.615784 718.337158,521.586182 716.436462,520.688171 
	C711.860840,518.526306 707.686340,515.515381 703.146484,512.176270 
	C699.513611,507.897949 695.024475,507.268616 690.682251,508.371490 
	C680.573181,510.939056 670.586670,514.002380 660.606018,517.046692 
	C659.243347,517.462280 658.197998,518.917969 657.005676,519.892090 
M814.659790,510.395416 
	C814.478210,511.054840 814.296692,511.714294 814.158508,512.726685 
	C814.158508,512.726685 813.934875,513.003113 813.225952,513.124939 
	C812.874573,514.156616 812.523254,515.188232 812.101746,516.095215 
	C812.101746,516.095215 812.225281,516.167297 811.503479,516.104187 
	C810.335876,517.056580 809.168274,518.008972 807.647217,519.312195 
	C807.240234,519.579285 806.833252,519.846313 805.679871,520.285339 
	C805.394775,521.310120 805.109619,522.334900 804.717590,523.671814 
	C804.717590,523.671814 804.452393,523.868164 803.836609,523.416321 
	C801.228271,523.942261 798.619995,524.468201 796.000000,525.000000 
	C796.000000,525.000000 796.005249,524.989258 795.906128,524.240479 
	C794.288818,523.568420 792.671509,522.896301 791.054138,522.224182 
	C790.465088,523.966187 789.304077,525.750305 789.428345,527.439941 
	C789.592651,529.674805 791.039062,531.786804 791.438477,534.039612 
	C792.093323,537.732666 792.805969,541.512817 792.673340,545.226990 
	C792.433228,551.951050 791.070740,558.661743 791.176270,565.362244 
	C791.248108,569.926208 793.020447,574.463501 794.322083,579.479370 
	C794.845581,579.577637 795.369080,579.675842 796.234924,580.309082 
	C796.792786,579.780457 797.350647,579.251770 798.000732,578.302734 
	C798.165161,578.028992 798.406982,577.897644 799.496765,577.911560 
	C800.280029,576.539673 801.063293,575.167725 801.893555,573.903931 
	C801.893555,573.903931 801.786133,573.855347 802.406555,573.899658 
	C802.597473,573.263672 802.788391,572.627686 802.991699,571.543457 
	C803.038818,571.213867 803.218018,570.989990 804.309204,570.877075 
	C805.142456,569.171204 805.975708,567.465332 806.839539,565.869812 
	C806.839539,565.869812 806.735840,565.821350 807.487915,565.851074 
	C808.276062,564.167908 809.064209,562.484741 809.889587,560.899597 
	C809.889587,560.899597 809.788940,560.870117 810.578552,560.844788 
	C811.011780,559.742981 811.445007,558.641174 811.882874,557.037048 
	C812.176697,556.665771 812.470520,556.294495 813.531982,555.880432 
	C814.089417,555.160583 815.170593,554.400940 815.119507,553.727234 
	C814.783569,549.297363 814.281677,544.875061 813.669556,540.473206 
	C813.374573,538.352234 811.611084,535.998108 815.025452,534.971741 
	C815.025452,534.971741 815.074158,534.880737 815.039124,535.674561 
	C816.121155,536.417542 817.203186,537.160522 818.674988,537.885498 
	C818.674988,537.885498 819.006897,538.090820 819.119324,538.769775 
	C822.884033,540.615417 825.016174,538.937866 826.455566,535.373291 
	C826.455566,535.373291 826.589294,535.276855 827.278931,535.643921 
	C827.869141,534.989136 828.459351,534.334290 829.374207,533.130066 
	C833.445801,529.561035 837.604797,526.085754 841.562866,522.395020 
	C845.087036,519.108948 844.129272,515.973450 840.638245,513.328491 
	C837.100342,510.648041 833.469849,508.089722 829.843445,504.643524 
	C826.309692,501.937134 823.056763,502.276703 820.401245,505.587982 
	C820.401245,505.587982 820.312317,505.561157 819.570435,505.218231 
	C818.796936,505.918030 818.023376,506.617859 817.190857,507.194061 
	C817.190857,507.194061 817.315552,507.250793 816.544434,507.182068 
	C816.100830,508.206085 815.657166,509.230103 815.166870,510.108612 
	C815.166870,510.108612 815.318909,510.123718 814.659790,510.395416 
M789.183105,436.592590 
	C789.344543,438.338531 790.307800,440.937347 789.522156,441.675964 
	C786.794373,444.240662 783.459412,446.159576 780.018982,448.558777 
	C785.017578,451.167999 788.559998,455.416748 788.581299,462.841492 
	C796.847717,455.817993 803.933777,449.814270 810.984131,443.768829 
	C811.449768,443.369537 811.742188,442.686157 811.947632,442.078308 
	C813.745850,436.758698 813.927124,430.828033 810.551697,426.791809 
	C806.742737,422.237061 801.020020,419.280609 796.107605,415.658905 
	C795.920288,415.520813 795.479919,415.629852 795.196655,415.732269 
	C789.990479,417.614746 784.790283,419.513855 779.665100,421.381592 
	C782.673950,426.103271 785.788208,430.990356 789.183105,436.592590 
M655.893372,464.940369 
	C655.835083,464.026123 655.776794,463.111877 655.688660,461.728638 
	C652.293457,462.230988 649.133850,462.357300 646.195862,463.229919 
	C643.309448,464.087189 641.371643,466.198822 642.189636,469.620880 
	C643.635620,475.669647 655.646301,485.279327 661.982605,485.011841 
	C663.497742,484.947876 666.061401,482.947906 666.181824,481.655670 
	C666.538513,477.828033 666.613647,473.766876 662.545105,471.143158 
	C660.210327,469.637482 658.259155,467.536865 655.893372,464.940369 
M816.082947,445.037903 
	C815.008911,448.528320 817.348999,449.777069 819.899353,449.510803 
	C825.074585,448.970520 830.191833,447.822144 835.310669,446.811371 
	C838.867920,446.108948 841.886353,442.146973 840.087891,440.274445 
	C837.380981,437.455963 833.961243,434.702271 830.329895,433.567230 
	C826.754944,432.449829 823.524353,434.864624 821.471558,438.429474 
	C820.197144,440.642548 818.251831,442.469330 816.082947,445.037903 
M682.689392,489.609985 
	C681.780457,484.273254 680.871521,478.936523 679.856201,472.975220 
	C677.576843,477.311310 675.415649,480.820618 673.892822,484.587982 
	C673.191101,486.323853 672.899231,489.583832 673.875061,490.387360 
	C676.929443,492.902313 680.675781,494.576874 685.081726,497.110535 
	C684.005249,493.813965 683.447266,492.105133 682.689392,489.609985 
z"/>
<path fill="#D1B43D" opacity="1.000000" stroke="none" 
	d="
M1085.634888,587.368591 
	C1082.863403,584.026062 1080.335938,580.936707 1077.909180,577.970459 
	C1071.005005,582.072266 1065.622437,585.270081 1059.053833,589.172546 
	C1061.602905,583.208130 1063.572144,578.263611 1065.830688,573.454895 
	C1067.000610,570.963867 1066.832886,569.412354 1064.513916,567.584656 
	C1060.644409,564.534912 1057.149780,561.009583 1052.742798,556.997498 
	C1058.596191,557.462769 1063.475098,557.686890 1068.305908,558.293823 
	C1071.374023,558.679321 1072.779785,557.559204 1073.698486,554.707153 
	C1075.260376,549.858887 1077.194336,545.130493 1079.466309,539.022339 
	C1080.853149,545.780029 1082.193237,551.120361 1082.969360,556.541443 
	C1083.429199,559.752502 1085.027100,560.844666 1087.900024,560.853577 
	C1093.217163,560.870056 1098.534302,560.858276 1104.243896,561.946777 
	C1100.084595,564.294861 1095.998413,566.786987 1091.743408,568.946533 
	C1088.179688,570.755310 1086.537964,572.835938 1087.869263,577.166443 
	C1089.360352,582.016602 1089.988159,587.132141 1091.289673,593.617676 
	C1088.865967,590.931824 1087.372437,589.276794 1085.634888,587.368591 
z"/>
<path fill="#D2B53E" opacity="1.000000" stroke="none" 
	d="
M1063.362427,653.392700 
	C1062.311890,655.047241 1061.167725,656.533203 1061.098755,658.067566 
	C1060.864258,663.287231 1061.009033,668.523926 1061.009033,673.754150 
	C1060.548706,673.791199 1060.088501,673.828247 1059.628174,673.865356 
	C1056.999756,669.497253 1054.261963,665.190002 1051.784912,660.737671 
	C1050.350098,658.158691 1048.587280,657.325134 1045.714600,658.080322 
	C1041.080444,659.298645 1036.379761,660.263855 1030.400757,661.635681 
	C1035.046143,656.238525 1038.856201,651.811829 1042.941895,647.064758 
	C1039.725952,641.602600 1036.465454,636.065063 1032.406372,629.170776 
	C1039.252441,632.074036 1044.882690,634.461609 1050.757324,636.952820 
	C1054.901367,631.822998 1059.025757,626.717529 1063.770752,620.843750 
	C1063.348022,627.092529 1063.305298,632.349487 1062.529541,637.495911 
	C1062.048462,640.686279 1063.133911,642.062317 1065.833008,643.104309 
	C1070.443481,644.883911 1074.981934,646.850525 1080.713623,649.219299 
	C1074.360596,650.728455 1069.061035,651.987366 1063.362427,653.392700 
z"/>
<path fill="#D2B53F" opacity="1.000000" stroke="none" 
	d="
M539.427368,341.657715 
	C542.171326,342.402252 544.526855,343.012939 548.302917,343.991852 
	C542.117188,346.100098 537.283447,347.825439 532.395874,349.381683 
	C529.813232,350.203979 528.693176,351.606354 528.822632,354.454895 
	C529.048767,359.429626 528.885559,364.422058 528.885559,370.863647 
	C525.437622,366.051086 522.385864,362.301300 519.928528,358.195709 
	C518.058777,355.071899 516.081604,354.740356 512.976624,356.054810 
	C508.607086,357.904480 504.092468,359.411346 498.790497,361.380157 
	C502.765106,355.438324 506.227600,350.262085 509.918732,344.743988 
	C505.657196,339.253571 501.420380,333.795074 496.590424,327.572357 
	C502.572815,329.776184 507.821625,331.586548 512.967041,333.654205 
	C515.780273,334.784698 517.519653,334.191864 519.187378,331.635010 
	C521.907104,327.465210 524.982117,323.527161 528.768860,318.302551 
	C528.768860,323.888947 529.084351,328.129272 528.686035,332.301453 
	C528.226868,337.109558 529.654724,339.854950 534.772522,340.222961 
	C536.218445,340.326904 537.618103,341.072510 539.427368,341.657715 
z"/>
<path fill="#D2B53E" opacity="1.000000" stroke="none" 
	d="
M442.031067,509.018738 
	C444.840851,504.156769 447.470886,499.177673 450.532349,494.479736 
	C452.187897,491.939270 451.725830,490.468048 449.634796,488.610596 
	C445.686188,485.102997 441.951324,481.354767 437.242249,476.861786 
	C443.601868,478.057068 448.735626,478.901337 453.808624,480.021057 
	C456.805969,480.682648 458.390564,479.565613 459.669037,476.946045 
	C461.952118,472.268036 464.509308,467.723785 467.632751,461.841339 
	C468.225922,468.435852 468.746094,473.472504 469.106689,478.520538 
	C469.307922,481.337555 470.083740,483.085388 473.427307,483.304352 
	C478.547852,483.639740 483.634033,484.500092 489.544128,485.238739 
	C484.399353,487.940521 479.901947,490.435883 475.281189,492.676910 
	C472.668427,493.944061 471.619507,495.678802 472.057678,498.563721 
	C472.844513,503.744507 473.466064,508.950409 474.331970,515.464233 
	C469.339264,509.765411 465.225159,505.069427 460.740356,499.950317 
	C454.697540,503.032623 448.684113,506.099945 442.330383,509.076904 
	C441.990051,508.986542 442.031067,509.018707 442.031067,509.018738 
z"/>
<path fill="#D2B53F" opacity="1.000000" stroke="none" 
	d="
M1029.246948,357.656616 
	C1020.660156,354.837494 1020.667419,354.842865 1015.527710,361.792877 
	C1013.597351,364.403137 1011.624390,366.981934 1008.973145,370.501221 
	C1008.973145,364.486938 1008.835022,359.578400 1009.027527,354.682861 
	C1009.135071,351.947998 1008.335449,350.457123 1005.582458,349.602905 
	C1000.568176,348.046967 995.673828,346.104401 989.826965,343.998047 
	C995.262573,342.489929 999.868896,341.034241 1004.563660,339.968903 
	C1007.950928,339.200287 1009.691833,337.877594 1009.298706,333.979675 
	C1008.875854,329.787018 1009.203186,325.518677 1009.203186,321.283356 
	C1009.658264,321.089417 1010.113342,320.895477 1010.568481,320.701538 
	C1013.233887,324.308777 1016.188477,327.743591 1018.474548,331.577026 
	C1020.354187,334.728821 1022.401855,334.960632 1025.417236,333.682220 
	C1030.238159,331.638397 1035.139771,329.785248 1040.946289,327.478424 
	C1036.854858,332.748718 1033.528320,337.215179 1029.995483,341.512024 
	C1028.088989,343.830719 1028.192627,345.766144 1029.929688,348.106964 
	C1032.946777,352.172852 1035.750366,356.397156 1039.166748,361.306946 
	C1035.401123,359.935516 1032.505249,358.880890 1029.246948,357.656616 
z"/>
<path fill="#D2B53F" opacity="1.000000" stroke="none" 
	d="
M475.290527,627.848938 
	C475.128571,625.798706 475.042389,624.173279 474.883850,621.183838 
	C478.528595,625.631897 481.659546,628.967651 484.209015,632.700562 
	C486.765106,636.443176 489.197815,637.728821 493.474854,635.083130 
	C496.940857,632.939209 500.942932,631.661987 506.054718,629.405579 
	C502.817749,634.951355 500.389160,639.472717 497.595062,643.755554 
	C496.070374,646.092590 496.015137,647.709900 497.983185,649.810547 
	C501.347992,653.401978 504.418640,657.268921 508.433136,661.983582 
	C502.578247,660.538818 497.912170,659.501160 493.316040,658.213745 
	C490.210815,657.344055 488.120453,657.640259 486.562592,660.992004 
	C484.914093,664.538574 482.511749,667.734802 480.438629,671.084106 
	C479.935547,671.070557 479.432434,671.057007 478.929352,671.043396 
	C478.615173,669.185059 478.048889,667.329590 478.027863,665.467896 
	C477.893951,653.633240 477.934723,653.627930 466.419495,651.058105 
	C464.089966,650.538269 461.748627,650.071045 458.343140,649.354553 
	C463.383301,647.289124 467.335480,645.308594 471.507111,644.063416 
	C475.535614,642.861023 476.674683,640.602356 476.027130,636.697998 
	C475.567963,633.929565 475.570068,631.084534 475.290527,627.848938 
z"/>
<path fill="#D1B43D" opacity="1.000000" stroke="none" 
	d="
M1061.624268,491.426147 
	C1057.780151,489.445557 1054.257324,487.659515 1049.877808,485.439087 
	C1056.686768,484.476318 1062.600708,483.640106 1068.886230,482.751373 
	C1069.709595,476.282959 1070.513794,469.963806 1071.456299,462.558929 
	C1074.152832,467.564148 1076.652100,471.613098 1078.563721,475.922699 
	C1080.360474,479.973419 1083.217896,480.650391 1087.029907,479.780304 
	C1091.382080,478.786896 1095.740479,477.820496 1100.646240,477.524872 
	C1095.848022,482.057251 1091.049927,486.589630 1086.094604,491.270416 
	C1089.688477,497.224548 1093.151611,502.962158 1097.308594,509.849335 
	C1091.203003,506.730682 1086.193237,504.316711 1081.336060,501.627197 
	C1079.041626,500.356720 1077.566406,500.527466 1075.813110,502.564209 
	C1072.491699,506.422363 1068.885986,510.035583 1064.565918,514.637329 
	C1065.304688,509.224884 1065.537598,504.929932 1066.544678,500.824860 
	C1067.684570,496.177490 1066.729614,493.070221 1061.624268,491.426147 
z"/>
<path fill="#D1B43C" opacity="1.000000" stroke="none" 
	d="
M1074.602295,430.758270 
	C1068.834229,428.253571 1063.066162,425.748871 1057.005249,423.116974 
	C1053.083740,427.892670 1049.124268,432.714813 1044.360107,438.516907 
	C1044.928345,432.469452 1045.235352,427.621216 1045.884644,422.819275 
	C1046.358887,419.311890 1045.350708,417.288361 1041.787964,416.208008 
	C1037.237793,414.828308 1032.836914,412.956482 1026.909424,410.753204 
	C1034.321289,409.193237 1040.299805,407.934906 1046.656738,406.596954 
	C1046.656738,399.600006 1046.656738,392.548218 1046.656738,385.496460 
	C1046.940796,385.402283 1047.224976,385.308105 1047.509033,385.213928 
	C1050.432495,390.102722 1053.480713,394.922821 1056.228394,399.908447 
	C1057.663208,402.511658 1059.213867,403.400604 1062.219849,402.524445 
	C1066.963257,401.141815 1071.843506,400.227875 1077.403564,399.891022 
	C1074.178711,403.214661 1071.157227,406.773376 1067.668091,409.791382 
	C1064.595093,412.449524 1064.551147,414.759949 1066.885132,417.800842 
	C1069.715210,421.487946 1072.308960,425.356415 1074.928955,429.693512 
	C1074.769287,430.413177 1074.685791,430.585724 1074.602295,430.758270 
z"/>
<path fill="#D2B53E" opacity="1.000000" stroke="none" 
	d="
M492.978851,407.079712 
	C498.576782,408.165100 504.174683,409.250519 509.772614,410.335938 
	C509.833923,410.640442 509.895233,410.944946 509.956512,411.249451 
	C505.265320,412.992950 500.624939,414.894867 495.864502,416.422729 
	C492.830719,417.396423 491.622528,418.988800 491.996124,422.213348 
	C492.567932,427.148529 492.808502,432.122070 493.310791,438.654449 
	C488.561096,432.832184 484.700500,428.099792 480.526184,422.982849 
	C474.331635,425.689667 468.051483,428.433899 460.765076,431.617828 
	C464.460602,426.134186 467.466949,421.509308 470.652802,417.011505 
	C472.378967,414.574432 472.347717,412.578796 470.244507,410.384918 
	C466.926178,406.923401 463.771790,403.304688 459.841187,398.973694 
	C465.538727,400.209259 470.448914,400.968872 475.156677,402.396210 
	C478.623260,403.447235 480.313354,402.274323 481.880371,399.403442 
	C483.783600,395.916565 486.058960,392.632812 488.786346,389.336365 
	C489.596893,391.484802 489.787201,393.558868 489.993622,395.631287 
	C490.338715,399.095886 490.694092,402.559448 491.045135,406.023468 
	C491.267395,406.207306 491.479126,406.402527 491.903198,406.947693 
	C492.410309,407.217407 492.694580,407.148560 492.978851,407.079712 
z"/>
<path fill="#D1B43D" opacity="1.000000" stroke="none" 
	d="
M1025.509766,715.489502 
	C1027.999390,717.637390 1030.222778,719.550903 1033.467041,722.343079 
	C1027.347778,721.628601 1022.445251,721.339600 1017.670288,720.401001 
	C1014.376404,719.753540 1012.919250,720.681702 1011.778381,723.743408 
	C1010.170227,728.059143 1008.013916,732.170593 1005.477234,737.712341 
	C1004.158020,731.885559 1003.404907,727.293274 1001.974670,722.922607 
	C1001.467468,721.372803 999.458557,719.540649 997.880981,719.258362 
	C992.908813,718.368896 987.816223,718.153259 981.542664,717.560974 
	C986.544800,714.669067 990.492920,712.052063 994.730164,710.045715 
	C997.952576,708.519897 998.535400,706.442810 997.880554,703.292664 
	C996.992737,699.022034 996.350647,694.700317 995.396851,689.213928 
	C1000.652161,693.982178 1004.916443,697.851196 1009.457214,701.971008 
	C1015.132202,698.325562 1020.756714,694.712463 1027.324585,690.493408 
	C1024.963989,695.771790 1023.428345,700.330200 1020.993896,704.343323 
	C1018.391357,708.633606 1019.459229,711.317017 1023.306946,713.686218 
	C1024.008423,714.118225 1024.600708,714.727661 1025.509766,715.489502 
z"/>
<path fill="#D1B43C" opacity="1.000000" stroke="none" 
	d="
M512.450073,691.451843 
	C517.736023,694.907532 523.021973,698.363159 528.622559,702.024536 
	C533.260315,697.777954 537.857788,693.568298 543.079041,688.787415 
	C542.072205,694.228821 541.364563,698.795837 540.349548,703.293518 
	C539.596680,706.629517 540.012695,708.798828 543.630920,710.320374 
	C547.846863,712.093262 551.718384,714.685120 555.564819,717.821228 
	C550.392334,718.249512 545.225586,718.790283 540.044861,719.058594 
	C537.453796,719.192749 536.291443,719.973877 535.971130,722.800110 
	C535.442261,727.466797 534.289062,732.062683 533.143555,738.015930 
	C530.588806,732.501221 528.513977,728.384277 526.768555,724.132202 
	C525.524963,721.102600 524.049866,719.752991 520.415100,720.524170 
	C515.898254,721.482483 511.194153,721.558167 505.204895,722.150024 
	C509.556061,718.342957 512.925476,715.108704 516.606628,712.280212 
	C518.860779,710.548157 519.422302,709.099304 518.084106,706.460815 
	C515.833801,702.023682 513.983093,697.383911 512.075684,692.312012 
	C512.187073,691.794617 512.450073,691.451843 512.450073,691.451843 
z"/>
<path fill="#D2B53F" opacity="1.000000" stroke="none" 
	d="
M477.689453,588.316040 
	C472.470184,585.124329 467.250885,581.932617 461.256775,578.267090 
	C456.829437,583.224365 452.527557,588.041077 448.225708,592.857788 
	C447.855774,592.623779 447.485809,592.389771 447.115875,592.155701 
	C448.250305,587.513062 449.666809,582.914368 450.400330,578.209229 
	C450.768097,575.850098 449.891754,573.297119 449.214661,570.267212 
	C448.510834,569.504456 448.170349,569.306274 447.829834,569.108154 
	C447.829834,569.108154 447.935760,569.176575 447.818115,568.865540 
	C446.692932,568.195129 445.685394,567.835754 444.677856,567.476440 
	C444.677856,567.476440 444.679901,567.316406 444.639038,566.975098 
	C443.689758,566.451477 442.781311,566.269226 441.872894,566.086975 
	C441.872894,566.086975 441.962402,566.058899 441.820129,565.819702 
	C441.082214,565.408264 440.486542,565.236084 439.890839,565.063965 
	C439.890839,565.063965 439.984558,565.042419 440.056458,564.684570 
	C441.570770,563.885620 443.014252,563.447815 444.455353,563.002441 
	C447.634766,562.019897 450.812958,561.033447 453.991669,560.048584 
	C453.991669,560.048584 454.272034,559.878601 454.799744,559.762268 
	C456.581116,555.355774 457.834778,551.065613 459.052582,546.898254 
	C460.150330,547.568604 461.145264,548.176208 462.140167,548.783752 
	C463.630219,552.056763 465.120270,555.329712 466.654449,558.699646 
	C472.654663,558.048767 478.542603,557.410034 486.088806,556.591370 
	C482.027039,560.384827 479.208710,563.447937 475.953735,565.940857 
	C472.396393,568.665344 471.265533,571.300354 473.667389,575.507874 
	C475.700500,579.069519 476.955780,583.075195 478.372375,587.396667 
	C478.022797,588.044617 477.856110,588.180359 477.689453,588.316040 
z"/>
<path fill="#C01116" opacity="1.000000" stroke="none" 
	d="
M780.995850,580.384399 
	C781.870850,581.055725 783.262817,582.013733 783.494263,583.198425 
	C785.451721,593.217651 788.548950,603.250427 788.757385,613.331726 
	C789.427368,645.737976 789.022217,678.166626 788.998840,710.586670 
	C788.990845,721.667236 788.218445,732.828369 792.944336,743.722534 
	C787.414917,737.720032 787.164185,729.798279 787.124817,722.084229 
	C786.941345,686.132202 786.995300,650.178772 787.056458,614.225952 
	C787.076111,602.678833 784.748535,591.608398 780.995850,580.384399 
z"/>
<path fill="#C01116" opacity="1.000000" stroke="none" 
	d="
M806.475342,739.989075 
	C807.101257,729.727783 807.976501,719.237610 808.972900,708.758911 
	C810.739319,690.182007 811.217407,671.802185 802.757629,654.351685 
	C801.516663,651.791870 801.564514,648.607117 801.036011,645.275269 
	C805.267334,659.241943 813.145508,672.721375 812.038391,688.463806 
	C811.002075,703.199829 810.043030,717.942078 808.861084,732.666443 
	C808.667908,735.072937 807.497803,737.401001 806.475342,739.989075 
z"/>
<path fill="#C01116" opacity="1.000000" stroke="none" 
	d="
M585.494385,529.054443 
	C585.478271,526.186584 585.563232,523.112915 586.296021,520.202393 
	C586.535156,519.252136 588.474365,518.090271 589.614136,518.113159 
	C595.696899,518.235474 601.769897,518.798401 607.853088,518.978394 
	C609.257141,519.019897 611.147888,518.584473 612.025269,517.637329 
	C615.463379,513.925476 619.382446,512.176819 624.689697,513.635498 
	C620.182983,515.304871 614.765869,515.269653 611.757812,520.525940 
	C611.342712,521.251343 608.705994,520.850586 607.115417,520.732605 
	C600.770508,520.262085 594.432495,519.697205 589.147095,519.255371 
	C587.744812,523.359375 586.796143,526.135742 585.494385,529.054443 
z"/>
<path fill="#BF0D11" opacity="1.000000" stroke="none" 
	d="
M876.935913,532.420166 
	C878.181091,534.262573 880.055115,536.290161 880.863159,538.678467 
	C882.195740,542.616760 882.839355,546.788208 883.773376,550.861389 
	C884.331543,550.893372 884.889709,550.925415 885.447937,550.957397 
	C885.959717,549.782410 886.687744,548.652344 886.942810,547.424011 
	C887.714294,543.709167 888.137512,539.917969 888.996887,536.226440 
	C890.628845,529.215576 897.302490,527.420837 902.884094,532.775269 
	C901.267517,532.464478 899.651611,531.237915 897.989868,531.172363 
	C893.939392,531.012512 890.949707,532.814392 890.176208,537.160034 
	C889.451599,541.231140 888.954285,545.350708 888.032227,549.374451 
	C887.711243,550.774658 886.419556,551.952393 885.571167,553.231689 
	C884.337036,552.109253 882.457092,551.203125 881.994568,549.822205 
	C880.795166,546.241821 880.324036,542.424866 879.354431,538.757263 
	C878.811707,536.704224 877.855591,534.760437 876.935913,532.420166 
z"/>
<path fill="#BF0D11" opacity="1.000000" stroke="none" 
	d="
M800.939575,643.583679 
	C800.576782,642.230469 800.044983,640.489136 800.030396,638.743530 
	C799.947876,628.857117 800.456482,618.941467 799.863037,609.090088 
	C799.208435,598.222961 802.322083,588.512573 806.985413,579.050110 
	C807.979675,577.032532 809.136414,575.094971 810.566040,573.063477 
	C807.942200,581.008606 803.441711,588.809387 802.355103,597.059814 
	C800.699585,609.629456 801.402649,622.510071 801.115051,635.258911 
	C801.055420,637.903259 801.043518,640.548706 800.939575,643.583679 
z"/>
<path fill="#C01116" opacity="1.000000" stroke="none" 
	d="
M603.667114,418.097839 
	C603.410156,419.431488 603.151855,421.139252 602.263367,422.404449 
	C599.313354,426.605133 597.304871,430.971405 597.931091,436.300934 
	C598.066711,437.454712 597.682251,439.229431 596.873047,439.845459 
	C590.646851,444.585052 585.357117,451.029968 576.719177,451.597778 
	C575.890198,451.652222 575.026062,451.171814 574.094543,450.603210 
	C582.882019,450.098663 588.604553,443.893005 595.078125,439.175079 
	C595.711060,438.713837 596.161865,437.384766 596.021240,436.576080 
	C594.689331,428.917511 599.467346,423.778534 603.667114,418.097839 
z"/>
<path fill="#C01116" opacity="1.000000" stroke="none" 
	d="
M633.068787,378.758484 
	C632.392578,382.926514 632.160767,387.656616 630.229248,391.541687 
	C629.260437,393.490540 625.283997,394.299683 622.510681,394.906311 
	C619.011658,395.671722 615.303711,395.458893 611.782654,396.156708 
	C610.031372,396.503754 608.496155,397.941071 606.673279,398.995026 
	C607.944153,401.138367 608.922729,402.788849 609.894653,404.806091 
	C607.980957,403.915924 606.073975,402.659088 604.106628,401.362396 
	C605.010498,396.310303 608.117310,394.334686 612.735962,394.040405 
	C616.840820,393.778839 621.027832,393.784546 624.996033,392.875519 
	C626.703552,392.484344 628.414551,390.314209 629.302551,388.540894 
	C630.813965,385.522339 631.676147,382.178619 633.068787,378.758484 
z"/>
<path fill="#C01116" opacity="1.000000" stroke="none" 
	d="
M562.595459,446.950439 
	C561.942627,454.700043 560.198486,462.656708 560.221313,470.608307 
	C560.245117,478.887024 561.974609,487.160828 562.929199,495.866028 
	C561.437561,489.472504 559.163391,482.703339 558.708252,475.813995 
	C558.070496,466.160950 558.327576,456.358063 562.595459,446.950439 
z"/>
<path fill="#BF0D11" opacity="1.000000" stroke="none" 
	d="
M657.375732,519.871094 
	C658.197998,518.917969 659.243347,517.462280 660.606018,517.046692 
	C670.586670,514.002380 680.573181,510.939056 690.682251,508.371490 
	C695.024475,507.268616 699.513611,507.897949 702.990356,511.893860 
	C697.156250,509.177032 690.964478,509.313995 684.867798,511.121521 
	C675.764587,513.820312 666.780518,516.920593 657.375732,519.871094 
z"/>
<path fill="#C01116" opacity="1.000000" stroke="none" 
	d="
M922.426392,442.174194 
	C922.735352,438.165924 923.332825,434.016174 924.001526,429.877899 
	C924.658508,425.812317 922.772156,424.862762 918.981567,424.919250 
	C912.128113,425.021423 908.918152,420.848755 911.360229,415.108398 
	C910.979309,420.683075 913.253418,423.178802 919.204285,423.247375 
	C925.696411,423.322174 925.649109,423.323334 925.813354,429.784332 
	C925.924927,434.173279 927.519287,438.888580 922.426392,442.174194 
z"/>
<path fill="#C01116" opacity="1.000000" stroke="none" 
	d="
M658.178589,381.988556 
	C654.923401,381.136017 651.313232,380.351837 647.984619,378.915283 
	C643.360840,376.919800 638.898254,376.160797 633.853271,378.504303 
	C635.758179,375.141907 638.908142,374.311005 642.530029,375.656921 
	C647.710999,377.582214 652.813232,379.719330 658.178589,381.988556 
z"/>
<path fill="#CDAD29" opacity="1.000000" stroke="none" 
	d="
M453.577209,560.102539 
	C450.812958,561.033447 447.634766,562.019897 444.455353,563.002441 
	C443.014252,563.447815 441.570770,563.885620 440.025330,564.721313 
	C437.886261,564.173035 435.850189,563.230286 433.035645,561.927063 
	C440.368866,561.281982 446.765808,560.719177 453.577209,560.102539 
z"/>
<path fill="#CDAD29" opacity="1.000000" stroke="none" 
	d="
M462.102753,548.421509 
	C461.145264,548.176208 460.150330,547.568604 459.052582,546.898254 
	C457.834778,551.065613 456.581116,555.355774 454.961456,559.789124 
	C455.732727,553.692505 456.869995,547.452698 458.257629,539.838989 
	C459.918121,543.423706 460.991730,545.741455 462.102753,548.421509 
z"/>
<path fill="#C01116" opacity="1.000000" stroke="none" 
	d="
M566.883484,504.439392 
	C568.555420,508.184418 570.226990,512.337769 572.023376,516.436401 
	C573.208862,519.141235 574.573730,521.767395 575.869019,524.804932 
	C572.356262,524.347961 571.319275,522.030273 570.779053,518.534058 
	C570.059509,513.877502 568.267456,509.386597 566.883484,504.439392 
z"/>
<path fill="#CDAD29" opacity="1.000000" stroke="none" 
	d="
M491.065887,405.579071 
	C490.694092,402.559448 490.338715,399.095886 489.993622,395.631287 
	C489.787201,393.558868 489.596893,391.484802 489.055725,389.142639 
	C489.474457,387.438080 490.236786,386.002350 490.999146,384.566620 
	C491.334778,384.621429 491.670410,384.676239 492.006042,384.731049 
	C491.699585,391.532257 491.393097,398.333466 491.065887,405.579071 
z"/>
<path fill="#C01116" opacity="1.000000" stroke="none" 
	d="
M916.456421,462.034973 
	C916.787476,457.173798 917.323975,452.148407 918.199890,447.182861 
	C918.453552,445.745056 919.680908,444.479004 920.851929,443.108490 
	C920.501953,447.221558 919.877197,451.385651 918.975403,455.488892 
	C918.494263,457.678040 917.534607,459.762054 916.456421,462.034973 
z"/>
<path fill="#BF0D11" opacity="1.000000" stroke="none" 
	d="
M851.433960,524.986145 
	C851.395325,522.126282 849.337585,517.615295 853.802673,516.930420 
	C856.963135,516.445618 860.508667,518.471680 863.919922,519.754395 
	C863.505737,519.956848 863.064758,519.743774 862.600525,519.612244 
	C854.250000,517.246643 854.249390,517.248840 851.433960,524.986145 
z"/>
<path fill="#BF0D11" opacity="1.000000" stroke="none" 
	d="
M922.007202,549.461060 
	C924.516174,549.190918 926.896606,548.728027 927.711060,545.228760 
	C928.196350,546.802612 928.403442,548.600708 928.610535,550.398865 
	C926.477661,550.191467 924.344727,549.984009 922.007202,549.461060 
z"/>
<path fill="#C01116" opacity="1.000000" stroke="none" 
	d="
M793.070007,744.417480 
	C796.207947,743.720764 799.531799,743.366577 803.246155,742.964478 
	C801.011963,748.236145 797.076233,746.173035 793.070007,744.417480 
z"/>
<path fill="#C01116" opacity="1.000000" stroke="none" 
	d="
M575.907532,525.472046 
	C578.866455,525.981445 580.127197,530.714966 584.766235,529.099365 
	C579.941956,532.268372 579.071350,531.953796 575.907532,525.472046 
z"/>
<path fill="#BF0D11" opacity="1.000000" stroke="none" 
	d="
M914.789917,542.424561 
	C917.064026,544.236206 919.482727,546.359253 921.881226,548.843689 
	C919.552246,547.048706 917.243408,544.892395 914.789917,542.424561 
z"/>
<path fill="#BF0D11" opacity="1.000000" stroke="none" 
	d="
M840.323547,536.941467 
	C841.842468,534.763733 843.649658,532.416016 845.819153,530.064575 
	C844.324951,532.297729 842.468384,534.534607 840.323547,536.941467 
z"/>
<path fill="#C01116" opacity="1.000000" stroke="none" 
	d="
M906.379700,464.909790 
	C908.758179,464.241760 911.509033,463.638672 914.711182,463.071991 
	C912.359009,463.730530 909.555542,464.352600 906.379700,464.909790 
z"/>
<path fill="#C01116" opacity="1.000000" stroke="none" 
	d="
M571.095581,447.520752 
	C568.992737,447.217590 566.768494,446.593414 564.138672,445.937836 
	C566.799683,442.681763 568.987976,444.374725 571.095581,447.520752 
z"/>
<path fill="#BF0D11" opacity="1.000000" stroke="none" 
	d="
M867.045410,524.346863 
	C868.956177,525.499207 870.922424,526.995728 872.884155,528.843750 
	C870.953369,527.693848 869.027100,526.192444 867.045410,524.346863 
z"/>
<path fill="#C01116" opacity="1.000000" stroke="none" 
	d="
M609.974121,405.435242 
	C615.112671,406.427490 613.150635,408.620361 610.164917,410.912933 
	C609.908875,409.206482 610.015686,407.480652 609.974121,405.435242 
z"/>
<path fill="#BF0D11" opacity="1.000000" stroke="none" 
	d="
M903.023254,533.397583 
	C905.192749,534.240234 907.544617,535.371338 909.908325,536.869995 
	C907.681946,536.053650 905.443787,534.869873 903.023254,533.397583 
z"/>
<path fill="#BF0D11" opacity="1.000000" stroke="none" 
	d="
M839.027588,544.557129 
	C836.126526,543.659729 834.554199,542.011719 837.953918,539.118042 
	C838.528564,540.803467 838.724548,542.498169 839.027588,544.557129 
z"/>
<path fill="#BF0D11" opacity="1.000000" stroke="none" 
	d="
M812.392090,570.135254 
	C812.559875,568.999817 813.012207,567.658752 813.817749,566.188416 
	C813.672913,567.349304 813.174805,568.639465 812.392090,570.135254 
z"/>
<path fill="#BF0D11" opacity="1.000000" stroke="none" 
	d="
M872.981934,529.405273 
	C873.836243,529.580811 874.860657,530.026367 875.904541,530.848755 
	C875.000061,530.708801 874.076111,530.191956 872.981934,529.405273 
z"/>
<path fill="#CDAD29" opacity="1.000000" stroke="none" 
	d="
M444.727234,567.804260 
	C445.685394,567.835754 446.692932,568.195129 447.773743,568.910278 
	C446.823547,568.888123 445.800079,568.510132 444.727234,567.804260 
z"/>
<path fill="#C01116" opacity="1.000000" stroke="none" 
	d="
M606.755188,414.222626 
	C606.521484,415.008087 606.020447,415.941406 605.162537,416.873932 
	C605.366333,416.038910 605.927063,415.204681 606.755188,414.222626 
z"/>
<path fill="#BF0D11" opacity="1.000000" stroke="none" 
	d="
M843.226807,550.731384 
	C842.580688,550.234436 841.816284,549.422668 841.086304,548.219666 
	C841.783325,548.691101 842.445984,549.553833 843.226807,550.731384 
z"/>
<path fill="#BF0D11" opacity="1.000000" stroke="none" 
	d="
M841.079163,547.587524 
	C840.465515,547.129944 839.754639,546.373291 839.065613,545.240356 
	C839.718933,545.672241 840.350403,546.480347 841.079163,547.587524 
z"/>
<path fill="#BF0D11" opacity="1.000000" stroke="none" 
	d="
M651.353455,523.000244 
	C651.856262,522.395325 652.675354,521.718628 653.872986,521.062622 
	C653.390930,521.698364 652.530273,522.313354 651.353455,523.000244 
z"/>
<path fill="#BF0D11" opacity="1.000000" stroke="none" 
	d="
M648.257568,525.155029 
	C648.743530,524.534119 649.531189,523.787598 650.699951,523.043335 
	C650.240479,523.706909 649.399902,524.368103 648.257568,525.155029 
z"/>
<path fill="#C01116" opacity="1.000000" stroke="none" 
	d="
M563.841309,498.372498 
	C564.304688,498.629578 564.830750,499.180969 565.098755,499.904480 
	C564.528442,499.606628 564.216248,499.136719 563.841309,498.372498 
z"/>
<path fill="#CDAD29" opacity="1.000000" stroke="none" 
	d="
M442.072693,566.376343 
	C442.781311,566.269226 443.689758,566.451477 444.719025,566.977051 
	C443.984070,567.102051 443.128296,566.883911 442.072693,566.376343 
z"/>
<path fill="#BF0D11" opacity="1.000000" stroke="none" 
	d="
M848.264160,527.928162 
	C848.302185,527.498596 848.592590,526.957581 849.211914,526.473389 
	C849.199402,526.959106 848.857910,527.387878 848.264160,527.928162 
z"/>
<path fill="#C01116" opacity="1.000000" stroke="none" 
	d="
M906.117249,467.618805 
	C905.808533,467.453094 905.437317,466.968323 905.063721,466.154907 
	C905.392456,466.317444 905.723572,466.808594 906.117249,467.618805 
z"/>
<path fill="#BF0D11" opacity="1.000000" stroke="none" 
	d="
M849.770630,526.405518 
	C849.841003,526.067505 850.149536,525.587769 850.799805,525.098511 
	C850.763977,525.480530 850.386353,525.872192 849.770630,526.405518 
z"/>
<path fill="#C01116" opacity="1.000000" stroke="none" 
	d="
M805.235840,741.739746 
	C805.194275,741.279907 805.443787,740.779785 805.972778,740.201294 
	C806.010437,740.648376 805.768677,741.173889 805.235840,741.739746 
z"/>
<path fill="#CDAD29" opacity="1.000000" stroke="none" 
	d="
M440.074890,565.308472 
	C440.486542,565.236084 441.082214,565.408264 441.823303,565.866455 
	C441.398834,565.952576 440.828888,565.752747 440.074890,565.308472 
z"/>
<path fill="#D2B53F" opacity="1.000000" stroke="none" 
	d="
M478.476318,587.761841 
	C478.516571,588.002991 478.269989,588.391296 477.856415,588.547791 
	C477.856110,588.180359 478.022797,588.044617 478.476318,587.761841 
z"/>
<path fill="#D1B43C" opacity="1.000000" stroke="none" 
	d="
M512.035828,691.948914 
	C511.697144,691.891907 511.509674,691.680664 511.322205,691.469360 
	C511.576752,691.384399 511.831268,691.299500 512.267944,691.333252 
	C512.450073,691.451843 512.187073,691.794617 512.035828,691.948914 
z"/>
<path fill="#C01116" opacity="1.000000" stroke="none" 
	d="
M780.658630,579.338989 
	C780.734619,579.360229 780.816162,579.531738 780.953247,579.835815 
	C780.832825,579.853210 780.717896,579.693481 780.658630,579.338989 
z"/>
<path fill="#CDAD29" opacity="1.000000" stroke="none" 
	d="
M447.889099,569.427856 
	C448.170349,569.306274 448.510834,569.504456 448.997467,569.972046 
	C448.745178,570.076843 448.346771,569.912231 447.889099,569.427856 
z"/>
<path fill="#BF0D11" opacity="1.000000" stroke="none" 
	d="
M814.351807,566.038208 
	C814.288269,565.823547 814.514221,565.487915 815.018433,565.006226 
	C815.078125,565.212463 814.859680,565.564880 814.351807,566.038208 
z"/>
<path fill="#BF0D11" opacity="1.000000" stroke="none" 
	d="
M911.960693,539.297852 
	C912.150879,539.251343 912.446716,539.459717 912.845703,539.925171 
	C912.654724,539.972351 912.360535,539.762512 911.960693,539.297852 
z"/>
<path fill="#D2B53E" opacity="1.000000" stroke="none" 
	d="
M441.971802,508.967926 
	C441.892487,509.011169 441.831421,509.073059 441.900726,509.076843 
	C442.031067,509.018707 441.990051,508.986542 441.971802,508.967926 
z"/>
<path fill="#C01116" opacity="1.000000" stroke="none" 
	d="
M907.245178,468.864380 
	C907.028442,468.917542 906.674622,468.671539 906.192627,468.128052 
	C906.412354,468.075409 906.760254,468.320312 907.245178,468.864380 
z"/>
<path fill="#C01116" opacity="1.000000" stroke="none" 
	d="
M915.341858,463.082153 
	C915.278381,462.874115 915.473389,462.570618 915.932373,462.179016 
	C915.997681,462.389496 915.798950,462.688080 915.341858,463.082153 
z"/>
<path fill="#C01116" opacity="1.000000" stroke="none" 
	d="
M572.076660,448.682129 
	C571.871765,448.731384 571.573547,448.517944 571.197510,448.032104 
	C571.407593,447.979645 571.695496,448.199554 572.076660,448.682129 
z"/>
<path fill="#D1B43C" opacity="1.000000" stroke="none" 
	d="
M1075.033447,430.016968 
	C1075.419556,430.119507 1075.625000,430.445709 1075.830566,430.771912 
	C1075.576660,430.863831 1075.322632,430.955780 1074.835449,430.903015 
	C1074.685791,430.585724 1074.769287,430.413177 1075.033447,430.016968 
z"/>
<path fill="#C01116" opacity="1.000000" stroke="none" 
	d="
M604.648315,416.904968 
	C604.731873,417.102295 604.568359,417.414612 604.164673,417.849304 
	C604.083374,417.654480 604.242310,417.337219 604.648315,416.904968 
z"/>
<path fill="#CDAD29" opacity="1.000000" stroke="none" 
	d="
M492.732971,407.007477 
	C492.694580,407.148560 492.410309,407.217407 492.050354,407.105896 
	C492.145508,406.928802 492.316315,406.932037 492.732971,407.007477 
z"/>
<path fill="#C01116" opacity="1.000000" stroke="none" 
	d="
M658.999634,382.798096 
	C658.856384,382.876923 658.690430,382.887848 658.689697,382.777008 
	C658.854980,382.655212 658.976990,382.730164 658.999634,382.798096 
z"/>
<path fill="#FEFBFB" opacity="1.000000" stroke="none" 
	d="
M819.006897,538.090820 
	C819.006897,538.090820 818.674988,537.885498 818.316895,537.619019 
	C816.997192,536.528625 816.035706,535.704712 815.074158,534.880737 
	C815.074158,534.880737 815.025452,534.971741 814.930176,534.633545 
	C814.310059,533.289917 813.785278,532.284546 813.260437,531.279175 
	C812.558960,531.654175 811.857483,532.029175 811.156006,532.404175 
	C811.603455,535.629761 812.252930,538.843018 812.449768,542.083801 
	C812.729187,546.686279 812.675598,551.309082 812.764282,555.923157 
	C812.470520,556.294495 812.176697,556.665771 811.605713,557.494995 
	C810.815308,558.925354 810.302124,559.897705 809.788940,560.870117 
	C809.788940,560.870117 809.889587,560.899597 809.599854,561.043579 
	C808.452026,562.732117 807.593933,564.276733 806.735840,565.821350 
	C806.735840,565.821350 806.839539,565.869812 806.547363,566.008911 
	C805.346619,567.722656 804.437988,569.297241 803.529297,570.871826 
	C803.218018,570.989990 803.038818,571.213867 802.749695,571.930603 
	C802.267212,572.830261 802.026672,573.342834 801.786133,573.855347 
	C801.786133,573.855347 801.893555,573.903931 801.588074,574.014832 
	C800.430481,575.386719 799.578308,576.647705 798.726196,577.908691 
	C798.406982,577.897644 798.165161,578.028992 797.661621,578.591309 
	C796.845886,579.177979 796.369202,579.476013 795.892578,579.774048 
	C795.369080,579.675842 794.845581,579.577637 794.231323,578.810730 
	C793.852661,569.517395 792.581116,560.778809 793.563110,552.301208 
	C794.481812,544.369812 794.638184,536.952820 791.803894,529.474670 
	C791.129211,527.694458 791.203918,525.630127 790.778137,522.580688 
	C793.415955,523.796143 794.710632,524.392700 796.005249,524.989258 
	C796.005249,524.989258 796.000000,525.000000 796.173035,525.284424 
	C797.352478,526.408936 798.358948,527.248962 799.490601,528.193542 
	C801.230286,526.677002 802.841309,525.272583 804.452393,523.868164 
	C804.452393,523.868164 804.717590,523.671814 804.946716,523.274231 
	C805.592651,521.955566 806.009460,521.034485 806.426270,520.113403 
	C806.833252,519.846313 807.240234,519.579285 808.158691,519.130859 
	C809.855225,518.022156 811.040222,517.094727 812.225220,516.167236 
	C812.225281,516.167297 812.101746,516.095215 812.412109,515.994141 
	C813.126648,514.929810 813.530762,513.966431 813.934875,513.003113 
	C813.934875,513.003113 814.158508,512.726685 814.407227,512.358154 
	C814.876892,511.367676 815.097900,510.745697 815.318909,510.123718 
	C815.318909,510.123718 815.166870,510.108612 815.455933,510.016663 
	C816.268494,509.033417 816.792053,508.142120 817.315552,507.250793 
	C817.315552,507.250793 817.190857,507.194061 817.505615,507.161774 
	C818.650940,506.606689 819.481628,506.083893 820.312317,505.561157 
	C820.312317,505.561157 820.401245,505.587982 820.854919,505.504272 
	C824.165710,505.439697 827.022766,505.458801 829.879883,505.477905 
	C833.469849,508.089722 837.100342,510.648041 840.638245,513.328491 
	C844.129272,515.973450 845.087036,519.108948 841.562866,522.395020 
	C837.604797,526.085754 833.445801,529.561035 828.936523,533.520020 
	C827.862305,534.365662 827.225830,534.821228 826.589294,535.276855 
	C826.589294,535.276855 826.455566,535.373291 826.078186,535.569153 
	C823.469482,536.540283 821.238220,537.315552 819.006897,538.090820 
z"/>
<path fill="#FEFBFB" opacity="1.000000" stroke="none" 
	d="
M789.042847,436.235046 
	C785.788208,430.990356 782.673950,426.103271 779.665100,421.381592 
	C784.790283,419.513855 789.990479,417.614746 795.196655,415.732269 
	C795.479919,415.629852 795.920288,415.520813 796.107605,415.658905 
	C801.020020,419.280609 806.742737,422.237061 810.551697,426.791809 
	C813.927124,430.828033 813.745850,436.758698 811.947632,442.078308 
	C811.742188,442.686157 811.449768,443.369537 810.984131,443.768829 
	C803.933777,449.814270 796.847717,455.817993 788.581299,462.841492 
	C788.559998,455.416748 785.017578,451.167999 780.018982,448.558777 
	C783.459412,446.159576 786.794373,444.240662 789.522156,441.675964 
	C790.307800,440.937347 789.344543,438.338531 789.042847,436.235046 
z"/>
<path fill="#FEFBFB" opacity="1.000000" stroke="none" 
	d="
M656.014343,465.322235 
	C658.259155,467.536865 660.210327,469.637482 662.545105,471.143158 
	C666.613647,473.766876 666.538513,477.828033 666.181824,481.655670 
	C666.061401,482.947906 663.497742,484.947876 661.982605,485.011841 
	C655.646301,485.279327 643.635620,475.669647 642.189636,469.620880 
	C641.371643,466.198822 643.309448,464.087189 646.195862,463.229919 
	C649.133850,462.357300 652.293457,462.230988 655.688660,461.728638 
	C655.776794,463.111877 655.835083,464.026123 656.014343,465.322235 
z"/>
<path fill="#FDF9F9" opacity="1.000000" stroke="none" 
	d="
M816.345337,444.753723 
	C818.251831,442.469330 820.197144,440.642548 821.471558,438.429474 
	C823.524353,434.864624 826.754944,432.449829 830.329895,433.567230 
	C833.961243,434.702271 837.380981,437.455963 840.087891,440.274445 
	C841.886353,442.146973 838.867920,446.108948 835.310669,446.811371 
	C830.191833,447.822144 825.074585,448.970520 819.899353,449.510803 
	C817.348999,449.777069 815.008911,448.528320 816.345337,444.753723 
z"/>
<path fill="#FDF9F9" opacity="1.000000" stroke="none" 
	d="
M682.789307,490.003143 
	C683.447266,492.105133 684.005249,493.813965 685.081726,497.110535 
	C680.675781,494.576874 676.929443,492.902313 673.875061,490.387360 
	C672.899231,489.583832 673.191101,486.323853 673.892822,484.587982 
	C675.415649,480.820618 677.576843,477.311310 679.856201,472.975220 
	C680.871521,478.936523 681.780457,484.273254 682.789307,490.003143 
z"/>
<path fill="#BF0D11" opacity="1.000000" stroke="none" 
	d="
M795.955688,524.614868 
	C794.710632,524.392700 793.415955,523.796143 790.778137,522.580688 
	C791.203918,525.630127 791.129211,527.694458 791.803894,529.474670 
	C794.638184,536.952820 794.481812,544.369812 793.563110,552.301208 
	C792.581116,560.778809 793.852661,569.517395 794.086487,578.577393 
	C793.020447,574.463501 791.248108,569.926208 791.176270,565.362244 
	C791.070740,558.661743 792.433228,551.951050 792.673340,545.226990 
	C792.805969,541.512817 792.093323,537.732666 791.438477,534.039612 
	C791.039062,531.786804 789.592651,529.674805 789.428345,527.439941 
	C789.304077,525.750305 790.465088,523.966187 791.054199,522.224182 
	C792.671509,522.896301 794.288818,523.568420 795.955688,524.614868 
z"/>
<path fill="#BF0D11" opacity="1.000000" stroke="none" 
	d="
M813.148132,555.901794 
	C812.675598,551.309082 812.729187,546.686279 812.449768,542.083801 
	C812.252930,538.843018 811.603455,535.629761 811.156006,532.404175 
	C811.857483,532.029175 812.558960,531.654175 813.260437,531.279175 
	C813.785278,532.284546 814.310059,533.289917 814.975342,534.608582 
	C811.611084,535.998108 813.374573,538.352234 813.669556,540.473206 
	C814.281677,544.875061 814.783569,549.297363 815.119507,553.727234 
	C815.170593,554.400940 814.089417,555.160583 813.148132,555.901794 
z"/>
<path fill="#BF0D11" opacity="1.000000" stroke="none" 
	d="
M829.861694,505.060730 
	C827.022766,505.458801 824.165710,505.439697 820.898560,505.520325 
	C823.056763,502.276703 826.309692,501.937134 829.861694,505.060730 
z"/>
<path fill="#BF0D11" opacity="1.000000" stroke="none" 
	d="
M804.144531,523.642212 
	C802.841309,525.272583 801.230286,526.677002 799.490601,528.193542 
	C798.358948,527.248962 797.352478,526.408936 796.178833,525.281494 
	C798.619995,524.468201 801.228271,523.942261 804.144531,523.642212 
z"/>
<path fill="#BF0D11" opacity="1.000000" stroke="none" 
	d="
M819.063110,538.430298 
	C821.238220,537.315552 823.469482,536.540283 826.002808,535.602539 
	C825.016174,538.937866 822.884033,540.615417 819.063110,538.430298 
z"/>
<path fill="#BF0D11" opacity="1.000000" stroke="none" 
	d="
M803.919250,570.874451 
	C804.437988,569.297241 805.346619,567.722656 806.532104,565.953735 
	C805.975708,567.465332 805.142456,569.171204 803.919250,570.874451 
z"/>
<path fill="#BF0D11" opacity="1.000000" stroke="none" 
	d="
M807.111877,565.836182 
	C807.593933,564.276733 808.452026,562.732117 809.581177,560.994507 
	C809.064209,562.484741 808.276062,564.167908 807.111877,565.836182 
z"/>
<path fill="#BF0D11" opacity="1.000000" stroke="none" 
	d="
M799.111450,577.910156 
	C799.578308,576.647705 800.430481,575.386719 801.564575,573.960815 
	C801.063293,575.167725 800.280029,576.539673 799.111450,577.910156 
z"/>
<path fill="#BF0D11" opacity="1.000000" stroke="none" 
	d="
M811.864380,516.135742 
	C811.040222,517.094727 809.855225,518.022156 808.335449,518.955505 
	C809.168274,518.008972 810.335876,517.056580 811.864380,516.135742 
z"/>
<path fill="#BF0D11" opacity="1.000000" stroke="none" 
	d="
M815.056641,535.277649 
	C816.035706,535.704712 816.997192,536.528625 818.121948,537.628052 
	C817.203186,537.160522 816.121155,536.417542 815.056641,535.277649 
z"/>
<path fill="#BF0D11" opacity="1.000000" stroke="none" 
	d="
M819.941406,505.389679 
	C819.481628,506.083893 818.650940,506.606689 817.535034,507.223572 
	C818.023376,506.617859 818.796936,505.918030 819.941406,505.389679 
z"/>
<path fill="#BF0D11" opacity="1.000000" stroke="none" 
	d="
M810.183716,560.857422 
	C810.302124,559.897705 810.815308,558.925354 811.603394,557.746216 
	C811.445007,558.641174 811.011780,559.742981 810.183716,560.857422 
z"/>
<path fill="#BF0D11" opacity="1.000000" stroke="none" 
	d="
M816.930054,507.216431 
	C816.792053,508.142120 816.268494,509.033417 815.479248,510.089417 
	C815.657166,509.230103 816.100830,508.206085 816.930054,507.216431 
z"/>
<path fill="#BF0D11" opacity="1.000000" stroke="none" 
	d="
M813.580444,513.064026 
	C813.530762,513.966431 813.126648,514.929810 812.447266,516.056519 
	C812.523254,515.188232 812.874573,514.156616 813.580444,513.064026 
z"/>
<path fill="#BF0D11" opacity="1.000000" stroke="none" 
	d="
M806.053101,520.199341 
	C806.009460,521.034485 805.592651,521.955566 805.000122,523.118164 
	C805.109619,522.334900 805.394775,521.310120 806.053101,520.199341 
z"/>
<path fill="#BF0D11" opacity="1.000000" stroke="none" 
	d="
M826.934082,535.460388 
	C827.225830,534.821228 827.862305,534.365662 828.774170,533.794739 
	C828.459351,534.334290 827.869141,534.989136 826.934082,535.460388 
z"/>
<path fill="#BF0D11" opacity="1.000000" stroke="none" 
	d="
M796.063721,580.041565 
	C796.369202,579.476013 796.845886,579.177979 797.615479,578.801514 
	C797.350647,579.251770 796.792786,579.780457 796.063721,580.041565 
z"/>
<path fill="#BF0D11" opacity="1.000000" stroke="none" 
	d="
M802.096313,573.877502 
	C802.026672,573.342834 802.267212,572.830261 802.743530,572.154724 
	C802.788391,572.627686 802.597473,573.263672 802.096313,573.877502 
z"/>
<path fill="#BF0D11" opacity="1.000000" stroke="none" 
	d="
M814.989380,510.259583 
	C815.097900,510.745697 814.876892,511.367676 814.385498,512.181702 
	C814.296692,511.714294 814.478210,511.054840 814.989380,510.259583 
z"/>
</svg>