<svg width="2496" height="1392" version="1.1" xmlns="http://www.w3.org/2000/svg" desc="Created with imagetracer.js version 1.2.6" ><path fill="rgb(230,222,223)" stroke="rgb(230,222,223)" stroke-width="1" opacity="1" d="M 1362.5 383 L 1363 384.5 L 1361 385.5 L 1362.5 383 Z " /><path fill="rgb(230,222,223)" stroke="rgb(230,222,223)" stroke-width="1" opacity="1" d="M 1360.5 388 L 1359.5 390 L 1360.5 388 Z " /><path fill="rgb(230,222,223)" stroke="rgb(230,222,223)" stroke-width="1" opacity="1" d="M 1304.5 393 L 1306 393.5 L 1303.5 395 L 1304.5 393 Z " /><path fill="rgb(230,222,223)" stroke="rgb(230,222,223)" stroke-width="1" opacity="1" d="M 1307.5 395 L 1308.5 397 L 1307.5 395 Z " /><path fill="rgb(230,222,223)" stroke="rgb(230,222,223)" stroke-width="1" opacity="1" d="M 1309.5 398 L 1311 400.5 L 1310 400.5 L 1309.5 398 Z " /><path fill="rgb(230,222,223)" stroke="rgb(230,222,223)" stroke-width="1" opacity="1" d="M 1377.5 402 L 1378 405.5 L 1377 405.5 L 1377.5 402 Z " /><path fill="rgb(230,222,223)" stroke="rgb(230,222,223)" stroke-width="1" opacity="1" d="M 1312.5 404 L 1314 406.5 L 1312 405.5 L 1312.5 404 Z " /><path fill="rgb(230,222,223)" stroke="rgb(230,222,223)" stroke-width="1" opacity="1" d="M 1315.5 410 L 1318 414.5 L 1316 413.5 L 1315.5 410 Z " /><path fill="rgb(230,222,223)" stroke="rgb(230,222,223)" stroke-width="1" opacity="1" d="M 1350.5 413 L 1350 414.5 L 1349.5 416 L 1349 414.5 L 1350.5 413 Z " /><path fill="rgb(230,222,223)" stroke="rgb(230,222,223)" stroke-width="1" opacity="1" d="M 1347.5 420 L 1346.5 422 L 1347.5 420 Z " /><path fill="rgb(230,222,223)" stroke="rgb(230,222,223)" stroke-width="1" opacity="1" d="M 1382.5 425 L 1383 427.5 L 1382 427.5 L 1382.5 425 Z " /><path fill="rgb(230,222,223)" stroke="rgb(230,222,223)" stroke-width="1" opacity="1" d="M 1383.5 431 L 1384 433.5 L 1383 433.5 L 1383.5 431 Z " /><path fill="rgb(230,222,223)" stroke="rgb(230,222,223)" stroke-width="1" opacity="1" d="M 1370.5 443 L 1375 443.5 L 1358 447.5 L 1365.5 448 Q 1367 445.5 1372.5 447 L 1372.5 448 L 1353.5 449 L 1337.5 453 L 1337.5 452 L 1347 449.5 L 1340.5 449 L 1338 446.5 L 1340.5 448 L 1353.5 448 L 1370.5 443 Z " /><path fill="rgb(230,222,223)" stroke="rgb(230,222,223)" stroke-width="1" opacity="1" d="M 1288.5 444 L 1287.5 446 L 1288.5 444 Z " /><path fill="rgb(230,222,223)" stroke="rgb(230,222,223)" stroke-width="1" opacity="1" d="M 1286.5 447 L 1286 448.5 L 1285.5 450 L 1285 448.5 L 1286.5 447 Z " /><path fill="rgb(230,222,223)" stroke="rgb(230,222,223)" stroke-width="1" opacity="1" d="M 1374.5 448 L 1379 449.5 L 1377.5 450 L 1374.5 449 L 1374.5 448 Z " /><path fill="rgb(230,222,223)" stroke="rgb(230,222,223)" stroke-width="1" opacity="1" d="M 1328.5 449 L 1329 451.5 L 1321 466.5 L 1323 465.5 L 1329.5 454 L 1330 455.5 L 1322 467.5 L 1301 512.5 L 1300.5 526 L 1300 515.5 L 1299 514.5 L 1308 489.5 L 1328.5 449 Z M 1320 469 L 1316 475 L 1317 477 L 1320 471 L 1320 469 Z M 1314 481 L 1308 493 L 1309 495 L 1314 484 L 1314 481 Z M 1308 495 L 1306 498 L 1307 500 L 1308 498 L 1308 495 Z " /><path fill="rgb(230,222,223)" stroke="rgb(230,222,223)" stroke-width="1" opacity="1" d="M 1331.5 453 L 1336 453.5 L 1331.5 454 L 1331.5 453 Z " /><path fill="rgb(230,222,223)" stroke="rgb(230,222,223)" stroke-width="1" opacity="1" d="M 1282.5 457 L 1283 459.5 L 1282 459.5 L 1282.5 457 Z " /><path fill="rgb(230,222,223)" stroke="rgb(230,222,223)" stroke-width="1" opacity="1" d="M 1396.5 460 L 1399.5 464 L 1396.5 460 Z " /><path fill="rgb(230,222,223)" stroke="rgb(230,222,223)" stroke-width="1" opacity="1" d="M 1348.5 461 L 1353 461.5 L 1352.5 464 L 1349.5 463 L 1345 468.5 L 1339 488.5 L 1328 507.5 L 1306.5 531 L 1304.5 532 L 1305.5 530 L 1320 516.5 L 1335 494.5 L 1344 468.5 L 1348 463.5 L 1346.5 463 L 1344 464 L 1332 496.5 L 1309.5 524 L 1302.5 528 L 1302.5 527 L 1313 519.5 L 1331 496.5 L 1344.5 463 L 1348.5 461 Z " /><path fill="rgb(230,222,223)" stroke="rgb(230,222,223)" stroke-width="1" opacity="1" d="M 1355.5 462 L 1359 463.5 L 1356.5 465 L 1356.5 463 L 1355.5 462 Z " /><path fill="rgb(230,222,223)" stroke="rgb(230,222,223)" stroke-width="1" opacity="1" d="M 1266.5 466 L 1264.5 469 L 1266.5 466 Z " /><path fill="rgb(230,222,223)" stroke="rgb(230,222,223)" stroke-width="1" opacity="1" d="M 1280.5 466 L 1281 468.5 L 1280 468.5 L 1280.5 466 Z " /><path fill="rgb(230,222,223)" stroke="rgb(230,222,223)" stroke-width="1" opacity="1" d="M 1366.5 466 Q 1369.5 467.5 1366.5 469 L 1366.5 466 Z " /><path fill="rgb(230,222,223)" stroke="rgb(230,222,223)" stroke-width="1" opacity="1" d="M 1403.5 467 L 1404.5 469 L 1403.5 467 Z " /><path fill="rgb(230,222,223)" stroke="rgb(230,222,223)" stroke-width="1" opacity="1" d="M 1370.5 468 L 1383 478.5 Q 1386.3 489.2 1394.5 495 Q 1401.4 502.1 1414 503.5 L 1411.5 505 Q 1409.5 502 1403.5 503 L 1395.5 499 L 1389 493.5 Q 1383.8 488.7 1382 480.5 L 1376.5 475 L 1373 472.5 L 1370.5 468 Z M 1391 492 L 1390 494 L 1393 495 L 1391 492 Z M 1395 496 L 1396 498 L 1397 498 L 1395 496 Z " /><path fill="rgb(230,222,223)" stroke="rgb(230,222,223)" stroke-width="1" opacity="1" d="M 1269.5 469 L 1270 472.5 L 1269 472.5 L 1269.5 469 Z " /><path fill="rgb(230,222,223)" stroke="rgb(230,222,223)" stroke-width="1" opacity="1" d="M 1259.5 471 L 1258.5 473 L 1259.5 471 Z " /><path fill="rgb(230,222,223)" stroke="rgb(230,222,223)" stroke-width="1" opacity="1" d="M 1412.5 477 L 1414.5 480 L 1412.5 477 Z " /><path fill="rgb(230,222,223)" stroke="rgb(230,222,223)" stroke-width="1" opacity="1" d="M 1244.5 481 L 1243.5 483 L 1244.5 481 Z " /><path fill="rgb(230,222,223)" stroke="rgb(230,222,223)" stroke-width="1" opacity="1" d="M 1417.5 482 L 1418.5 484 L 1417.5 482 Z " /><path fill="rgb(230,222,223)" stroke="rgb(230,222,223)" stroke-width="1" opacity="1" d="M 1238.5 485 L 1237.5 487 L 1238.5 485 Z " /><path fill="rgb(230,222,223)" stroke="rgb(230,222,223)" stroke-width="1" opacity="1" d="M 1229.5 490 L 1227.5 493 L 1229.5 490 Z " /><path fill="rgb(230,222,223)" stroke="rgb(230,222,223)" stroke-width="1" opacity="1" d="M 1435.5 495 L 1436.5 497 L 1435.5 495 Z " /><path fill="rgb(230,222,223)" stroke="rgb(230,222,223)" stroke-width="1" opacity="1" d="M 1215.5 498 L 1217 498.5 L 1214.5 500 L 1215.5 498 Z " /><path fill="rgb(230,222,223)" stroke="rgb(230,222,223)" stroke-width="1" opacity="1" d="M 1441.5 499 L 1442.5 501 L 1441.5 499 Z " /><path fill="rgb(230,222,223)" stroke="rgb(230,222,223)" stroke-width="1" opacity="1" d="M 1212.5 500 L 1211.5 502 L 1210 501.5 L 1212.5 500 Z " /><path fill="rgb(230,222,223)" stroke="rgb(230,222,223)" stroke-width="1" opacity="1" d="M 1205.5 503 L 1204.5 505 L 1205.5 503 Z " /><path fill="rgb(230,222,223)" stroke="rgb(230,222,223)" stroke-width="1" opacity="1" d="M 1418.5 504 L 1421 504.5 L 1418.5 505 L 1418.5 504 Z " /><path fill="rgb(230,222,223)" stroke="rgb(230,222,223)" stroke-width="1" opacity="1" d="M 1254.5 506 L 1252.5 509 L 1254.5 506 Z " /><path fill="rgb(230,222,223)" stroke="rgb(230,222,223)" stroke-width="1" opacity="1" d="M 1429.5 508 L 1432 508.5 L 1429.5 509 L 1429.5 508 Z " /><path fill="rgb(230,222,223)" stroke="rgb(230,222,223)" stroke-width="1" opacity="1" d="M 1259.5 509 L 1258.5 511 L 1259.5 509 Z " /><path fill="rgb(230,222,223)" stroke="rgb(230,222,223)" stroke-width="1" opacity="1" d="M 1256.5 514 L 1254.5 517 L 1256.5 514 Z " /><path fill="rgb(230,222,223)" stroke="rgb(230,222,223)" stroke-width="1" opacity="1" d="M 1247.5 517 L 1246.5 519 L 1247.5 517 Z " /><path fill="rgb(230,222,223)" stroke="rgb(230,222,223)" stroke-width="1" opacity="1" d="M 1454.5 517 L 1455.5 519 L 1454.5 517 Z " /><path fill="rgb(230,222,223)" stroke="rgb(230,222,223)" stroke-width="1" opacity="1" d="M 1253.5 518 L 1252.5 520 L 1253.5 518 Z " /><path fill="rgb(230,222,223)" stroke="rgb(230,222,223)" stroke-width="1" opacity="1" d="M 1251.5 521 L 1248.5 525 L 1251.5 521 Z " /><path fill="rgb(230,222,223)" stroke="rgb(230,222,223)" stroke-width="1" opacity="1" d="M 1162.5 522 L 1164 522.5 L 1160.5 524 L 1160.5 523 L 1162.5 522 Z " /><path fill="rgb(230,222,223)" stroke="rgb(230,222,223)" stroke-width="1" opacity="1" d="M 1154.5 525 L 1157 525.5 L 1154.5 526 L 1154.5 525 Z " /><path fill="rgb(230,222,223)" stroke="rgb(230,222,223)" stroke-width="1" opacity="1" d="M 1247.5 526 L 1244.5 530 L 1247.5 526 Z " /><path fill="rgb(230,222,223)" stroke="rgb(230,222,223)" stroke-width="1" opacity="1" d="M 1363.5 529 L 1366 529.5 L 1363.5 530 L 1363.5 529 Z " /><path fill="rgb(230,222,223)" stroke="rgb(230,222,223)" stroke-width="1" opacity="1" d="M 1348.5 530 L 1354 531.5 L 1350.5 532 L 1348.5 530 Z " /><path fill="rgb(230,222,223)" stroke="rgb(230,222,223)" stroke-width="1" opacity="1" d="M 1242.5 532 L 1241.5 534 L 1242.5 532 Z " /><path fill="rgb(230,222,223)" stroke="rgb(230,222,223)" stroke-width="1" opacity="1" d="M 1356.5 532 L 1360 532.5 L 1356.5 533 L 1356.5 532 Z " /><path fill="rgb(230,222,223)" stroke="rgb(230,222,223)" stroke-width="1" opacity="1" d="M 1303.5 533 L 1302.5 535 L 1303.5 533 Z " /><path fill="rgb(230,222,223)" stroke="rgb(230,222,223)" stroke-width="1" opacity="1" d="M 1234.5 534 L 1233.5 536 L 1234.5 534 Z " /><path fill="rgb(230,222,223)" stroke="rgb(230,222,223)" stroke-width="1" opacity="1" d="M 1240.5 535 L 1237.5 539 L 1240.5 535 Z " /><path fill="rgb(230,222,223)" stroke="rgb(230,222,223)" stroke-width="1" opacity="1" d="M 1300.5 535 L 1298.5 538 L 1300.5 535 Z " /><path fill="rgb(230,222,223)" stroke="rgb(230,222,223)" stroke-width="1" opacity="1" d="M 1112.5 536 L 1115 536.5 L 1112.5 537 L 1112.5 536 Z " /><path fill="rgb(230,222,223)" stroke="rgb(230,222,223)" stroke-width="1" opacity="1" d="M 1380.5 536 L 1381.5 538 L 1380.5 536 Z " /><path fill="rgb(230,222,223)" stroke="rgb(230,222,223)" stroke-width="1" opacity="1" d="M 1231.5 538 L 1230.5 540 L 1231.5 538 Z " /><path fill="rgb(230,222,223)" stroke="rgb(230,222,223)" stroke-width="1" opacity="1" d="M 1296.5 538 L 1295.5 540 L 1296.5 538 Z " /><path fill="rgb(230,222,223)" stroke="rgb(230,222,223)" stroke-width="1" opacity="1" d="M 1091.5 539 L 1094 539.5 L 1091.5 540 L 1091.5 539 Z " /><path fill="rgb(230,222,223)" stroke="rgb(230,222,223)" stroke-width="1" opacity="1" d="M 1355.5 540 L 1357 540.5 L 1354.5 542 L 1355.5 540 Z " /><path fill="rgb(230,222,223)" stroke="rgb(230,222,223)" stroke-width="1" opacity="1" d="M 1042.5 541 L 1042 542.5 L 1041.5 546 L 1041 542.5 L 1042.5 541 Z " /><path fill="rgb(230,222,223)" stroke="rgb(230,222,223)" stroke-width="1" opacity="1" d="M 1052.5 541 L 1070 541.5 L 1052.5 542 L 1052.5 541 Z " /><path fill="rgb(230,222,223)" stroke="rgb(230,222,223)" stroke-width="1" opacity="1" d="M 1073.5 541 L 1076 541.5 L 1073.5 542 L 1073.5 541 Z " /><path fill="rgb(230,222,223)" stroke="rgb(230,222,223)" stroke-width="1" opacity="1" d="M 1235.5 541 L 1233.5 544 L 1235.5 541 Z " /><path fill="rgb(230,222,223)" stroke="rgb(230,222,223)" stroke-width="1" opacity="1" d="M 1371.5 541 Q 1379.3 542.2 1383 547.5 Q 1384.3 553.8 1380.5 555 Q 1376.8 558.3 1368.5 557 Q 1361.9 556.1 1359 551.5 Q 1357.8 546.3 1360.5 545 L 1371.5 541 Z M 1372 542 L 1362 546 Q 1359 545 1360 552 L 1363 554 L 1369 556 Q 1377 557 1381 554 Q 1383 553 1382 548 Q 1379 543 1372 542 Z " /><path fill="rgb(230,222,223)" stroke="rgb(230,222,223)" stroke-width="1" opacity="1" d="M 1351.5 544 L 1352 548.5 L 1351 548.5 L 1351.5 544 Z " /><path fill="rgb(230,222,223)" stroke="rgb(230,222,223)" stroke-width="1" opacity="1" d="M 1463.5 545 L 1464.5 547 L 1463.5 545 Z " /><path fill="rgb(230,222,223)" stroke="rgb(230,222,223)" stroke-width="1" opacity="1" d="M 1230.5 546 L 1225.5 552 L 1230.5 546 Z " /><path fill="rgb(230,222,223)" stroke="rgb(230,222,223)" stroke-width="1" opacity="1" d="M 1042.5 547 L 1043.5 549 L 1042.5 547 Z " /><path fill="rgb(230,222,223)" stroke="rgb(230,222,223)" stroke-width="1" opacity="1" d="M 1388.5 548 L 1389 552.5 L 1388 552.5 L 1388.5 548 Z " /><path fill="rgb(230,222,223)" stroke="rgb(230,222,223)" stroke-width="1" opacity="1" d="M 1465.5 548 L 1467.5 551 L 1465.5 548 Z " /><path fill="rgb(230,222,223)" stroke="rgb(230,222,223)" stroke-width="1" opacity="1" d="M 1352.5 550 L 1353.5 552 L 1352.5 550 Z " /><path fill="rgb(230,222,223)" stroke="rgb(230,222,223)" stroke-width="1" opacity="1" d="M 1468.5 552 L 1470.5 555 L 1468.5 552 Z " /><path fill="rgb(230,222,223)" stroke="rgb(230,222,223)" stroke-width="1" opacity="1" d="M 1354.5 553 L 1355.5 555 L 1354.5 553 Z " /><path fill="rgb(230,222,223)" stroke="rgb(230,222,223)" stroke-width="1" opacity="1" d="M 1387.5 555 L 1384.5 559 L 1387.5 555 Z " /><path fill="rgb(230,222,223)" stroke="rgb(230,222,223)" stroke-width="1" opacity="1" d="M 1219.5 557 L 1218.5 559 L 1219.5 557 Z " /><path fill="rgb(230,222,223)" stroke="rgb(230,222,223)" stroke-width="1" opacity="1" d="M 1472.5 557 L 1473.5 559 L 1472.5 557 Z " /><path fill="rgb(230,222,223)" stroke="rgb(230,222,223)" stroke-width="1" opacity="1" d="M 1360.5 559 L 1361.5 561 L 1360.5 559 Z " /><path fill="rgb(230,222,223)" stroke="rgb(230,222,223)" stroke-width="1" opacity="1" d="M 1475.5 561 L 1476.5 563 L 1475.5 561 Z " /><path fill="rgb(230,222,223)" stroke="rgb(230,222,223)" stroke-width="1" opacity="1" d="M 1212.5 564 L 1211.5 566 L 1212.5 564 Z " /><path fill="rgb(230,222,223)" stroke="rgb(230,222,223)" stroke-width="1" opacity="1" d="M 1206.5 566 L 1205.5 568 L 1206.5 566 Z " /><path fill="rgb(230,222,223)" stroke="rgb(230,222,223)" stroke-width="1" opacity="1" d="M 1480.5 567 L 1481.5 569 L 1480.5 567 Z " /><path fill="rgb(230,222,223)" stroke="rgb(230,222,223)" stroke-width="1" opacity="1" d="M 1208.5 569 L 1207.5 571 L 1208.5 569 Z " /><path fill="rgb(230,222,223)" stroke="rgb(230,222,223)" stroke-width="1" opacity="1" d="M 1202.5 570 L 1201.5 572 L 1202.5 570 Z " /><path fill="rgb(230,222,223)" stroke="rgb(230,222,223)" stroke-width="1" opacity="1" d="M 1483.5 571 L 1485.5 574 L 1483.5 571 Z " /><path fill="rgb(230,222,223)" stroke="rgb(230,222,223)" stroke-width="1" opacity="1" d="M 1124.5 572 L 1122.5 575 L 1124.5 572 Z " /><path fill="rgb(230,222,223)" stroke="rgb(230,222,223)" stroke-width="1" opacity="1" d="M 1206.5 572 L 1203.5 576 L 1206.5 572 Z " /><path fill="rgb(230,222,223)" stroke="rgb(230,222,223)" stroke-width="1" opacity="1" d="M 1118.5 577 L 1117.5 579 L 1118.5 577 Z " /><path fill="rgb(230,222,223)" stroke="rgb(230,222,223)" stroke-width="1" opacity="1" d="M 1202.5 577 L 1201.5 579 L 1202.5 577 Z " /><path fill="rgb(230,222,223)" stroke="rgb(230,222,223)" stroke-width="1" opacity="1" d="M 1200.5 580 L 1199.5 582 L 1200.5 580 Z " /><path fill="rgb(230,222,223)" stroke="rgb(230,222,223)" stroke-width="1" opacity="1" d="M 1490.5 580 L 1493.5 584 L 1490.5 580 Z " /><path fill="rgb(230,222,223)" stroke="rgb(230,222,223)" stroke-width="1" opacity="1" d="M 1191.5 583 L 1190.5 585 L 1191.5 583 Z " /><path fill="rgb(230,222,223)" stroke="rgb(230,222,223)" stroke-width="1" opacity="1" d="M 1197.5 583 L 1196.5 585 L 1197.5 583 Z " /><path fill="rgb(230,222,223)" stroke="rgb(230,222,223)" stroke-width="1" opacity="1" d="M 1495.5 586 L 1497.5 589 L 1495.5 586 Z " /><path fill="rgb(230,222,223)" stroke="rgb(230,222,223)" stroke-width="1" opacity="1" d="M 1194.5 587 L 1195 588.5 L 1191 591.5 L 1194.5 587 Z " /><path fill="rgb(230,222,223)" stroke="rgb(230,222,223)" stroke-width="1" opacity="1" d="M 1186.5 591 L 1185.5 593 L 1186.5 591 Z " /><path fill="rgb(230,222,223)" stroke="rgb(230,222,223)" stroke-width="1" opacity="1" d="M 1500.5 592 L 1504.5 597 L 1500.5 592 Z " /><path fill="rgb(230,222,223)" stroke="rgb(230,222,223)" stroke-width="1" opacity="1" d="M 1039.5 593 L 1044 593.5 L 1039.5 594 L 1039.5 593 Z " /><path fill="rgb(230,222,223)" stroke="rgb(230,222,223)" stroke-width="1" opacity="1" d="M 1055.5 593 L 1066 593.5 L 1055.5 594 L 1055.5 593 Z " /><path fill="rgb(230,222,223)" stroke="rgb(230,222,223)" stroke-width="1" opacity="1" d="M 1187.5 597 L 1186.5 599 L 1187.5 597 Z " /><path fill="rgb(230,222,223)" stroke="rgb(230,222,223)" stroke-width="1" opacity="1" d="M 1030.5 602 L 1032.5 605 L 1030.5 602 Z " /><path fill="rgb(230,222,223)" stroke="rgb(230,222,223)" stroke-width="1" opacity="1" d="M 1184.5 602 L 1183.5 604 L 1184.5 602 Z " /><path fill="rgb(230,222,223)" stroke="rgb(230,222,223)" stroke-width="1" opacity="1" d="M 1510.5 604 L 1511.5 606 L 1510.5 604 Z " /><path fill="rgb(230,222,223)" stroke="rgb(230,222,223)" stroke-width="1" opacity="1" d="M 1035.5 606 L 1036.5 608 L 1035.5 606 Z " /><path fill="rgb(230,222,223)" stroke="rgb(230,222,223)" stroke-width="1" opacity="1" d="M 1181.5 607 L 1182 608.5 L 1180 609.5 L 1181.5 607 Z " /><path fill="rgb(230,222,223)" stroke="rgb(230,222,223)" stroke-width="1" opacity="1" d="M 1290.5 611 L 1293 614.5 L 1302 642.5 L 1312 662.5 Q 1323.3 679.3 1338.5 692 Q 1342.9 697.4 1350 699 Q 1351.3 702 1347.5 701 L 1333.5 692 L 1319.5 678 L 1318 678 L 1307 662.5 L 1300 647.5 L 1290.5 611 Z M 1297 629 L 1296 632 L 1297 632 L 1297 629 Z M 1298 632 L 1297 636 L 1301 648 L 1308 663 L 1314 672 L 1337 693 L 1338 693 Q 1322 680 1311 663 Q 1303 649 1298 632 Z M 1339 693 L 1340 695 L 1341 695 L 1339 693 Z " /><path fill="rgb(230,222,223)" stroke="rgb(230,222,223)" stroke-width="1" opacity="1" d="M 1178.5 612 L 1179 613.5 L 1177 614.5 L 1178.5 612 Z " /><path fill="rgb(230,222,223)" stroke="rgb(230,222,223)" stroke-width="1" opacity="1" d="M 1077.5 617 L 1080 617.5 L 1077.5 618 L 1077.5 617 Z " /><path fill="rgb(230,222,223)" stroke="rgb(230,222,223)" stroke-width="1" opacity="1" d="M 1174.5 620 L 1174 621.5 L 1173.5 623 L 1173 621.5 L 1174.5 620 Z " /><path fill="rgb(230,222,223)" stroke="rgb(230,222,223)" stroke-width="1" opacity="1" d="M 1079.5 623 L 1077.5 626 L 1079.5 623 Z " /><path fill="rgb(230,222,223)" stroke="rgb(230,222,223)" stroke-width="1" opacity="1" d="M 1172.5 625 L 1172 626.5 L 1170.5 629 L 1171 627.5 L 1172.5 625 Z " /><path fill="rgb(230,222,223)" stroke="rgb(230,222,223)" stroke-width="1" opacity="1" d="M 1536.5 630 L 1537.5 632 L 1536.5 630 Z " /><path fill="rgb(230,222,223)" stroke="rgb(230,222,223)" stroke-width="1" opacity="1" d="M 1070.5 631 L 1069.5 633 L 1070.5 631 Z " /><path fill="rgb(230,222,223)" stroke="rgb(230,222,223)" stroke-width="1" opacity="1" d="M 1550.5 645 L 1551.5 647 L 1550.5 645 Z " /><path fill="rgb(230,222,223)" stroke="rgb(230,222,223)" stroke-width="1" opacity="1" d="M 1553.5 648 L 1555.5 651 L 1553.5 648 Z " /><path fill="rgb(230,222,223)" stroke="rgb(230,222,223)" stroke-width="1" opacity="1" d="M 1018.5 651 L 1021 651.5 L 1018.5 652 L 1018.5 651 Z " /><path fill="rgb(230,222,223)" stroke="rgb(230,222,223)" stroke-width="1" opacity="1" d="M 1559.5 655 L 1562.5 659 L 1559.5 655 Z " /><path fill="rgb(230,222,223)" stroke="rgb(230,222,223)" stroke-width="1" opacity="1" d="M 1008.5 657 L 1010.5 660 L 1008.5 657 Z " /><path fill="rgb(230,222,223)" stroke="rgb(230,222,223)" stroke-width="1" opacity="1" d="M 1033.5 666 L 1036 666.5 L 1033.5 667 L 1033.5 666 Z " /><path fill="rgb(230,222,223)" stroke="rgb(230,222,223)" stroke-width="1" opacity="1" d="M 1568.5 673 L 1569 676.5 L 1568 676.5 L 1568.5 673 Z " /><path fill="rgb(230,222,223)" stroke="rgb(230,222,223)" stroke-width="1" opacity="1" d="M 1538.5 674 Q 1542 676 1537.5 678 L 1538 676.5 L 1538.5 674 Z " /><path fill="rgb(230,222,223)" stroke="rgb(230,222,223)" stroke-width="1" opacity="1" d="M 1054.5 675 L 1053.5 677 L 1054.5 675 Z " /><path fill="rgb(230,222,223)" stroke="rgb(230,222,223)" stroke-width="1" opacity="1" d="M 1530.5 678 L 1528.5 681 L 1530.5 678 Z " /><path fill="rgb(230,222,223)" stroke="rgb(230,222,223)" stroke-width="1" opacity="1" d="M 1535.5 678 L 1536 679.5 L 1533 681.5 L 1535.5 678 Z " /><path fill="rgb(230,222,223)" stroke="rgb(230,222,223)" stroke-width="1" opacity="1" d="M 1569.5 680 L 1570 683.5 L 1569 683.5 L 1569.5 680 Z " /><path fill="rgb(230,222,223)" stroke="rgb(230,222,223)" stroke-width="1" opacity="1" d="M 1150.5 682 L 1151 683.5 L 1149.5 686 L 1149 684.5 L 1150.5 682 Z " /><path fill="rgb(230,222,223)" stroke="rgb(230,222,223)" stroke-width="1" opacity="1" d="M 1527.5 682 L 1528 685.5 L 1527 685.5 L 1527.5 682 Z " /><path fill="rgb(230,222,223)" stroke="rgb(230,222,223)" stroke-width="1" opacity="1" d="M 1040.5 684 L 1039.5 686 L 1040.5 684 Z " /><path fill="rgb(230,222,223)" stroke="rgb(230,222,223)" stroke-width="1" opacity="1" d="M 1527.5 687 L 1528.5 692 L 1530.5 687 L 1530 688.5 Q 1530.5 697 1535 701.5 L 1535 706 Q 1530.9 707.7 1532 703.5 L 1528 696.5 L 1527.5 687 Z M 1530 692 L 1529 697 L 1533 705 L 1534 705 L 1534 702 L 1530 692 Z " /><path fill="rgb(230,222,223)" stroke="rgb(230,222,223)" stroke-width="1" opacity="1" d="M 1572.5 691 L 1573.5 693 L 1572.5 691 Z " /><path fill="rgb(230,222,223)" stroke="rgb(230,222,223)" stroke-width="1" opacity="1" d="M 1577.5 705 L 1578 709.5 L 1577 709.5 L 1577.5 705 Z " /><path fill="rgb(230,222,223)" stroke="rgb(230,222,223)" stroke-width="1" opacity="1" d="M 1359.5 707 L 1359 708.5 L 1358.5 712 L 1358 708.5 L 1359.5 707 Z " /><path fill="rgb(230,222,223)" stroke="rgb(230,222,223)" stroke-width="1" opacity="1" d="M 977.5 710 L 981 710.5 L 977.5 711 L 977.5 710 Z " /><path fill="rgb(230,222,223)" stroke="rgb(230,222,223)" stroke-width="1" opacity="1" d="M 1385.5 711 L 1388 711.5 L 1385.5 712 L 1385.5 711 Z " /><path fill="rgb(230,222,223)" stroke="rgb(230,222,223)" stroke-width="1" opacity="1" d="M 1390.5 711 L 1393 711.5 L 1390.5 712 L 1390.5 711 Z " /><path fill="rgb(230,222,223)" stroke="rgb(230,222,223)" stroke-width="1" opacity="1" d="M 1399.5 712 L 1407 712.5 L 1399.5 713 L 1399.5 712 Z " /><path fill="rgb(230,222,223)" stroke="rgb(230,222,223)" stroke-width="1" opacity="1" d="M 972.5 713 L 974 715.5 L 972 714.5 L 972.5 713 Z " /><path fill="rgb(230,222,223)" stroke="rgb(230,222,223)" stroke-width="1" opacity="1" d="M 1576.5 715 L 1577 717.5 L 1576 717.5 L 1576.5 715 Z " /><path fill="rgb(230,222,223)" stroke="rgb(230,222,223)" stroke-width="1" opacity="1" d="M 1415.5 716 L 1416.5 718 L 1415.5 716 Z " /><path fill="rgb(230,222,223)" stroke="rgb(230,222,223)" stroke-width="1" opacity="1" d="M 1429.5 722 L 1433 723.5 L 1430.5 724 L 1429.5 722 Z " /><path fill="rgb(230,222,223)" stroke="rgb(230,222,223)" stroke-width="1" opacity="1" d="M 1024.5 724 L 1027 724.5 L 1024.5 725 L 1024.5 724 Z " /><path fill="rgb(230,222,223)" stroke="rgb(230,222,223)" stroke-width="1" opacity="1" d="M 992.5 725 L 996 725.5 L 992.5 726 L 992.5 725 Z " /><path fill="rgb(230,222,223)" stroke="rgb(230,222,223)" stroke-width="1" opacity="1" d="M 1468.5 731 L 1471 731.5 L 1468.5 732 L 1468.5 731 Z " /><path fill="rgb(230,222,223)" stroke="rgb(230,222,223)" stroke-width="1" opacity="1" d="M 1488.5 733 L 1492.5 734 L 1501 742.5 L 1492.5 735 L 1488.5 734 L 1488.5 733 Z " /><path fill="rgb(230,222,223)" stroke="rgb(230,222,223)" stroke-width="1" opacity="1" d="M 1131.5 736 L 1132 738.5 L 1131 738.5 L 1131.5 736 Z " /><path fill="rgb(230,222,223)" stroke="rgb(230,222,223)" stroke-width="1" opacity="1" d="M 1357.5 740 L 1358 755.5 L 1357 755.5 L 1357.5 740 Z " /><path fill="rgb(230,222,223)" stroke="rgb(230,222,223)" stroke-width="1" opacity="1" d="M 1503.5 744 L 1504.5 746 L 1503.5 744 Z " /><path fill="rgb(230,222,223)" stroke="rgb(230,222,223)" stroke-width="1" opacity="1" d="M 1571.5 745 L 1568.5 749 L 1571.5 745 Z " /><path fill="rgb(230,222,223)" stroke="rgb(230,222,223)" stroke-width="1" opacity="1" d="M 1566.5 750 L 1565.5 752 L 1566.5 750 Z " /><path fill="rgb(230,222,223)" stroke="rgb(230,222,223)" stroke-width="1" opacity="1" d="M 1525.5 754 L 1528 755.5 L 1526.5 756 L 1525.5 754 Z " /><path fill="rgb(230,222,223)" stroke="rgb(230,222,223)" stroke-width="1" opacity="1" d="M 1537.5 758 L 1540 758.5 L 1537.5 759 L 1537.5 758 Z " /><path fill="rgb(230,222,223)" stroke="rgb(230,222,223)" stroke-width="1" opacity="1" d="M 959.5 762 L 962 762.5 L 959.5 763 L 959.5 762 Z " /><path fill="rgb(230,222,223)" stroke="rgb(230,222,223)" stroke-width="1" opacity="1" d="M 952.5 763 L 956 763.5 L 952.5 764 L 952.5 763 Z " /><path fill="rgb(230,222,223)" stroke="rgb(230,222,223)" stroke-width="1" opacity="1" d="M 946.5 764 L 950 764.5 L 946.5 765 L 946.5 764 Z " /><path fill="rgb(230,222,223)" stroke="rgb(230,222,223)" stroke-width="1" opacity="1" d="M 1121.5 764 L 1119.5 767 L 1121.5 764 Z " /><path fill="rgb(230,222,223)" stroke="rgb(230,222,223)" stroke-width="1" opacity="1" d="M 943.5 768 L 944.5 770 L 943.5 768 Z " /><path fill="rgb(230,222,223)" stroke="rgb(230,222,223)" stroke-width="1" opacity="1" d="M 1116.5 771 L 1114.5 774 L 1116.5 771 Z " /><path fill="rgb(230,222,223)" stroke="rgb(230,222,223)" stroke-width="1" opacity="1" d="M 997.5 780 L 1000 780.5 L 997.5 781 L 997.5 780 Z " /><path fill="rgb(230,222,223)" stroke="rgb(230,222,223)" stroke-width="1" opacity="1" d="M 1355.5 784 L 1356 790.5 L 1355 790.5 L 1355.5 784 Z " /><path fill="rgb(230,222,223)" stroke="rgb(230,222,223)" stroke-width="1" opacity="1" d="M 1098.5 787 L 1097.5 789 L 1098.5 787 Z " /><path fill="rgb(230,222,223)" stroke="rgb(230,222,223)" stroke-width="1" opacity="1" d="M 1101.5 787 L 1093.5 796 L 1101.5 787 Z " /><path fill="rgb(230,222,223)" stroke="rgb(230,222,223)" stroke-width="1" opacity="1" d="M 999.5 789 L 998.5 791 L 999.5 789 Z " /><path fill="rgb(230,222,223)" stroke="rgb(230,222,223)" stroke-width="1" opacity="1" d="M 996.5 792 L 992.5 797 L 996.5 792 Z " /><path fill="rgb(230,222,223)" stroke="rgb(230,222,223)" stroke-width="1" opacity="1" d="M 1091.5 792 L 1090.5 794 L 1091.5 792 Z " /><path fill="rgb(230,222,223)" stroke="rgb(230,222,223)" stroke-width="1" opacity="1" d="M 1091.5 796 L 1089.5 799 L 1091.5 796 Z " /><path fill="rgb(230,222,223)" stroke="rgb(230,222,223)" stroke-width="1" opacity="1" d="M 1354.5 796 L 1355 801.5 L 1354 801.5 L 1354.5 796 Z " /><path fill="rgb(230,222,223)" stroke="rgb(230,222,223)" stroke-width="1" opacity="1" d="M 1080.5 799 L 1079.5 801 L 1080.5 799 Z " /><path fill="rgb(230,222,223)" stroke="rgb(230,222,223)" stroke-width="1" opacity="1" d="M 986.5 800 L 985.5 802 L 986.5 800 Z " /><path fill="rgb(230,222,223)" stroke="rgb(230,222,223)" stroke-width="1" opacity="1" d="M 1086.5 800 L 1085.5 802 L 1086.5 800 Z " /><path fill="rgb(230,222,223)" stroke="rgb(230,222,223)" stroke-width="1" opacity="1" d="M 1083.5 802 L 1082.5 804 L 1083.5 802 Z " /><path fill="rgb(230,222,223)" stroke="rgb(230,222,223)" stroke-width="1" opacity="1" d="M 1073.5 804 L 1072.5 806 L 1073.5 804 Z " /><path fill="rgb(230,222,223)" stroke="rgb(230,222,223)" stroke-width="1" opacity="1" d="M 1078.5 805 L 1080 805.5 L 1077.5 807 L 1078.5 805 Z " /><path fill="rgb(230,222,223)" stroke="rgb(230,222,223)" stroke-width="1" opacity="1" d="M 979.5 806 L 977.5 809 L 976 808.5 L 979.5 806 Z " /><path fill="rgb(230,222,223)" stroke="rgb(230,222,223)" stroke-width="1" opacity="1" d="M 970.5 811 L 967.5 815 L 966 814.5 L 970.5 811 Z " /><path fill="rgb(230,222,223)" stroke="rgb(230,222,223)" stroke-width="1" opacity="1" d="M 1063.5 813 L 1061.5 816 L 1059.5 817 L 1060.5 815 L 1063.5 813 Z " /><path fill="rgb(230,222,223)" stroke="rgb(230,222,223)" stroke-width="1" opacity="1" d="M 964.5 815 L 962.5 818 L 964.5 815 Z " /><path fill="rgb(230,222,223)" stroke="rgb(230,222,223)" stroke-width="1" opacity="1" d="M 1352.5 817 L 1353 819.5 L 1352 819.5 L 1352.5 817 Z " /><path fill="rgb(230,222,223)" stroke="rgb(230,222,223)" stroke-width="1" opacity="1" d="M 958.5 819 L 957.5 821 L 958.5 819 Z " /><path fill="rgb(230,222,223)" stroke="rgb(230,222,223)" stroke-width="1" opacity="1" d="M 950.5 823 L 949.5 825 L 950.5 823 Z " /><path fill="rgb(230,222,223)" stroke="rgb(230,222,223)" stroke-width="1" opacity="1" d="M 1040.5 823 L 1039.5 825 L 1036.5 826 L 1036.5 825 L 1040.5 823 Z " /><path fill="rgb(230,222,223)" stroke="rgb(230,222,223)" stroke-width="1" opacity="1" d="M 1021.5 828 L 1020.5 830 L 1021.5 828 Z " /><path fill="rgb(230,222,223)" stroke="rgb(230,222,223)" stroke-width="1" opacity="1" d="M 1021.5 831 L 1020.5 833 L 1018 832.5 L 1021.5 831 Z " /><path fill="rgb(230,222,223)" stroke="rgb(230,222,223)" stroke-width="1" opacity="1" d="M 1000.5 840 L 1000 841.5 L 998.5 844 L 999 842.5 L 1000.5 840 Z " /><path fill="rgb(230,222,223)" stroke="rgb(230,222,223)" stroke-width="1" opacity="1" d="M 925.5 841 L 928 841.5 L 925.5 842 L 925.5 841 Z " /><path fill="rgb(230,222,223)" stroke="rgb(230,222,223)" stroke-width="1" opacity="1" d="M 946.5 842 L 950 842.5 L 946.5 843 L 946.5 842 Z " /><path fill="rgb(230,222,223)" stroke="rgb(230,222,223)" stroke-width="1" opacity="1" d="M 956.5 842 L 959 842.5 L 956.5 843 L 956.5 842 Z " /><path fill="rgb(230,222,223)" stroke="rgb(230,222,223)" stroke-width="1" opacity="1" d="M 1348.5 842 L 1349 844.5 L 1348 844.5 L 1348.5 842 Z " /><path fill="rgb(230,222,223)" stroke="rgb(230,222,223)" stroke-width="1" opacity="1" d="M 996.5 847 L 995.5 849 L 996.5 847 Z " /><path fill="rgb(230,222,223)" stroke="rgb(230,222,223)" stroke-width="1" opacity="1" d="M 994.5 850 L 993.5 852 L 994.5 850 Z " /><path fill="rgb(230,222,223)" stroke="rgb(230,222,223)" stroke-width="1" opacity="1" d="M 1345.5 858 L 1346 864.5 L 1345 864.5 L 1345.5 858 Z " /><path fill="rgb(230,222,223)" stroke="rgb(230,222,223)" stroke-width="1" opacity="1" d="M 986.5 867 L 985.5 869 L 986.5 867 Z " /><path fill="rgb(230,222,223)" stroke="rgb(230,222,223)" stroke-width="1" opacity="1" d="M 984.5 870 L 984 871.5 L 982.5 875 L 982 873.5 L 984.5 870 Z " /><path fill="rgb(230,222,223)" stroke="rgb(230,222,223)" stroke-width="1" opacity="1" d="M 1343.5 872 L 1344 874.5 L 1343 874.5 L 1343.5 872 Z " /><path fill="rgb(230,222,223)" stroke="rgb(230,222,223)" stroke-width="1" opacity="1" d="M 977.5 885 L 978 886.5 L 975.5 890 L 976 888.5 L 977.5 885 Z " /><path fill="rgb(230,222,223)" stroke="rgb(230,222,223)" stroke-width="1" opacity="1" d="M 974.5 891 L 973.5 893 L 974.5 891 Z " /><path fill="rgb(230,222,223)" stroke="rgb(230,222,223)" stroke-width="1" opacity="1" d="M 969.5 900 L 970 901.5 L 967.5 906 L 967 904.5 L 969.5 900 Z " /><path fill="rgb(230,222,223)" stroke="rgb(230,222,223)" stroke-width="1" opacity="1" d="M 962.5 915 L 961.5 917 L 962.5 915 Z " /><path fill="rgb(230,222,223)" stroke="rgb(230,222,223)" stroke-width="1" opacity="1" d="M 957.5 925 L 956.5 927 L 957.5 925 Z " /><path fill="rgb(230,222,223)" stroke="rgb(230,222,223)" stroke-width="1" opacity="1" d="M 1344.5 925 L 1345 927.5 L 1344 927.5 L 1344.5 925 Z " /><path fill="rgb(230,222,223)" stroke="rgb(230,222,223)" stroke-width="1" opacity="1" d="M 951.5 937 L 951 938.5 L 948.5 943 L 949 941.5 L 951.5 937 Z " /><path fill="rgb(230,222,223)" stroke="rgb(230,222,223)" stroke-width="1" opacity="1" d="M 1347.5 938 L 1348 940.5 L 1347 940.5 L 1347.5 938 Z " /><path fill="rgb(230,222,223)" stroke="rgb(230,222,223)" stroke-width="1" opacity="1" d="M 947.5 945 L 951 950.5 L 947 947.5 L 947.5 945 Z " /><path fill="rgb(230,222,223)" stroke="rgb(230,222,223)" stroke-width="1" opacity="1" d="M 961.5 953 L 964 953.5 L 961.5 954 L 961.5 953 Z " /><path fill="rgb(230,222,223)" stroke="rgb(230,222,223)" stroke-width="1" opacity="1" d="M 1351.5 953 L 1353 955.5 L 1352 955.5 L 1351.5 953 Z " /><path fill="rgb(230,222,223)" stroke="rgb(230,222,223)" stroke-width="1" opacity="1" d="M 982.5 956 L 985 956.5 L 982.5 957 L 982.5 956 Z " /><path fill="rgb(230,222,223)" stroke="rgb(230,222,223)" stroke-width="1" opacity="1" d="M 1353.5 957 L 1355 959.5 L 1353 958.5 L 1353.5 957 Z " /><path fill="rgb(230,222,223)" stroke="rgb(230,222,223)" stroke-width="1" opacity="1" d="M 1004.5 960 L 1008 960.5 L 1004.5 961 L 1004.5 960 Z " /><path fill="rgb(230,222,223)" stroke="rgb(230,222,223)" stroke-width="1" opacity="1" d="M 1009.5 960 L 1013 960.5 L 1009.5 961 L 1009.5 960 Z " /><path fill="rgb(230,222,223)" stroke="rgb(230,222,223)" stroke-width="1" opacity="1" d="M 1014.5 961 L 1021 961.5 L 1014.5 962 L 1014.5 961 Z " /><path fill="rgb(230,222,223)" stroke="rgb(230,222,223)" stroke-width="1" opacity="1" d="M 1024.5 962 L 1028 962.5 L 1024.5 963 L 1024.5 962 Z " /><path fill="rgb(230,222,223)" stroke="rgb(230,222,223)" stroke-width="1" opacity="1" d="M 1029.5 963 L 1033 963.5 L 1029.5 964 L 1029.5 963 Z " /><path fill="rgb(230,222,223)" stroke="rgb(230,222,223)" stroke-width="1" opacity="1" d="M 1035.5 964 L 1038 964.5 L 1035.5 965 L 1035.5 964 Z " /><path fill="rgb(230,222,223)" stroke="rgb(230,222,223)" stroke-width="1" opacity="1" d="M 1040.5 965 L 1047 965.5 L 1040.5 966 L 1040.5 965 Z " /><path fill="rgb(230,222,223)" stroke="rgb(230,222,223)" stroke-width="1" opacity="1" d="M 1066.5 968 L 1069 968.5 L 1066.5 969 L 1066.5 968 Z " /><path fill="rgb(230,222,223)" stroke="rgb(230,222,223)" stroke-width="1" opacity="1" d="M 1079.5 970 L 1082 970.5 L 1079.5 971 L 1079.5 970 Z " /><path fill="rgb(230,222,223)" stroke="rgb(230,222,223)" stroke-width="1" opacity="1" d="M 1086.5 971 L 1089 971.5 L 1086.5 972 L 1086.5 971 Z " /><path fill="rgb(230,222,223)" stroke="rgb(230,222,223)" stroke-width="1" opacity="1" d="M 1096.5 973 L 1103 973.5 L 1096.5 974 L 1096.5 973 Z " /><path fill="rgb(230,222,223)" stroke="rgb(230,222,223)" stroke-width="1" opacity="1" d="M 1120.5 975 L 1124 975.5 L 1120.5 976 L 1120.5 975 Z " /><path fill="rgb(230,222,223)" stroke="rgb(230,222,223)" stroke-width="1" opacity="1" d="M 1127.5 976 L 1130 976.5 L 1127.5 977 L 1127.5 976 Z " /><path fill="rgb(230,222,223)" stroke="rgb(230,222,223)" stroke-width="1" opacity="1" d="M 1362.5 976 L 1363.5 978 L 1362.5 976 Z " /><path fill="rgb(230,222,223)" stroke="rgb(230,222,223)" stroke-width="1" opacity="1" d="M 1132.5 977 L 1135 977.5 L 1132.5 978 L 1132.5 977 Z " /><path fill="rgb(230,222,223)" stroke="rgb(230,222,223)" stroke-width="1" opacity="1" d="M 1143.5 978 L 1146 978.5 L 1143.5 979 L 1143.5 978 Z " /><path fill="rgb(230,222,223)" stroke="rgb(230,222,223)" stroke-width="1" opacity="1" d="M 1149.5 979 L 1152 979.5 L 1149.5 980 L 1149.5 979 Z " /><path fill="rgb(230,222,223)" stroke="rgb(230,222,223)" stroke-width="1" opacity="1" d="M 1169.5 982 L 1172 982.5 L 1169.5 983 L 1169.5 982 Z " /><path fill="rgb(230,222,223)" stroke="rgb(230,222,223)" stroke-width="1" opacity="1" d="M 1173.5 983 L 1178 983.5 L 1173.5 984 L 1173.5 983 Z " /><path fill="rgb(230,222,223)" stroke="rgb(230,222,223)" stroke-width="1" opacity="1" d="M 1189.5 985 L 1192 985.5 L 1189.5 986 L 1189.5 985 Z " /><path fill="rgb(230,222,223)" stroke="rgb(230,222,223)" stroke-width="1" opacity="1" d="M 1210.5 988 L 1214 988.5 L 1210.5 989 L 1210.5 988 Z " /><path fill="rgb(230,222,223)" stroke="rgb(230,222,223)" stroke-width="1" opacity="1" d="M 1216.5 989 L 1219 989.5 L 1216.5 990 L 1216.5 989 Z " /><path fill="rgb(230,222,223)" stroke="rgb(230,222,223)" stroke-width="1" opacity="1" d="M 1370.5 991 L 1371.5 993 L 1370.5 991 Z " /><path fill="rgb(230,222,223)" stroke="rgb(230,222,223)" stroke-width="1" opacity="1" d="M 1239.5 992 L 1242 992.5 L 1239.5 993 L 1239.5 992 Z " /><path fill="rgb(230,222,223)" stroke="rgb(230,222,223)" stroke-width="1" opacity="1" d="M 1257.5 995 L 1260 995.5 L 1257.5 996 L 1257.5 995 Z " /><path fill="rgb(230,222,223)" stroke="rgb(230,222,223)" stroke-width="1" opacity="1" d="M 1266.5 997 L 1269 997.5 L 1266.5 998 L 1266.5 997 Z " /><path fill="rgb(230,222,223)" stroke="rgb(230,222,223)" stroke-width="1" opacity="1" d="M 1273.5 998 L 1277 998.5 L 1273.5 999 L 1273.5 998 Z " /><path fill="rgb(230,222,223)" stroke="rgb(230,222,223)" stroke-width="1" opacity="1" d="M 1374.5 998 L 1376 1000.5 L 1375 1000.5 L 1374.5 998 Z " /><path fill="rgb(230,222,223)" stroke="rgb(230,222,223)" stroke-width="1" opacity="1" d="M 1286.5 1000 L 1289 1000.5 L 1286.5 1001 L 1286.5 1000 Z " /><path fill="rgb(230,222,223)" stroke="rgb(230,222,223)" stroke-width="1" opacity="1" d="M 1292.5 1001 L 1296 1001.5 L 1292.5 1002 L 1292.5 1001 Z " /><path fill="rgb(230,222,223)" stroke="rgb(230,222,223)" stroke-width="1" opacity="1" d="M 1303.5 1003 L 1306 1003.5 L 1303.5 1004 L 1303.5 1003 Z " /><path fill="rgb(230,222,223)" stroke="rgb(230,222,223)" stroke-width="1" opacity="1" d="M 1377.5 1004 L 1378 1006.5 L 1377 1006.5 L 1377.5 1004 Z " /><path fill="rgb(230,222,223)" stroke="rgb(230,222,223)" stroke-width="1" opacity="1" d="M 1318.5 1005 L 1322 1005.5 L 1318.5 1006 L 1318.5 1005 Z " /><path fill="rgb(230,222,223)" stroke="rgb(230,222,223)" stroke-width="1" opacity="1" d="M 1326.5 1006 L 1329 1006.5 L 1326.5 1007 L 1326.5 1006 Z " /><path fill="rgb(230,222,223)" stroke="rgb(230,222,223)" stroke-width="1" opacity="1" d="M 1336.5 1008 L 1340 1008.5 L 1336.5 1009 L 1336.5 1008 Z " /><path fill="rgb(230,222,223)" stroke="rgb(230,222,223)" stroke-width="1" opacity="1" d="M 1349.5 1010 L 1354 1010.5 L 1349.5 1011 L 1349.5 1010 Z " /><path fill="rgb(230,222,223)" stroke="rgb(230,222,223)" stroke-width="1" opacity="1" d="M 1359.5 1012 L 1372 1012.5 L 1359.5 1013 L 1359.5 1012 Z " /><path fill="rgb(172,143,142)" stroke="rgb(172,143,142)" stroke-width="1" opacity="1" d="M 1366 378 L 1370 379.5 L 1368.5 379 L 1363.5 383 L 1366 379.5 L 1366 378 Z " /><path fill="rgb(172,143,142)" stroke="rgb(172,143,142)" stroke-width="1" opacity="1" d="M 1362.5 385 L 1361.5 387 L 1362.5 385 Z " /><path fill="rgb(172,143,142)" stroke="rgb(172,143,142)" stroke-width="1" opacity="1" d="M 1360.5 389 L 1359.5 391 L 1360.5 389 Z " /><path fill="rgb(172,143,142)" stroke="rgb(172,143,142)" stroke-width="1" opacity="1" d="M 1301.5 399 L 1302 402.5 L 1301 402.5 L 1301.5 399 Z " /><path fill="rgb(172,143,142)" stroke="rgb(172,143,142)" stroke-width="1" opacity="1" d="M 1376.5 399 L 1377 401.5 L 1376 401.5 L 1376.5 399 Z " /><path fill="rgb(172,143,142)" stroke="rgb(172,143,142)" stroke-width="1" opacity="1" d="M 1298.5 410 L 1299 412.5 L 1298 412.5 L 1298.5 410 Z " /><path fill="rgb(172,143,142)" stroke="rgb(172,143,142)" stroke-width="1" opacity="1" d="M 1297.5 414 L 1298 417.5 L 1297 417.5 L 1297.5 414 Z " /><path fill="rgb(172,143,142)" stroke="rgb(172,143,142)" stroke-width="1" opacity="1" d="M 1347.5 421 L 1347 422.5 L 1346.5 424 L 1346 422.5 L 1347.5 421 Z " /><path fill="rgb(172,143,142)" stroke="rgb(172,143,142)" stroke-width="1" opacity="1" d="M 1340.5 439 L 1340 440.5 L 1338.5 444 L 1338 442.5 L 1340.5 439 Z " /><path fill="rgb(172,143,142)" stroke="rgb(172,143,142)" stroke-width="1" opacity="1" d="M 1383.5 441 L 1382.5 443 L 1378 442.5 L 1383.5 441 Z " /><path fill="rgb(172,143,142)" stroke="rgb(172,143,142)" stroke-width="1" opacity="1" d="M 1372.5 442 L 1376 442.5 L 1372.5 443 L 1372.5 442 Z " /><path fill="rgb(172,143,142)" stroke="rgb(172,143,142)" stroke-width="1" opacity="1" d="M 1289.5 443 L 1290 444.5 L 1287 446.5 L 1289.5 443 Z " /><path fill="rgb(172,143,142)" stroke="rgb(172,143,142)" stroke-width="1" opacity="1" d="M 1328.5 443 L 1329 445.5 L 1328 445.5 L 1328.5 443 Z " /><path fill="rgb(172,143,142)" stroke="rgb(172,143,142)" stroke-width="1" opacity="1" d="M 1338.5 445 L 1342 447.5 L 1340.5 448 L 1338.5 445 Z " /><path fill="rgb(172,143,142)" stroke="rgb(172,143,142)" stroke-width="1" opacity="1" d="M 1371.5 448 L 1374 448.5 L 1371.5 449 L 1371.5 448 Z " /><path fill="rgb(172,143,142)" stroke="rgb(172,143,142)" stroke-width="1" opacity="1" d="M 1385.5 452 L 1386.5 454 L 1385.5 452 Z " /><path fill="rgb(172,143,142)" stroke="rgb(172,143,142)" stroke-width="1" opacity="1" d="M 1336.5 453 L 1340 453.5 L 1336.5 454 L 1336.5 453 Z " /><path fill="rgb(172,143,142)" stroke="rgb(172,143,142)" stroke-width="1" opacity="1" d="M 1330 454 L 1335 454.5 Q 1330.8 454.3 1329.5 457 L 1330 455.5 L 1330 454 Z " /><path fill="rgb(172,143,142)" stroke="rgb(172,143,142)" stroke-width="1" opacity="1" d="M 1388.5 454 L 1390.5 457 L 1388.5 454 Z " /><path fill="rgb(172,143,142)" stroke="rgb(172,143,142)" stroke-width="1" opacity="1" d="M 1323.5 459 L 1322.5 461 L 1323.5 459 Z " /><path fill="rgb(172,143,142)" stroke="rgb(172,143,142)" stroke-width="1" opacity="1" d="M 1327.5 460 L 1325.5 463 L 1327.5 460 Z " /><path fill="rgb(172,143,142)" stroke="rgb(172,143,142)" stroke-width="1" opacity="1" d="M 1349.5 460 L 1352 460.5 L 1349.5 461 L 1349.5 460 Z " /><path fill="rgb(172,143,142)" stroke="rgb(172,143,142)" stroke-width="1" opacity="1" d="M 1349.5 463 L 1352 463.5 L 1346.5 467 L 1349.5 463 Z " /><path fill="rgb(172,143,142)" stroke="rgb(172,143,142)" stroke-width="1" opacity="1" d="M 1267.5 466 L 1266.5 468 L 1267.5 466 Z " /><path fill="rgb(172,143,142)" stroke="rgb(172,143,142)" stroke-width="1" opacity="1" d="M 1323.5 466 L 1322.5 468 L 1323.5 466 Z " /><path fill="rgb(172,143,142)" stroke="rgb(172,143,142)" stroke-width="1" opacity="1" d="M 1367.5 466 L 1368.5 468 L 1367.5 466 Z " /><path fill="rgb(172,143,142)" stroke="rgb(172,143,142)" stroke-width="1" opacity="1" d="M 1318.5 468 L 1317.5 470 L 1318.5 468 Z " /><path fill="rgb(172,143,142)" stroke="rgb(172,143,142)" stroke-width="1" opacity="1" d="M 1373.5 470 L 1374.5 472 L 1373.5 470 Z " /><path fill="rgb(172,143,142)" stroke="rgb(172,143,142)" stroke-width="1" opacity="1" d="M 1371.5 471 L 1374.5 475 L 1371.5 471 Z " /><path fill="rgb(172,143,142)" stroke="rgb(172,143,142)" stroke-width="1" opacity="1" d="M 1376.5 472 L 1377.5 474 L 1376.5 472 Z " /><path fill="rgb(172,143,142)" stroke="rgb(172,143,142)" stroke-width="1" opacity="1" d="M 1407.5 472 L 1411.5 477 L 1407.5 472 Z " /><path fill="rgb(172,143,142)" stroke="rgb(172,143,142)" stroke-width="1" opacity="1" d="M 1279.5 473 L 1279 474.5 L 1277.5 478 L 1278 476.5 L 1279.5 473 Z " /><path fill="rgb(172,143,142)" stroke="rgb(172,143,142)" stroke-width="1" opacity="1" d="M 1379.5 474 L 1382.5 478 L 1379.5 474 Z " /><path fill="rgb(172,143,142)" stroke="rgb(172,143,142)" stroke-width="1" opacity="1" d="M 1376.5 475 L 1381.5 481 L 1376.5 475 Z " /><path fill="rgb(172,143,142)" stroke="rgb(172,143,142)" stroke-width="1" opacity="1" d="M 1249.5 478 L 1248.5 480 L 1249.5 478 Z " /><path fill="rgb(172,143,142)" stroke="rgb(172,143,142)" stroke-width="1" opacity="1" d="M 1276.5 479 L 1277 480.5 L 1275 481.5 L 1276.5 479 Z " /><path fill="rgb(172,143,142)" stroke="rgb(172,143,142)" stroke-width="1" opacity="1" d="M 1246.5 480 L 1245.5 482 L 1246.5 480 Z " /><path fill="rgb(172,143,142)" stroke="rgb(172,143,142)" stroke-width="1" opacity="1" d="M 1266.5 480 L 1267 481.5 L 1265.5 484 L 1265 482.5 L 1266.5 480 Z " /><path fill="rgb(172,143,142)" stroke="rgb(172,143,142)" stroke-width="1" opacity="1" d="M 1415.5 480 L 1416.5 482 L 1415.5 480 Z " /><path fill="rgb(172,143,142)" stroke="rgb(172,143,142)" stroke-width="1" opacity="1" d="M 1419.5 484 L 1420.5 486 L 1419.5 484 Z " /><path fill="rgb(172,143,142)" stroke="rgb(172,143,142)" stroke-width="1" opacity="1" d="M 1386.5 485 L 1388.5 488 L 1386.5 485 Z " /><path fill="rgb(172,143,142)" stroke="rgb(172,143,142)" stroke-width="1" opacity="1" d="M 1384.5 487 L 1385.5 489 L 1384.5 487 Z " /><path fill="rgb(172,143,142)" stroke="rgb(172,143,142)" stroke-width="1" opacity="1" d="M 1423.5 487 L 1424.5 489 L 1423.5 487 Z " /><path fill="rgb(172,143,142)" stroke="rgb(172,143,142)" stroke-width="1" opacity="1" d="M 1389.5 489 L 1394.5 495 L 1389.5 489 Z " /><path fill="rgb(172,143,142)" stroke="rgb(172,143,142)" stroke-width="1" opacity="1" d="M 1426.5 489 L 1428.5 492 L 1426.5 489 Z " /><path fill="rgb(172,143,142)" stroke="rgb(172,143,142)" stroke-width="1" opacity="1" d="M 1230.5 490 L 1229.5 492 L 1230.5 490 Z " /><path fill="rgb(172,143,142)" stroke="rgb(172,143,142)" stroke-width="1" opacity="1" d="M 1271.5 490 L 1272 491.5 L 1270 492.5 L 1271.5 490 Z " /><path fill="rgb(172,143,142)" stroke="rgb(172,143,142)" stroke-width="1" opacity="1" d="M 1386.5 490 L 1388.5 493 L 1386.5 490 Z " /><path fill="rgb(172,143,142)" stroke="rgb(172,143,142)" stroke-width="1" opacity="1" d="M 1306.5 493 L 1307 494.5 L 1305.5 497 L 1305 495.5 L 1306.5 493 Z " /><path fill="rgb(172,143,142)" stroke="rgb(172,143,142)" stroke-width="1" opacity="1" d="M 1389.5 494 L 1390.5 496 L 1389.5 494 Z " /><path fill="rgb(172,143,142)" stroke="rgb(172,143,142)" stroke-width="1" opacity="1" d="M 1433.5 494 L 1434.5 496 L 1433.5 494 Z " /><path fill="rgb(172,143,142)" stroke="rgb(172,143,142)" stroke-width="1" opacity="1" d="M 1335.5 495 L 1334.5 497 L 1335.5 495 Z " /><path fill="rgb(172,143,142)" stroke="rgb(172,143,142)" stroke-width="1" opacity="1" d="M 1396.5 495 L 1398.5 498 L 1396.5 495 Z " /><path fill="rgb(172,143,142)" stroke="rgb(172,143,142)" stroke-width="1" opacity="1" d="M 1330.5 496 L 1329.5 498 L 1330.5 496 Z " /><path fill="rgb(172,143,142)" stroke="rgb(172,143,142)" stroke-width="1" opacity="1" d="M 1392.5 496 L 1394.5 499 L 1392.5 496 Z " /><path fill="rgb(172,143,142)" stroke="rgb(172,143,142)" stroke-width="1" opacity="1" d="M 1304.5 498 L 1305 500.5 L 1303.5 503 L 1303 501.5 L 1304.5 498 Z " /><path fill="rgb(172,143,142)" stroke="rgb(172,143,142)" stroke-width="1" opacity="1" d="M 1328.5 499 L 1327.5 501 L 1328.5 499 Z " /><path fill="rgb(172,143,142)" stroke="rgb(172,143,142)" stroke-width="1" opacity="1" d="M 1266.5 500 L 1268 500.5 L 1263.5 504 L 1266.5 500 Z " /><path fill="rgb(172,143,142)" stroke="rgb(172,143,142)" stroke-width="1" opacity="1" d="M 1332.5 500 L 1331.5 502 L 1332.5 500 Z " /><path fill="rgb(172,143,142)" stroke="rgb(172,143,142)" stroke-width="1" opacity="1" d="M 1306.5 502 L 1306 503.5 L 1302 513.5 L 1302 526 L 1304 526.5 L 1301 527 L 1301 512.5 L 1306.5 502 Z " /><path fill="rgb(172,143,142)" stroke="rgb(172,143,142)" stroke-width="1" opacity="1" d="M 1326.5 502 L 1323.5 506 L 1326.5 502 Z " /><path fill="rgb(172,143,142)" stroke="rgb(172,143,142)" stroke-width="1" opacity="1" d="M 1409.5 502 L 1412 502.5 L 1409 503.5 L 1411 504.5 L 1409.5 505 L 1406 503.5 L 1409.5 502 Z " /><path fill="rgb(172,143,142)" stroke="rgb(172,143,142)" stroke-width="1" opacity="1" d="M 1330.5 503 L 1329.5 505 L 1330.5 503 Z " /><path fill="rgb(172,143,142)" stroke="rgb(172,143,142)" stroke-width="1" opacity="1" d="M 1414.5 503 L 1417 503.5 L 1414.5 504 L 1414.5 503 Z " /><path fill="rgb(172,143,142)" stroke="rgb(172,143,142)" stroke-width="1" opacity="1" d="M 1302.5 504 L 1303 505.5 L 1300.5 511 L 1300 508.5 L 1302.5 504 Z " /><path fill="rgb(172,143,142)" stroke="rgb(172,143,142)" stroke-width="1" opacity="1" d="M 1421.5 504 L 1425 504.5 L 1421.5 505 L 1421.5 504 Z " /><path fill="rgb(172,143,142)" stroke="rgb(172,143,142)" stroke-width="1" opacity="1" d="M 1428.5 504 L 1436 504.5 L 1428.5 505 L 1428.5 504 Z " /><path fill="rgb(172,143,142)" stroke="rgb(172,143,142)" stroke-width="1" opacity="1" d="M 1262.5 505 L 1261 507.5 L 1260.5 509 L 1260 507.5 L 1262.5 505 Z " /><path fill="rgb(172,143,142)" stroke="rgb(172,143,142)" stroke-width="1" opacity="1" d="M 1322.5 507 L 1318.5 512 L 1322.5 507 Z " /><path fill="rgb(172,143,142)" stroke="rgb(172,143,142)" stroke-width="1" opacity="1" d="M 1420.5 507 L 1423 507.5 L 1420.5 508 L 1420.5 507 Z " /><path fill="rgb(172,143,142)" stroke="rgb(172,143,142)" stroke-width="1" opacity="1" d="M 1327.5 508 L 1325.5 511 L 1327.5 508 Z " /><path fill="rgb(172,143,142)" stroke="rgb(172,143,142)" stroke-width="1" opacity="1" d="M 1251.5 510 L 1251 511.5 L 1249.5 514 L 1250 512.5 L 1251.5 510 Z " /><path fill="rgb(172,143,142)" stroke="rgb(172,143,142)" stroke-width="1" opacity="1" d="M 1259.5 510 L 1258.5 512 L 1259.5 510 Z " /><path fill="rgb(172,143,142)" stroke="rgb(172,143,142)" stroke-width="1" opacity="1" d="M 1299.5 512 L 1300 513.5 L 1297.5 517 L 1298 515.5 L 1299.5 512 Z " /><path fill="rgb(172,143,142)" stroke="rgb(172,143,142)" stroke-width="1" opacity="1" d="M 1324.5 512 L 1321.5 516 L 1324.5 512 Z " /><path fill="rgb(172,143,142)" stroke="rgb(172,143,142)" stroke-width="1" opacity="1" d="M 1317.5 513 L 1313.5 518 L 1317.5 513 Z " /><path fill="rgb(172,143,142)" stroke="rgb(172,143,142)" stroke-width="1" opacity="1" d="M 1449.5 513 L 1450.5 515 L 1449.5 513 Z " /><path fill="rgb(172,143,142)" stroke="rgb(172,143,142)" stroke-width="1" opacity="1" d="M 1248.5 515 L 1247.5 517 L 1248.5 515 Z " /><path fill="rgb(172,143,142)" stroke="rgb(172,143,142)" stroke-width="1" opacity="1" d="M 1255.5 516 L 1254.5 518 L 1255.5 516 Z " /><path fill="rgb(172,143,142)" stroke="rgb(172,143,142)" stroke-width="1" opacity="1" d="M 1320.5 517 L 1308.5 530 L 1320.5 517 Z " /><path fill="rgb(172,143,142)" stroke="rgb(172,143,142)" stroke-width="1" opacity="1" d="M 1245.5 519 L 1244.5 521 L 1245.5 519 Z " /><path fill="rgb(172,143,142)" stroke="rgb(172,143,142)" stroke-width="1" opacity="1" d="M 1312.5 519 L 1309.5 523 L 1312.5 519 Z " /><path fill="rgb(172,143,142)" stroke="rgb(172,143,142)" stroke-width="1" opacity="1" d="M 1243.5 522 L 1242.5 524 L 1243.5 522 Z " /><path fill="rgb(172,143,142)" stroke="rgb(172,143,142)" stroke-width="1" opacity="1" d="M 1307.5 523 L 1305.5 526 L 1307.5 523 Z " /><path fill="rgb(172,143,142)" stroke="rgb(172,143,142)" stroke-width="1" opacity="1" d="M 1241.5 525 L 1238.5 529 L 1241.5 525 Z " /><path fill="rgb(172,143,142)" stroke="rgb(172,143,142)" stroke-width="1" opacity="1" d="M 1357.5 529 L 1363 529.5 L 1357.5 530 L 1357.5 529 Z " /><path fill="rgb(172,143,142)" stroke="rgb(172,143,142)" stroke-width="1" opacity="1" d="M 1244.5 530 L 1243.5 532 L 1244.5 530 Z " /><path fill="rgb(172,143,142)" stroke="rgb(172,143,142)" stroke-width="1" opacity="1" d="M 1305.5 531 L 1304.5 533 L 1305.5 531 Z " /><path fill="rgb(172,143,142)" stroke="rgb(172,143,142)" stroke-width="1" opacity="1" d="M 1242.5 533 L 1241.5 535 L 1242.5 533 Z " /><path fill="rgb(172,143,142)" stroke="rgb(172,143,142)" stroke-width="1" opacity="1" d="M 1362.5 534 L 1363.5 536 L 1362.5 534 Z " /><path fill="rgb(172,143,142)" stroke="rgb(172,143,142)" stroke-width="1" opacity="1" d="M 1378.5 534 L 1379.5 536 L 1378.5 534 Z " /><path fill="rgb(172,143,142)" stroke="rgb(172,143,142)" stroke-width="1" opacity="1" d="M 1301.5 535 L 1300.5 537 L 1301.5 535 Z " /><path fill="rgb(172,143,142)" stroke="rgb(172,143,142)" stroke-width="1" opacity="1" d="M 1240.5 536 L 1236.5 541 L 1240.5 536 Z " /><path fill="rgb(172,143,142)" stroke="rgb(172,143,142)" stroke-width="1" opacity="1" d="M 1289.5 538 L 1290 541 L 1293 541.5 L 1290.5 542 Q 1288 541 1289.5 538 Z " /><path fill="rgb(172,143,142)" stroke="rgb(172,143,142)" stroke-width="1" opacity="1" d="M 1383.5 538 L 1385.5 541 L 1383.5 538 Z " /><path fill="rgb(172,143,142)" stroke="rgb(172,143,142)" stroke-width="1" opacity="1" d="M 1094.5 539 L 1097 539.5 L 1094.5 540 L 1094.5 539 Z " /><path fill="rgb(172,143,142)" stroke="rgb(172,143,142)" stroke-width="1" opacity="1" d="M 1229.5 540 L 1228.5 542 L 1229.5 540 Z " /><path fill="rgb(172,143,142)" stroke="rgb(172,143,142)" stroke-width="1" opacity="1" d="M 1049.5 541 L 1052 541.5 L 1049.5 542 L 1049.5 541 Z " /><path fill="rgb(172,143,142)" stroke="rgb(172,143,142)" stroke-width="1" opacity="1" d="M 1076.5 541 L 1081 541.5 L 1076.5 542 L 1076.5 541 Z " /><path fill="rgb(172,143,142)" stroke="rgb(172,143,142)" stroke-width="1" opacity="1" d="M 1226.5 543 L 1227 544.5 L 1225 545.5 L 1226.5 543 Z " /><path fill="rgb(172,143,142)" stroke="rgb(172,143,142)" stroke-width="1" opacity="1" d="M 1233.5 544 L 1230.5 548 L 1233.5 544 Z " /><path fill="rgb(172,143,142)" stroke="rgb(172,143,142)" stroke-width="1" opacity="1" d="M 1379.5 545 L 1381.5 548 L 1379.5 545 Z " /><path fill="rgb(172,143,142)" stroke="rgb(172,143,142)" stroke-width="1" opacity="1" d="M 1224.5 547 L 1223.5 549 L 1224.5 547 Z " /><path fill="rgb(172,143,142)" stroke="rgb(172,143,142)" stroke-width="1" opacity="1" d="M 1466.5 550 L 1467.5 552 L 1466.5 550 Z " /><path fill="rgb(172,143,142)" stroke="rgb(172,143,142)" stroke-width="1" opacity="1" d="M 1045.5 551 L 1048.5 555 L 1045.5 551 Z " /><path fill="rgb(172,143,142)" stroke="rgb(172,143,142)" stroke-width="1" opacity="1" d="M 1352.5 551 L 1353.5 553 L 1352.5 551 Z " /><path fill="rgb(172,143,142)" stroke="rgb(172,143,142)" stroke-width="1" opacity="1" d="M 1360.5 551 L 1362.5 554 L 1360.5 551 Z " /><path fill="rgb(172,143,142)" stroke="rgb(172,143,142)" stroke-width="1" opacity="1" d="M 1219.5 552 L 1218.5 554 L 1219.5 552 Z " /><path fill="rgb(172,143,142)" stroke="rgb(172,143,142)" stroke-width="1" opacity="1" d="M 1224.5 552 L 1223.5 554 L 1224.5 552 Z " /><path fill="rgb(172,143,142)" stroke="rgb(172,143,142)" stroke-width="1" opacity="1" d="M 1381.5 552 L 1380.5 554 L 1381.5 552 Z " /><path fill="rgb(172,143,142)" stroke="rgb(172,143,142)" stroke-width="1" opacity="1" d="M 1216.5 555 L 1213 559.5 Q 1213.8 561.8 1211.5 561 L 1216.5 555 Z " /><path fill="rgb(172,143,142)" stroke="rgb(172,143,142)" stroke-width="1" opacity="1" d="M 1222.5 555 L 1215.5 563 L 1213.5 564 L 1214.5 562 L 1222.5 555 Z " /><path fill="rgb(172,143,142)" stroke="rgb(172,143,142)" stroke-width="1" opacity="1" d="M 1355.5 555 L 1356.5 557 L 1355.5 555 Z " /><path fill="rgb(172,143,142)" stroke="rgb(172,143,142)" stroke-width="1" opacity="1" d="M 1470.5 555 L 1471.5 557 L 1470.5 555 Z " /><path fill="rgb(172,143,142)" stroke="rgb(172,143,142)" stroke-width="1" opacity="1" d="M 1051.5 556 L 1052.5 558 L 1051.5 556 Z " /><path fill="rgb(172,143,142)" stroke="rgb(172,143,142)" stroke-width="1" opacity="1" d="M 1387.5 556 L 1386.5 558 L 1387.5 556 Z " /><path fill="rgb(172,143,142)" stroke="rgb(172,143,142)" stroke-width="1" opacity="1" d="M 1358.5 558 L 1359.5 560 L 1358.5 558 Z " /><path fill="rgb(172,143,142)" stroke="rgb(172,143,142)" stroke-width="1" opacity="1" d="M 1368.5 562 L 1372 562.5 L 1368.5 563 L 1368.5 562 Z " /><path fill="rgb(172,143,142)" stroke="rgb(172,143,142)" stroke-width="1" opacity="1" d="M 1077.5 564 L 1080 564.5 L 1077.5 565 L 1077.5 564 Z " /><path fill="rgb(172,143,142)" stroke="rgb(172,143,142)" stroke-width="1" opacity="1" d="M 1208.5 564 L 1207.5 566 L 1208.5 564 Z " /><path fill="rgb(172,143,142)" stroke="rgb(172,143,142)" stroke-width="1" opacity="1" d="M 1091.5 565 L 1102 565.5 L 1091.5 566 L 1091.5 565 Z " /><path fill="rgb(172,143,142)" stroke="rgb(172,143,142)" stroke-width="1" opacity="1" d="M 1110.5 565 L 1124 565.5 L 1110.5 566 L 1110.5 565 Z " /><path fill="rgb(172,143,142)" stroke="rgb(172,143,142)" stroke-width="1" opacity="1" d="M 1478.5 565 L 1479.5 567 L 1478.5 565 Z " /><path fill="rgb(172,143,142)" stroke="rgb(172,143,142)" stroke-width="1" opacity="1" d="M 1210.5 566 L 1211 567.5 L 1209 568.5 L 1210.5 566 Z " /><path fill="rgb(172,143,142)" stroke="rgb(172,143,142)" stroke-width="1" opacity="1" d="M 1204.5 568 L 1203.5 570 L 1204.5 568 Z " /><path fill="rgb(172,143,142)" stroke="rgb(172,143,142)" stroke-width="1" opacity="1" d="M 1126.5 570 L 1125.5 572 L 1126.5 570 Z " /><path fill="rgb(172,143,142)" stroke="rgb(172,143,142)" stroke-width="1" opacity="1" d="M 1207.5 571 L 1208 572.5 L 1206 573.5 L 1207.5 571 Z " /><path fill="rgb(172,143,142)" stroke="rgb(172,143,142)" stroke-width="1" opacity="1" d="M 1200.5 572 L 1199.5 574 L 1200.5 572 Z " /><path fill="rgb(172,143,142)" stroke="rgb(172,143,142)" stroke-width="1" opacity="1" d="M 1121.5 575 L 1119.5 578 L 1121.5 575 Z " /><path fill="rgb(172,143,142)" stroke="rgb(172,143,142)" stroke-width="1" opacity="1" d="M 1204.5 575 L 1203.5 577 L 1204.5 575 Z " /><path fill="rgb(172,143,142)" stroke="rgb(172,143,142)" stroke-width="1" opacity="1" d="M 1195.5 577 L 1195 578.5 L 1194.5 580 L 1194 578.5 L 1195.5 577 Z " /><path fill="rgb(172,143,142)" stroke="rgb(172,143,142)" stroke-width="1" opacity="1" d="M 1488.5 578 L 1489.5 580 L 1488.5 578 Z " /><path fill="rgb(172,143,142)" stroke="rgb(172,143,142)" stroke-width="1" opacity="1" d="M 1197.5 584 L 1195.5 587 L 1197.5 584 Z " /><path fill="rgb(172,143,142)" stroke="rgb(172,143,142)" stroke-width="1" opacity="1" d="M 1187.5 589 L 1186.5 591 L 1187.5 589 Z " /><path fill="rgb(172,143,142)" stroke="rgb(172,143,142)" stroke-width="1" opacity="1" d="M 1497.5 589 L 1499.5 592 L 1497.5 589 Z " /><path fill="rgb(172,143,142)" stroke="rgb(172,143,142)" stroke-width="1" opacity="1" d="M 1192.5 591 L 1190.5 594 L 1192.5 591 Z " /><path fill="rgb(172,143,142)" stroke="rgb(172,143,142)" stroke-width="1" opacity="1" d="M 1030.5 593 L 1034 593.5 L 1030 594 L 1029.5 596 L 1029 594.5 L 1030.5 593 Z " /><path fill="rgb(172,143,142)" stroke="rgb(172,143,142)" stroke-width="1" opacity="1" d="M 1066.5 593 L 1069 593.5 L 1066.5 594 L 1066.5 593 Z " /><path fill="rgb(172,143,142)" stroke="rgb(172,143,142)" stroke-width="1" opacity="1" d="M 1504.5 597 L 1505.5 599 L 1504.5 597 Z " /><path fill="rgb(172,143,142)" stroke="rgb(172,143,142)" stroke-width="1" opacity="1" d="M 1187.5 598 L 1186.5 600 L 1187.5 598 Z " /><path fill="rgb(172,143,142)" stroke="rgb(172,143,142)" stroke-width="1" opacity="1" d="M 1179.5 601 L 1179 602.5 L 1177.5 605 L 1178 603.5 L 1179.5 601 Z " /><path fill="rgb(172,143,142)" stroke="rgb(172,143,142)" stroke-width="1" opacity="1" d="M 1507.5 601 L 1509.5 604 L 1507.5 601 Z " /><path fill="rgb(172,143,142)" stroke="rgb(172,143,142)" stroke-width="1" opacity="1" d="M 1184.5 603 L 1183.5 605 L 1184.5 603 Z " /><path fill="rgb(172,143,142)" stroke="rgb(172,143,142)" stroke-width="1" opacity="1" d="M 1289.5 605 L 1292 611.5 L 1289 609.5 L 1289.5 605 Z " /><path fill="rgb(172,143,142)" stroke="rgb(172,143,142)" stroke-width="1" opacity="1" d="M 1513.5 608 L 1516.5 612 L 1513.5 608 Z " /><path fill="rgb(172,143,142)" stroke="rgb(172,143,142)" stroke-width="1" opacity="1" d="M 1181.5 609 L 1179.5 612 L 1181.5 609 Z " /><path fill="rgb(172,143,142)" stroke="rgb(172,143,142)" stroke-width="1" opacity="1" d="M 1173.5 612 L 1172.5 614 L 1173.5 612 Z " /><path fill="rgb(172,143,142)" stroke="rgb(172,143,142)" stroke-width="1" opacity="1" d="M 1518.5 613 L 1521.5 617 L 1518.5 613 Z " /><path fill="rgb(172,143,142)" stroke="rgb(172,143,142)" stroke-width="1" opacity="1" d="M 1525.5 620 L 1526.5 622 L 1525.5 620 Z " /><path fill="rgb(172,143,142)" stroke="rgb(172,143,142)" stroke-width="1" opacity="1" d="M 1168.5 621 L 1167.5 623 L 1168.5 621 Z " /><path fill="rgb(172,143,142)" stroke="rgb(172,143,142)" stroke-width="1" opacity="1" d="M 1528.5 623 L 1531.5 627 L 1528.5 623 Z " /><path fill="rgb(172,143,142)" stroke="rgb(172,143,142)" stroke-width="1" opacity="1" d="M 1533.5 628 L 1534.5 630 L 1533.5 628 Z " /><path fill="rgb(172,143,142)" stroke="rgb(172,143,142)" stroke-width="1" opacity="1" d="M 1072.5 630 L 1071.5 632 L 1072.5 630 Z " /><path fill="rgb(172,143,142)" stroke="rgb(172,143,142)" stroke-width="1" opacity="1" d="M 1163.5 631 L 1162.5 633 L 1163.5 631 Z " /><path fill="rgb(172,143,142)" stroke="rgb(172,143,142)" stroke-width="1" opacity="1" d="M 1066.5 634 L 1065.5 636 L 1066.5 634 Z " /><path fill="rgb(172,143,142)" stroke="rgb(172,143,142)" stroke-width="1" opacity="1" d="M 1540.5 635 L 1545.5 641 L 1540.5 635 Z " /><path fill="rgb(172,143,142)" stroke="rgb(172,143,142)" stroke-width="1" opacity="1" d="M 1557.5 653 L 1558.5 655 L 1557.5 653 Z " /><path fill="rgb(172,143,142)" stroke="rgb(172,143,142)" stroke-width="1" opacity="1" d="M 1308.5 655 L 1309.5 657 L 1308.5 655 Z " /><path fill="rgb(172,143,142)" stroke="rgb(172,143,142)" stroke-width="1" opacity="1" d="M 1562.5 659 L 1563.5 661 L 1562.5 659 Z " /><path fill="rgb(172,143,142)" stroke="rgb(172,143,142)" stroke-width="1" opacity="1" d="M 1312.5 662 L 1314.5 665 L 1312.5 662 Z " /><path fill="rgb(172,143,142)" stroke="rgb(172,143,142)" stroke-width="1" opacity="1" d="M 1307.5 663 L 1308.5 665 L 1307.5 663 Z " /><path fill="rgb(172,143,142)" stroke="rgb(172,143,142)" stroke-width="1" opacity="1" d="M 1025.5 665 L 1028 665.5 L 1025.5 666 L 1025.5 665 Z " /><path fill="rgb(172,143,142)" stroke="rgb(172,143,142)" stroke-width="1" opacity="1" d="M 1315.5 666 L 1316.5 668 L 1315.5 666 Z " /><path fill="rgb(172,143,142)" stroke="rgb(172,143,142)" stroke-width="1" opacity="1" d="M 1048.5 667 L 1056 667.5 L 1048.5 668 L 1048.5 667 Z " /><path fill="rgb(172,143,142)" stroke="rgb(172,143,142)" stroke-width="1" opacity="1" d="M 1062.5 668 L 1063.5 670 L 1062.5 668 Z " /><path fill="rgb(172,143,142)" stroke="rgb(172,143,142)" stroke-width="1" opacity="1" d="M 1310.5 668 L 1312.5 671 L 1310.5 668 Z " /><path fill="rgb(172,143,142)" stroke="rgb(172,143,142)" stroke-width="1" opacity="1" d="M 1317.5 669 L 1320.5 673 L 1317.5 669 Z " /><path fill="rgb(172,143,142)" stroke="rgb(172,143,142)" stroke-width="1" opacity="1" d="M 1148.5 672 L 1149 674.5 L 1148 674.5 L 1148.5 672 Z " /><path fill="rgb(172,143,142)" stroke="rgb(172,143,142)" stroke-width="1" opacity="1" d="M 1313.5 672 L 1317.5 677 L 1313.5 672 Z " /><path fill="rgb(172,143,142)" stroke="rgb(172,143,142)" stroke-width="1" opacity="1" d="M 1321.5 674 L 1338.5 692 L 1321.5 674 Z " /><path fill="rgb(172,143,142)" stroke="rgb(172,143,142)" stroke-width="1" opacity="1" d="M 1530.5 677 L 1528.5 680 L 1530.5 677 Z " /><path fill="rgb(172,143,142)" stroke="rgb(172,143,142)" stroke-width="1" opacity="1" d="M 1319.5 678 L 1332.5 692 L 1319.5 678 Z " /><path fill="rgb(172,143,142)" stroke="rgb(172,143,142)" stroke-width="1" opacity="1" d="M 1049.5 679 L 1048.5 681 L 1049.5 679 Z " /><path fill="rgb(172,143,142)" stroke="rgb(172,143,142)" stroke-width="1" opacity="1" d="M 1041.5 684 L 1040.5 686 L 1041.5 684 Z " /><path fill="rgb(172,143,142)" stroke="rgb(172,143,142)" stroke-width="1" opacity="1" d="M 1030.5 690 L 1029.5 692 L 1030.5 690 Z " /><path fill="rgb(172,143,142)" stroke="rgb(172,143,142)" stroke-width="1" opacity="1" d="M 1334.5 692 L 1335.5 694 L 1334.5 692 Z " /><path fill="rgb(172,143,142)" stroke="rgb(172,143,142)" stroke-width="1" opacity="1" d="M 1340.5 692 L 1344.5 697 L 1340.5 692 Z " /><path fill="rgb(172,143,142)" stroke="rgb(172,143,142)" stroke-width="1" opacity="1" d="M 1337.5 694 L 1338.5 696 L 1337.5 694 Z " /><path fill="rgb(172,143,142)" stroke="rgb(172,143,142)" stroke-width="1" opacity="1" d="M 1342.5 697 L 1343.5 699 L 1342.5 697 Z " /><path fill="rgb(172,143,142)" stroke="rgb(172,143,142)" stroke-width="1" opacity="1" d="M 1345.5 699 L 1346.5 701 L 1345.5 699 Z " /><path fill="rgb(172,143,142)" stroke="rgb(172,143,142)" stroke-width="1" opacity="1" d="M 1137.5 710 L 1138 712.5 L 1137 712.5 L 1137.5 710 Z " /><path fill="rgb(172,143,142)" stroke="rgb(172,143,142)" stroke-width="1" opacity="1" d="M 1380.5 710 L 1383 710.5 L 1380.5 711 L 1380.5 710 Z " /><path fill="rgb(172,143,142)" stroke="rgb(172,143,142)" stroke-width="1" opacity="1" d="M 1136.5 714 L 1137 716.5 L 1135.5 720 L 1135 716.5 L 1136.5 714 Z " /><path fill="rgb(172,143,142)" stroke="rgb(172,143,142)" stroke-width="1" opacity="1" d="M 1134.5 721 L 1135 722.5 L 1133.5 726 L 1133 723.5 L 1134.5 721 Z " /><path fill="rgb(172,143,142)" stroke="rgb(172,143,142)" stroke-width="1" opacity="1" d="M 996.5 725 L 1009 725.5 L 996.5 726 L 996.5 725 Z " /><path fill="rgb(172,143,142)" stroke="rgb(172,143,142)" stroke-width="1" opacity="1" d="M 1132.5 728 L 1133 730.5 L 1129.5 735 L 1130 733.5 L 1132.5 728 Z " /><path fill="rgb(172,143,142)" stroke="rgb(172,143,142)" stroke-width="1" opacity="1" d="M 1452.5 728 L 1456 728.5 L 1452.5 729 L 1452.5 728 Z " /><path fill="rgb(172,143,142)" stroke="rgb(172,143,142)" stroke-width="1" opacity="1" d="M 1575.5 730 L 1576 732.5 L 1575 732.5 L 1575.5 730 Z " /><path fill="rgb(172,143,142)" stroke="rgb(172,143,142)" stroke-width="1" opacity="1" d="M 1037.5 731 L 1035.5 734 L 1037.5 731 Z " /><path fill="rgb(172,143,142)" stroke="rgb(172,143,142)" stroke-width="1" opacity="1" d="M 1471.5 731 L 1475 731.5 L 1471.5 732 L 1471.5 731 Z " /><path fill="rgb(172,143,142)" stroke="rgb(172,143,142)" stroke-width="1" opacity="1" d="M 1482.5 732 L 1485 732.5 L 1482.5 733 L 1482.5 732 Z " /><path fill="rgb(172,143,142)" stroke="rgb(172,143,142)" stroke-width="1" opacity="1" d="M 1133.5 733 L 1132.5 735 L 1133.5 733 Z " /><path fill="rgb(172,143,142)" stroke="rgb(172,143,142)" stroke-width="1" opacity="1" d="M 1493.5 734 L 1495.5 737 L 1493.5 734 Z " /><path fill="rgb(172,143,142)" stroke="rgb(172,143,142)" stroke-width="1" opacity="1" d="M 1026.5 737 L 1025.5 739 L 1026.5 737 Z " /><path fill="rgb(172,143,142)" stroke="rgb(172,143,142)" stroke-width="1" opacity="1" d="M 1357.5 737 L 1358 739.5 L 1357 739.5 L 1357.5 737 Z " /><path fill="rgb(172,143,142)" stroke="rgb(172,143,142)" stroke-width="1" opacity="1" d="M 1128.5 738 L 1129 739.5 L 1127.5 742 L 1127 740.5 L 1128.5 738 Z " /><path fill="rgb(172,143,142)" stroke="rgb(172,143,142)" stroke-width="1" opacity="1" d="M 1126.5 743 L 1125.5 745 L 1126.5 743 Z " /><path fill="rgb(172,143,142)" stroke="rgb(172,143,142)" stroke-width="1" opacity="1" d="M 1571.5 744 L 1570.5 746 L 1571.5 744 Z " /><path fill="rgb(172,143,142)" stroke="rgb(172,143,142)" stroke-width="1" opacity="1" d="M 1507.5 746 L 1510 747.5 L 1508.5 747 L 1507.5 746 Z " /><path fill="rgb(172,143,142)" stroke="rgb(172,143,142)" stroke-width="1" opacity="1" d="M 1565.5 750 L 1563.5 753 L 1565.5 750 Z " /><path fill="rgb(172,143,142)" stroke="rgb(172,143,142)" stroke-width="1" opacity="1" d="M 1540.5 758 L 1547 758.5 L 1540.5 759 L 1540.5 758 Z " /><path fill="rgb(172,143,142)" stroke="rgb(172,143,142)" stroke-width="1" opacity="1" d="M 970.5 760 L 973 760.5 L 970.5 761 L 970.5 760 Z " /><path fill="rgb(172,143,142)" stroke="rgb(172,143,142)" stroke-width="1" opacity="1" d="M 962.5 762 L 966 762.5 L 962.5 763 L 962.5 762 Z " /><path fill="rgb(172,143,142)" stroke="rgb(172,143,142)" stroke-width="1" opacity="1" d="M 1123.5 762 L 1122.5 764 L 1123.5 762 Z " /><path fill="rgb(172,143,142)" stroke="rgb(172,143,142)" stroke-width="1" opacity="1" d="M 1117.5 763 L 1115.5 766 L 1117.5 763 Z " /><path fill="rgb(172,143,142)" stroke="rgb(172,143,142)" stroke-width="1" opacity="1" d="M 1120.5 766 L 1118.5 769 L 1120.5 766 Z " /><path fill="rgb(172,143,142)" stroke="rgb(172,143,142)" stroke-width="1" opacity="1" d="M 1113.5 769 L 1112.5 771 L 1113.5 769 Z " /><path fill="rgb(172,143,142)" stroke="rgb(172,143,142)" stroke-width="1" opacity="1" d="M 945.5 770 L 946.5 772 L 945.5 770 Z " /><path fill="rgb(172,143,142)" stroke="rgb(172,143,142)" stroke-width="1" opacity="1" d="M 1110.5 774 L 1108.5 777 L 1110.5 774 Z " /><path fill="rgb(172,143,142)" stroke="rgb(172,143,142)" stroke-width="1" opacity="1" d="M 1112.5 776 L 1110.5 779 L 1112.5 776 Z " /><path fill="rgb(172,143,142)" stroke="rgb(172,143,142)" stroke-width="1" opacity="1" d="M 1106.5 778 L 1108 778.5 L 1105 780.5 L 1099.5 787 L 1104 781.5 L 1106.5 778 Z " /><path fill="rgb(172,143,142)" stroke="rgb(172,143,142)" stroke-width="1" opacity="1" d="M 977.5 780 L 980 780.5 L 977.5 781 L 977.5 780 Z " /><path fill="rgb(172,143,142)" stroke="rgb(172,143,142)" stroke-width="1" opacity="1" d="M 1108.5 781 L 1108 782.5 Q 1108.8 784.8 1106.5 784 L 1108.5 781 Z " /><path fill="rgb(172,143,142)" stroke="rgb(172,143,142)" stroke-width="1" opacity="1" d="M 1001.5 787 L 1000.5 789 L 1001.5 787 Z " /><path fill="rgb(172,143,142)" stroke="rgb(172,143,142)" stroke-width="1" opacity="1" d="M 1101.5 788 L 1096.5 794 L 1101.5 788 Z " /><path fill="rgb(172,143,142)" stroke="rgb(172,143,142)" stroke-width="1" opacity="1" d="M 1094.5 789 L 1092.5 792 L 1094.5 789 Z " /><path fill="rgb(172,143,142)" stroke="rgb(172,143,142)" stroke-width="1" opacity="1" d="M 1354.5 793 L 1355 795.5 L 1354 795.5 L 1354.5 793 Z " /><path fill="rgb(172,143,142)" stroke="rgb(172,143,142)" stroke-width="1" opacity="1" d="M 1087.5 794 L 1086.5 796 L 1087.5 794 Z " /><path fill="rgb(172,143,142)" stroke="rgb(172,143,142)" stroke-width="1" opacity="1" d="M 1084.5 796 L 1083.5 798 L 1084.5 796 Z " /><path fill="rgb(172,143,142)" stroke="rgb(172,143,142)" stroke-width="1" opacity="1" d="M 1092.5 796 L 1090.5 799 L 1092.5 796 Z " /><path fill="rgb(172,143,142)" stroke="rgb(172,143,142)" stroke-width="1" opacity="1" d="M 989.5 798 L 987.5 801 L 989.5 798 Z " /><path fill="rgb(172,143,142)" stroke="rgb(172,143,142)" stroke-width="1" opacity="1" d="M 1088.5 799 L 1087.5 801 L 1088.5 799 Z " /><path fill="rgb(172,143,142)" stroke="rgb(172,143,142)" stroke-width="1" opacity="1" d="M 1077.5 801 L 1076.5 803 L 1077.5 801 Z " /><path fill="rgb(172,143,142)" stroke="rgb(172,143,142)" stroke-width="1" opacity="1" d="M 984.5 802 L 981.5 806 L 984.5 802 Z " /><path fill="rgb(172,143,142)" stroke="rgb(172,143,142)" stroke-width="1" opacity="1" d="M 1084.5 802 L 1083.5 804 L 1084.5 802 Z " /><path fill="rgb(172,143,142)" stroke="rgb(172,143,142)" stroke-width="1" opacity="1" d="M 1081.5 804 L 1080.5 806 L 1081.5 804 Z " /><path fill="rgb(172,143,142)" stroke="rgb(172,143,142)" stroke-width="1" opacity="1" d="M 1069.5 806 L 1067.5 809 L 1069.5 806 Z " /><path fill="rgb(172,143,142)" stroke="rgb(172,143,142)" stroke-width="1" opacity="1" d="M 1065.5 809 L 1064.5 811 L 1065.5 809 Z " /><path fill="rgb(172,143,142)" stroke="rgb(172,143,142)" stroke-width="1" opacity="1" d="M 1046.5 818 L 1045.5 820 L 1046.5 818 Z " /><path fill="rgb(172,143,142)" stroke="rgb(172,143,142)" stroke-width="1" opacity="1" d="M 959.5 819 L 958.5 821 L 959.5 819 Z " /><path fill="rgb(172,143,142)" stroke="rgb(172,143,142)" stroke-width="1" opacity="1" d="M 1042.5 820 L 1041.5 822 L 1042.5 820 Z " /><path fill="rgb(172,143,142)" stroke="rgb(172,143,142)" stroke-width="1" opacity="1" d="M 1041.5 823 L 1040.5 825 L 1041.5 823 Z " /><path fill="rgb(172,143,142)" stroke="rgb(172,143,142)" stroke-width="1" opacity="1" d="M 1350.5 828 L 1351 831.5 L 1350 831.5 L 1350.5 828 Z " /><path fill="rgb(172,143,142)" stroke="rgb(172,143,142)" stroke-width="1" opacity="1" d="M 1016.5 833 L 1018 833.5 L 1015.5 835 L 1016.5 833 Z " /><path fill="rgb(172,143,142)" stroke="rgb(172,143,142)" stroke-width="1" opacity="1" d="M 1009.5 836 L 1012 836.5 L 1009.5 837 L 1009.5 836 Z " /><path fill="rgb(172,143,142)" stroke="rgb(172,143,142)" stroke-width="1" opacity="1" d="M 1004.5 838 L 1003.5 840 L 1004.5 838 Z " /><path fill="rgb(172,143,142)" stroke="rgb(172,143,142)" stroke-width="1" opacity="1" d="M 928.5 841 L 931 841.5 L 928.5 842 L 928.5 841 Z " /><path fill="rgb(172,143,142)" stroke="rgb(172,143,142)" stroke-width="1" opacity="1" d="M 962.5 841 L 966 841.5 L 962.5 842 L 962.5 841 Z " /><path fill="rgb(172,143,142)" stroke="rgb(172,143,142)" stroke-width="1" opacity="1" d="M 935.5 842 L 940 842.5 L 935.5 843 L 935.5 842 Z " /><path fill="rgb(172,143,142)" stroke="rgb(172,143,142)" stroke-width="1" opacity="1" d="M 950.5 842 L 956 842.5 L 950.5 843 L 950.5 842 Z " /><path fill="rgb(172,143,142)" stroke="rgb(172,143,142)" stroke-width="1" opacity="1" d="M 999.5 843 L 998.5 845 L 999.5 843 Z " /><path fill="rgb(172,143,142)" stroke="rgb(172,143,142)" stroke-width="1" opacity="1" d="M 993.5 852 L 994 853.5 L 992 854.5 L 993.5 852 Z " /><path fill="rgb(172,143,142)" stroke="rgb(172,143,142)" stroke-width="1" opacity="1" d="M 1344.5 865 L 1345 867.5 L 1344 867.5 L 1344.5 865 Z " /><path fill="rgb(172,143,142)" stroke="rgb(172,143,142)" stroke-width="1" opacity="1" d="M 1341.5 884 L 1342 891.5 L 1341 891.5 L 1341.5 884 Z " /><path fill="rgb(172,143,142)" stroke="rgb(172,143,142)" stroke-width="1" opacity="1" d="M 971.5 898 L 970.5 900 L 971.5 898 Z " /><path fill="rgb(172,143,142)" stroke="rgb(172,143,142)" stroke-width="1" opacity="1" d="M 965.5 910 L 965 911.5 L 964.5 913 L 964 911.5 L 965.5 910 Z " /><path fill="rgb(172,143,142)" stroke="rgb(172,143,142)" stroke-width="1" opacity="1" d="M 1343.5 920 L 1344 923.5 L 1343 923.5 L 1343.5 920 Z " /><path fill="rgb(172,143,142)" stroke="rgb(172,143,142)" stroke-width="1" opacity="1" d="M 957.5 926 L 956.5 928 L 957.5 926 Z " /><path fill="rgb(172,143,142)" stroke="rgb(172,143,142)" stroke-width="1" opacity="1" d="M 964.5 953 L 967 953.5 L 964.5 954 L 964.5 953 Z " /><path fill="rgb(172,143,142)" stroke="rgb(172,143,142)" stroke-width="1" opacity="1" d="M 988.5 957 L 991 957.5 L 988.5 958 L 988.5 957 Z " /><path fill="rgb(172,143,142)" stroke="rgb(172,143,142)" stroke-width="1" opacity="1" d="M 994.5 958 L 998 958.5 L 994.5 959 L 994.5 958 Z " /><path fill="rgb(172,143,142)" stroke="rgb(172,143,142)" stroke-width="1" opacity="1" d="M 1069.5 968 L 1073 968.5 L 1069.5 969 L 1069.5 968 Z " /><path fill="rgb(172,143,142)" stroke="rgb(172,143,142)" stroke-width="1" opacity="1" d="M 1075.5 969 L 1078 969.5 L 1075.5 970 L 1075.5 969 Z " /><path fill="rgb(172,143,142)" stroke="rgb(172,143,142)" stroke-width="1" opacity="1" d="M 1103.5 973 L 1106 973.5 L 1103.5 974 L 1103.5 973 Z " /><path fill="rgb(172,143,142)" stroke="rgb(172,143,142)" stroke-width="1" opacity="1" d="M 1362.5 977 L 1363.5 979 L 1362.5 977 Z " /><path fill="rgb(172,143,142)" stroke="rgb(172,143,142)" stroke-width="1" opacity="1" d="M 1158.5 980 L 1161 980.5 L 1158.5 981 L 1158.5 980 Z " /><path fill="rgb(172,143,142)" stroke="rgb(172,143,142)" stroke-width="1" opacity="1" d="M 1289.5 1000 L 1292 1000.5 L 1289.5 1001 L 1289.5 1000 Z " /><path fill="rgb(172,143,142)" stroke="rgb(172,143,142)" stroke-width="1" opacity="1" d="M 1306.5 1003 L 1310 1003.5 L 1306.5 1004 L 1306.5 1003 Z " /><path fill="rgb(172,143,142)" stroke="rgb(172,143,142)" stroke-width="1" opacity="1" d="M 1345.5 1009 L 1348 1009.5 L 1345.5 1010 L 1345.5 1009 Z " /><path fill="rgb(172,143,142)" stroke="rgb(172,143,142)" stroke-width="1" opacity="1" d="M 1376.5 1010 L 1375.5 1012 L 1376.5 1010 Z " /><path fill="rgb(143,199,105)" stroke="rgb(143,199,105)" stroke-width="1" opacity="1" d="M 1664 0 L 2496 0 L 2496 1392 L 1664 1392 L 1664 0 Z " /><path fill="rgb(143,199,105)" stroke="rgb(143,199,105)" stroke-width="1" opacity="1" d="M 1354.5 529 L 1357 529.5 L 1354.5 530 L 1354.5 529 Z " /><path fill="rgb(143,199,105)" stroke="rgb(143,199,105)" stroke-width="1" opacity="1" d="M 1304.5 533 L 1303.5 535 L 1304.5 533 Z " /><path fill="rgb(143,199,105)" stroke="rgb(143,199,105)" stroke-width="1" opacity="1" d="M 1236.5 541 L 1234.5 544 L 1236.5 541 Z " /><path fill="rgb(143,199,105)" stroke="rgb(143,199,105)" stroke-width="1" opacity="1" d="M 1221.5 549 L 1220.5 551 L 1221.5 549 Z " /><path fill="rgb(143,199,105)" stroke="rgb(143,199,105)" stroke-width="1" opacity="1" d="M 1102.5 565 L 1106 565.5 L 1102.5 566 L 1102.5 565 Z " /><path fill="rgb(143,199,105)" stroke="rgb(143,199,105)" stroke-width="1" opacity="1" d="M 1212.5 565 L 1211.5 567 L 1212.5 565 Z " /><path fill="rgb(143,199,105)" stroke="rgb(143,199,105)" stroke-width="1" opacity="1" d="M 1201.5 580 L 1200.5 582 L 1201.5 580 Z " /><path fill="rgb(143,199,105)" stroke="rgb(143,199,105)" stroke-width="1" opacity="1" d="M 1194.5 589 L 1193.5 591 L 1194.5 589 Z " /><path fill="rgb(143,199,105)" stroke="rgb(143,199,105)" stroke-width="1" opacity="1" d="M 1356.5 762 L 1357 764.5 L 1356 764.5 L 1356.5 762 Z " /><path fill="rgb(143,199,105)" stroke="rgb(143,199,105)" stroke-width="1" opacity="1" d="M 1110.5 779 L 1109.5 781 L 1110.5 779 Z " /><path fill="rgb(143,199,105)" stroke="rgb(143,199,105)" stroke-width="1" opacity="1" d="M 1341.5 901 L 1342 903.5 L 1341 903.5 L 1341.5 901 Z " /><path fill="rgb(78,119,178)" stroke="rgb(78,119,178)" stroke-width="1" opacity="1" d="M 0 0 L 832 0 L 832 1392 L 0 1392 L 0 0 Z " /><path fill="rgb(255,255,255)" stroke="rgb(255,255,255)" stroke-width="1" opacity="1" d="M 832 0 L 1664 0 L 1664 1392 L 832 1392 L 832 0 Z M 1366 378 L 1366 380 L 1363 381 Q 1362 388 1357 394 L 1351 413 L 1344 427 L 1342 436 L 1338 443 L 1338 447 L 1341 449 L 1347 450 L 1329 454 L 1314 482 L 1307 500 L 1306 500 Q 1315 473 1329 452 Q 1330 443 1328 439 L 1321 424 L 1321 421 L 1309 397 L 1305 393 L 1301 399 Q 1301 408 1297 413 L 1297 420 L 1295 429 L 1292 434 L 1289 444 L 1285 449 L 1285 452 L 1282 458 L 1280 472 L 1267 500 L 1264 501 L 1262 505 Q 1263 507 1260 506 L 1257 514 L 1233 545 L 1231 546 L 1222 556 L 1220 557 L 1218 560 L 1216 561 L 1209 568 L 1186 599 L 1186 601 L 1173 622 L 1173 625 L 1162 645 L 1155 663 L 1151 682 L 1144 698 L 1134 732 L 1131 737 L 1131 742 L 1129 745 L 1127 755 L 1123 763 L 1109 781 Q 1094 796 1076 808 Q 1063 812 1055 819 L 1041 823 L 1030 829 L 1019 832 L 1001 840 L 993 852 Q 990 865 982 874 L 978 885 L 948 943 L 947 948 L 951 951 L 956 953 L 977 955 Q 986 959 1000 959 L 1005 961 L 1009 960 L 1015 962 L 1024 962 L 1030 964 L 1035 964 L 1041 966 L 1052 966 L 1059 968 L 1086 971 L 1087 972 L 1094 972 L 1097 974 L 1115 974 L 1133 978 L 1143 978 L 1150 980 L 1157 980 L 1162 982 L 1169 982 L 1174 984 Q 1182 983 1187 985 L 1189 985 L 1217 990 L 1223 990 L 1229 992 L 1247 993 L 1267 998 L 1299 1002 L 1304 1004 L 1313 1004 Q 1317 1007 1326 1006 L 1337 1009 L 1356 1011 L 1360 1013 L 1375 1013 L 1378 1009 L 1378 1005 L 1376 1000 L 1364 980 L 1353 955 L 1350 951 L 1344 925 L 1342 910 L 1342 908 L 1342 882 L 1346 865 L 1346 854 L 1349 845 L 1349 838 L 1351 834 L 1351 826 L 1353 820 L 1354 803 L 1355 802 L 1356 770 L 1357 769 L 1357 757 L 1358 756 L 1358 713 L 1361 707 L 1386 712 L 1408 713 L 1431 724 L 1447 727 L 1451 729 L 1458 729 L 1462 731 Q 1467 730 1469 732 L 1488 733 L 1493 735 L 1505 746 L 1522 754 L 1525 754 L 1527 756 L 1538 759 L 1552 758 L 1566 752 L 1572 746 L 1575 739 Q 1578 731 1576 719 L 1578 710 L 1576 697 L 1570 686 L 1568 669 Q 1564 658 1556 651 L 1552 648 L 1545 640 Q 1546 637 1544 638 L 1537 630 L 1534 628 L 1524 619 L 1524 617 L 1518 613 Q 1519 610 1517 611 L 1510 604 Q 1511 601 1509 602 L 1479 566 Q 1480 563 1477 564 L 1460 540 Q 1459 535 1461 534 L 1460 526 L 1456 519 L 1454 517 L 1452 514 L 1440 509 L 1425 508 L 1413 505 L 1413 504 Q 1417 503 1419 505 L 1438 505 L 1439 504 Q 1445 506 1443 501 L 1423 486 Q 1420 487 1421 484 L 1420 484 L 1407 472 Q 1408 469 1405 470 L 1403 465 L 1394 458 Q 1391 459 1392 456 L 1383 450 L 1373 447 Q 1367 446 1366 448 L 1358 448 L 1376 443 L 1381 444 L 1384 443 L 1385 441 L 1382 421 L 1380 418 Q 1381 411 1378 408 L 1377 398 L 1373 385 L 1370 380 L 1370 378 L 1366 378 Z M 1267 466 L 1253 477 L 1251 477 L 1222 496 L 1192 511 L 1187 512 L 1179 517 L 1163 522 L 1158 525 L 1127 534 L 1100 539 L 1092 539 L 1084 541 L 1074 541 L 1073 542 L 1070 541 L 1043 541 L 1041 543 Q 1040 549 1044 551 Q 1053 561 1070 564 L 1089 565 L 1090 566 L 1127 566 L 1127 570 L 1122 575 Q 1119 574 1120 577 L 1100 588 L 1076 593 L 1056 593 L 1055 594 Q 1049 596 1048 593 L 1046 594 L 1044 593 L 1029 593 L 1028 598 L 1030 603 L 1037 608 L 1050 613 L 1077 618 Q 1083 616 1081 622 Q 1073 632 1061 638 L 1035 648 L 1014 653 L 1012 653 L 1008 656 Q 1007 660 1011 660 Q 1013 659 1012 662 L 1025 666 L 1042 667 L 1043 668 L 1046 667 L 1048 668 L 1061 668 L 1062 669 Q 1064 668 1063 671 L 1055 675 L 1048 681 L 1036 688 L 1032 689 L 1009 702 L 991 707 L 988 709 L 978 710 L 972 714 L 974 718 L 982 723 L 993 726 L 1018 726 L 1023 725 L 1025 725 L 1039 722 Q 1044 721 1046 725 L 1035 734 L 1000 751 L 966 762 L 953 763 L 946 765 Q 941 764 943 769 L 954 776 L 976 781 L 1000 781 L 1001 780 L 1006 782 L 998 792 L 981 806 L 971 811 L 957 821 Q 950 822 948 826 L 921 836 Q 916 835 918 840 L 935 843 Q 940 845 942 842 L 947 843 L 959 843 L 967 841 L 984 840 L 1009 834 Q 1013 830 1021 830 L 1025 827 L 1029 827 L 1040 823 L 1067 810 L 1098 789 L 1106 781 Q 1105 778 1108 779 L 1118 764 L 1129 740 L 1129 737 L 1133 731 L 1133 727 Q 1138 718 1139 707 L 1141 704 L 1152 661 L 1155 652 L 1158 648 L 1161 637 L 1176 608 L 1192 584 Q 1191 581 1194 582 L 1195 579 L 1213 560 L 1217 557 L 1221 551 L 1224 549 L 1227 545 Q 1226 542 1229 543 L 1237 531 L 1248 518 L 1257 503 Q 1256 499 1259 500 L 1270 473 L 1270 466 L 1267 466 Z " /><path fill="rgb(255,255,255)" stroke="rgb(255,255,255)" stroke-width="1" opacity="1" d="M 1348.5 462 L 1345 466.5 Q 1334.6 507.1 1306.5 530 L 1304 531.5 L 1301.5 535 L 1294.5 540 L 1290 541 L 1292 530.5 L 1299.5 515 L 1300 525.5 L 1302.5 528 L 1314 519.5 L 1332 496.5 L 1344 464 L 1348.5 462 Z " /><path fill="rgb(255,255,255)" stroke="rgb(255,255,255)" stroke-width="1" opacity="1" d="M 1352.5 462 L 1363.5 465 L 1373 471.5 L 1371.5 471 L 1356.5 464 L 1353.5 464 L 1352.5 462 Z " /><path fill="rgb(255,255,255)" stroke="rgb(255,255,255)" stroke-width="1" opacity="1" d="M 1378.5 475 L 1381.5 479 L 1378.5 475 Z " /><path fill="rgb(255,255,255)" stroke="rgb(255,255,255)" stroke-width="1" opacity="1" d="M 1385.5 486 L 1394.5 496 L 1398 498.5 L 1396.5 498 L 1390 493.5 L 1385.5 486 Z " /><path fill="rgb(255,255,255)" stroke="rgb(255,255,255)" stroke-width="1" opacity="1" d="M 1351.5 530 L 1368.5 530 Q 1378.9 533.1 1385 540.5 L 1388 546.5 L 1388 554.5 Q 1382.7 563.2 1367.5 562 L 1362.5 561 L 1356 555.5 L 1352 549.5 L 1352 543.5 L 1364 536.5 Q 1365.1 533.2 1362.5 534 L 1359.5 532 L 1351.5 531 L 1351.5 530 Z M 1372 541 L 1361 545 Q 1358 546 1359 552 Q 1362 556 1369 557 Q 1377 558 1381 555 Q 1384 554 1383 548 Q 1379 542 1372 541 Z " /><path fill="rgb(255,255,255)" stroke="rgb(255,255,255)" stroke-width="1" opacity="1" d="M 1296.5 629 Q 1301.8 647.7 1311 662.5 Q 1322.7 679.8 1338.5 693 L 1342 695.5 L 1340.5 695 L 1333.5 691 L 1314 671.5 L 1308 662.5 L 1301 647.5 L 1296 631.5 L 1296.5 629 Z " /><path fill="rgb(255,255,255)" stroke="rgb(255,255,255)" stroke-width="1" opacity="1" d="M 1536.5 674 Q 1539.1 673.2 1538 676.5 L 1535 678 L 1529 688.5 L 1529 691.5 L 1534 701.5 L 1534 704.5 L 1533 704.5 L 1529 696.5 L 1527 686.5 L 1528 681.5 L 1533.5 675 L 1536.5 674 Z " /><path fill="rgb(115,67,62)" stroke="rgb(115,67,62)" stroke-width="1" opacity="1" d="M 1367.5 379 L 1370 380.5 L 1376 396.5 L 1376 401.5 L 1382 424.5 L 1384 440.5 L 1382.5 442 L 1371.5 442 L 1368.5 444 L 1352.5 448 L 1343.5 448 L 1338 444.5 L 1352 412.5 L 1358 393.5 L 1363 383.5 L 1367.5 379 Z " /><path fill="rgb(115,67,62)" stroke="rgb(115,67,62)" stroke-width="1" opacity="1" d="M 1304 394 L 1308 396.5 L 1320 420.5 L 1325 435.5 L 1328 440.5 L 1328 449.5 L 1307 490.5 L 1300 508.5 L 1300 511.5 L 1291 530.5 L 1289 540.5 L 1292.5 542 L 1305 533.5 L 1307.5 530 L 1321 517.5 L 1336 495.5 L 1345 469.5 L 1349.5 464 L 1354.5 464 L 1370.5 471 L 1382 481.5 Q 1384.1 490.9 1390.5 496 L 1402.5 503 L 1420.5 508 L 1435.5 509 L 1445.5 511 L 1453 516 Q 1451.9 518.7 1454.5 518 Q 1462.2 524.8 1460 541.5 L 1465 549.5 L 1483 570.5 L 1490 582 L 1494 584.5 L 1516.5 612 Q 1518.8 611.3 1518 613.5 L 1524 618.5 L 1526.5 622 Q 1528.8 621.3 1528 623.5 L 1540 634.5 Q 1554.7 648.3 1566 665.5 L 1568 671.5 L 1569 685.5 Q 1574.7 692.8 1577 703.5 L 1577 712.5 L 1576 713.5 L 1575 736.5 L 1572 743.5 L 1566.5 750 L 1552.5 757 L 1536.5 758 L 1518.5 752 L 1504.5 745 L 1498 739.5 L 1493.5 734 L 1476.5 731 L 1474.5 731 L 1460.5 730 L 1434.5 724 L 1420.5 719 L 1407.5 712 L 1384.5 711 L 1383.5 710 L 1370.5 709 L 1365.5 707 L 1358 707 L 1358 730.5 L 1357 731.5 L 1358 736.5 L 1357 737.5 L 1357 761.5 L 1356 762.5 L 1356 776.5 L 1355 777.5 L 1355 791.5 L 1354 792.5 L 1353 814.5 L 1345 856.5 L 1345 864.5 L 1343 870.5 L 1341 891.5 L 1342 894.5 L 1341 896.5 L 1342 900.5 L 1341 903.5 L 1342 904.5 L 1343 923.5 L 1348 942.5 L 1348 947.5 L 1363 979.5 L 1367 984.5 L 1377 1004.5 L 1377 1009.5 L 1374.5 1012 L 1360.5 1012 L 1354.5 1010 L 1335.5 1008 L 1330.5 1006 L 1303.5 1003 L 1297.5 1001 L 1285.5 1000 L 1271.5 997 L 1264.5 997 L 1260.5 995 L 1255.5 995 L 1243.5 992 L 1231.5 992 L 1215.5 988 L 1207.5 988 L 1201.5 986 L 1164.5 982 L 1155.5 979 L 1153.5 979 L 1138.5 978 L 1132.5 976 L 1124.5 976 L 1108.5 973 L 1106.5 974 L 1105.5 973 L 1096.5 973 L 1090.5 971 L 1078.5 970 L 1072.5 968 L 1062.5 968 L 1056.5 966 L 1039.5 965 L 1022.5 961 L 1004.5 960 L 980.5 955 L 954.5 952 L 948 947.5 L 959 922.5 L 974 892.5 L 977 889.5 L 979 882.5 L 996 848.5 L 1002.5 840 Q 1007 836.5 1014.5 836 L 1018.5 833 L 1027.5 831 L 1042.5 823 L 1057.5 819 L 1063.5 814 L 1083.5 804 L 1102 788.5 L 1103.5 786 L 1108 784 L 1114.5 774 Q 1116.8 774.8 1116 772.5 L 1124 762.5 L 1128 753.5 L 1132 736.5 L 1135 730.5 L 1135 726.5 L 1138 721.5 L 1140 711.5 L 1142 709.5 L 1145 697.5 L 1148 692.5 L 1156 662.5 L 1162 646.5 L 1183 605.5 L 1199.5 582 L 1202 580.5 L 1205 574 L 1208 572.5 L 1213 564 L 1214.5 564 L 1223 555.5 L 1227.5 550 L 1230.5 548 L 1241 536.5 L 1266.5 501 Q 1269.5 501.9 1268 497.5 L 1272 491.5 L 1274 484.5 L 1282 468.5 L 1281 466.5 L 1284 454.5 L 1287 447.5 L 1290 444.5 L 1296 427.5 L 1298 413.5 L 1304 394 Z M 1355 529 L 1347 531 L 1349 532 L 1355 532 L 1362 534 L 1363 537 L 1351 544 Q 1350 552 1354 555 Q 1358 563 1372 563 L 1374 563 L 1386 559 L 1389 555 Q 1390 545 1386 541 Q 1380 534 1371 530 Q 1365 527 1355 529 Z M 1290 605 L 1289 610 L 1300 649 L 1307 664 L 1313 673 Q 1326 690 1347 701 Q 1352 703 1351 699 Q 1344 697 1340 692 Q 1324 679 1312 662 L 1302 642 L 1290 605 Z M 1538 673 L 1533 675 L 1527 682 L 1528 698 L 1532 705 Q 1531 708 1535 706 L 1535 701 L 1531 694 Q 1530 685 1534 683 L 1536 680 L 1539 678 L 1540 674 L 1538 673 Z " /><path fill="rgb(115,67,62)" stroke="rgb(115,67,62)" stroke-width="1" opacity="1" d="M 1367.5 448 L 1375.5 449 L 1384.5 452 L 1403 466.5 L 1406 471.5 L 1420.5 486 L 1442 500.5 L 1443 502.5 L 1438.5 504 Q 1430.3 502.3 1426.5 505 L 1405.5 501 Q 1395.4 496.6 1389 488.5 L 1383 477.5 L 1379.5 474 L 1365.5 465 L 1349.5 460 L 1343 463 L 1331 495.5 L 1308.5 523 L 1304.5 526 L 1302 526 L 1302 513.5 L 1303 510.5 L 1322 468.5 L 1331.5 455 L 1339.5 454 L 1354.5 449 L 1366.5 449 L 1367.5 448 Z " /><path fill="rgb(115,67,62)" stroke="rgb(115,67,62)" stroke-width="1" opacity="1" d="M 1267.5 467 Q 1270.5 466.5 1269 473.5 Q 1264 490 1256 503.5 L 1236 533 Q 1233.3 531.9 1234 534.5 L 1222.5 549 L 1220 550.5 L 1211 560.5 L 1210 564 L 1208.5 564 L 1194 578.5 L 1193 582 Q 1190.3 580.9 1191 583.5 L 1178 602.5 L 1161 634.5 L 1158 645.5 L 1152 658.5 L 1139 707.5 L 1133 723.5 L 1132 730.5 L 1129 734.5 L 1129 737.5 L 1118 762.5 L 1108 778 L 1104 780.5 L 1097.5 788 L 1076 802.5 Q 1076.8 805.1 1073.5 804 L 1062.5 812 Q 1048.9 814.4 1040.5 822 L 1023.5 827 L 1018.5 830 L 1003.5 835 L 975.5 841 L 931.5 842 L 919 839 L 920.5 836 L 923.5 836 L 942.5 829 L 963.5 818 L 991.5 798 L 1004 785.5 L 1006 780 L 994.5 780 L 992.5 781 L 990.5 780 L 989.5 781 L 980.5 781 L 979.5 780 L 969.5 780 L 955.5 776 L 948.5 773 L 944 768.5 L 944 765 L 950.5 765 L 958.5 763 L 965.5 763 L 977.5 758 L 981.5 758 L 1001.5 751 L 1035.5 734 L 1047 724.5 Q 1045 720 1036.5 722 L 1035.5 723 L 1021.5 724 Q 1018.6 726.6 1012.5 726 L 1010.5 726 L 1008.5 725 L 990.5 725 L 982.5 723 L 975 718 L 973 713.5 L 977.5 711 L 986.5 710 L 995.5 706 L 1007.5 703 L 1040.5 686 L 1064 669.5 L 1062.5 668 Q 1057 669.5 1055.5 667 L 1038.5 667 L 1037.5 666 L 1022.5 665 L 1012.5 661 L 1009 657.5 L 1010.5 654 L 1029.5 650 L 1048.5 643 L 1051.5 643 L 1071.5 632 L 1080 623.5 L 1082 618.5 L 1080.5 617 L 1072.5 617 L 1050.5 613 L 1034 606 L 1034 604 Q 1031.3 605.1 1032 602.5 L 1029 596.5 L 1030 594 L 1037.5 593 L 1038.5 594 L 1068.5 594 L 1069.5 593 L 1078.5 593 L 1084.5 591 L 1089.5 591 L 1108.5 585 Q 1119.6 579.6 1127 570.5 L 1128 566 Q 1121.6 563.9 1110.5 565 L 1106.5 566 L 1105.5 565 L 1080.5 565 L 1079.5 564 L 1070.5 564 Q 1068.2 561.3 1062.5 562 L 1053.5 558 L 1045 550.5 Q 1041.3 547.8 1042 542 L 1047.5 541 L 1048.5 542 L 1080.5 542 L 1088.5 540 L 1104.5 539 L 1124.5 534 L 1133.5 533 L 1139.5 530 Q 1148.1 529.6 1153.5 526 L 1157.5 526 L 1169.5 520 L 1177.5 518 L 1226.5 494 L 1267.5 467 Z " /><path fill="rgb(115,67,62)" stroke="rgb(115,67,62)" stroke-width="1" opacity="1" d="M 1368.5 543 L 1374.5 543 L 1382 548.5 Q 1382.8 553.3 1379.5 554 Q 1376.5 557 1369.5 556 Q 1362.9 555.1 1360 550.5 Q 1359.3 546.8 1361.5 546 L 1368.5 543 Z " /></svg>