<?xml version="1.0" encoding="UTF-8" standalone="no"?>
<!-- Created with Inkscape (http://www.inkscape.org/) -->

<svg
   width="500.00003"
   height="300"
   viewBox="0 0 132.29167 79.375"
   version="1.1"
   id="svg1"
   xml:space="preserve"
   xmlns="http://www.w3.org/2000/svg"
   xmlns:svg="http://www.w3.org/2000/svg"><defs
     id="defs1" /><g
     id="layer1"
     transform="translate(-91.389732,-135.94995)"><rect
       style="fill:#ffffff;fill-opacity:1;stroke:none;stroke-width:0.834048;stroke-linecap:round;stroke-linejoin:round;stroke-dasharray:none;stroke-opacity:1"
       id="rect4"
       width="132.29167"
       height="79.375"
       x="91.389732"
       y="135.94995" /><path
       style="fill:#ffa302;fill-opacity:1;stroke-width:1.03934"
       d="m 153.65088,175.37372 c -1.71119,-0.35481 -1.75692,-1.0264 -0.13785,-2.02551 2.5143,-1.55156 2.81919,-2.07761 1.57514,-2.71764 -0.80234,-0.41279 -0.90979,-0.39514 -2.58222,0.42398 -2.62568,1.28602 -5.07291,1.15441 -7.76949,-0.41783 -1.94565,-1.1344 -1.37957,-2.13166 1.51387,-2.66701 1.61389,-0.2986 2.53207,-1.32354 0.98004,-1.094 -2.33503,0.34532 -2.93886,0.35605 -3.81674,0.0679 -3.42277,-1.12386 -3.5704,-4.08575 -0.23919,-4.79946 1.23671,-0.26498 1.12102,-0.76826 -0.2757,-1.19925 -3.98621,-1.23006 -3.13424,-4.4435 1.2738,-4.8045 l 1.61842,-0.13253 -0.14478,1.07391 -0.14479,1.07392 1.42117,0.001 c 4.22282,0.004 4.4221,1.07978 0.45623,2.46168 -2.40716,0.83879 -2.41023,0.92246 -0.0279,0.76025 2.01817,-0.1374 2.05033,-0.12901 3.03265,0.79127 l 0.99284,0.93015 -0.82709,0.68053 c -0.45489,0.37428 -0.95114,0.68505 -1.10279,0.6906 -0.65668,0.024 -1.28674,0.78743 -1.10919,1.34395 0.23257,0.72902 0.69564,0.73791 0.69564,0.0133 0,-1.56098 4.23026,-1.45986 6.69047,0.15992 l 1.08378,0.71356 -0.63986,0.67762 -0.63984,0.6776 0.62795,1.17766 0.62795,1.17767 5.15383,0.1792 c 2.83459,0.0986 6.65842,0.17955 8.49734,0.17998 2.48191,5.7e-4 3.4237,0.0969 3.65469,0.37379 0.39951,0.47892 -1.40614,0.71838 -5.4422,0.72176 -2.72457,0.002 -2.90109,0.0383 -3.85973,0.78941 -3.1911,2.49996 -7.32177,3.5076 -11.13645,2.71663 z M 146.276,157.46025 c 0,-1.62255 1.77285,-2.44456 4.38084,-2.03127 3.09332,0.49018 2.85607,0.9147 -1.05213,1.88242 -2.74856,0.68059 -3.32871,0.70654 -3.32871,0.14885 z m -3.05021,-3.46315 c -1.47189,-1.0608 -1.55263,-1.39014 -0.62649,-2.55563 1.95757,-2.46346 7.50232,-3.04105 7.53223,-0.7846 0.009,0.68406 1.80037,1.76414 4.06622,2.45172 3.19445,0.96941 2.62233,1.22788 -3.05147,1.37866 -2.45121,0.0652 -4.98609,0.16166 -5.6331,0.2145 -0.954,0.078 -1.38638,-0.0553 -2.28739,-0.70465 z m 10.69175,-1.99103 c -1.76267,-0.50949 -2.12761,-0.86265 -2.12761,-2.05889 0,-0.79393 -0.20626,-1.20867 -0.96494,-1.94025 -2.24022,-2.16023 1.91163,-4.10724 6.44906,-3.02429 1.75552,0.419 1.86076,0.59037 1.1904,1.93834 -0.58592,1.17824 -0.5033,1.3109 0.41697,0.66959 1.29458,-0.90212 1.83116,-1.99613 1.34275,-2.73773 -1.1489,-1.74448 0.28173,-2.4775 4.38563,-2.24705 5.06742,0.28456 6.19771,1.17509 4.01311,3.16183 l -1.12895,1.02669 1.50002,0.31303 c 1.8117,0.37807 4.33441,1.56846 5.14655,2.42853 l 0.59295,0.62796 -1.20211,0.34358 c -3.48068,0.99484 -9.18323,0.25795 -11.12419,-1.43753 -0.78691,-0.68739 -1.01287,-0.75807 -1.65141,-0.51653 -1.10389,0.41755 -0.73021,0.87142 1.46963,1.78502 3.20651,1.33173 2.55856,1.71199 -3.26738,1.91753 -2.69988,0.0953 -4.08396,0.0267 -5.04048,-0.24983 z"
       id="path3" /><path
       style="fill:#008040;fill-opacity:1;stroke:none;stroke-width:0.824669;stroke-linecap:round;stroke-linejoin:round;stroke-dasharray:none;stroke-opacity:1"
       d="m 91.389732,182.25203 66.145828,3.96875 66.14584,-3.96875 v 33.07292 H 91.389732 Z"
       id="path4-4" /><path
       style="fill:#fe0000;fill-opacity:1;stroke:none;stroke-width:0.824669;stroke-linecap:round;stroke-linejoin:round;stroke-dasharray:none;stroke-opacity:1"
       d="m 91.389732,175.63745 66.145828,3.96875 66.14584,-3.96875 v 13.22917 l -66.14584,3.96875 -66.145828,-3.96875 z"
       id="path4" /></g></svg>
