<?xml version="1.0" encoding="UTF-8"?>
<svg version="1.1" xmlns="http://www.w3.org/2000/svg" width="1536" height="1024">
<path d="M0 0 C506.88 0 1013.76 0 1536 0 C1536 337.92 1536 675.84 1536 1024 C1029.12 1024 522.24 1024 0 1024 C0 686.08 0 348.16 0 0 Z " fill="#F2CE4A" transform="translate(0,0)"/>
<path d="M0 0 C150.48 0 300.96 0 456 0 C456.66 10.56 457.32 21.12 458 32 C466.71920045 111.71840413 501.90406015 190.97021608 563.60546875 243.94140625 C565.41353618 245.49581332 567.20501308 247.06954755 568.98828125 248.65234375 C598.22947351 274.44703642 632.49273169 293.57649858 669 307 C670.19447754 307.44762695 670.19447754 307.44762695 671.41308594 307.90429688 C690.17241193 314.87040744 710.21341661 319.14886614 730 322 C730.67369629 322.10296387 731.34739258 322.20592773 732.04150391 322.31201172 C792.93479377 331.2615015 857.44321005 318.5149402 912 291 C913.22734863 290.3822168 913.22734863 290.3822168 914.47949219 289.75195312 C935.93993296 278.77049301 956.77743592 264.67615889 974.48828125 248.30078125 C976.5421246 246.41942241 978.62504043 244.59516969 980.734375 242.77734375 C992.10227905 232.85348869 1002.80786558 221.97074539 1012 210 C1012.84896437 208.94971747 1013.70069007 207.90166294 1014.5546875 206.85546875 C1063.15394901 146.9265316 1081.26560294 75.75035295 1086 0 C1234.5 0 1383 0 1536 0 C1536 168.96 1536 337.92 1536 512 C1029.12 512 522.24 512 0 512 C0 343.04 0 174.08 0 0 Z " fill="#195092" transform="translate(0,512)"/>
<path d="M0 0 C0.99870117 0.12858398 1.99740234 0.25716797 3.02636719 0.38964844 C62.61926797 8.44052847 120.48120055 36.52175993 164.6953125 76.921875 C166.79741782 78.81733268 168.94451606 80.63356549 171.125 82.4375 C172.07375 83.283125 173.0225 84.12875 174 85 C174 85.66 174 86.32 174 87 C174.99 87.33 175.98 87.66 177 88 C178.47265625 89.4609375 178.47265625 89.4609375 180.0625 91.375 C182.83204851 94.65335909 185.68743971 97.80887888 188.625 100.9375 C194.69127836 107.59381151 200.09675997 114.72054286 205.46875 121.94238281 C206.42241252 123.22386682 207.38005393 124.5024114 208.34375 125.77636719 C231.53845945 156.45499461 247.2455391 192.26607747 258 229 C258.19932129 229.67981934 258.39864258 230.35963867 258.60400391 231.06005859 C261.22608689 240.22432153 262.92142414 249.56845498 264.625 258.9375 C264.9346167 260.63350342 264.9346167 260.63350342 265.25048828 262.36376953 C268.01651674 278.07238446 269.41078189 293.42801517 269.375 309.375 C269.37478851 310.25518799 269.37457703 311.13537598 269.37435913 312.04223633 C269.29118379 347.14459656 263.78553125 381.58057864 253 415 C252.6807959 415.99435059 252.3615918 416.98870117 252.03271484 418.01318359 C238.75970401 458.64418123 216.96001817 495.77940763 189 528 C188.31808594 528.79535156 187.63617187 529.59070313 186.93359375 530.41015625 C176.79177275 541.98096181 165.86898625 553.48147096 153.68066406 562.90380859 C151.03803946 564.97025439 148.46732507 567.10533733 145.89453125 569.2578125 C140.35357123 573.79714279 134.60048264 577.86900872 128.625 581.8125 C127.58770752 582.49900635 126.55041504 583.1855127 125.48168945 583.89282227 C83.88545797 611.14508852 35.90860271 630.18671405 -14 634 C-15.06154297 634.08540039 -16.12308594 634.17080078 -17.21679688 634.25878906 C-27.27450725 635.00708271 -37.29235214 635.2425383 -47.375 635.25 C-48.20559937 635.25067474 -49.03619873 635.25134949 -49.89196777 635.25204468 C-64.11585385 635.23381941 -77.9546519 634.37252502 -92 632 C-93.04478516 631.82839355 -94.08957031 631.65678711 -95.16601562 631.47998047 C-153.98543557 621.609115 -209.53552949 595.54780491 -253.19140625 554.625 C-255.82217752 552.16619848 -258.49444325 549.76513974 -261.1875 547.375 C-268.61868797 540.6940762 -275.58467573 533.66173013 -282 526 C-282.4429541 525.47615723 -282.8859082 524.95231445 -283.34228516 524.41259766 C-324.13301404 476.00118196 -350.88613408 416.28093291 -358.70751953 353.33740234 C-358.89828031 351.81290845 -359.09930249 350.28965311 -359.31201172 348.76806641 C-362.71576867 324.35027761 -362.19368587 298.41495377 -359 274 C-358.90348145 273.22446777 -358.80696289 272.44893555 -358.70751953 271.64990234 C-351.61627021 216.18911331 -328.28775752 161.94536786 -294 118 C-293.36964844 117.18789063 -292.73929688 116.37578125 -292.08984375 115.5390625 C-290.08936331 113.00046514 -288.05403006 110.49548235 -286 108 C-285.37665771 107.23913086 -285.37665771 107.23913086 -284.74072266 106.46289062 C-278.7329034 99.16721457 -272.42980381 92.25010003 -265.75 85.5625 C-265.10095703 84.91265137 -264.45191406 84.26280273 -263.78320312 83.59326172 C-259.34503794 79.20578624 -254.74013398 75.05776961 -250 71 C-249.42475586 70.50201904 -248.84951172 70.00403809 -248.25683594 69.4909668 C-229.9367818 53.74997504 -209.49951101 40.92471367 -188 30 C-187.18724609 29.58669434 -186.37449219 29.17338867 -185.53710938 28.74755859 C-128.34505705 0.00004574 -63.07739171 -8.25905417 0 0 Z " fill="#FEFEFD" transform="translate(817,202)"/>
<path d="M0 0 C178.86 0 357.72 0 542 0 C539.32544176 4.01183736 537.33227781 6.86166523 534.125 10.1875 C519.49660638 26.18956485 507.37677354 45.04897401 497.05712891 64.06640625 C496.06071534 65.88894562 495.04031363 67.69548348 494.01171875 69.5 C479.89089999 94.60721154 469.63560914 123.76135638 464 152 C463.60941406 153.77117187 463.60941406 153.77117187 463.2109375 155.578125 C459.00930749 175.1857317 457.53867544 194.99721924 456 215 C305.52 215 155.04 215 0 215 C0 144.05 0 73.1 0 0 Z " fill="#D24646" transform="translate(0,297)"/>
<path d="M0 0 C176.88 0 353.76 0 536 0 C536 70.95 536 141.9 536 215 C387.5 215 239 215 86 215 C85.67 208.4 85.34 201.8 85 195 C84.48635773 190.05493418 83.93666039 185.16768026 83.25 180.25 C83.0737207 178.97415039 82.89744141 177.69830078 82.71582031 176.38378906 C74.59299478 119.55236226 52.00466469 64.88739447 16 20 C15.21625 19.02289063 14.4325 18.04578125 13.625 17.0390625 C9.60009738 12.07592245 5.48968492 7.21076102 1.21484375 2.4609375 C0 1 0 1 0 0 Z " fill="#D24646" transform="translate(1000,297)"/>
<path d="M0 0 C18.81 0 37.62 0 57 0 C57.495 10.395 57.495 10.395 58 21 C58.55691433 25.46028707 59.14658736 29.73501729 60 34.125 C60.32266846 35.80577637 60.32266846 35.80577637 60.65185547 37.52050781 C68.6526875 76.70000884 87.48465343 111.25421992 115 140 C115.78068848 140.82951172 115.78068848 140.82951172 116.57714844 141.67578125 C151.39822845 178.55740335 202.95309866 203.47036976 253.80957031 206.20483398 C257.68810418 206.3024681 261.55779337 206.32900328 265.4375 206.3125 C266.47023544 206.30976578 266.47023544 206.30976578 267.52383423 206.30697632 C326.9040856 206.04479489 380.1249559 181.80540439 422.31835938 140.70166016 C426.22980195 136.74365278 429.59503396 132.38906028 433 128 C434.04994141 126.78376953 434.04994141 126.78376953 435.12109375 125.54296875 C446.25889022 112.61836001 455.04452137 97.54373249 462 82 C462.50225098 80.87803223 462.50225098 80.87803223 463.01464844 79.73339844 C474.35459766 53.93368297 478.20437398 27.95626016 481 0 C499.81 0 518.62 0 538 0 C538 12.40136054 538 12.40136054 537.6328125 17.671875 C537.51268799 19.40099121 537.51268799 19.40099121 537.39013672 21.16503906 C537.3026416 22.34807617 537.21514648 23.53111328 537.125 24.75 C537.03621582 25.97686523 536.94743164 27.20373047 536.85595703 28.46777344 C536.21079325 37.0329179 535.35608936 45.51722826 534 54 C530.47015434 55.1852306 527.78324223 54.83595405 524.140625 54.22265625 C523.02558594 54.03896484 521.91054688 53.85527344 520.76171875 53.66601562 C519.60285156 53.46685547 518.44398438 53.26769531 517.25 53.0625 C516.07566406 52.86720703 514.90132812 52.67191406 513.69140625 52.47070312 C510.79298975 51.98763371 507.89603033 51.49714131 505 51 C504.74742432 52.30360474 504.74742432 52.30360474 504.48974609 53.63354492 C501.2887034 69.86122956 496.54646519 85.26429875 489 100 C489.78632812 100.21398437 490.57265625 100.42796875 491.3828125 100.6484375 C496.21191181 102.45283098 500.45099169 104.99991073 504.875 107.625 C506.19371094 108.3984375 506.19371094 108.3984375 507.5390625 109.1875 C509.6957056 110.45335573 511.84917988 111.72428407 514 113 C509.65292788 128.0418575 500.12459153 142.39668004 491 155 C490.5570459 155.61439941 490.1140918 156.22879883 489.65771484 156.86181641 C481.27311631 168.3902644 481.27311631 168.3902644 477 170 C476.16597656 169.27554688 475.33195312 168.55109375 474.47265625 167.8046875 C468.22507674 162.42211453 462.01236682 157.37488262 455 153 C454.59040039 153.47961182 454.18080078 153.95922363 453.75878906 154.45336914 C449.27653295 159.64562969 444.60234636 164.59067206 439.75 169.4375 C438.63999634 170.54629517 438.63999634 170.54629517 437.50756836 171.67749023 C422.01325514 187 422.01325514 187 418 187 C421.58830398 193.92913872 425.83035366 200.23839408 430.34106445 206.58984375 C430.8124585 207.26015625 431.28385254 207.93046875 431.76953125 208.62109375 C432.19854736 209.2236499 432.62756348 209.82620605 433.06958008 210.44702148 C434 212 434 212 434 214 C431.97656036 215.70640302 429.95585322 217.2673488 427.8125 218.8125 C427.14613525 219.29460937 426.47977051 219.77671875 425.79321289 220.2734375 C413.16964759 229.26296789 399.96801563 237.22468538 386.125 244.1875 C385.21613037 244.64511719 384.30726074 245.10273437 383.37084961 245.57421875 C378.50679446 247.95921001 374.32826546 249.47763844 369 251 C364.38 242.42 359.76 233.84 355 225 C351.868793 225 349.95839776 225.58433164 347.01953125 226.609375 C346.02735596 226.95033203 345.03518066 227.29128906 344.01293945 227.64257812 C342.95679443 228.00802734 341.90064941 228.37347656 340.8125 228.75 C316.51901455 237 316.51901455 237 307 237 C307.33 247.23 307.66 257.46 308 268 C298.50740828 269.72592577 289.68337523 271.15424905 280.1015625 271.16796875 C279.26773041 271.17129715 278.43389832 271.17462555 277.57479858 271.17805481 C275.81500799 271.18309134 274.05520795 271.18546415 272.29541016 271.18530273 C269.66682142 271.18746559 267.03866966 271.20559081 264.41015625 271.22460938 C235.63920856 271.31960428 235.63920856 271.31960428 229 268 C228.90223913 257.61562308 228.8444462 247.33807949 230 237 C228.16695312 236.85304688 228.16695312 236.85304688 226.296875 236.703125 C220.1183019 236.01232285 214.23348516 234.39387652 208.25 232.75 C207.10289551 232.43861084 205.95579102 232.12722168 204.77392578 231.80639648 C196.9764898 229.64967065 189.41697456 227.25806373 182 224 C181.77183594 224.77730469 181.54367187 225.55460938 181.30859375 226.35546875 C179.57202461 231.19194339 177.34673001 235.71437465 175.0625 240.3125 C174.61970703 241.23095703 174.17691406 242.14941406 173.72070312 243.09570312 C173.28822266 243.96775391 172.85574219 244.83980469 172.41015625 245.73828125 C171.82439819 246.92997925 171.82439819 246.92997925 171.22680664 248.14575195 C170 250 170 250 167 251 C164.22081193 249.99514698 161.61473723 248.919583 158.9375 247.6875 C157.74616455 247.14706055 157.74616455 247.14706055 156.53076172 246.59570312 C137.58447326 237.83691492 120.7048408 226.4145265 104 214 C105.28821551 210.53395957 106.79429773 207.55069292 108.8203125 204.4609375 C109.62275391 203.21957031 109.62275391 203.21957031 110.44140625 201.953125 C111.56971495 200.22532049 112.69994444 198.49876889 113.83203125 196.7734375 C114.36441406 195.9484375 114.89679688 195.1234375 115.4453125 194.2734375 C115.93531738 193.52497559 116.42532227 192.77651367 116.93017578 192.00537109 C118.23534429 189.93766559 118.23534429 189.93766559 118 187 C116.13980083 185.39554016 114.30669423 183.98233018 112.3125 182.5625 C101.02889836 174.19741989 91.22031057 164.57317781 82 154 C76.98626912 155.51931239 73.79758508 158.55945283 70 162 C62.7628866 168.55670103 62.7628866 168.55670103 58 170 C46.49489104 155.80453287 36.66359737 141.08891067 28 125 C27.43667969 123.96875 26.87335937 122.9375 26.29296875 121.875 C23.68404291 116.93025901 23.68404291 116.93025901 23 115 C24.24205096 111.27384713 25.27127114 110.97505524 28.62109375 109.08203125 C29.55630859 108.55029297 30.49152344 108.01855469 31.45507812 107.47070312 C32.93137695 106.64989258 32.93137695 106.64989258 34.4375 105.8125 C35.41783203 105.25369141 36.39816406 104.69488281 37.40820312 104.11914062 C44.71603136 100 44.71603136 100 47 100 C46.79246094 99.49855469 46.58492187 98.99710938 46.37109375 98.48046875 C45.22377463 95.66257617 44.10930823 92.83310207 43 90 C42.73203613 89.31873047 42.46407227 88.63746094 42.18798828 87.93554688 C32 61.84059874 32 61.84059874 32 51 C31.3294458 51.12117187 30.6588916 51.24234375 29.96801758 51.3671875 C26.91696291 51.91592885 23.86476379 52.45802634 20.8125 53 C19.75740234 53.19078125 18.70230469 53.3815625 17.61523438 53.578125 C16.59365234 53.75859375 15.57207031 53.9390625 14.51953125 54.125 C13.11344604 54.37636719 13.11344604 54.37636719 11.67895508 54.6328125 C9.08032281 54.98899066 6.61893788 55.06645996 4 55 C-0.24027107 36.64052845 0 19.04319979 0 0 Z " fill="#D24445" transform="translate(502,518)"/>
<path d="M0 0 C29.55566454 15.45485776 58.2273834 32.53784769 86 51 C86.6409259 51.42591431 87.28185181 51.85182861 87.94219971 52.29064941 C98.30518172 59.17822839 108.65605967 66.08386344 119 73 C119.86415527 72.50153564 120.72831055 72.00307129 121.61865234 71.48950195 C167.93431873 44.8472697 216.44939244 27.55953993 270 23 C271.13026611 22.90356201 272.26053223 22.80712402 273.42504883 22.70776367 C283.60651352 21.93190977 293.73260724 21.88304925 303.9375 21.9375 C305.60351426 21.94253229 307.26953001 21.9470921 308.93554688 21.95117188 C312.95706926 21.96202381 316.97851733 21.97918984 321 22 C322.13480527 25.60993172 322.10015767 28.9842327 322.0625 32.75 C322.05347656 33.92046875 322.04445313 35.0909375 322.03515625 36.296875 C322.01775391 37.63492188 322.01775391 37.63492188 322 39 C320.25988647 39.01401855 320.25988647 39.01401855 318.48461914 39.02832031 C293.73617571 39.26081095 269.47165427 40.14798035 245 44 C243.98486328 44.15871582 242.96972656 44.31743164 241.92382812 44.48095703 C228.3670945 46.67450538 215.15559872 50.08928102 202 54 C201.22591797 54.22913086 200.45183594 54.45826172 199.65429688 54.69433594 C181.76716205 60.08551524 164.81256182 67.85744706 148.25 76.4375 C147.26749268 76.94555176 146.28498535 77.45360352 145.27270508 77.97705078 C144.36286865 78.45770996 143.45303223 78.93836914 142.515625 79.43359375 C141.71415039 79.85697021 140.91267578 80.28034668 140.08691406 80.71655273 C138.06569933 81.95959507 136.59027918 83.25062914 135 85 C135.45213867 85.31638428 135.90427734 85.63276855 136.37011719 85.95874023 C138.49817926 87.44962407 140.62407792 88.94356636 142.75 90.4375 C143.52118164 90.97721436 144.29236328 91.51692871 145.08691406 92.07299805 C148.66171184 94.58775764 152.20183777 97.11720151 155.625 99.8359375 C156.65625 100.65320313 157.6875 101.47046875 158.75 102.3125 C159.65234375 103.05113281 160.5546875 103.78976562 161.484375 104.55078125 C163.87399397 106.21677364 163.87399397 106.21677364 166.4765625 105.9453125 C169.49455127 104.81473466 171.92752268 103.33116257 174.625 101.5625 C205.87558335 81.80163055 241.76280985 68.88549939 278 62 C278.97976807 61.81163574 279.95953613 61.62327148 280.96899414 61.42919922 C289.61080113 59.92287181 298.06070666 59.76256634 306.8125 59.875 C308.19856112 59.88506627 309.58462946 59.89418558 310.97070312 59.90234375 C314.31387939 59.92564115 317.65696424 59.96150055 321 60 C320.34 65.28 319.68 70.56 319 76 C317.618125 76.02578125 316.23625 76.0515625 314.8125 76.078125 C253.69932417 77.68395574 192.31880639 103.70007211 145.5625 142.69775391 C143.96972249 144.02523441 142.36038198 145.33067979 140.75 146.63671875 C129.78471967 155.66694961 119.93593401 165.86865427 110 176 C106.73483457 174.78996189 104.00979446 173.48074062 101.20703125 171.41796875 C100.50368652 170.90476074 99.8003418 170.39155273 99.07568359 169.86279297 C98.32883301 169.30994629 97.58198242 168.75709961 96.8125 168.1875 C95.19667013 167.00643442 93.58078311 165.82544703 91.96484375 164.64453125 C91.14097168 164.03947754 90.31709961 163.43442383 89.46826172 162.81103516 C79.54548605 155.53040707 69.57399399 148.3250537 59.40771484 141.38769531 C55.31163921 138.59239364 51.23348431 135.7732202 47.16796875 132.93359375 C46.14856201 132.22178955 45.12915527 131.50998535 44.07885742 130.77661133 C42.07407021 129.37559716 40.07027456 127.97316269 38.06762695 126.5690918 C32.79726344 122.88883363 27.48592532 119.35107231 22 116 C46.37482912 154.94315058 78.29396775 182.74524481 123.9375 193.75 C128.61563235 194.77225855 133.23558084 195.53290008 138 196 C138.33064453 195.21109375 138.33064453 195.21109375 138.66796875 194.40625 C144.80197076 183.32547218 155.57084391 174.24624628 165 166 C165.51111328 165.54560547 166.02222656 165.09121094 166.54882812 164.62304688 C181.12623985 151.68396495 197.14604995 140.7447595 214 131 C214.82951172 130.5167627 215.65902344 130.03352539 216.51367188 129.53564453 C245.51064978 112.77347126 279.9891895 97.49827359 314 96 C309.96847971 120.63706843 293.8047166 143.3229775 277 161 C276.49871582 161.53383301 275.99743164 162.06766602 275.48095703 162.61767578 C252.25409978 187.21939633 222.94961467 202.72018789 190 210 C189.28730957 210.16371094 188.57461914 210.32742188 187.84033203 210.49609375 C147.15934835 219.57591672 101.90549807 208.4717001 67.15283203 186.42333984 C61.45849803 182.65854428 56.16291741 178.45837946 51 174 C50.47325684 173.54625 49.94651367 173.0925 49.40380859 172.625 C21.93360427 148.71276032 4.1071134 117.67583898 -3 82 C3.49535203 85.32483462 9.67423381 88.99766523 15.78125 92.98046875 C16.88423683 93.69716736 16.88423683 93.69716736 18.00950623 94.42834473 C25.635168 99.39411248 33.21609731 104.42690112 40.78442383 109.47949219 C43.06411808 111.00107999 45.34545549 112.52018042 47.62695312 114.0390625 C59.9029 122.22096775 72.11959095 130.48719181 84.125 139.0625 C84.72024979 139.48756836 85.31549957 139.91263672 85.92878723 140.35058594 C88.92089862 142.48947305 91.89033803 144.65562438 94.84375 146.84765625 C95.47651855 147.31228271 96.10928711 147.77690918 96.76123047 148.25561523 C97.97441454 149.14698928 99.18211477 150.04589162 100.38330078 150.95336914 C103.64559683 153.33876078 104.8105417 154 109 154 C111.23515016 152.05437706 113.22932551 150.14636238 115.25 148 C115.80429687 147.42765625 116.35859375 146.8553125 116.9296875 146.265625 C118.29564122 144.85256943 119.64905611 143.42741242 121 142 C114.08330395 136.11458511 106.74348137 130.98832967 99.2175293 125.92114258 C94.95985217 123.04935513 90.76540965 120.11716128 86.625 117.078125 C81.00415478 112.96629418 75.24667563 109.08944696 69.4375 105.25 C67.3137396 103.84124002 65.19004216 102.43238513 63.06640625 101.0234375 C62.03273926 100.33862305 60.99907227 99.65380859 59.93408203 98.94824219 C57.3557199 97.23619943 54.78325775 95.51597647 52.21484375 93.7890625 C34.73749476 82.04304183 16.95586859 70.82038106 -1.17260742 60.10644531 C-2.80946077 59.11536724 -4.40786255 58.06142497 -6 57 C-6.34057617 55.02880859 -6.34057617 55.02880859 -6.29296875 52.6484375 C-6.28330078 51.79765625 -6.27363281 50.946875 -6.26367188 50.0703125 C-6.23853516 49.18085938 -6.21339844 48.29140625 -6.1875 47.375 C-6.17396484 46.4778125 -6.16042969 45.580625 -6.14648438 44.65625 C-6.11106925 42.43690211 -6.06168461 40.21874812 -6 38 C4.82869165 44.07590577 15.4644973 50.42968841 26 57 C26.85803223 57.53496094 27.71606445 58.06992187 28.60009766 58.62109375 C43.09912308 67.70166219 57.3193873 77.18270566 71.5 86.75 C72.34145569 87.3171875 73.18291138 87.884375 74.04986572 88.46875 C88.74735123 98.38398508 103.27763293 108.52147363 117.625 118.9375 C119.07539513 119.98845476 120.52591414 121.03923856 121.9765625 122.08984375 C122.64719727 122.57565918 123.31783203 123.06147461 124.00878906 123.56201172 C126.99723085 125.72016794 129.9979871 127.86077033 133 130 C137.01381255 127.39644591 140.92268049 124.66067803 144.8125 121.875 C145.76769531 121.19179688 146.72289062 120.50859375 147.70703125 119.8046875 C150.07535968 118.20449587 150.07535968 118.20449587 151 116 C150.46761719 115.76023437 149.93523437 115.52046875 149.38671875 115.2734375 C146.33706713 113.64629114 143.60064212 111.65482704 140.8125 109.625 C126.78433819 99.49492335 112.6053967 89.63018262 98.1875 80.0625 C96.5950954 79.00363798 95.00272927 77.94471809 93.41040039 76.88574219 C82.32127906 69.51656329 71.20932082 62.18539721 60 55 C59.2678125 54.52804199 58.535625 54.05608398 57.78125 53.56982422 C37.65844307 40.6131471 17.02486458 28.43312897 -4 17 C-3.52434234 14.54093963 -3.04463948 12.08279007 -2.5625 9.625 C-2.42779297 8.92632812 -2.29308594 8.22765625 -2.15429688 7.5078125 C-1.11328125 2.2265625 -1.11328125 2.2265625 0 0 Z " fill="#1D4168" transform="translate(614,462)"/>
<path d="M0 0 C9.36699042 7.96266574 16.39683351 17.42731125 22.27734375 28.1484375 C22.62877441 28.77959473 22.98020508 29.41075195 23.34228516 30.06103516 C25.69140057 34.552098 25.69140057 34.552098 25.17114258 37.28686523 C24.88339966 38.17740601 24.88339966 38.17740601 24.58984375 39.0859375 C23.97391357 39.19550781 23.3579834 39.30507813 22.72338867 39.41796875 C-19.82549831 47.12351854 -58.7360708 62.31498605 -95.41015625 85.0859375 C-112.52071604 74.25787267 -129.45567196 63.15591432 -146.41015625 52.0859375 C-145.88006526 46.44635839 -144.3640976 42.04581241 -141.91015625 36.9609375 C-141.5555835 36.22029053 -141.20101074 35.47964355 -140.83569336 34.71655273 C-128.8464299 10.37900306 -108.95166043 -7.73284991 -83.41015625 -16.9140625 C-54.59569715 -26.59192265 -23.21506397 -18.43659862 0 0 Z " fill="#F2CF49" transform="translate(829.41015625,450.9140625)"/>
<path d="M0 0 C-26.10450649 40.11963087 -59.43225541 68.27431432 -106.625 78.8125 C-117.18332353 80.88037442 -127.27556829 81.11842931 -138 81 C-131.5522164 73.29411228 -124.78937032 66.68664955 -116.94921875 60.38671875 C-113.96506249 57.97172607 -111.04697992 55.48966585 -108.125 53 C-102.0141373 47.91413476 -95.63764631 43.36709924 -89 39 C-88.32114746 38.54898926 -87.64229492 38.09797852 -86.94287109 37.63330078 C-63.26412341 21.97998941 -38.12902823 10.06079996 -11.125 1.3125 C-9.9479248 0.92795654 -9.9479248 0.92795654 -8.74707031 0.53564453 C-3.37296979 -1.12432326 -3.37296979 -1.12432326 0 0 Z " fill="#FCFDFD" transform="translate(908,579)"/>
<path d="M0 0 C11.22 0 22.44 0 34 0 C27.98641766 50.08149406 27.98641766 50.08149406 25 68 C19.72 68 14.44 68 9 68 C8.0384892 61.43889935 7.07825787 54.87761309 6.11914062 48.31616211 C5.79363397 46.09052646 5.46779589 43.86493926 5.14160156 41.6394043 C2.01788846 20.32437423 2.01788846 20.32437423 0.7734375 11.25390625 C0.62052246 10.14474854 0.46760742 9.03559082 0.31005859 7.89282227 C0 5 0 5 0 0 Z " fill="#F2CD45" transform="translate(755,345)"/>
<path d="M0 0 C7.20802184 8.78236494 12.05336796 18.84330581 17 29 C4.95566542 35.65700371 -7.15338453 42.17510897 -19.375 48.5 C-21.07523315 49.38002686 -21.07523315 49.38002686 -22.80981445 50.27783203 C-28.52044383 53.2252811 -34.24366064 56.14283886 -40 59 C-42.97 54.05 -45.94 49.1 -49 44 C-45.48244918 39.77893901 -42.96127797 36.94156367 -38.8125 33.6875 C-35.10337971 30.72318298 -31.50502877 27.70316027 -28 24.5 C-24.62539052 21.42346328 -21.18184136 18.48881783 -17.625 15.625 C-11.50421169 10.67758169 -5.74962205 5.36832076 0 0 Z " fill="#F2CD45" transform="translate(906,413)"/>
<path d="M0 0 C6.41724214 0.59834426 12.23081121 2.08727163 18.375 4 C19.27605469 4.27328125 20.17710937 4.5465625 21.10546875 4.828125 C27.67446911 6.83723456 27.67446911 6.83723456 30 8 C29.3640142 13.80187049 27.27939181 18.84879953 25.140625 24.2265625 C24.75436951 25.2106308 24.36811401 26.1946991 23.97015381 27.20858765 C22.73556355 30.34957348 21.49276307 33.48724018 20.25 36.625 C19.42917782 38.7120392 18.60886021 40.79927692 17.7890625 42.88671875 C13.95486244 52.63250959 10.08351537 62.35559989 6 72 C1.05 70.68 -3.9 69.36 -9 68 C-9 62.95544452 -8.7898454 58.7374548 -8.046875 53.828125 C-7.94660507 53.15564728 -7.84633514 52.48316956 -7.74302673 51.79031372 C-7.41675784 49.60946623 -7.08342651 47.42976352 -6.75 45.25 C-6.52269451 43.73917002 -6.29589295 42.22826414 -6.06958008 40.71728516 C-5.60887389 37.64546124 -5.14558205 34.57404492 -4.68017578 31.50292969 C-3.66504873 24.79621928 -2.6779173 18.08539638 -1.6875 11.375 C-1.3582909 9.15361352 -1.0288868 6.93225592 -0.69921875 4.7109375 C-0.56346436 3.79618652 -0.42770996 2.88143555 -0.2878418 1.93896484 C-0.192854 1.29910645 -0.09786621 0.65924805 0 0 Z " fill="#F2CD46" transform="translate(800,347)"/>
<path d="M0 0 C6.01418638 40.62275041 6.01418638 40.62275041 7.875 54.8125 C7.99464111 55.71556885 8.11428223 56.6186377 8.23754883 57.54907227 C8.69360868 61.10170479 9 64.4025829 9 68 C6.87607494 68.6700834 4.75082476 69.33596797 2.625 70 C1.44164062 70.37125 0.25828125 70.7425 -0.9609375 71.125 C-4 72 -4 72 -6 72 C-9.203125 63.9921875 -12.40625 55.984375 -15.609375 47.9765625 C-15.95718018 47.10737183 -16.30498535 46.23818115 -16.66333008 45.34265137 C-17.36849203 43.57909401 -18.0727526 41.81517596 -18.77612305 40.05090332 C-20.60182565 35.47491404 -22.4443995 30.9068717 -24.31640625 26.34960938 C-24.6880188 25.43862488 -25.05963135 24.52764038 -25.44250488 23.58905029 C-26.15194057 21.85109592 -26.86676923 20.11533018 -27.58776855 18.38214111 C-27.90491821 17.60215759 -28.22206787 16.82217407 -28.54882812 16.01855469 C-28.82988403 15.33686218 -29.11093994 14.65516968 -29.4005127 13.95281982 C-30 12 -30 12 -30 8 C-6.90566038 0 -6.90566038 0 0 0 Z " fill="#F1CD46" transform="translate(744,347)"/>
<path d="M0 0 C0.20996109 0.52601303 0.41992218 1.05202606 0.63624573 1.59397888 C2.85836744 7.1605041 5.0817903 12.7265084 7.3059082 18.29223633 C8.13142494 20.35851419 8.95662993 22.42491664 9.78149414 24.49145508 C10.97977342 27.493345 12.17906889 30.49482627 13.37890625 33.49609375 C13.77026764 34.47565033 14.16162903 35.45520691 14.56484985 36.46444702 C16.40203036 41.05229487 18.254019 45.63267452 20.15185547 50.19580078 C20.64515602 51.3820681 20.64515602 51.3820681 21.14842224 52.59230042 C21.75935352 54.0559035 22.37347613 55.51818008 22.99134827 56.97886658 C25 61.78321487 25 61.78321487 25 64 C22.87767021 65.17176518 20.75242209 66.33754785 18.625 67.5 C18.02171875 67.83386719 17.4184375 68.16773438 16.796875 68.51171875 C12.2265625 71 12.2265625 71 10 71 C8.6953125 69.19140625 8.6953125 69.19140625 7.125 66.5625 C4.04254977 61.57580882 0.77846788 56.77281249 -2.625 52 C-7.6841691 44.89266911 -12.64138582 37.72169746 -17.54736328 30.5078125 C-20.6418418 25.9625829 -23.78660823 21.46205782 -27 17 C-25.63338152 13.71846597 -24.37236549 12.28353993 -21.296875 10.52734375 C-20.56339844 10.10259766 -19.82992187 9.67785156 -19.07421875 9.24023438 C-18.30722656 8.81033203 -17.54023437 8.38042969 -16.75 7.9375 C-15.99847656 7.50373047 -15.24695313 7.06996094 -14.47265625 6.62304688 C-2.920127 0 -2.920127 0 0 0 Z " fill="#F1CD46" transform="translate(703,360)"/>
<path d="M0 0 C4.84824224 1.45147993 9.07829372 3.47209295 13.5 5.875 C14.13808594 6.21402344 14.77617188 6.55304688 15.43359375 6.90234375 C19.45095175 9.06300869 23.24247844 11.41380461 27 14 C26.08320695 18.50547061 23.60261692 21.65887633 20.9375 25.3125 C19.84664517 26.83130557 18.7568602 28.35087994 17.66796875 29.87109375 C17.07935059 30.69077637 16.49073242 31.51045898 15.88427734 32.35498047 C11.79153996 38.10008501 7.79747334 43.91482516 3.78491211 49.71606445 C0.43576635 54.54466042 -2.93924301 59.35418804 -6.359375 64.1328125 C-7.33342285 65.49623779 -7.33342285 65.49623779 -8.32714844 66.88720703 C-10 69 -10 69 -12 70 C-14.8203125 68.78515625 -14.8203125 68.78515625 -18.125 67.0625 C-19.22070312 66.49660156 -20.31640625 65.93070312 -21.4453125 65.34765625 C-22.28835938 64.90292969 -23.13140625 64.45820313 -24 64 C-22.632491 56.82242575 -20.35340997 50.42721051 -17.5625 43.6875 C-16.66826753 41.49259599 -15.77508078 39.29726572 -14.8828125 37.1015625 C-14.41520508 35.95461914 -13.94759766 34.80767578 -13.46582031 33.62597656 C-10.90514364 27.29167112 -8.42387609 20.92625564 -5.9375 14.5625 C-5.00992732 12.18848437 -4.08160705 9.81476063 -3.15234375 7.44140625 C-2.76038818 6.43795166 -2.36843262 5.43449707 -1.96459961 4.40063477 C-1 2 -1 2 0 0 Z " fill="#F2CD45" transform="translate(841,360)"/>
<path d="M0 0 C0.928125 0.804375 1.85625 1.60875 2.8125 2.4375 C5.93494609 5.1192783 9.11362422 7.72250114 12.3125 10.3125 C15.96452834 13.28693509 19.51821771 16.32820151 23 19.5 C28.17189051 24.20617525 33.56239298 28.60635344 39 33 C41.06484622 34.68465026 43.12604634 36.37369374 45.1875 38.0625 C46.10917969 38.81660156 47.03085937 39.57070313 47.98046875 40.34765625 C48.64691406 40.89292969 49.31335938 41.43820312 50 42 C48.53181332 45.10742423 46.79975 47.90471739 44.875 50.75 C44.33617187 51.54921875 43.79734375 52.3484375 43.2421875 53.171875 C42.83226562 53.77515625 42.42234375 54.3784375 42 55 C36.88271065 54.35186596 32.57238348 52.10438942 27.96484375 49.921875 C27.09034073 49.51342346 26.21583771 49.10497192 25.31483459 48.68414307 C22.51995229 47.37789398 19.72854516 46.06442538 16.9375 44.75 C13.28148064 43.03317145 9.62391431 41.31969073 5.96484375 39.609375 C5.09121185 39.20078247 4.21757996 38.79218994 3.31747437 38.37121582 C-3.05444838 35.40530151 -9.46751784 32.5971197 -16 30 C-14.49005563 25.29527463 -12.60070774 21.02508902 -10.25 16.6875 C-9.89873047 16.03322021 -9.54746094 15.37894043 -9.18554688 14.70483398 C-6.41003542 9.60275383 -3.38133033 4.72617762 0 0 Z " fill="#F2CD46" transform="translate(637,414)"/>
<path d="M0 0 C5.83151111 0.86627819 9.33610794 5.8237493 13.3125 9.8125 C14.16134766 10.63298828 15.01019531 11.45347656 15.88476562 12.29882812 C16.68205078 13.09353516 17.47933594 13.88824219 18.30078125 14.70703125 C19.03466064 15.4338208 19.76854004 16.16061035 20.5246582 16.90942383 C22 19 22 19 21.86352539 21.12695312 C20.54129645 23.99496003 18.48488678 25.61173556 16.125 27.6875 C15.38733398 28.34105469 15.38733398 28.34105469 14.63476562 29.0078125 C10.43735219 32.6972587 6.09884547 36.2100224 1.75 39.71875 C-2.02701514 42.85195574 -5.60978234 46.18013 -9.21875 49.50390625 C-12.93307729 52.83741066 -16.7927195 55.97062274 -20.6875 59.08984375 C-22.57675756 60.65039602 -24.31187111 62.22857528 -26 64 C-29.23861303 62.55575365 -31.61969163 60.74227753 -34.25 58.375 C-34.95640625 57.74335938 -35.6628125 57.11171875 -36.390625 56.4609375 C-36.92171875 55.97882813 -37.4528125 55.49671875 -38 55 C-36.64929263 52.15304516 -35.12322086 49.61443548 -33.3046875 47.04296875 C-32.48967773 45.88522949 -32.48967773 45.88522949 -31.65820312 44.70410156 C-31.06974609 43.87362305 -30.48128906 43.04314453 -29.875 42.1875 C-28.61154755 40.39483537 -27.34854521 38.60185344 -26.0859375 36.80859375 C-25.42174805 35.86612793 -24.75755859 34.92366211 -24.07324219 33.95263672 C-21.94720229 30.92480741 -19.83468818 27.88798225 -17.7265625 24.84765625 C-17.02160645 23.83098877 -16.31665039 22.81432129 -15.59033203 21.7668457 C-14.2283656 19.80120459 -12.86731687 17.83492718 -11.50732422 15.86791992 C-7.77887917 10.4931176 -3.97276939 5.19715176 0 0 Z " fill="#F2CD45" transform="translate(877,383)"/>
<path d="M0 0 C1.6714083 2.21616359 3.22016261 4.43799828 4.75 6.75 C5.74512683 8.22591282 6.74126821 9.70114196 7.73828125 11.17578125 C8.26760254 11.96162598 8.79692383 12.7474707 9.34228516 13.55712891 C12.16350977 17.71459187 15.05207538 21.82446416 17.9375 25.9375 C18.51991455 26.77249023 19.1023291 27.60748047 19.70239258 28.46777344 C22.62303939 32.64831502 25.57379387 36.80066999 28.59375 40.91015625 C29.15715088 41.68431885 29.72055176 42.45848145 30.30102539 43.25610352 C31.36776271 44.71878928 32.44464329 46.17414747 33.53295898 47.62084961 C37.06366791 52.48558258 37.06366791 52.48558258 36.74267578 55.07910156 C35.69993838 57.77609626 34.01987575 59.266785 31.9375 61.25 C30.83728516 62.30960937 30.83728516 62.30960937 29.71484375 63.390625 C29.14894531 63.92171875 28.58304688 64.4528125 28 65 C23.90272684 62.38611916 20.36820469 59.65303345 16.8125 56.3125 C13.15304664 52.92997824 9.44710008 49.68365267 5.5625 46.5625 C1.03617711 42.91182422 -3.23992738 39.06914691 -7.49291992 35.11035156 C-12.47299424 30.50282495 -17.69473883 26.22958814 -23 22 C-8.06017192 0 -8.06017192 0 0 0 Z " fill="#F2CD45" transform="translate(667,383)"/>
<path d="M0 0 C3.85725177 1.57147294 6.1776383 3.97604104 9 7 C9.71349609 7.72316406 9.71349609 7.72316406 10.44140625 8.4609375 C19.64638787 18.31483427 23.386728 30.41303772 23.1875 43.625 C23.18685547 44.44484375 23.18621094 45.2646875 23.18554688 46.109375 C23.15369684 50.51175753 22.87633055 54.66742175 22 59 C17.18538182 58.57518075 14.17378956 56.48962784 11 53 C4.05707223 43.62704751 -1.11817671 33.45413022 -1.1328125 21.62109375 C-1.13410156 20.61755859 -1.13539063 19.61402344 -1.13671875 18.58007812 C-1.13285156 17.54302734 -1.12898438 16.50597656 -1.125 15.4375 C-1.12886719 14.39658203 -1.13273437 13.35566406 -1.13671875 12.28320312 C-1.13542969 11.28095703 -1.13414062 10.27871094 -1.1328125 9.24609375 C-1.13168457 8.33529053 -1.13055664 7.4244873 -1.12939453 6.48608398 C-1.00937295 4.18008442 -0.64947474 2.2086656 0 0 Z " fill="#1D3F67" transform="translate(509,425)"/>
<path d="M0 0 C0.66 0 1.32 0 2 0 C11.56340031 12.77150487 14.90466026 26.16647646 13 42 C11.84559451 47.50509285 9.98070606 52.74625836 8 58 C7.67 58.99 7.34 59.98 7 61 C0.70328054 58.16376214 -2.71797584 53.35528094 -5.15234375 46.984375 C-7.23767053 40.98868724 -7.65330663 35.49856079 -7.5625 29.1875 C-7.55589355 28.14376221 -7.54928711 27.10002441 -7.54248047 26.0246582 C-7.30523866 16.39995218 -5.41795675 8.12693513 0 0 Z " fill="#1D3F66" transform="translate(539,360)"/>
<path d="M0 0 C2.98880048 2.53436298 4.16279579 5.27779824 5.625 8.875 C6.05039062 9.90367187 6.47578125 10.93234375 6.9140625 11.9921875 C11.33937075 24.24933624 10.44300643 40.28172315 5 52 C2.48128643 56.20881641 0.09262515 59.27158324 -4 62 C-10.73916164 48.14537836 -13.69342373 33.3837439 -10.0859375 18.13671875 C-7.66660624 11.49526422 -4.24101923 5.64011836 0 0 Z " fill="#1D4066" transform="translate(1002,359)"/>
<path d="M0 0 C0.66 0 1.32 0 2 0 C5.56597965 14.72404501 2.84450985 30.92876759 -4.1953125 44.1328125 C-8.61181258 51.1495031 -13.38148817 56.5738589 -21 60 C-25.21396167 46.74143767 -21.36208728 30.31622902 -15.4375 18.3125 C-11.38193401 11.36159438 -5.65990414 5.65990414 0 0 Z " fill="#1E4269" transform="translate(1032,425)"/>
<path d="M0 0 C-0.61628684 19.99850794 -5.89017379 35.59723622 -20 50 C-20.70382812 50.71929687 -21.40765625 51.43859375 -22.1328125 52.1796875 C-23.74149872 53.80139952 -25.36129398 55.40871634 -27 57 C-30.84844664 53.31887712 -31.22054257 51.02816281 -31.375 45.6875 C-31.22566192 31.08223579 -23.87748279 19.9336904 -14 9.6875 C-3.89304124 0 -3.89304124 0 0 0 Z " fill="#1C3F67" transform="translate(648,261)"/>
<path d="M0 0 C5.51245513 6.67053394 6.63046272 15.4858269 6.328125 23.9296875 C4.89294473 37.35887427 -2.34945738 48.54685966 -9 60 C-9.66 60 -10.32 60 -11 60 C-11.81498562 58.3970947 -12.62689927 56.79262722 -13.4375 55.1875 C-13.88996094 54.29417969 -14.34242188 53.40085937 -14.80859375 52.48046875 C-19.34108102 43.04397886 -17.15623256 32.32248886 -14.33203125 22.65234375 C-11.16914159 13.97990435 -6.26114793 6.7192807 0 0 Z " fill="#1E4067" transform="translate(585,303)"/>
<path d="M0 0 C13.64447912 6.82223956 22.77805657 18.65953949 28.5625 32.5625 C31.04186738 40.20438576 31.39746121 48.63430409 28 56 C16.67695703 51.36294431 9.00822535 38.54495688 4 28 C2.77795488 25.03461778 1.74992657 22.11746335 1 19 C0.814375 18.24460937 0.62875 17.48921875 0.4375 16.7109375 C-0.10688504 13.33769448 -0.09441851 10.10278083 -0.0625 6.6875 C-0.05347656 5.43324219 -0.04445313 4.17898438 -0.03515625 2.88671875 C-0.01775391 1.45779297 -0.01775391 1.45779297 0 0 Z " fill="#1C3F66" transform="translate(896,262)"/>
<path d="M0 0 C7.79636544 3.35327546 11.93442998 12.49913719 15 20 C18.62227134 30.69294501 19.29173485 40.8689164 16.14453125 51.74609375 C14.61661202 54.75499954 12.45704597 56.71989351 10 59 C8.21405422 55.71632501 6.44917373 52.42175134 4.6875 49.125 C4.18798828 48.2071875 3.68847656 47.289375 3.17382812 46.34375 C-1.4437044 37.6591193 -4.57791777 29.4841859 -4.4375 19.5625 C-4.43427734 18.83748291 -4.43105469 18.11246582 -4.42773438 17.36547852 C-4.26578356 11.07103654 -2.7483341 5.68070843 0 0 Z " fill="#1D4067" transform="translate(956,304)"/>
<path d="M0 0 C1.46373047 -0.01160156 1.46373047 -0.01160156 2.95703125 -0.0234375 C3.90191406 -0.02085937 4.84679687 -0.01828125 5.8203125 -0.015625 C7.09672607 -0.01224121 7.09672607 -0.01224121 8.39892578 -0.00878906 C11.17630651 0.28149131 13.33875547 1.1080379 15.875 2.25 C10.75375563 13.25828229 -0.84178309 18.20488395 -11.70703125 22.19921875 C-18.69637729 24.02760055 -28.34034455 25.04857773 -34.9375 21.75 C-35.659375 21.255 -36.38125 20.76 -37.125 20.25 C-35.81828991 14.29720961 -32.79545096 10.92454597 -28.125 7.25 C-19.00925059 1.69874235 -10.5630918 -0.08439221 0 0 Z " fill="#1C3F66" transform="translate(615.125,345.75)"/>
<path d="M0 0 C-2.79412813 14.04417035 -8.78717524 26.19603309 -20.5546875 34.88671875 C-26.73312637 38.76467506 -32.55289017 41.45133999 -40 41 C-39.31411692 30.94038144 -34.72725336 21.42095095 -28 14 C-27.47277344 13.40703125 -26.94554687 12.8140625 -26.40234375 12.203125 C-20.02864278 5.87144843 -9.04492471 0 0 0 Z " fill="#1D4168" transform="translate(573,444)"/>
<path d="M0 0 C1.25425781 0.00902344 2.50851562 0.01804687 3.80078125 0.02734375 C4.75339844 0.03894531 5.70601562 0.05054688 6.6875 0.0625 C1.10770593 13.24090812 -7.74532636 21.90778115 -20.5546875 28.15625 C-26.90976895 30.67034816 -33.567602 30.56570616 -40.3125 30.0625 C-40.9725 29.7325 -41.6325 29.4025 -42.3125 29.0625 C-40.30699335 23.50354709 -37.08922688 19.54361642 -33.3125 15.0625 C-32.7246875 14.35351562 -32.136875 13.64453125 -31.53125 12.9140625 C-23.2119472 3.71347762 -12.15079155 -0.1135588 0 0 Z " fill="#1C3F66" transform="translate(589.3125,392.9375)"/>
<path d="M0 0 C12.22861524 2.85954311 22.67928581 7.2159878 31 17 C35.27453658 24.29497359 39 32.4472236 39 41 C27.98068524 40.63871099 19.63598085 35.64901745 12.140625 27.6953125 C5.85254635 19.77784121 0 10.338636 0 0 Z " fill="#1D3F67" transform="translate(970,443)"/>
<path d="M0 0 C0 0.66 0 1.32 0 2 C-12.39040296 11.90256615 -27.42258823 15.22670017 -43 14 C-49.1979617 12.54652903 -53.67086675 10.74808162 -58 6 C-40.0742314 -6.98968739 -20.26050078 -8.47973127 0 0 Z " fill="#1D3F67" transform="translate(680,312)"/>
<path d="M0 0 C1.093125 0.639375 2.18625 1.27875 3.3125 1.9375 C7.82499491 5.40057749 11.38489999 8.90743683 14 14 C14 14.66 14 15.32 14 16 C6.39202919 19.78883008 -4.08713047 18.98968542 -12.23828125 17.34765625 C-22.66088738 13.8332319 -31.3572708 7.72850083 -38 -1 C-30.5169883 -8.4830117 -8.15433909 -4.96425246 0 0 Z " fill="#1D4066" transform="translate(950,350)"/>
<path d="M0 0 C1.60101562 0.82564453 1.60101562 0.82564453 3.234375 1.66796875 C5.8526228 3.06680419 8.4359528 4.504734 11 6 C11 6.66 11 7.32 11 8 C-1.96213116 14.31252723 -14.82671068 16.04697732 -28.93359375 12.12109375 C-35.64079942 9.66890518 -43.19348914 6.45514035 -48 1 C-46.62667716 0.37132332 -45.25124167 -0.25273891 -43.875 -0.875 C-43.10929688 -1.22304688 -42.34359375 -1.57109375 -41.5546875 -1.9296875 C-28.09009119 -7.57081806 -12.9323302 -6.69092485 0 0 Z " fill="#1D4067" transform="translate(910,312)"/>
<path d="M0 0 C14.19599996 -0.6182129 24.85653881 1.35169598 35.86328125 10.55859375 C40.93808703 15.25081993 44.70007462 20.9518085 48 27 C48 27.66 48 28.32 48 29 C43.08319633 31.45840183 36.87577846 30.48016339 31.734375 29.1640625 C18.45246412 24.47447785 6.70490149 14.50600749 0 2 C0 1.34 0 0.68 0 0 Z " fill="#1C3F66" transform="translate(948,393)"/>
<path d="M0 0 C-3.30326002 9.1400884 -10.74330941 17.71241217 -19.37890625 22.25 C-28.78187679 26.25251641 -37.84866161 27.3473842 -48 27 C-45.90063002 21.01093437 -42.0721061 16.77445101 -38 12 C-37.45214844 11.33097656 -36.90429688 10.66195313 -36.33984375 9.97265625 C-26.50593541 -1.06934894 -13.63267051 -0.6417052 0 0 Z " fill="#1C3F66" transform="translate(712,261)"/>
<path d="M0 0 C20.99565585 -0.76891517 20.99565585 -0.76891517 28 4 C28.66773438 4.4125 29.33546875 4.825 30.0234375 5.25 C38.09314073 10.69163896 43.35288599 18.62080107 48 27 C33.37002418 26.67488943 21.2136572 26.14534337 10.1953125 15.375 C5.7552583 10.57152499 2.29432242 6.16068058 0 0 Z " fill="#1D4067" transform="translate(832,261)"/>
<path d="M0 0 C1.11826172 0.00322266 2.23652344 0.00644531 3.38867188 0.00976562 C4.55591797 0.01814453 5.72316406 0.02652344 6.92578125 0.03515625 C8.10462891 0.03966797 9.28347656 0.04417969 10.49804688 0.04882812 C13.41150914 0.06062352 16.32486988 0.07708355 19.23828125 0.09765625 C19.23828125 1.08765625 19.23828125 2.07765625 19.23828125 3.09765625 C4.71828125 3.09765625 -9.80171875 3.09765625 -24.76171875 3.09765625 C-24.76171875 2.76765625 -24.76171875 2.43765625 -24.76171875 2.09765625 C-23.64152344 2.03707031 -22.52132812 1.97648437 -21.3671875 1.9140625 C-19.89451891 1.82964201 -18.42186331 1.74499476 -16.94921875 1.66015625 C-16.21123047 1.62083984 -15.47324219 1.58152344 -14.71289062 1.54101562 C-9.63939455 1.24257468 -5.08784979 -0.02582665 0 0 Z " fill="#2B496D" transform="translate(915.76171875,497.90234375)"/>
<path d="M0 0 C2.35358251 2.35358251 2.27871904 2.92968394 2.4140625 6.1328125 C2.45273437 6.93847656 2.49140625 7.74414062 2.53125 8.57421875 C2.5621875 9.41597656 2.593125 10.25773437 2.625 11.125 C2.66367187 11.97449219 2.70234375 12.82398438 2.7421875 13.69921875 C2.83656494 15.79911684 2.91937586 17.89952891 3 20 C2.01 20.33 1.02 20.66 0 21 C-1.64072259 17.71855481 -1.14274434 14.10210004 -1.125 10.5 C-1.12886719 9.71496094 -1.13273438 8.92992187 -1.13671875 8.12109375 C-1.12665394 2.25330787 -1.12665394 2.25330787 0 0 Z " fill="#2F4A6E" transform="translate(1011,462)"/>
<path d="M0 0 C0.66 0.99 1.32 1.98 2 3 C1.42765625 3.48984375 0.8553125 3.9796875 0.265625 4.484375 C-2.68549672 7.76113774 -4.36226809 11.29275458 -6.25 15.25 C-6.79527344 16.36761719 -6.79527344 16.36761719 -7.3515625 17.5078125 C-8.24172145 19.33498087 -9.1218739 21.16701834 -10 23 C-7.03 24.65 -4.06 26.3 -1 28 C-4.64160808 29.21386936 -5.33165469 28.6674695 -8.6875 27.0625 C-9.49574219 26.68222656 -10.30398438 26.30195313 -11.13671875 25.91015625 C-11.75160156 25.60980469 -12.36648438 25.30945313 -13 25 C-11.53834392 20.10761749 -9.48493978 15.837623 -7.0625 11.375 C-6.54139648 10.39273437 -6.54139648 10.39273437 -6.00976562 9.390625 C-4.22130147 6.06293651 -2.37955425 2.93901057 0 0 Z " fill="#F0C630" transform="translate(634,419)"/>
<path d="M0 0 C4.18416421 1.54756758 6.04214185 4.34192648 8.625 7.875 C9.78902344 9.44894531 9.78902344 9.44894531 10.9765625 11.0546875 C12.54982279 13.34472274 13.8662572 15.47650796 15 18 C10.1666528 18.08333357 5.76307437 17.95261487 1 17 C1 16.67 1 16.34 1 16 C4.3 15.67 7.6 15.34 11 15 C10.37351562 14.16855469 9.74703125 13.33710938 9.1015625 12.48046875 C8.27599902 11.38284458 7.45048054 10.28518655 6.625 9.1875 C6.00625 8.36668945 6.00625 8.36668945 5.375 7.52929688 C3.51592968 5.05553395 1.71710028 2.57565041 0 0 Z " fill="#102652" transform="translate(865,270)"/>
<path d="M0 0 C1.32 0 2.64 0 4 0 C2.38388846 7.76521885 0.28372947 14.29503214 -4 21 C-4.33 20.34 -4.66 19.68 -5 19 C-4.07421875 16.609375 -4.07421875 16.609375 -2.6875 13.75 C-0.85795269 9.88254027 0.77783776 6.11090936 2 2 C1.01 1.67 0.02 1.34 -1 1 C-0.67 0.67 -0.34 0.34 0 0 Z " fill="#0F234F" transform="translate(569,444)"/>
<path d="M0 0 C2.62527189 -0.05382106 5.24944713 -0.09358313 7.875 -0.125 C8.62136719 -0.14175781 9.36773438 -0.15851563 10.13671875 -0.17578125 C12.09194461 -0.1933959 14.04742021 -0.10320189 16 0 C18 2 18 2 18.125 5.125 C18.08375 6.07375 18.0425 7.0225 18 8 C17.01 8 16.02 8 15 8 C15 5.69 15 3.38 15 1 C10.05 1 5.1 1 0 1 C0 0.67 0 0.34 0 0 Z " fill="#2B4E72" transform="translate(918,486)"/>
<path d="M0 0 C0 3.3 0 6.6 0 10 C-0.33 10 -0.66 10 -1 10 C-1.66 8.02 -2.32 6.04 -3 4 C-5.31 6.31 -7.62 8.62 -10 11 C-10 8 -10 8 -8.3203125 5.95703125 C-7.23363281 4.89548828 -7.23363281 4.89548828 -6.125 3.8125 C-5.40570312 3.09707031 -4.68640625 2.38164062 -3.9453125 1.64453125 C-2 0 -2 0 0 0 Z " fill="#0C224F" transform="translate(1034,425)"/>
<path d="M0 0 C0.33 0.66 0.66 1.32 1 2 C0.0390625 4.42578125 0.0390625 4.42578125 -1.375 7.3125 C-3.14042652 10.92718615 -4.22340419 14.07095171 -5 18 C-5.66 18.99 -6.32 19.98 -7 21 C-6.96395721 12.69213665 -4.3463261 6.991338 0 0 Z " fill="#102550" transform="translate(1019,440)"/>
<path d="M0 0 C2.9375 0.8125 2.9375 0.8125 6 2 C6.33 2.99 6.66 3.98 7 5 C5.1875 6.0625 5.1875 6.0625 3 7 C2.01 6.67 1.02 6.34 0 6 C0 4.02 0 2.04 0 0 Z " fill="#153059" transform="translate(914,315)"/>
<path d="M0 0 C2.31 0.66 4.62 1.32 7 2 C6.54625 2.598125 6.0925 3.19625 5.625 3.8125 C4.36704087 5.50590652 3.17015276 7.24477086 2 9 C0.50178941 5.62902617 0 3.79557881 0 0 Z " fill="#132F57" transform="translate(970,443)"/>
<path d="M0 0 C0.94875 0.04125 1.8975 0.0825 2.875 0.125 C1.39 1.61 1.39 1.61 -0.125 3.125 C1.07881448 5.61861571 2.32928722 7.80643083 3.875 10.125 C-0.3992558 8.5419423 -2.39031794 5.61931596 -5.125 2.125 C-3.125 0.125 -3.125 0.125 0 0 Z " fill="#192E56" transform="translate(917.125,346.875)"/>
<path d="M0 0 C0.66 0 1.32 0 2 0 C1.88597936 2.27141109 1.75841495 4.54214552 1.625 6.8125 C1.55539062 8.07707031 1.48578125 9.34164063 1.4140625 10.64453125 C1 14 1 14 -1 17 C-1 1 -1 1 0 0 Z " fill="#132955" transform="translate(646,261)"/>
<path d="M0 0 C0 4.66993394 -2.17546569 7.40513814 -5 11 C-5.99 10.67 -6.98 10.34 -8 10 C-5.36 6.7 -2.72 3.4 0 0 Z " fill="#0F3982" transform="translate(1024,707)"/>
<path d="M0 0 C-0.28482368 1.41805831 -0.57818144 2.83440379 -0.875 4.25 C-1.03742187 5.03890625 -1.19984375 5.8278125 -1.3671875 6.640625 C-1.99150075 8.96831144 -2.84838542 10.89031952 -4 13 C-5 11 -5 11 -4.44140625 8.8359375 C-4.15136719 8.02382813 -3.86132812 7.21171875 -3.5625 6.375 C-3.27503906 5.55773437 -2.98757813 4.74046875 -2.69140625 3.8984375 C-2.34916016 2.95871094 -2.34916016 2.95871094 -2 2 C-3.98 2 -5.96 2 -8 2 C-8 1.67 -8 1.34 -8 1 C-5.23735711 0.40267181 -2.83967231 0 0 0 Z " fill="#0D214E" transform="translate(928,558)"/>
<path d="M0 0 C1.48280196 0.78483659 2.9611498 1.57809334 4.4375 2.375 C5.67306641 3.03628906 5.67306641 3.03628906 6.93359375 3.7109375 C9 5 9 5 10 7 C5.25 5.125 5.25 5.125 3 4 C3 5.65 3 7.3 3 9 C0.87491756 5.81237635 0.4979837 3.73487777 0 0 Z " fill="#132853" transform="translate(611,544)"/>
<path d="M0 0 C0.66 0.99 1.32 1.98 2 3 C-0.88087546 5.40072955 -3.56404834 7.47291037 -7 9 C-5.44499019 5.18315774 -2.96404505 2.80804268 0 0 Z " fill="#CE3131" transform="translate(934,648)"/>
<path d="M0 0 C0.66 1.32 1.32 2.64 2 4 C2.66 4 3.32 4 4 4 C4.99 7.63 5.98 11.26 7 15 C4.30474522 12.30474522 3.27393138 10.85961238 1.8125 7.5 C1.46832031 6.7265625 1.12414062 5.953125 0.76953125 5.15625 C0 3 0 3 0 0 Z " fill="#142A55" transform="translate(954,336)"/>
<path d="M0 0 C0.66 0.99 1.32 1.98 2 3 C1.175 3.7425 0.35 4.485 -0.5 5.25 C-3.44844853 7.87387385 -3.44844853 7.87387385 -3 12 C-3.99 11.67 -4.98 11.34 -6 11 C-4.54955729 6.89041233 -2.48889248 3.56741255 0 0 Z " fill="#CB2A29" transform="translate(612,721)"/>
<path d="M0 0 C-0.33 0.99 -0.66 1.98 -1 3 C-4.63 2.67 -8.26 2.34 -12 2 C-12 1.67 -12 1.34 -12 1 C-7.95858806 0.36605303 -4.0934693 -0.12404452 0 0 Z " fill="#32496F" transform="translate(870,487)"/>
<path d="M0 0 C3.59391114 1.33488128 6.75490696 2.96022723 10 5 C9.01 5.495 9.01 5.495 8 6 C4.4375 4.75 4.4375 4.75 1 3 C0.67 2.01 0.34 1.02 0 0 Z " fill="#CC2B2A" transform="translate(655,691)"/>
<path d="M0 0 C2 2 2 2 2.125 5.125 C2.08375 6.07375 2.0425 7.0225 2 8 C1.01 7.67 0.02 7.34 -1 7 C-1.04254356 5.00045254 -1.04080783 2.99958364 -1 1 C-0.67 0.67 -0.34 0.34 0 0 Z " fill="#164088" transform="translate(460,571)"/>
<path d="M0 0 C0.33 0.99 0.66 1.98 1 3 C2.98 3 4.96 3 7 3 C3.77208445 5.1519437 2.71599191 5.20086443 -1 5 C-0.67 3.35 -0.34 1.7 0 0 Z " fill="#102752" transform="translate(534,480)"/>
<path d="M0 0 C2 2 2 2 2.125 5.125 C2.08375 6.07375 2.0425 7.0225 2 8 C1.01 8 0.02 8 -1 8 C-1.04241723 5.66705225 -1.04092937 3.33297433 -1 1 C-0.67 0.67 -0.34 0.34 0 0 Z " fill="#2A4C72" transform="translate(897,268)"/>
<path d="M0 0 C2.97 0.33 5.94 0.66 9 1 C5.5647952 3.29013653 4.014669 3.17842973 0 3 C0 2.01 0 1.02 0 0 Z " fill="#274C70" transform="translate(760,672)"/>
</svg>
