<svg version="1.1" id="Layer_1" xmlns="http://www.w3.org/2000/svg" xmlns:xlink="http://www.w3.org/1999/xlink" x="0px" y="0px"
	 width="100%" viewBox="0 0 3200 1800" enable-background="new 0 0 3200 1800" xml:space="preserve">
<path fill="#D19300" opacity="1.000000" stroke="none" 
	d="
M1404.000000,2.000014 
	C1820.053711,2.000000 2236.107422,2.000000 2653.253418,2.753920 
	C2659.328857,23.533627 2664.378662,43.543098 2669.283203,63.588097 
	C2688.033691,140.222000 2706.674805,216.882645 2725.476807,293.503845 
	C2742.217041,361.722900 2759.167725,429.890289 2775.889648,498.113800 
	C2778.419189,508.433929 2780.209473,518.935242 2781.559082,529.645020 
	C2777.543701,530.733826 2774.325195,531.595520 2771.075684,532.317627 
	C2647.048096,559.881653 2527.245850,600.058655 2411.849609,653.209045 
	C2269.393799,718.822937 2138.072754,801.955994 2018.251587,903.923950 
	C2011.027832,899.294922 2004.287476,894.996765 1997.864624,890.267517 
	C1921.421021,833.979248 1845.017334,777.636902 1768.619385,721.286499 
	C1736.448608,697.557495 1704.335938,673.749573 1672.163086,650.023193 
	C1596.291138,594.070190 1520.373779,538.178650 1444.526245,482.192505 
	C1410.224121,456.872681 1376.099243,431.312592 1341.793945,405.997070 
	C1308.025513,381.077759 1274.109863,356.357910 1240.296387,331.499542 
	C1201.385132,302.893646 1162.454590,274.313538 1123.664673,245.543777 
	C1112.183350,237.028259 1101.149170,227.909653 1090.657593,218.898193 
	C1097.718384,213.731033 1103.953979,208.631027 1110.359497,203.754288 
	C1129.568604,189.129761 1148.774902,174.500000 1168.112549,160.046524 
	C1188.155640,145.065704 1207.929321,129.671051 1228.580322,115.569603 
	C1258.299438,95.276031 1288.616333,75.850723 1318.843628,56.310734 
	C1347.116943,38.033775 1375.605957,20.090267 1404.000000,2.000014 
z"/>
<path fill="#1187A1" opacity="1.000000" stroke="none" 
	d="
M2.000000,1404.000000 
	C2.000000,936.855286 2.000000,469.710541 2.000000,2.000000 
	C236.716171,2.000000 471.432800,2.000000 707.135925,2.687652 
	C710.657104,5.503623 713.095337,7.761000 715.742004,9.739532 
	C734.394592,23.683271 753.085754,37.575436 771.772583,51.473450 
	C862.536743,118.977737 953.303345,186.478714 1044.104248,254.513519 
	C1044.687012,255.451080 1045.234741,255.856033 1045.793579,256.567474 
	C1045.804688,256.873962 1046.064453,257.429657 1045.432373,257.787292 
	C1035.107788,266.299530 1025.288818,274.309540 1015.752380,282.642883 
	C1001.889221,294.757050 988.422607,307.329742 974.436768,319.297699 
	C955.008301,335.923096 935.620361,352.570892 917.653442,370.800690 
	C906.809570,381.803223 896.095093,392.941864 884.995911,403.681824 
	C873.816040,414.499847 861.955200,424.621216 850.914978,435.574310 
	C842.542358,443.880768 835.062073,453.080780 827.038635,461.747925 
	C823.466125,465.606964 819.326599,468.945465 815.800049,472.842010 
	C796.783569,493.853363 777.864746,514.953186 758.941345,536.048584 
	C749.286560,546.811584 739.572876,557.525513 730.105225,568.451660 
	C720.646423,579.367554 711.451416,590.512329 702.159424,601.572388 
	C693.329468,612.082397 684.410645,622.520752 675.748352,633.167542 
	C670.344482,639.809448 665.559692,646.957764 660.107910,653.557312 
	C653.206116,661.912048 644.533569,668.860046 640.385315,679.363159 
	C639.705078,681.085571 637.877686,682.327881 636.710388,683.889160 
	C623.721252,701.262451 610.757385,718.654480 597.787659,736.042236 
	C595.811218,738.692017 593.846741,741.350769 591.864746,743.996338 
	C588.302307,748.751465 584.574768,753.392029 581.197693,758.275085 
	C575.389160,766.673645 569.959778,775.336731 564.077332,783.681519 
	C553.756714,798.322449 542.813171,812.539246 532.872375,827.428955 
	C522.007690,843.702332 511.939362,860.509521 501.622131,877.144958 
	C498.517670,882.150574 496.593170,888.179993 492.629120,892.297180 
	C485.343933,899.863708 481.617493,909.442749 476.172729,918.010864 
	C470.638977,926.719116 466.276367,936.163147 460.954651,945.016724 
	C455.620422,953.890991 448.626404,961.925232 444.351471,971.241516 
	C437.969208,985.150269 429.269409,997.686829 422.508606,1011.361938 
	C417.363373,1021.769104 411.383362,1031.820679 406.031128,1042.190674 
	C400.242645,1053.405884 392.455963,1063.590576 389.191437,1076.088623 
	C388.801178,1077.582764 387.218170,1078.728394 386.387054,1080.151611 
	C384.167664,1083.952271 381.939850,1087.756104 379.929260,1091.668579 
	C376.727570,1097.898682 373.770813,1104.254517 370.578644,1110.489746 
	C367.018158,1117.444458 362.985992,1124.175049 359.733826,1131.266724 
	C352.822662,1146.337158 346.331909,1161.599854 339.574036,1176.741333 
	C335.658051,1185.515259 331.562561,1194.209351 327.539032,1202.935303 
	C323.884125,1210.861694 320.140076,1218.748047 316.576965,1226.715454 
	C312.842255,1235.066528 309.124878,1243.431396 305.672394,1251.901367 
	C300.735870,1264.011963 295.960663,1276.190308 291.281525,1288.403076 
	C287.947937,1297.103760 284.968964,1305.939819 281.682129,1314.659058 
	C277.436249,1325.922241 271.506317,1336.580688 269.589752,1348.678955 
	C269.441681,1349.613647 268.792175,1350.461304 268.427917,1351.370361 
	C265.481140,1358.724121 262.379578,1366.021484 259.649750,1373.455200 
	C255.984970,1383.434692 252.516647,1393.489380 249.140198,1403.570801 
	C246.318451,1411.996094 243.749985,1420.506348 240.327911,1428.888916 
	C200.818359,1424.738770 162.051392,1420.667847 123.281876,1416.621338 
	C82.855873,1412.401855 42.427399,1408.206055 2.000000,1404.000000 
z"/>
<path fill="#F2CF0B" opacity="1.000000" stroke="none" 
	d="
M1046.064453,257.429688 
	C1046.064453,257.429657 1045.804688,256.873962 1045.554932,256.156433 
	C1044.946167,254.907913 1044.534180,254.421890 1044.069092,253.980865 
	C953.303345,186.478714 862.536743,118.977737 771.772583,51.473450 
	C753.085754,37.575436 734.394592,23.683271 715.742004,9.739532 
	C713.095337,7.761000 710.657104,5.503623 708.061218,2.687652 
	C736.708435,2.000000 765.416931,2.000000 795.246460,2.654868 
	C797.860229,4.621395 799.265015,6.052322 800.858337,7.227684 
	C894.895752,76.600182 988.944702,145.957123 1083.026978,215.268875 
	C1085.118774,216.809937 1087.606812,217.813263 1089.910034,219.067413 
	C1101.149170,227.909653 1112.183350,237.028259 1123.664673,245.543777 
	C1162.454590,274.313538 1201.385132,302.893646 1240.296387,331.499542 
	C1274.109863,356.357910 1308.025513,381.077759 1341.793945,405.997070 
	C1376.099243,431.312592 1410.224121,456.872681 1444.526245,482.192505 
	C1520.373779,538.178650 1596.291138,594.070190 1672.163086,650.023193 
	C1704.335938,673.749573 1736.448608,697.557495 1768.619385,721.286499 
	C1845.017334,777.636902 1921.421021,833.979248 1997.864624,890.267517 
	C2004.287476,894.996765 2011.027832,899.294922 2018.578247,904.563599 
	C2022.103394,907.441528 2024.581299,909.670715 2027.251221,911.639648 
	C2239.094482,1067.862915 2450.952393,1224.066284 2662.816162,1380.261353 
	C2665.454102,1382.206299 2668.184570,1384.025757 2671.411133,1386.280640 
	C2711.347900,1348.951660 2755.276367,1317.931519 2803.850342,1293.596802 
	C2852.364502,1269.292114 2903.478516,1252.746338 2957.797607,1243.206299 
	C2956.938965,1238.132568 2956.531982,1234.249146 2955.609863,1230.491943 
	C2899.014160,999.879822 2842.380859,769.276978 2785.698975,538.685913 
	C2784.914062,535.492737 2783.475342,532.460266 2782.341553,529.352783 
	C2780.209473,518.935242 2778.419189,508.433929 2775.889648,498.113800 
	C2759.167725,429.890289 2742.217041,361.722900 2725.476807,293.503845 
	C2706.674805,216.882645 2688.033691,140.222000 2669.283203,63.588097 
	C2664.378662,43.543098 2659.328857,23.533627 2654.172852,2.753920 
	C2674.041748,2.000000 2694.083740,2.000000 2715.240234,2.752757 
	C2737.299805,89.175491 2758.211670,174.853470 2779.197998,260.513184 
	C2800.264404,346.499146 2821.405273,432.466949 2842.675781,519.158936 
	C2843.312988,522.156860 2843.720215,524.455139 2844.273438,526.717712 
	C2899.610840,753.035339 2954.956299,979.351074 3010.316162,1205.663208 
	C3012.761230,1215.659180 3015.339844,1225.622314 3017.985352,1236.112671 
	C3022.074219,1236.112671 3025.691650,1235.993164 3029.298828,1236.131958 
	C3055.229980,1237.129150 3081.214600,1237.443848 3107.074707,1239.398071 
	C3139.373535,1241.838623 3170.790283,1249.578369 3202.000000,1258.000000 
	C3202.000000,1439.206543 3202.000000,1620.413208 3202.000000,1802.000000 
	C2966.625000,1802.000000 2731.249756,1802.000000 2494.788818,1801.072998 
	C2494.911865,1775.003906 2496.120605,1749.861816 2497.359375,1724.094482 
	C2492.594482,1723.487793 2488.036621,1722.803101 2483.456055,1722.345337 
	C2472.854492,1721.285889 2462.239258,1720.364014 2451.634521,1719.337524 
	C2406.233643,1714.942749 2360.834717,1710.528442 2315.434814,1706.124268 
	C2271.359863,1701.848389 2227.284424,1697.579224 2183.209473,1693.301392 
	C2138.142090,1688.927246 2093.075928,1684.541138 2048.008057,1680.169434 
	C2003.602417,1675.861938 1959.194946,1671.573120 1914.789551,1667.262817 
	C1870.053223,1662.920532 1825.318726,1658.560791 1780.583252,1654.210938 
	C1735.184937,1649.796631 1689.792114,1645.326904 1644.385986,1640.993774 
	C1616.880615,1638.369263 1589.354858,1635.958374 1561.110107,1633.136719 
	C1547.790039,1631.694458 1535.191650,1630.634277 1522.607666,1629.425049 
	C1497.103882,1626.974121 1471.609375,1624.426514 1446.108154,1621.949219 
	C1430.208618,1620.404785 1414.300903,1618.945679 1398.401855,1617.395996 
	C1373.232178,1614.942627 1348.065918,1612.453857 1322.899658,1609.964600 
	C1305.680420,1608.261475 1288.464600,1606.526367 1271.246094,1604.815796 
	C1255.349976,1603.236450 1239.456909,1601.624146 1223.554443,1600.111572 
	C1206.326294,1598.472900 1189.082886,1596.991821 1171.856323,1595.335693 
	C1147.015503,1592.947510 1122.185791,1590.443481 1097.347534,1588.027832 
	C1080.785400,1586.416992 1064.212646,1584.916016 1047.651855,1583.291504 
	C1023.476807,1580.919800 999.309265,1578.471680 975.136780,1576.074219 
	C956.924988,1574.267822 938.711304,1572.480103 920.496704,1570.701782 
	C904.598389,1569.149292 888.701233,1567.583496 872.797119,1566.092163 
	C848.610229,1563.823975 824.412292,1561.672241 800.229126,1559.364990 
	C775.054504,1556.963135 749.893799,1554.415649 724.723450,1551.968994 
	C701.868042,1549.747314 679.005676,1547.597290 656.150208,1545.376709 
	C630.979736,1542.931396 605.815308,1540.423462 580.644836,1537.977661 
	C564.413696,1536.400269 548.173401,1534.917480 531.942627,1533.335938 
	C507.103882,1530.915894 482.272217,1528.423340 457.433105,1526.007324 
	C440.871155,1524.396362 424.297577,1522.904541 407.736053,1521.289185 
	C383.229218,1518.898926 358.728363,1516.447266 334.225189,1514.019653 
	C316.344269,1512.248169 298.477905,1510.311035 280.579224,1508.742554 
	C259.697571,1506.912354 238.787766,1505.403076 217.231293,1503.323486 
	C207.985809,1501.950317 199.407471,1500.924194 190.811203,1500.080688 
	C152.725006,1496.343872 114.637001,1492.624756 76.543015,1488.968506 
	C51.701256,1486.583984 26.848068,1484.318726 2.000000,1482.000000 
	C2.000000,1456.624878 2.000000,1431.249756 2.000000,1404.937256 
	C42.427399,1408.206055 82.855873,1412.401855 123.281876,1416.621338 
	C162.051392,1420.667847 200.818359,1424.738770 241.252869,1429.105713 
	C258.806915,1430.982300 274.698303,1432.515625 290.581299,1434.131104 
	C311.758911,1436.285034 332.934540,1438.460693 354.102905,1440.703613 
	C383.206207,1443.787231 412.297607,1446.983887 441.402435,1450.053101 
	C462.901947,1452.320190 484.420288,1454.408813 505.920349,1456.670654 
	C535.357666,1459.767578 564.782288,1462.984741 594.218750,1466.089722 
	C615.387817,1468.322754 636.572693,1470.406006 657.740723,1472.648804 
	C680.561096,1475.066528 703.365662,1477.633423 726.185181,1480.059326 
	C747.683044,1482.344482 769.194885,1484.498901 790.694397,1486.769165 
	C813.184143,1489.143677 835.661621,1491.633667 858.153381,1493.988281 
	C880.315247,1496.308350 902.494141,1498.464966 924.654785,1500.796143 
	C953.429626,1503.823364 982.189575,1506.992065 1010.963928,1510.024536 
	C1032.793457,1512.325195 1054.641113,1514.452515 1076.470215,1516.757080 
	C1105.243530,1519.795044 1134.001709,1522.976685 1162.775391,1526.010620 
	C1184.606201,1528.312256 1206.457275,1530.422852 1228.288574,1532.719971 
	C1257.395020,1535.782959 1286.490112,1538.952759 1315.591675,1542.060913 
	C1338.078125,1544.462769 1360.567139,1546.840332 1383.054932,1549.228760 
	C1404.222046,1551.476807 1425.383179,1553.783936 1446.557983,1555.957397 
	C1469.054932,1558.266479 1491.570557,1560.395630 1514.067749,1562.701538 
	C1535.566772,1564.905273 1557.052856,1567.235474 1579.381592,1569.671143 
	C1889.792358,1602.612183 2199.405029,1635.017456 2509.356934,1667.619629 
	C2530.966553,1579.641846 2570.135254,1501.813721 2627.503906,1432.745850 
	C2623.239746,1429.517578 2620.097168,1427.102661 2616.918213,1424.736816 
	C2558.114258,1380.973022 2499.302979,1337.218750 2440.499023,1293.454956 
	C2287.342285,1179.470459 2134.194824,1065.473877 1980.988403,951.556396 
	C1977.893921,949.255615 1974.125610,947.861328 1970.402344,945.396606 
	C1966.892578,941.910217 1963.830444,938.831909 1960.385620,936.267639 
	C1883.979370,879.393127 1807.526733,822.581116 1731.092163,765.744751 
	C1676.839844,725.403259 1622.587036,685.062744 1568.360107,644.687195 
	C1478.605469,577.858887 1388.869507,511.005371 1299.129395,444.157532 
	C1249.989502,407.552979 1200.839966,370.961243 1151.728516,334.318329 
	C1126.377930,315.403656 1101.197998,296.258453 1075.741089,277.488464 
	C1066.139160,270.408630 1055.973267,264.093445 1046.064453,257.429688 
z"/>
<path fill="#D19300" opacity="1.000000" stroke="none" 
	d="
M217.890182,1503.754517 
	C238.787766,1505.403076 259.697571,1506.912354 280.579224,1508.742554 
	C298.477905,1510.311035 316.344269,1512.248169 334.225189,1514.019653 
	C358.728363,1516.447266 383.229218,1518.898926 407.736053,1521.289185 
	C424.297577,1522.904541 440.871155,1524.396362 457.433105,1526.007324 
	C482.272217,1528.423340 507.103882,1530.915894 531.942627,1533.335938 
	C548.173401,1534.917480 564.413696,1536.400269 580.644836,1537.977661 
	C605.815308,1540.423462 630.979736,1542.931396 656.150208,1545.376709 
	C679.005676,1547.597290 701.868042,1549.747314 724.723450,1551.968994 
	C749.893799,1554.415649 775.054504,1556.963135 800.229126,1559.364990 
	C824.412292,1561.672241 848.610229,1563.823975 872.797119,1566.092163 
	C888.701233,1567.583496 904.598389,1569.149292 920.496704,1570.701782 
	C938.711304,1572.480103 956.924988,1574.267822 975.136780,1576.074219 
	C999.309265,1578.471680 1023.476807,1580.919800 1047.651855,1583.291504 
	C1064.212646,1584.916016 1080.785400,1586.416992 1097.347534,1588.027832 
	C1122.185791,1590.443481 1147.015503,1592.947510 1171.856323,1595.335693 
	C1189.082886,1596.991821 1206.326294,1598.472900 1223.554443,1600.111572 
	C1239.456909,1601.624146 1255.349976,1603.236450 1271.246094,1604.815796 
	C1288.464600,1606.526367 1305.680420,1608.261475 1322.899658,1609.964600 
	C1348.065918,1612.453857 1373.232178,1614.942627 1398.401855,1617.395996 
	C1414.300903,1618.945679 1430.208618,1620.404785 1446.108154,1621.949219 
	C1471.609375,1624.426514 1497.103882,1626.974121 1522.607666,1629.425049 
	C1535.191650,1630.634277 1547.790039,1631.694458 1560.883057,1633.887329 
	C1548.882324,1687.372559 1540.574341,1740.471558 1535.704224,1794.120972 
	C1535.468506,1796.717041 1535.886475,1799.372314 1536.000000,1802.000000 
	C1074.624878,1802.000000 613.249756,1802.000000 150.996109,1801.147705 
	C151.545151,1791.816650 152.929367,1783.330200 154.410141,1774.860596 
	C156.801758,1761.181396 159.246750,1747.511475 161.701767,1733.843384 
	C161.933487,1732.553345 162.472626,1731.320679 162.740646,1730.034546 
	C164.819778,1720.058350 165.108353,1709.855469 169.236069,1700.101074 
	C171.951645,1693.683838 170.296417,1685.473145 172.771973,1678.881958 
	C175.188568,1672.447876 173.697693,1665.604004 177.312515,1659.237793 
	C181.553314,1651.769043 178.212906,1641.956787 183.359894,1634.036255 
	C185.333313,1630.999512 184.709488,1626.363770 185.682983,1622.562744 
	C186.603516,1618.968384 190.099792,1614.355713 188.887634,1612.226318 
	C185.943024,1607.053589 191.501846,1605.416138 191.528564,1601.951538 
	C191.610077,1591.374023 196.366394,1581.946777 198.692154,1571.926880 
	C199.359283,1569.052734 198.976654,1565.676392 200.363251,1563.273438 
	C205.987000,1553.527710 205.411453,1542.126343 209.384628,1531.868042 
	C212.893143,1522.809692 213.630600,1512.718872 217.890182,1503.754517 
z"/>
<path fill="#D19300" opacity="1.000000" stroke="none" 
	d="
M2842.513428,518.442688 
	C2821.405273,432.466949 2800.264404,346.499146 2779.197998,260.513184 
	C2758.211670,174.853470 2737.299805,89.175491 2716.177734,2.752757 
	C2877.854492,2.000000 3039.708740,2.000000 3202.000000,2.000000 
	C3202.000000,164.041534 3202.000000,326.083435 3201.064941,488.991211 
	C3094.033691,487.400146 2988.564209,494.418884 2883.736816,510.931000 
	C2869.943604,513.103638 2856.251953,515.922913 2842.513428,518.442688 
z"/>
<path fill="#118942" opacity="1.000000" stroke="none" 
	d="
M2842.675781,519.158936 
	C2856.251953,515.922913 2869.943604,513.103638 2883.736816,510.931000 
	C2988.564209,494.418884 3094.033691,487.400146 3201.064941,489.928528 
	C3202.000000,745.375122 3202.000000,1000.750244 3202.000000,1257.062744 
	C3170.790283,1249.578369 3139.373535,1241.838623 3107.074707,1239.398071 
	C3081.214600,1237.443848 3055.229980,1237.129150 3029.298828,1236.131958 
	C3025.691650,1235.993164 3022.074219,1236.112671 3017.985352,1236.112671 
	C3015.339844,1225.622314 3012.761230,1215.659180 3010.316162,1205.663208 
	C2954.956299,979.351074 2899.610840,753.035339 2844.273438,526.717712 
	C2843.720215,524.455139 2843.312988,522.156860 2842.675781,519.158936 
z"/>
<path fill="#128942" opacity="1.000000" stroke="none" 
	d="
M1536.937256,1802.000000 
	C1535.886475,1799.372314 1535.468506,1796.717041 1535.704224,1794.120972 
	C1540.574341,1740.471558 1548.882324,1687.372559 1561.611328,1634.201904 
	C1589.354858,1635.958374 1616.880615,1638.369263 1644.385986,1640.993774 
	C1689.792114,1645.326904 1735.184937,1649.796631 1780.583252,1654.210938 
	C1825.318726,1658.560791 1870.053223,1662.920532 1914.789551,1667.262817 
	C1959.194946,1671.573120 2003.602417,1675.861938 2048.008057,1680.169434 
	C2093.075928,1684.541138 2138.142090,1688.927246 2183.209473,1693.301392 
	C2227.284424,1697.579224 2271.359863,1701.848389 2315.434814,1706.124268 
	C2360.834717,1710.528442 2406.233643,1714.942749 2451.634521,1719.337524 
	C2462.239258,1720.364014 2472.854492,1721.285889 2483.456055,1722.345337 
	C2488.036621,1722.803101 2492.594482,1723.487793 2497.359375,1724.094482 
	C2496.120605,1749.861816 2494.911865,1775.003906 2493.851562,1801.072998 
	C2175.291504,1802.000000 1856.583130,1802.000000 1536.937256,1802.000000 
z"/>
<path fill="#1287A1" opacity="1.000000" stroke="none" 
	d="
M1090.657593,218.898209 
	C1087.606812,217.813263 1085.118774,216.809937 1083.026978,215.268875 
	C988.944702,145.957123 894.895752,76.600182 800.858337,7.227684 
	C799.265015,6.052322 797.860229,4.621395 796.183716,2.654868 
	C998.041809,2.000000 1200.083618,2.000000 1403.062744,2.000014 
	C1375.605957,20.090267 1347.116943,38.033775 1318.843628,56.310734 
	C1288.616333,75.850723 1258.299438,95.276031 1228.580322,115.569603 
	C1207.929321,129.671051 1188.155640,145.065704 1168.112549,160.046524 
	C1148.774902,174.500000 1129.568604,189.129761 1110.359497,203.754288 
	C1103.953979,208.631027 1097.718384,213.731033 1090.657593,218.898209 
z"/>
<path fill="#1287A0" opacity="1.000000" stroke="none" 
	d="
M217.231293,1503.323486 
	C213.630600,1512.718872 212.893143,1522.809692 209.384628,1531.868042 
	C205.411453,1542.126343 205.987000,1553.527710 200.363251,1563.273438 
	C198.976654,1565.676392 199.359283,1569.052734 198.692154,1571.926880 
	C196.366394,1581.946777 191.610077,1591.374023 191.528564,1601.951538 
	C191.501846,1605.416138 185.943024,1607.053589 188.887634,1612.226318 
	C190.099792,1614.355713 186.603516,1618.968384 185.682983,1622.562744 
	C184.709488,1626.363770 185.333313,1630.999512 183.359894,1634.036255 
	C178.212906,1641.956787 181.553314,1651.769043 177.312515,1659.237793 
	C173.697693,1665.604004 175.188568,1672.447876 172.771973,1678.881958 
	C170.296417,1685.473145 171.951645,1693.683838 169.236069,1700.101074 
	C165.108353,1709.855469 164.819778,1720.058350 162.740646,1730.034546 
	C162.472626,1731.320679 161.933487,1732.553345 161.701767,1733.843384 
	C159.246750,1747.511475 156.801758,1761.181396 154.410141,1774.860596 
	C152.929367,1783.330200 151.545151,1791.816650 150.058792,1801.147705 
	C100.759064,1802.000000 51.518120,1802.000000 2.000000,1802.000000 
	C2.000000,1695.958374 2.000000,1589.916504 2.000000,1482.937256 
	C26.848068,1484.318726 51.701256,1486.583984 76.543015,1488.968506 
	C114.637001,1492.624756 152.725006,1496.343872 190.811203,1500.080688 
	C199.407471,1500.924194 207.985809,1501.950317 217.231293,1503.323486 
z"/>
<path fill="#128942" opacity="1.000000" stroke="none" 
	d="
M2781.559082,529.644958 
	C2783.475342,532.460266 2784.914062,535.492737 2785.698975,538.685913 
	C2842.380859,769.276978 2899.014160,999.879822 2955.609863,1230.491943 
	C2956.531982,1234.249146 2956.938965,1238.132568 2957.797607,1243.206299 
	C2903.478516,1252.746338 2852.364502,1269.292114 2803.850342,1293.596802 
	C2755.276367,1317.931519 2711.347900,1348.951660 2671.411133,1386.280640 
	C2668.184570,1384.025757 2665.454102,1382.206299 2662.816162,1380.261353 
	C2450.952393,1224.066284 2239.094482,1067.862915 2027.251221,911.639648 
	C2024.581299,909.670715 2022.103394,907.441528 2019.209106,904.694275 
	C2138.072754,801.955994 2269.393799,718.822937 2411.849609,653.209045 
	C2527.245850,600.058655 2647.048096,559.881653 2771.075684,532.317627 
	C2774.325195,531.595520 2777.543701,530.733826 2781.559082,529.644958 
z"/>
<path fill="#D19300" opacity="1.000000" stroke="none" 
	d="
M1045.432373,257.787323 
	C1055.973267,264.093445 1066.139160,270.408630 1075.741089,277.488464 
	C1101.197998,296.258453 1126.377930,315.403656 1151.728516,334.318329 
	C1200.839966,370.961243 1249.989502,407.552979 1299.129395,444.157532 
	C1388.869507,511.005371 1478.605469,577.858887 1568.360107,644.687195 
	C1622.587036,685.062744 1676.839844,725.403259 1731.092163,765.744751 
	C1807.526733,822.581116 1883.979370,879.393127 1960.385620,936.267639 
	C1963.830444,938.831909 1966.892578,941.910217 1970.093872,946.051636 
	C1966.261719,951.086975 1962.519897,954.873535 1958.668091,958.544861 
	C1875.908813,1037.425903 1802.641235,1124.247681 1740.094727,1220.015991 
	C1691.524414,1294.384888 1650.424927,1372.668823 1617.583740,1455.229126 
	C1602.689575,1492.672119 1589.216187,1530.616699 1578.544556,1569.510132 
	C1557.052856,1567.235474 1535.566772,1564.905273 1514.067749,1562.701538 
	C1491.570557,1560.395630 1469.054932,1558.266479 1446.557983,1555.957397 
	C1425.383179,1553.783936 1404.222046,1551.476807 1383.054932,1549.228760 
	C1360.567139,1546.840332 1338.078125,1544.462769 1315.591675,1542.060913 
	C1286.490112,1538.952759 1257.395020,1535.782959 1228.288574,1532.719971 
	C1206.457275,1530.422852 1184.606201,1528.312256 1162.775391,1526.010620 
	C1134.001709,1522.976685 1105.243530,1519.795044 1076.470215,1516.757080 
	C1054.641113,1514.452515 1032.793457,1512.325195 1010.963928,1510.024536 
	C982.189575,1506.992065 953.429626,1503.823364 924.654785,1500.796143 
	C902.494141,1498.464966 880.315247,1496.308350 858.153381,1493.988281 
	C835.661621,1491.633667 813.184143,1489.143677 790.694397,1486.769165 
	C769.194885,1484.498901 747.683044,1482.344482 726.185181,1480.059326 
	C703.365662,1477.633423 680.561096,1475.066528 657.740723,1472.648804 
	C636.572693,1470.406006 615.387817,1468.322754 594.218750,1466.089722 
	C564.782288,1462.984741 535.357666,1459.767578 505.920349,1456.670654 
	C484.420288,1454.408813 462.901947,1452.320190 441.402435,1450.053101 
	C412.297607,1446.983887 383.206207,1443.787231 354.102905,1440.703613 
	C332.934540,1438.460693 311.758911,1436.285034 290.581299,1434.131104 
	C274.698303,1432.515625 258.806915,1430.982300 241.994324,1429.195679 
	C243.749985,1420.506348 246.318451,1411.996094 249.140198,1403.570801 
	C252.516647,1393.489380 255.984970,1383.434692 259.649750,1373.455200 
	C262.379578,1366.021484 265.481140,1358.724121 268.427917,1351.370361 
	C268.792175,1350.461304 269.441681,1349.613647 269.589752,1348.678955 
	C271.506317,1336.580688 277.436249,1325.922241 281.682129,1314.659058 
	C284.968964,1305.939819 287.947937,1297.103760 291.281525,1288.403076 
	C295.960663,1276.190308 300.735870,1264.011963 305.672394,1251.901367 
	C309.124878,1243.431396 312.842255,1235.066528 316.576965,1226.715454 
	C320.140076,1218.748047 323.884125,1210.861694 327.539032,1202.935303 
	C331.562561,1194.209351 335.658051,1185.515259 339.574036,1176.741333 
	C346.331909,1161.599854 352.822662,1146.337158 359.733826,1131.266724 
	C362.985992,1124.175049 367.018158,1117.444458 370.578644,1110.489746 
	C373.770813,1104.254517 376.727570,1097.898682 379.929260,1091.668579 
	C381.939850,1087.756104 384.167664,1083.952271 386.387054,1080.151611 
	C387.218170,1078.728394 388.801178,1077.582764 389.191437,1076.088623 
	C392.455963,1063.590576 400.242645,1053.405884 406.031128,1042.190674 
	C411.383362,1031.820679 417.363373,1021.769104 422.508606,1011.361938 
	C429.269409,997.686829 437.969208,985.150269 444.351471,971.241516 
	C448.626404,961.925232 455.620422,953.890991 460.954651,945.016724 
	C466.276367,936.163147 470.638977,926.719116 476.172729,918.010864 
	C481.617493,909.442749 485.343933,899.863708 492.629120,892.297180 
	C496.593170,888.179993 498.517670,882.150574 501.622131,877.144958 
	C511.939362,860.509521 522.007690,843.702332 532.872375,827.428955 
	C542.813171,812.539246 553.756714,798.322449 564.077332,783.681519 
	C569.959778,775.336731 575.389160,766.673645 581.197693,758.275085 
	C584.574768,753.392029 588.302307,748.751465 591.864746,743.996338 
	C593.846741,741.350769 595.811218,738.692017 597.787659,736.042236 
	C610.757385,718.654480 623.721252,701.262451 636.710388,683.889160 
	C637.877686,682.327881 639.705078,681.085571 640.385315,679.363159 
	C644.533569,668.860046 653.206116,661.912048 660.107910,653.557312 
	C665.559692,646.957764 670.344482,639.809448 675.748352,633.167542 
	C684.410645,622.520752 693.329468,612.082397 702.159424,601.572388 
	C711.451416,590.512329 720.646423,579.367554 730.105225,568.451660 
	C739.572876,557.525513 749.286560,546.811584 758.941345,536.048584 
	C777.864746,514.953186 796.783569,493.853363 815.800049,472.842010 
	C819.326599,468.945465 823.466125,465.606964 827.038635,461.747925 
	C835.062073,453.080780 842.542358,443.880768 850.914978,435.574310 
	C861.955200,424.621216 873.816040,414.499847 884.995911,403.681824 
	C896.095093,392.941864 906.809570,381.803223 917.653442,370.800690 
	C935.620361,352.570892 955.008301,335.923096 974.436768,319.297699 
	C988.422607,307.329742 1001.889221,294.757050 1015.752380,282.642883 
	C1025.288818,274.309540 1035.107788,266.299530 1045.432373,257.787323 
z"/>
<path fill="#F1CE0B" opacity="1.000000" stroke="none" 
	d="
M1044.104248,254.513504 
	C1044.534180,254.421890 1044.946167,254.907913 1045.543701,255.849960 
	C1045.234741,255.856033 1044.687012,255.451080 1044.104248,254.513504 
z"/>
<path fill="#118942" opacity="1.000000" stroke="none" 
	d="
M1579.381592,1569.671143 
	C1589.216187,1530.616699 1602.689575,1492.672119 1617.583740,1455.229126 
	C1650.424927,1372.668823 1691.524414,1294.384888 1740.094727,1220.015991 
	C1802.641235,1124.247681 1875.908813,1037.425903 1958.668091,958.544861 
	C1962.519897,954.873535 1966.261719,951.086975 1970.363281,946.699097 
	C1974.125610,947.861328 1977.893921,949.255615 1980.988403,951.556396 
	C2134.194824,1065.473877 2287.342285,1179.470459 2440.499023,1293.454956 
	C2499.302979,1337.218750 2558.114258,1380.973022 2616.918213,1424.736816 
	C2620.097168,1427.102661 2623.239746,1429.517578 2627.503906,1432.745850 
	C2570.135254,1501.813721 2530.966553,1579.641846 2509.356934,1667.619629 
	C2199.405029,1635.017456 1889.792358,1602.612183 1579.381592,1569.671143 
z"/>
</svg>