<?xml version="1.0" encoding="UTF-8" standalone="no"?>
<svg
   xmlns:dc="http://purl.org/dc/elements/1.1/"
   xmlns:cc="http://creativecommons.org/ns#"
   xmlns:rdf="http://www.w3.org/1999/02/22-rdf-syntax-ns#"
   xmlns:svg="http://www.w3.org/2000/svg"
   xmlns="http://www.w3.org/2000/svg"
   xmlns:sodipodi="http://sodipodi.sourceforge.net/DTD/sodipodi-0.dtd"
   xmlns:inkscape="http://www.inkscape.org/namespaces/inkscape"
   inkscape:version="1.0 (4035a4fb49, 2020-05-01)"
   inkscape:export-ydpi="950.37653"
   inkscape:export-xdpi="950.37653"
   inkscape:export-filename="C:\Users\pc\Desktop\Fabri\bitmap.png"
   sodipodi:docname="Bandera_San_Cristobal_ciudad.svg"
   viewBox="0 0 500.00001 280.65814"
   height="280.65814"
   width="500"
   id="svg861"
   version="1.1">
  <metadata
     id="metadata867">
    <rdf:RDF>
      <cc:Work
         rdf:about="">
        <dc:format>image/svg+xml</dc:format>
        <dc:type
           rdf:resource="http://purl.org/dc/dcmitype/StillImage" />
        <dc:title></dc:title>
      </cc:Work>
    </rdf:RDF>
  </metadata>
  <defs
     id="defs865" />
  <sodipodi:namedview
     inkscape:current-layer="g1521"
     inkscape:window-maximized="1"
     inkscape:window-y="-8"
     inkscape:window-x="-8"
     inkscape:cy="191.76003"
     inkscape:cx="331.92258"
     inkscape:zoom="0.32164278"
     showgrid="false"
     id="namedview863"
     inkscape:window-height="705"
     inkscape:window-width="1366"
     inkscape:pageshadow="2"
     inkscape:pageopacity="0"
     guidetolerance="10"
     gridtolerance="10"
     objecttolerance="10"
     borderopacity="1"
     bordercolor="#666666"
     pagecolor="#ffffff" />
  <g
     transform="translate(-353.67953,-2.7452919)"
     id="g869"
     inkscape:label="Image"
     inkscape:groupmode="layer">
    <g
       transform="translate(353.80542,2.7453)"
       id="g873">
      <g
         id="g1521">
        <g
           transform="matrix(0.49498776,0,0,0.49498776,-0.06357604,-4.0905992e-6)"
           id="g2229">
          <path
             sodipodi:nodetypes="ccccc"
             id="path875"
             d="M -0.12589009,0 H 1010.0001 V 566.99999 H -0.12589 Z"
             style="fill:#2b831d" />
          <path
             sodipodi:nodetypes="cccc"
             id="path877-1-1"
             d="M 33.110791,497.04532 C 175.86099,268.95118 556.45281,50.77298 1010.0001,0 V 204.67926 C 533.58193,204.19988 270.13294,360.72697 33.110791,497.04532 Z"
             style="fill:#ffffff;fill-opacity:1" />
          <path
             style="fill:#ffffff;fill-opacity:1"
             d="M 44.102904,516.83112 C 294.11495,358.69036 556.45276,332.88063 1010.0001,282.10765 L 1010,428.22366 Z"
             id="path877-1"
             sodipodi:nodetypes="cccc" />
          <path
             sodipodi:nodetypes="ccccccccccccccc"
             id="path879"
             d="M -0.12589,566.99999 V 531 C 134.44556,257.45339 523.977,47.210711 907.12372,-8.1e-6 H 1010.0001 V 22.656982 C 789.61604,29.78791 319.85161,116.21193 53.397335,481.59306 271.98009,302.59602 601.88126,199.35528 1010.0001,187.43355 V 208.5265 C 653.79654,220.46084 352.04814,309.29995 124.5,452.08454 393.78881,341.36755 733.34827,282.85645 1010.0001,273.89475 v 21.66236 C 833.37112,298.6524 359.28309,351.68221 75.684259,508.08941 437.66114,372.44332 695.56917,382.4578 1010.0001,374.07442 v 192.92557 z"
             style="fill:#adb2c1" />
          <path
             sodipodi:nodetypes="cccc"
             id="path877"
             d="M 20.785184,566.99999 C 260.90433,450.62926 534.50088,403.63544 1010.0001,407.6936 v 159.30655 z"
             style="fill:#dc0602" />
          <g
             id="g2209"
             style="fill:#ffffff;fill-opacity:1">
            <path
               sodipodi:nodetypes="cccccccccccccccsc"
               id="path2120"
               d="M 50.790263,92.453217 57.037332,70.684659 39.87411,57.454464 c 0,-0.02922 0.02134,-0.06116 0.04764,-0.07097 l 21.772145,-0.598391 6.906087,-21.779777 c 0.02824,-0.01086 0.06634,-0.0046 0.08455,0.0139 l 6.876901,21.765937 c 0,0 13.742532,-0.358353 21.79427,0.616748 0.01911,0.01914 0.0257,0.05738 0.01448,0.08499 -6.027639,4.66197 -17.162664,13.159625 -17.162664,13.159625 l 6.240664,21.827526 c -0.0347,0.03469 -0.06458,0.03303 -0.129857,-0.0072 L 68.573651,79.953544 50.857768,92.501365 c -0.02699,3.14e-4 -0.05724,-0.02134 -0.06754,-0.04816 z"
               style="fill:#ffffff;fill-opacity:1;stroke-width:0.0381087" />
            <path
               style="fill:#ffffff;fill-opacity:1;stroke-width:0.0381087"
               d="m 120.79026,92.453216 6.24707,-21.768557 -17.16322,-13.230195 c 0,-0.02922 0.0213,-0.06116 0.0476,-0.07097 l 21.77215,-0.598391 6.90608,-21.779777 c 0.0282,-0.01086 0.0663,-0.0046 0.0846,0.0139 l 6.8769,21.765937 c 0,0 13.74254,-0.358353 21.79427,0.616748 0.0191,0.01914 0.0257,0.05738 0.0145,0.08499 -6.02763,4.66197 -17.16266,13.159625 -17.16266,13.159625 l 6.24066,21.82753 c -0.0347,0.0347 -0.0646,0.033 -0.12985,-0.007 L 138.57365,79.953544 120.85777,92.501366 c -0.027,3.1e-4 -0.0572,-0.0213 -0.0675,-0.0482 z"
               id="path2120-5"
               sodipodi:nodetypes="cccccccccccccccsc" />
            <path
               style="fill:#ffffff;fill-opacity:1;stroke-width:0.0381087"
               d="m 190.79026,92.453217 6.24707,-21.768558 -17.16322,-13.230195 c 0,-0.02922 0.0213,-0.06116 0.0476,-0.07097 l 21.77215,-0.598391 6.90608,-21.779777 c 0.0282,-0.01086 0.0663,-0.0046 0.0846,0.0139 l 6.8769,21.765937 c 0,0 13.74254,-0.358353 21.79427,0.616748 0.0191,0.01914 0.0257,0.05738 0.0145,0.08499 -6.02764,4.66197 -17.16266,13.159625 -17.16266,13.159625 l 6.24066,21.827526 c -0.0347,0.03469 -0.0646,0.03303 -0.12985,-0.0072 L 208.57365,79.953544 190.85777,92.501365 c -0.027,3.14e-4 -0.0572,-0.02134 -0.0675,-0.04816 z"
               id="path2120-4"
               sodipodi:nodetypes="cccccccccccccccsc" />
            <path
               style="fill:#ffffff;fill-opacity:1;stroke-width:0.0381087"
               d="m 260.79026,92.453217 6.24707,-21.768558 -17.16322,-13.230195 c 0,-0.02922 0.0213,-0.06116 0.0476,-0.07097 l 21.77215,-0.598391 6.90608,-21.779777 c 0.0282,-0.01086 0.0663,-0.0046 0.0845,0.0139 l 6.8769,21.765937 c 0,0 13.74254,-0.358353 21.79427,0.616748 0.0191,0.01914 0.0257,0.05738 0.0145,0.08499 -6.02763,4.66197 -17.16266,13.159625 -17.16266,13.159625 l 6.24066,21.827526 c -0.0347,0.03469 -0.0646,0.03303 -0.12985,-0.0072 L 278.57365,79.953544 260.85777,92.501365 c -0.027,3.14e-4 -0.0572,-0.02134 -0.0675,-0.04816 z"
               id="path2120-8"
               sodipodi:nodetypes="cccccccccccccccsc" />
            <path
               style="fill:#ffffff;fill-opacity:1;stroke-width:0.0381087"
               d="m 330.79026,92.453217 6.24707,-21.768558 -17.16322,-13.230195 c 0,-0.02922 0.0213,-0.06116 0.0476,-0.07097 l 21.77214,-0.598391 6.90609,-21.779777 c 0.0282,-0.01086 0.0663,-0.0046 0.0845,0.0139 l 6.8769,21.765937 c 0,0 13.74253,-0.358353 21.79427,0.616748 0.0191,0.01914 0.0257,0.05738 0.0145,0.08499 -6.02764,4.66197 -17.16266,13.159625 -17.16266,13.159625 l 6.24066,21.827521 c -0.0347,0.0347 -0.0646,0.033 -0.12986,-0.007 l -17.7446,-12.513503 -17.71588,12.547823 c -0.027,3.1e-4 -0.0572,-0.0213 -0.0675,-0.0482 z"
               id="path2120-9"
               sodipodi:nodetypes="cccccccccccccccsc" />
            <path
               style="fill:#ffffff;fill-opacity:1;stroke-width:0.0381087"
               d="M 50.790261,157.45335 57.037331,135.68479 39.87411,122.4546 c 0,-0.0292 0.02134,-0.0612 0.04764,-0.071 l 21.772141,-0.5984 6.90609,-21.77977 c 0.0282,-0.0109 0.0663,-0.005 0.0846,0.0139 l 6.8769,21.76593 c 0,0 13.74253,-0.35835 21.79427,0.61675 0.0191,0.0191 0.0257,0.0574 0.0145,0.085 -6.02764,4.66197 -17.16266,13.15963 -17.16266,13.15963 l 6.24066,21.82752 c -0.0347,0.0347 -0.0646,0.033 -0.12985,-0.007 l -17.74468,-12.5133 -17.71588,12.54782 c -0.027,3.1e-4 -0.0572,-0.0213 -0.0675,-0.0482 z"
               id="path2120-6"
               sodipodi:nodetypes="cccccccccccccccsc" />
            <path
               style="fill:#ffffff;fill-opacity:1;stroke-width:0.0381087"
               d="m 120.79027,157.45335 6.24706,-21.76856 -17.16322,-13.23019 c 0,-0.0292 0.0213,-0.0612 0.0476,-0.071 l 21.77215,-0.59839 6.90608,-21.77978 c 0.0282,-0.0109 0.0663,-0.005 0.0846,0.0139 l 6.87691,21.76594 c 0,0 13.74253,-0.35836 21.79427,0.61674 0.0191,0.0191 0.0257,0.0574 0.0145,0.085 -6.02764,4.66197 -17.16267,13.15963 -17.16267,13.15963 l 6.24067,21.82752 c -0.0347,0.0347 -0.0646,0.033 -0.12986,-0.007 l -17.74468,-12.5133 -17.71588,12.54782 c -0.027,3.1e-4 -0.0572,-0.0213 -0.0675,-0.0482 z"
               id="path2120-0"
               sodipodi:nodetypes="cccccccccccccccsc" />
            <path
               style="fill:#ffffff;fill-opacity:1;stroke-width:0.0381087"
               d="m 190.79027,157.45335 6.24707,-21.76856 -17.16323,-13.23019 c 0,-0.0292 0.0213,-0.0612 0.0476,-0.071 l 21.77215,-0.59839 6.90609,-21.77978 c 0.0282,-0.0109 0.0663,-0.005 0.0846,0.0139 l 6.8769,21.76594 c 0,0 13.74253,-0.35836 21.79427,0.61674 0.0191,0.0191 0.0257,0.0574 0.0145,0.085 -6.02764,4.66197 -17.16267,13.15963 -17.16267,13.15963 l 6.24067,21.82752 c -0.0347,0.0347 -0.0646,0.033 -0.12986,-0.007 l -17.74468,-12.5133 -17.71588,12.54782 c -0.027,3.1e-4 -0.0572,-0.0213 -0.0675,-0.0482 z"
               id="path2120-2"
               sodipodi:nodetypes="cccccccccccccccsc" />
            <path
               style="fill:#ffffff;fill-opacity:1;stroke-width:0.0381087"
               d="M 50.790263,217.45335 57.037332,195.68479 39.87411,182.4546 c 0,-0.0292 0.02134,-0.0612 0.04764,-0.071 l 21.772145,-0.59839 6.906087,-21.77978 c 0.02824,-0.0109 0.06634,-0.005 0.08455,0.0139 l 6.876901,21.76594 c 0,0 13.742537,-0.35835 21.794267,0.61675 0.0191,0.0191 0.0257,0.0574 0.0145,0.085 -6.02764,4.66197 -17.162661,13.15962 -17.162661,13.15962 l 6.240661,21.82753 c -0.0347,0.0347 -0.0646,0.033 -0.12985,-0.007 L 68.573651,204.95368 50.857768,217.5015 c -0.02699,3.1e-4 -0.05724,-0.0213 -0.06754,-0.0482 z"
               id="path2120-04"
               sodipodi:nodetypes="cccccccccccccccsc" />
            <path
               style="fill:#ffffff;fill-opacity:1;stroke-width:0.0381087"
               d="m 120.79026,217.45336 6.24707,-21.76856 -17.16322,-13.2302 c 0,-0.0292 0.0213,-0.0612 0.0476,-0.071 l 21.77214,-0.59839 6.90609,-21.77978 c 0.0282,-0.0109 0.0663,-0.005 0.0846,0.0139 l 6.8769,21.76594 c 0,0 13.74254,-0.35835 21.79427,0.61675 0.0191,0.0191 0.0257,0.0574 0.0145,0.085 -6.02764,4.66197 -17.16266,13.15962 -17.16266,13.15962 l 6.24066,21.82753 c -0.0347,0.0347 -0.0646,0.033 -0.12985,-0.007 l -17.7447,-12.51349 -17.71588,12.54782 c -0.027,3.2e-4 -0.0572,-0.0213 -0.0675,-0.0482 z"
               id="path2120-57"
               sodipodi:nodetypes="cccccccccccccccsc" />
            <path
               style="fill:#ffffff;fill-opacity:1;stroke-width:0.0381087"
               d="M 50.790263,277.45335 57.037332,255.68479 39.87411,242.4546 c 0,-0.0292 0.02134,-0.0612 0.04764,-0.071 l 21.772145,-0.59839 6.906087,-21.77978 c 0.02824,-0.0109 0.06634,-0.005 0.08455,0.0139 l 6.876901,21.76594 c 0,0 13.742532,-0.35835 21.79427,0.61675 0.01911,0.0191 0.0257,0.0574 0.01448,0.085 -6.027639,4.66197 -17.162664,13.15962 -17.162664,13.15962 l 6.240664,21.82753 c -0.0347,0.0347 -0.06458,0.033 -0.129857,-0.007 L 68.573651,264.95368 50.857768,277.5015 c -0.02699,3.1e-4 -0.05724,-0.0213 -0.06754,-0.0482 z"
               id="path2120-83"
               sodipodi:nodetypes="cccccccccccccccsc" />
            <path
               style="fill:#ffffff;fill-opacity:1;stroke-width:0.0381087"
               d="M 50.790263,337.45335 57.037332,315.68479 39.87411,302.4546 c 0,-0.0292 0.02134,-0.0612 0.04764,-0.071 l 21.772145,-0.59839 6.906087,-21.77978 c 0.02824,-0.0109 0.06634,-0.005 0.08455,0.0139 l 6.876901,21.76594 c 0,0 13.742532,-0.35836 21.79427,0.61675 0.01911,0.0191 0.0257,0.0574 0.01448,0.085 -6.027639,4.66197 -17.162664,13.15962 -17.162664,13.15962 l 6.240664,21.82753 c -0.0347,0.0347 -0.06458,0.033 -0.129857,-0.007 L 68.573651,324.95368 50.857768,337.5015 c -0.02699,3.1e-4 -0.05724,-0.0213 -0.06754,-0.0482 z"
               id="path2120-43"
               sodipodi:nodetypes="cccccccccccccccsc" />
          </g>
        </g>
      </g>
    </g>
  </g>
</svg>
