<svg width="359" height="187" version="1.1" xmlns="http://www.w3.org/2000/svg" desc="Created with imagetracer.js version 1.2.6" ><path fill="rgb(197,24,13)" stroke="rgb(197,24,13)" stroke-width="1" opacity="1" d="M 112.5 92 L 118 96.5 L 116.5 97 L 112.5 92 Z " /><path fill="rgb(197,24,13)" stroke="rgb(197,24,13)" stroke-width="1" opacity="1" d="M 244.5 92 L 240.5 97 L 224.5 105 L 216.5 106 L 216.5 105 L 224.5 104 L 244.5 92 Z " /><path fill="rgb(197,24,13)" stroke="rgb(197,24,13)" stroke-width="1" opacity="1" d="M 119.5 97 L 125 100.5 L 123.5 100 Q 118.8 99.2 119.5 97 Z " /><path fill="rgb(197,24,13)" stroke="rgb(197,24,13)" stroke-width="1" opacity="1" d="M 126.5 101 L 136 104.5 L 132.5 105 L 126.5 102 L 126.5 101 Z " /><path fill="rgb(197,24,13)" stroke="rgb(197,24,13)" stroke-width="1" opacity="1" d="M 137.5 105 L 143 106.5 L 140.5 107 L 137.5 106 L 137.5 105 Z " /><path fill="rgb(197,24,13)" stroke="rgb(197,24,13)" stroke-width="1" opacity="1" d="M 147.5 106 Q 159.3 104.3 164 109.5 L 162.5 109 Q 157.4 105.6 147.5 107 L 147.5 106 Z " /><path fill="rgb(197,24,13)" stroke="rgb(197,24,13)" stroke-width="1" opacity="1" d="M 253.5 107 L 252.5 109 L 253.5 107 Z " /><path fill="rgb(197,24,13)" stroke="rgb(197,24,13)" stroke-width="1" opacity="1" d="M 104.5 108 L 107 111.5 L 105 110.5 L 104.5 108 Z " /><path fill="rgb(197,24,13)" stroke="rgb(197,24,13)" stroke-width="1" opacity="1" d="M 251.5 110 L 247.5 115 L 245.5 116 L 246.5 114 L 251.5 110 Z " /><path fill="rgb(197,24,13)" stroke="rgb(197,24,13)" stroke-width="1" opacity="1" d="M 114.5 114 L 116.5 117 L 114.5 114 Z " /><path fill="rgb(197,24,13)" stroke="rgb(197,24,13)" stroke-width="1" opacity="1" d="M 242.5 114 L 241.5 116 L 242.5 114 Z " /><path fill="rgb(197,24,13)" stroke="rgb(197,24,13)" stroke-width="1" opacity="1" d="M 111.5 115 L 112.5 117 L 111.5 115 Z " /><path fill="rgb(197,24,13)" stroke="rgb(197,24,13)" stroke-width="1" opacity="1" d="M 244.5 117 L 243.5 119 L 244.5 117 Z " /><path fill="rgb(197,24,13)" stroke="rgb(197,24,13)" stroke-width="1" opacity="1" d="M 238.5 122 L 237.5 124 L 238.5 122 Z " /><path fill="rgb(197,24,13)" stroke="rgb(197,24,13)" stroke-width="1" opacity="1" d="M 119.5 123 L 120.5 125 L 119.5 123 Z " /><path fill="rgb(197,24,13)" stroke="rgb(197,24,13)" stroke-width="1" opacity="1" d="M 122.5 128 L 123.5 130 L 122.5 128 Z " /><path fill="rgb(197,24,13)" stroke="rgb(197,24,13)" stroke-width="1" opacity="1" d="M 202.5 138 L 202 139.5 L 201.5 141 L 201 139.5 L 202.5 138 Z " /><path fill="rgb(197,24,13)" stroke="rgb(197,24,13)" stroke-width="1" opacity="1" d="M 178.5 150 L 179 154.5 L 178 154.5 L 178.5 150 Z " /><path fill="rgb(197,24,13)" stroke="rgb(197,24,13)" stroke-width="1" opacity="1" d="M 197.5 152 L 198 154.5 L 197 154.5 L 197.5 152 Z " /><path fill="rgb(159,222,244)" stroke="rgb(159,222,244)" stroke-width="1" opacity="1" d="M 175.5 11 L 177.5 12 L 179 11.5 L 175.5 14 L 175.5 11 Z " /><path fill="rgb(159,222,244)" stroke="rgb(159,222,244)" stroke-width="1" opacity="1" d="M 161 12 L 163 12.5 L 162 15 L 157.5 18 L 160 14.5 L 159.5 13 L 161 13.5 L 161 12 Z " /><path fill="rgb(159,222,244)" stroke="rgb(159,222,244)" stroke-width="1" opacity="1" d="M 190.5 12 Q 194.3 11.3 195 13.5 L 193.5 14 L 190.5 13 L 190.5 12 Z " /><path fill="rgb(159,222,244)" stroke="rgb(159,222,244)" stroke-width="1" opacity="1" d="M 164.5 14 L 162.5 17 L 164.5 14 Z " /><path fill="rgb(159,222,244)" stroke="rgb(159,222,244)" stroke-width="1" opacity="1" d="M 173.5 14 L 172.5 16 L 173.5 14 Z " /><path fill="rgb(159,222,244)" stroke="rgb(159,222,244)" stroke-width="1" opacity="1" d="M 178.5 14 L 176.5 17 L 178.5 14 Z " /><path fill="rgb(159,222,244)" stroke="rgb(159,222,244)" stroke-width="1" opacity="1" d="M 170.5 16 L 169.5 18 L 170.5 16 Z " /><path fill="rgb(159,222,244)" stroke="rgb(159,222,244)" stroke-width="1" opacity="1" d="M 186.5 16 L 185.5 18 L 186.5 16 Z " /><path fill="rgb(159,222,244)" stroke="rgb(159,222,244)" stroke-width="1" opacity="1" d="M 146 17 L 148 17.5 L 146 18.5 L 146 17 Z " /><path fill="rgb(159,222,244)" stroke="rgb(159,222,244)" stroke-width="1" opacity="1" d="M 209.5 17 L 208.5 19 L 209.5 17 Z " /><path fill="rgb(159,222,244)" stroke="rgb(159,222,244)" stroke-width="1" opacity="1" d="M 204.5 18 L 207 18.5 L 204.5 19 L 204.5 18 Z " /><path fill="rgb(159,222,244)" stroke="rgb(159,222,244)" stroke-width="1" opacity="1" d="M 148.5 20 L 147.5 22 L 148.5 20 Z " /><path fill="rgb(159,222,244)" stroke="rgb(159,222,244)" stroke-width="1" opacity="1" d="M 138.5 22 L 135.5 26 L 138.5 22 Z " /><path fill="rgb(159,222,244)" stroke="rgb(159,222,244)" stroke-width="1" opacity="1" d="M 132.5 25 L 133 27.5 L 131 28.5 L 132.5 25 Z " /><path fill="rgb(159,222,244)" stroke="rgb(159,222,244)" stroke-width="1" opacity="1" d="M 223.5 25 L 224 27 L 222 26.5 L 223.5 25 Z " /><path fill="rgb(159,222,244)" stroke="rgb(159,222,244)" stroke-width="1" opacity="1" d="M 214.5 26 L 215.5 28 L 214.5 26 Z " /><path fill="rgb(159,222,244)" stroke="rgb(159,222,244)" stroke-width="1" opacity="1" d="M 220.5 28 L 225 28.5 L 220.5 29 L 220.5 28 Z " /><path fill="rgb(159,222,244)" stroke="rgb(159,222,244)" stroke-width="1" opacity="1" d="M 129.5 33 L 132 33.5 L 129 35.5 L 129.5 33 Z " /><path fill="rgb(159,222,244)" stroke="rgb(159,222,244)" stroke-width="1" opacity="1" d="M 225.5 34 L 228 34.5 L 227.5 37 L 225.5 34 Z " /><path fill="rgb(159,222,244)" stroke="rgb(159,222,244)" stroke-width="1" opacity="1" d="M 235 35 Q 238 34 237 37 Q 234 38 235 35 Z " /><path fill="rgb(159,222,244)" stroke="rgb(159,222,244)" stroke-width="1" opacity="1" d="M 122.5 37 L 123 41.5 L 122 41.5 L 122.5 37 Z " /><path fill="rgb(159,222,244)" stroke="rgb(159,222,244)" stroke-width="1" opacity="1" d="M 119.5 38 L 117.5 41 L 119.5 38 Z " /><path fill="rgb(159,222,244)" stroke="rgb(159,222,244)" stroke-width="1" opacity="1" d="M 235.5 39 L 238 40.5 L 236.5 40 L 235.5 39 Z " /><path fill="rgb(159,222,244)" stroke="rgb(159,222,244)" stroke-width="1" opacity="1" d="M 239.5 41 L 243.5 46 L 239.5 41 Z " /><path fill="rgb(159,222,244)" stroke="rgb(159,222,244)" stroke-width="1" opacity="1" d="M 118.5 43 L 119 45.5 L 118 45.5 L 118.5 43 Z " /><path fill="rgb(159,222,244)" stroke="rgb(159,222,244)" stroke-width="1" opacity="1" d="M 121.5 43 L 120.5 45 L 121.5 43 Z " /><path fill="rgb(159,222,244)" stroke="rgb(159,222,244)" stroke-width="1" opacity="1" d="M 114.5 44 L 114 45.5 L 113.5 47 L 113 45.5 L 114.5 44 Z " /><path fill="rgb(159,222,244)" stroke="rgb(159,222,244)" stroke-width="1" opacity="1" d="M 238.5 48 L 239.5 50 L 238.5 48 Z " /><path fill="rgb(159,222,244)" stroke="rgb(159,222,244)" stroke-width="1" opacity="1" d="M 245.5 48 L 247 50.5 L 245 49.5 L 245.5 48 Z " /><path fill="rgb(159,222,244)" stroke="rgb(159,222,244)" stroke-width="1" opacity="1" d="M 109.5 51 L 110 53.5 L 108 52.5 L 109.5 51 Z " /><path fill="rgb(159,222,244)" stroke="rgb(159,222,244)" stroke-width="1" opacity="1" d="M 246.5 53 L 247.5 55 L 246.5 53 Z " /><path fill="rgb(159,222,244)" stroke="rgb(159,222,244)" stroke-width="1" opacity="1" d="M 191.5 58 L 192 59.5 L 177 71.5 L 177.5 74 L 179.5 74 L 183.5 72 L 182.5 74 L 178 76.5 Q 179.4 88.6 186.5 95 L 199.5 102 L 213 106.5 L 211.5 107 L 210.5 106 L 198.5 106 Q 191.8 108.3 188 113.5 L 186 121.5 L 178.5 134 L 172 122.5 L 170 114.5 L 164 107.5 L 165 106.5 L 166 86.5 L 164 82 L 151 76.5 L 150 73 L 152.5 72 L 176 72 Q 177.1 65.8 173 63.5 L 177.5 67 Q 182.3 67.8 183 64.5 L 183.5 59 L 184 64 Q 188.7 63.6 191 59.5 L 191.5 58 Z M 168 75 L 168 77 L 171 78 Q 173 74 168 75 Z " /><path fill="rgb(159,222,244)" stroke="rgb(159,222,244)" stroke-width="1" opacity="1" d="M 245.5 59 L 246.5 61 Q 243.7 61.7 245.5 59 Z " /><path fill="rgb(159,222,244)" stroke="rgb(159,222,244)" stroke-width="1" opacity="1" d="M 104.5 61 L 105 63.5 L 104 63.5 L 104.5 61 Z " /><path fill="rgb(159,222,244)" stroke="rgb(159,222,244)" stroke-width="1" opacity="1" d="M 102.5 66 L 103 67.5 L 101 68.5 L 102.5 66 Z " /><path fill="rgb(159,222,244)" stroke="rgb(159,222,244)" stroke-width="1" opacity="1" d="M 249.5 66 L 252 67.5 L 250.5 68 L 249.5 66 Z " /><path fill="rgb(159,222,244)" stroke="rgb(159,222,244)" stroke-width="1" opacity="1" d="M 106.5 70 L 107 72.5 L 106 72.5 L 106.5 70 Z " /><path fill="rgb(159,222,244)" stroke="rgb(159,222,244)" stroke-width="1" opacity="1" d="M 104.5 75 Q 106.8 74.3 106 76.5 L 104.5 75 Z " /><path fill="rgb(159,222,244)" stroke="rgb(159,222,244)" stroke-width="1" opacity="1" d="M 256.5 82 Q 258.8 81.3 258 83.5 L 256.5 82 Z " /><path fill="rgb(112,209,246)" stroke="rgb(112,209,246)" stroke-width="1" opacity="1" d="M 161 0 L 164 0 Q 162.9 3.3 167 2 Q 165.9 -0.7 168.5 0 L 168.5 2 Q 171.1 1.3 170 4 Q 167.3 5.1 168 2.5 L 167 2.5 Q 164.3 10.8 172.5 8 L 176 7 Q 177.3 4 173.5 5 L 173.5 4 L 179 5 Q 180.3 8 176.5 7 Q 173.5 8.5 176.5 10 L 179 9.5 L 177 8.5 L 183.5 7 L 187.5 9 L 189.5 8 L 189.5 9 L 188 9.5 L 191 10 Q 189.8 7 193.5 8 Q 194.8 10.3 199.5 9 Q 201 6.5 206.5 8 L 206.5 10 L 209.5 8 L 210.5 10 L 206 11.5 L 216 13 Q 217.3 16 213.5 15 L 211 16.5 L 213.5 17 L 218 16 L 219 12 L 222 13.5 L 224 17.5 L 223 20.5 L 224.5 24 Q 229.2 22.7 230.5 25 L 231.5 24 L 240 24 L 239.5 26 L 230.5 26 L 230.5 27 L 232 27 Q 230.5 30.8 233.5 30 L 236.5 28 L 240 30 L 240 34 L 238.5 34 L 238.5 35 L 240 35.5 L 239.5 37 L 242 38.5 Q 241.2 41.1 244.5 40 Q 248.3 38.3 247.5 32 L 249 42 Q 246.3 40.9 247 43.5 L 251 45 L 252.5 48 Q 255.8 49.1 255 46.5 L 256 46.5 L 256 54.5 L 255 55.5 L 256 58.5 L 255.5 60 Q 254.3 57.8 253 60.5 L 253 62 L 256 62 Q 255 65 258 64 L 258 67.5 L 261 69 L 259 64.5 L 263 64 Q 264.6 66.1 264 71.5 L 262.5 76 Q 264.8 75.3 264 77.5 L 265 80 L 268 80 Q 267 77 270 78 L 270 80 Q 272.7 78.9 272 81.5 L 271 83.5 L 272 89 L 358.5 89 L 359 91 L 271 91.5 L 359 92.5 L 264 93 L 265 90.5 L 263.5 88 L 265 88.5 L 260.5 83 L 257 81.5 L 258 79.5 L 258 77.5 L 257.5 76 L 256 76.5 Q 256 70.5 252 68.5 L 252.5 67 Q 248.8 68.3 250 64.5 L 248.5 65 Q 245.9 65.8 247 62.5 L 246.5 61 Q 248.8 60.3 248 62.5 L 250 62.5 Q 249.3 64.8 251.5 64 L 253.5 65 L 253 63.5 L 250 58.5 L 252 57.5 L 248 55.5 L 246.5 53 L 240 51 L 238 46.5 L 240.5 48 L 241.5 47 L 243.5 49 Q 245.8 48.3 245 50.5 L 247 51.5 Q 245.9 48.2 248.5 49 L 248.5 48 Q 244.8 48.8 244 46.5 L 243 44.5 L 245 41.5 L 242.5 43 Q 240.3 43.8 241 41.5 L 237 39.5 L 236.5 38 Q 235.2 40.2 230.5 39 L 227.5 35 L 229.5 36 L 231.5 35 L 237.5 37 L 236.5 35 L 227.5 29 L 220 27 Q 221.1 29.7 218.5 29 L 215 26.5 L 221.5 26 L 224 27 Q 225.1 24.3 222.5 25 L 216 22 L 215.5 20 L 212.5 21 L 210.5 20 L 206.5 22 L 200 20.5 L 207.5 18 Q 208.7 20.3 210 17.5 L 198 14.5 L 198.5 13 L 195.5 15 Q 192.8 18.7 187 18 Q 185.9 15.3 188.5 16 L 195 13.5 L 188.5 11 L 184.5 12 L 184.5 10 L 181 11.5 L 183 12.5 L 179.5 14 L 178 13.5 L 176 16.5 L 174.5 16 L 170.5 18 L 171.5 16 L 174.5 14 L 176 14.5 Q 175.3 12.3 177.5 13 L 178.5 11 L 172.5 10 L 172.5 11 L 175 11.5 L 172.5 12 L 170.5 11 L 163.5 15 L 163 13 L 165 12.5 L 160.5 11 L 159 14 L 149.5 18 Q 145.3 16.3 148 14.5 Q 148.7 11.5 145 13 L 146 18 L 142.5 17 L 142 18.5 L 142.5 20 Q 139.2 18.9 140 21.5 L 138 21.5 L 133 29.5 L 133 31.5 Q 133.8 33.8 131.5 33 L 129 34.5 L 133 25.5 L 130.5 27 Q 128.3 26.3 129 28.5 Q 126.5 33.3 124 31.5 Q 125.5 35.9 122.5 35 Q 124.1 36.8 121 38.5 L 122 41.5 L 120.5 44 L 119 40.5 L 120 38.5 L 118.5 39 Q 115.9 38.2 117 41.5 L 113 45.5 L 111 54 Q 114 53 113 56 Q 109.3 54.5 110 57.5 L 109 57.5 L 111 49.5 L 110 49.5 L 104 60.5 L 104 63.5 L 106 71.5 L 106 73.5 Q 106.7 76.1 104 75 L 103 68.5 L 104 64.5 L 103 64.5 L 100.5 73 L 99 72.5 L 100 75.5 L 100 77.5 L 99 80.5 L 103 85.5 L 99.5 86 L 99.5 85 L 101 84.5 L 98.5 84 L 97 84.5 Q 97.8 82.3 95.5 83 Q 94.3 80.8 93 83.5 L 95 84 L 93 88.5 L 93.5 90 L 92 89.5 L 93 93 L 0 92.5 L 88 91.5 L 0 91 L 0.5 89 L 87.5 89 L 90 88.5 L 90 87 L 88 86.5 L 88 80.5 L 91 79.5 Q 90.3 76.9 93 78 L 94.5 81 L 97 78.5 L 96 75.5 L 95 72.5 L 97 66.5 Q 94.5 65 96 59.5 L 96 57.5 L 96.5 53 L 97 56 L 100 54.5 L 100 53 L 104 53 L 104 49.5 L 105 46.5 L 104 44.5 L 104 32 Q 108.1 30.3 107 34.5 L 105 37.5 L 106.5 37 Q 108.8 37.8 108 35.5 L 110 32 Q 113.1 32.8 112.5 30 L 120 30 L 120 27.5 L 120 25.5 L 121.5 20 L 122 24 Q 124.7 25.1 124 22.5 L 128 24.5 L 127 20.5 L 129 17.5 L 128.5 16 L 131 16.5 L 131.5 18 L 134.5 16 L 137 17.5 L 139.5 12 Q 142.1 12.8 141 9.5 L 140.5 8 Q 144.3 6.8 143 10.5 L 139 16.5 L 140.5 17 L 143 16 L 144 8 L 148 8 L 148 9.5 L 149.5 9 L 156 8 L 157.5 4 Q 160.8 5.1 160 2.5 L 161 0 Z M 161 2 L 161 8 Q 163 11 164 8 Q 166 0 161 2 Z M 157 8 L 157 10 L 159 9 L 157 8 Z M 201 9 L 201 10 L 203 10 L 201 9 Z M 166 10 L 166 11 L 168 11 L 166 10 Z M 195 10 L 195 11 L 199 11 L 195 10 Z M 146 11 L 146 12 L 148 12 L 146 11 Z M 154 12 L 155 14 L 157 13 L 154 12 Z M 201 12 L 203 14 L 206 14 L 201 12 Z M 208 13 Q 207 16 211 15 Q 212 12 208 13 Z M 219 17 L 219 18 L 221 18 L 219 17 Z M 124 25 L 124 27 L 126 26 L 124 25 Z M 122 27 L 121 30 L 122 30 L 122 27 Z M 116 32 L 114 35 L 116 34 L 116 32 Z M 119 32 Q 116 36 120 35 L 119 32 Z M 113 34 L 111 38 L 113 37 L 113 34 Z M 106 40 Q 103 45 107 44 L 106 40 Z M 109 40 L 108 43 L 109 43 L 109 40 Z M 113 40 L 114 42 L 116 41 L 113 40 Z M 108 45 L 107 48 L 108 48 L 108 45 Z M 108 49 L 107 51 L 106 53 L 108 52 L 108 49 Z M 253 50 L 254 52 Q 255 49 253 50 Z M 254 54 L 253 56 L 255 55 L 254 54 Z M 103 56 L 100 60 Q 102 63 103 60 L 103 56 Z M 97 61 Q 96 65 99 64 Q 100 60 97 61 Z M 255 69 L 257 72 L 257 71 L 255 69 Z M 260 77 L 260 80 L 261 80 Q 262 76 260 77 Z M 263 81 Q 261 84 264 83 L 263 81 Z M 89 84 Q 88 87 92 86 Q 93 83 89 84 Z M 271 86 L 269 90 L 271 90 L 271 86 Z M 267 88 Q 265 91 268 90 L 267 88 Z " /><path fill="rgb(112,209,246)" stroke="rgb(112,209,246)" stroke-width="1" opacity="1" d="M 172 0 L 179 1 Q 180.3 4 176.5 3 L 172 2 L 172 0 Z " /><path fill="rgb(112,209,246)" stroke="rgb(112,209,246)" stroke-width="1" opacity="1" d="M 181.5 0 L 184 0.5 L 181.5 1 L 181.5 0 Z " /><path fill="rgb(112,209,246)" stroke="rgb(112,209,246)" stroke-width="1" opacity="1" d="M 181 3 Q 185.1 1.7 184 5 Q 179.9 6.3 181 3 Z " /><path fill="rgb(112,209,246)" stroke="rgb(112,209,246)" stroke-width="1" opacity="1" d="M 168 5 Q 173.2 3.3 172 7 Q 166.8 8.7 168 5 Z " /><path fill="rgb(112,209,246)" stroke="rgb(112,209,246)" stroke-width="1" opacity="1" d="M 136 8 Q 139.8 6.5 139 9.5 L 136 11 L 136 8 Z " /><path fill="rgb(112,209,246)" stroke="rgb(112,209,246)" stroke-width="1" opacity="1" d="M 214.5 8 L 217 8.5 L 214.5 9 L 214.5 8 Z " /><path fill="rgb(112,209,246)" stroke="rgb(112,209,246)" stroke-width="1" opacity="1" d="M 214 10 Q 217 9 216 12 Q 213 13 214 10 Z " /><path fill="rgb(112,209,246)" stroke="rgb(112,209,246)" stroke-width="1" opacity="1" d="M 160.5 15 Q 163.3 16.3 161 17.5 L 159.5 20 L 157 19.5 L 160 17.5 Q 157.8 16.3 160.5 15 Z " /><path fill="rgb(112,209,246)" stroke="rgb(112,209,246)" stroke-width="1" opacity="1" d="M 123.5 16 L 124 19.5 L 122 18.5 L 123.5 16 Z " /><path fill="rgb(112,209,246)" stroke="rgb(112,209,246)" stroke-width="1" opacity="1" d="M 126.5 16 L 127 18.5 L 126 18.5 L 126.5 16 Z " /><path fill="rgb(112,209,246)" stroke="rgb(112,209,246)" stroke-width="1" opacity="1" d="M 146.5 19 L 149 19.5 L 145 22.5 L 147 23.5 L 142.5 26 L 143 24.5 L 146.5 19 Z " /><path fill="rgb(112,209,246)" stroke="rgb(112,209,246)" stroke-width="1" opacity="1" d="M 242 34 Q 244.7 32.9 244 35.5 L 242 36.5 L 242 34 Z " /><path fill="rgb(112,209,246)" stroke="rgb(112,209,246)" stroke-width="1" opacity="1" d="M 252.5 40 Q 255.1 39.2 254 42.5 L 253 42.5 L 252.5 40 Z " /><path fill="rgb(112,209,246)" stroke="rgb(112,209,246)" stroke-width="1" opacity="1" d="M 119.5 45 L 118.5 47 L 119.5 45 Z " /><path fill="rgb(112,209,246)" stroke="rgb(112,209,246)" stroke-width="1" opacity="1" d="M 266 74 Q 268.7 72.9 268 75.5 L 266 76.5 L 266 74 Z " /><path fill="rgb(112,209,246)" stroke="rgb(112,209,246)" stroke-width="1" opacity="1" d="M 271.5 74 L 272 76.5 L 271 76.5 L 271.5 74 Z " /><path fill="rgb(112,209,246)" stroke="rgb(112,209,246)" stroke-width="1" opacity="1" d="M 251.5 76 L 257.5 84 L 259 84.5 Q 253.9 83.9 252.5 87 L 252 84.5 L 253 81.5 Q 250 79.7 251.5 76 Z " /><path fill="rgb(113,209,247)" stroke="rgb(113,209,247)" stroke-width="1" opacity="1" d="M 0 0 L 160.5 0 Q 159.8 3 164 2 Q 162.9 -1.3 167 0 L 167.5 2 Q 168.6 -0.8 172 0 Q 170.7 3.3 175.5 2 L 179 3 Q 180.3 -0.7 174.5 1 L 174.5 0 L 183.5 1 L 184.5 0 L 359 0 L 359 89 L 272 89 L 271 82.5 L 272 80 L 268 78 Q 269.1 81.3 265 80 L 264 76 L 262 75.5 Q 266 73.5 262 71.5 L 262.5 70 L 263.5 72 L 264 66.5 L 263 64 L 259 64.5 L 261 69 L 258 67.5 Q 259.3 62.7 256 64 L 254.5 67 L 255 65.5 L 256 62 Q 252.3 63.5 253 60.5 Q 250.7 59.3 253.5 58 L 256 59.5 L 255 57.5 Q 257.3 56.3 254.5 55 L 252.5 56 L 253.5 54 L 255.5 55 L 256 46.5 L 255 46.5 Q 255.8 49.1 252.5 48 L 251 48.5 L 251 46.5 Q 251.7 43.5 248 45 L 247.5 47 L 247 45.5 L 247 43.5 L 249 40.5 L 247.5 32 Q 248.3 38.3 244.5 40 Q 241.2 41.1 242 38.5 L 239 36.5 L 239.5 35 L 238 34.5 L 240 34 L 240 30 L 238.5 30 L 235.5 28 L 232 30 Q 233.5 26.2 230.5 27 L 230.5 26 L 239.5 26 L 240 24 L 231.5 24 L 230.5 25 Q 229.2 22.7 224.5 24 L 223 22.5 L 223 20.5 L 224 17.5 L 220.5 12 Q 218.3 11.3 219 13.5 L 218 16 L 214 16.5 L 214.5 18 L 211 16.5 L 216 15 Q 217.3 11.7 212.5 13 L 206 11.5 L 208 10.5 L 206 9.5 L 206.5 8 L 200 8.5 L 203 9.5 L 200.5 10 L 191 8 Q 192.3 11 188.5 10 Q 186.7 6.8 181.5 7 L 177 8.5 L 179 9.5 L 170.5 12 L 170.5 11 L 176 9.5 L 175.5 7 L 167 8 L 167 2 L 164 2 L 163 8.5 L 164 10.5 L 163 10.5 Q 160 8 160.5 2 L 160 4 L 156 5.5 Q 157.3 9.7 152.5 8 L 149 9.5 L 149.5 11 L 148 8 Q 142 5.8 144 12.5 L 143 16 L 139.5 17 L 140 15.5 L 141 12 L 138 13.5 L 137 17.5 L 139 19.5 L 138.5 22 Q 135.8 20.8 138 19.5 L 134.5 16 L 133 16.5 L 133.5 18 L 131 17.5 L 130.5 16 Q 127.3 17.8 127 22.5 L 128 24.5 L 124 22.5 Q 124.8 24.8 122.5 24 L 120 24.5 L 122 29.5 L 121 29.5 L 120.5 27 L 120 30 L 112 30 L 112 32 Q 109.3 30.9 110 33.5 L 108 37 L 105.5 38 L 105 36.5 Q 107.7 35.4 107 32 L 104 32.5 L 104 44.5 L 105 46.5 L 104 49.5 L 104 53 L 100 53 L 100 54.5 L 97 56 L 96.5 53 L 96 57.5 L 96 59.5 Q 95 66.5 98 69.5 L 97 69.5 L 96.5 68 L 95 73.5 L 97 76.5 L 97 78.5 L 94.5 81 L 92 80.5 L 93 78 Q 90.3 76.9 91 79.5 L 89.5 83 L 88.5 80 L 88 87 Q 90.7 85.9 90 88.5 L 87.5 89 L 0 89 L 0 0 Z M 168 2 Q 167 5 170 4 Q 171 1 168 2 Z M 181 3 Q 180 6 184 5 Q 185 2 181 3 Z M 174 4 L 174 5 L 176 5 L 174 4 Z M 168 5 Q 167 9 172 7 Q 173 3 168 5 Z M 176 5 Q 175 8 179 7 Q 180 4 176 5 Z M 136 8 L 136 11 L 139 10 Q 140 6 136 8 Z M 141 8 L 141 12 L 143 11 Q 144 7 141 8 Z M 208 8 L 208 10 L 211 10 L 208 8 Z M 215 8 L 215 9 L 217 9 L 215 8 Z M 214 10 Q 213 13 216 12 Q 217 9 214 10 Z M 124 16 L 122 19 L 124 20 L 124 16 Z M 127 16 L 126 19 L 127 19 L 127 16 Z M 122 20 L 121 24 L 122 24 L 122 20 Z M 242 34 L 242 37 L 244 36 Q 245 33 242 34 Z M 253 40 L 253 43 L 254 43 Q 255 39 253 40 Z M 266 74 L 266 77 L 268 76 Q 269 73 266 74 Z M 272 74 L 271 77 L 272 77 L 272 74 Z " /><path fill="rgb(113,209,247)" stroke="rgb(113,209,247)" stroke-width="1" opacity="1" d="M 157 8 L 159 8.5 L 157.5 12 L 157 9.5 L 157 8 Z " /><path fill="rgb(113,209,247)" stroke="rgb(113,209,247)" stroke-width="1" opacity="1" d="M 155.5 9 L 154.5 11 L 155.5 9 Z " /><path fill="rgb(113,209,247)" stroke="rgb(113,209,247)" stroke-width="1" opacity="1" d="M 181.5 9 L 181.5 11 L 184.5 10 L 183.5 12 L 180 10.5 L 181.5 9 Z " /><path fill="rgb(113,209,247)" stroke="rgb(113,209,247)" stroke-width="1" opacity="1" d="M 165.5 10 L 168 10.5 L 165.5 11 L 165.5 10 Z " /><path fill="rgb(113,209,247)" stroke="rgb(113,209,247)" stroke-width="1" opacity="1" d="M 194.5 10 L 199 10.5 L 194.5 11 L 194.5 10 Z " /><path fill="rgb(113,209,247)" stroke="rgb(113,209,247)" stroke-width="1" opacity="1" d="M 145.5 11 L 148 11.5 L 145.5 12 L 145.5 11 Z " /><path fill="rgb(113,209,247)" stroke="rgb(113,209,247)" stroke-width="1" opacity="1" d="M 160.5 11 L 161 13 L 159 12.5 L 160.5 11 Z " /><path fill="rgb(113,209,247)" stroke="rgb(113,209,247)" stroke-width="1" opacity="1" d="M 154 12 L 156 12.5 L 154 13.5 L 154 12 Z " /><path fill="rgb(113,209,247)" stroke="rgb(113,209,247)" stroke-width="1" opacity="1" d="M 163.5 12 L 165 12.5 L 163 13 Q 164.5 16.8 161.5 16 L 162 14.5 L 163.5 12 Z " /><path fill="rgb(113,209,247)" stroke="rgb(113,209,247)" stroke-width="1" opacity="1" d="M 200.5 12 L 206 13.5 L 202.5 14 L 200.5 12 Z " /><path fill="rgb(113,209,247)" stroke="rgb(113,209,247)" stroke-width="1" opacity="1" d="M 145 13 Q 148.8 11.5 148 14.5 Q 145.5 16 149 17.5 Q 149.8 19.8 147.5 19 L 147.5 17 Q 145.3 17.8 146 15.5 L 145 13 Z " /><path fill="rgb(113,209,247)" stroke="rgb(113,209,247)" stroke-width="1" opacity="1" d="M 197 13 L 199 13.5 L 197 14.5 L 197 13 Z " /><path fill="rgb(113,209,247)" stroke="rgb(113,209,247)" stroke-width="1" opacity="1" d="M 208 13 Q 212.1 11.7 211 15 Q 206.9 16.3 208 13 Z " /><path fill="rgb(113,209,247)" stroke="rgb(113,209,247)" stroke-width="1" opacity="1" d="M 175.5 14 L 176.5 16 L 175.5 14 Z " /><path fill="rgb(113,209,247)" stroke="rgb(113,209,247)" stroke-width="1" opacity="1" d="M 142.5 17 L 143.5 19 Q 140.7 19.7 142.5 17 Z " /><path fill="rgb(113,209,247)" stroke="rgb(113,209,247)" stroke-width="1" opacity="1" d="M 158.5 17 L 160 17.5 L 156.5 20 L 158.5 17 Z " /><path fill="rgb(113,209,247)" stroke="rgb(113,209,247)" stroke-width="1" opacity="1" d="M 218.5 17 L 221 17.5 L 216.5 19 L 216.5 18 L 218.5 17 Z " /><path fill="rgb(113,209,247)" stroke="rgb(113,209,247)" stroke-width="1" opacity="1" d="M 209.5 19 L 208.5 21 L 209.5 19 Z " /><path fill="rgb(113,209,247)" stroke="rgb(113,209,247)" stroke-width="1" opacity="1" d="M 124 25 L 126 25.5 L 124 26.5 L 124 25 Z " /><path fill="rgb(113,209,247)" stroke="rgb(113,209,247)" stroke-width="1" opacity="1" d="M 229.5 28 L 230.5 30 L 229.5 28 Z " /><path fill="rgb(113,209,247)" stroke="rgb(113,209,247)" stroke-width="1" opacity="1" d="M 115.5 32 L 116 33.5 L 114 34.5 L 115.5 32 Z " /><path fill="rgb(113,209,247)" stroke="rgb(113,209,247)" stroke-width="1" opacity="1" d="M 118.5 32 L 120 35 Q 116.5 36.1 118.5 32 Z " /><path fill="rgb(113,209,247)" stroke="rgb(113,209,247)" stroke-width="1" opacity="1" d="M 112.5 34 L 113 36.5 L 111 37.5 L 112.5 34 Z " /><path fill="rgb(113,209,247)" stroke="rgb(113,209,247)" stroke-width="1" opacity="1" d="M 122.5 35 L 121.5 37 L 122.5 35 Z " /><path fill="rgb(113,209,247)" stroke="rgb(113,209,247)" stroke-width="1" opacity="1" d="M 114.5 36 L 115.5 38 L 114.5 36 Z " /><path fill="rgb(113,209,247)" stroke="rgb(113,209,247)" stroke-width="1" opacity="1" d="M 105.5 40 L 107 44 Q 103.2 45.2 105.5 40 Z " /><path fill="rgb(113,209,247)" stroke="rgb(113,209,247)" stroke-width="1" opacity="1" d="M 108.5 40 L 109 42.5 L 108 42.5 L 108.5 40 Z " /><path fill="rgb(113,209,247)" stroke="rgb(113,209,247)" stroke-width="1" opacity="1" d="M 112.5 40 L 116 40.5 L 113.5 42 L 112.5 40 Z " /><path fill="rgb(113,209,247)" stroke="rgb(113,209,247)" stroke-width="1" opacity="1" d="M 239.5 40 L 240.5 42 L 239.5 40 Z " /><path fill="rgb(113,209,247)" stroke="rgb(113,209,247)" stroke-width="1" opacity="1" d="M 244.5 41 L 246 43.5 Q 244.8 46.3 243.5 44 L 242 43.5 L 244.5 41 Z " /><path fill="rgb(113,209,247)" stroke="rgb(113,209,247)" stroke-width="1" opacity="1" d="M 110.5 43 L 111.5 45 L 110.5 43 Z " /><path fill="rgb(113,209,247)" stroke="rgb(113,209,247)" stroke-width="1" opacity="1" d="M 107.5 45 L 108 47.5 L 107 47.5 L 107.5 45 Z " /><path fill="rgb(113,209,247)" stroke="rgb(113,209,247)" stroke-width="1" opacity="1" d="M 237.5 46 L 238.5 48 L 237.5 46 Z " /><path fill="rgb(113,209,247)" stroke="rgb(113,209,247)" stroke-width="1" opacity="1" d="M 109.5 48 L 112 53.5 L 110 54.5 L 111 52.5 L 109.5 48 Z " /><path fill="rgb(113,209,247)" stroke="rgb(113,209,247)" stroke-width="1" opacity="1" d="M 246.5 48 L 249 48.5 L 246.5 49 L 246.5 48 Z " /><path fill="rgb(113,209,247)" stroke="rgb(113,209,247)" stroke-width="1" opacity="1" d="M 107.5 49 L 108 51.5 L 105.5 53 L 105.5 50 L 107 50.5 L 107.5 49 Z " /><path fill="rgb(113,209,247)" stroke="rgb(113,209,247)" stroke-width="1" opacity="1" d="M 245.5 50 L 248.5 52 L 250 51.5 L 247.5 53 L 245.5 50 Z " /><path fill="rgb(113,209,247)" stroke="rgb(113,209,247)" stroke-width="1" opacity="1" d="M 252.5 50 Q 254.8 49.3 254 51.5 L 252.5 50 Z " /><path fill="rgb(113,209,247)" stroke="rgb(113,209,247)" stroke-width="1" opacity="1" d="M 104.5 54 L 105.5 56 L 104.5 54 Z " /><path fill="rgb(113,209,247)" stroke="rgb(113,209,247)" stroke-width="1" opacity="1" d="M 102.5 56 L 103 59.5 Q 101.5 62.5 100 59.5 L 102.5 56 Z " /><path fill="rgb(113,209,247)" stroke="rgb(113,209,247)" stroke-width="1" opacity="1" d="M 110 56 L 112 56.5 L 110.5 59 L 110 56 Z " /><path fill="rgb(113,209,247)" stroke="rgb(113,209,247)" stroke-width="1" opacity="1" d="M 97 61 Q 100.3 59.9 99 64 Q 95.7 65.1 97 61 Z " /><path fill="rgb(113,209,247)" stroke="rgb(113,209,247)" stroke-width="1" opacity="1" d="M 102.5 63 Q 104.8 63.8 104 67.5 L 103 67.5 L 102.5 63 Z " /><path fill="rgb(113,209,247)" stroke="rgb(113,209,247)" stroke-width="1" opacity="1" d="M 250.5 63 L 250 64.5 Q 250.8 66.8 248.5 66 L 250.5 63 Z " /><path fill="rgb(113,209,247)" stroke="rgb(113,209,247)" stroke-width="1" opacity="1" d="M 254.5 69 L 257 70.5 L 256.5 72 L 254.5 69 Z " /><path fill="rgb(113,209,247)" stroke="rgb(113,209,247)" stroke-width="1" opacity="1" d="M 258.5 72 L 259.5 74 L 261 73.5 Q 259.5 76.5 258 73.5 L 258.5 72 Z " /><path fill="rgb(113,209,247)" stroke="rgb(113,209,247)" stroke-width="1" opacity="1" d="M 259.5 77 Q 262.1 76.2 261 79.5 L 260 79.5 L 259.5 77 Z " /><path fill="rgb(113,209,247)" stroke="rgb(113,209,247)" stroke-width="1" opacity="1" d="M 98.5 78 L 100 80.5 L 97 80.5 L 98.5 78 Z " /><path fill="rgb(113,209,247)" stroke="rgb(113,209,247)" stroke-width="1" opacity="1" d="M 262.5 81 L 263.5 83 Q 260.7 83.7 262.5 81 Z " /><path fill="rgb(113,209,247)" stroke="rgb(113,209,247)" stroke-width="1" opacity="1" d="M 94.5 82 L 96.5 83 L 98.5 82 L 98.5 83 Q 96.3 82.3 97 84.5 L 95.5 84 L 93 83.5 L 94.5 82 Z " /><path fill="rgb(113,209,247)" stroke="rgb(113,209,247)" stroke-width="1" opacity="1" d="M 258.5 83 L 261 83.5 L 258.5 84 L 258.5 83 Z " /><path fill="rgb(113,209,247)" stroke="rgb(113,209,247)" stroke-width="1" opacity="1" d="M 89 84 Q 93.1 82.7 92 86 Q 87.9 87.3 89 84 Z " /><path fill="rgb(113,209,247)" stroke="rgb(113,209,247)" stroke-width="1" opacity="1" d="M 98.5 84 L 101 84.5 L 98.5 85 L 98.5 84 Z " /><path fill="rgb(113,209,247)" stroke="rgb(113,209,247)" stroke-width="1" opacity="1" d="M 270.5 86 L 271 90 L 269 89.5 L 270.5 86 Z " /><path fill="rgb(113,209,247)" stroke="rgb(113,209,247)" stroke-width="1" opacity="1" d="M 93.5 88 L 92.5 90 L 93.5 88 Z " /><path fill="rgb(113,209,247)" stroke="rgb(113,209,247)" stroke-width="1" opacity="1" d="M 266.5 88 L 267.5 90 Q 264.7 90.7 266.5 88 Z " /><path fill="rgb(113,209,247)" stroke="rgb(113,209,247)" stroke-width="1" opacity="1" d="M 90.5 90 L 91.5 92 L 89 91.5 L 90.5 90 Z " /><path fill="rgb(113,209,247)" stroke="rgb(113,209,247)" stroke-width="1" opacity="1" d="M 0.5 91 L 88 91.5 L 0.5 92 L 0.5 91 Z " /><path fill="rgb(113,209,247)" stroke="rgb(113,209,247)" stroke-width="1" opacity="1" d="M 271.5 91 L 359 91.5 L 271.5 92 L 271.5 91 Z " /><path fill="rgb(173,69,38)" stroke="rgb(173,69,38)" stroke-width="1" opacity="1" d="M 257 85 Q 262.4 83.5 264 86.5 L 263 88.5 L 264 91.5 L 263 91.5 Q 264.4 86.9 258.5 89 Q 253.6 91.2 253 97.5 L 254.5 100 L 250.5 98 L 245 104.5 L 247 107.5 L 244.5 106 L 241 106.5 Q 244.5 107 244 111.5 L 242 110.5 L 239.5 107 L 228 106.5 L 233.5 106 L 247 93.5 L 245.5 93 L 244 93.5 L 246.5 92 Q 248.3 94.8 250 90.5 L 253.5 86 L 251 89.5 L 249 93.5 L 250.5 96 Q 249 92.5 247.5 95 L 245 96.5 L 242 100.5 L 244.5 103 L 250.5 97 Q 253.1 97.8 252 94.5 L 257 85 Z M 259 86 L 257 89 L 263 87 L 259 86 Z M 239 102 L 236 106 Q 242 107 244 104 L 239 102 Z " /><path fill="rgb(173,69,38)" stroke="rgb(173,69,38)" stroke-width="1" opacity="1" d="M 99.5 86 Q 101.8 85.3 101 87.5 L 106.5 96 L 108 92.5 L 103.5 87 L 102 86.5 L 103.5 86 L 108 92 Q 112.7 91 114 94.5 L 111.5 93 L 110 93.5 L 112.5 97 L 108.5 95 L 107 97.5 L 117.5 107 L 121 106 L 119.5 103 L 116.5 102 L 116.5 104 L 114 102.5 L 115 100.5 L 114 98.5 L 117.5 101 L 123.5 106 L 129.5 107 L 132 105.5 L 131.5 104 L 137 105.5 L 132 106.5 Q 135.3 110.3 143.5 109 L 143.5 108 L 142 107.5 L 157.5 107 L 157.5 108 L 147.5 108 Q 144.6 111.6 136.5 110 Q 133.2 106.8 125.5 108 L 122.5 106 L 120 107.5 L 122 108.5 L 120.5 109 L 117.5 108 L 114 110.5 L 116 107.5 Q 114.8 104.8 113.5 107 L 112 106.5 L 112 104.5 L 107.5 99 L 103.5 100 L 105 97.5 L 99.5 90 Q 94.1 91.9 95 88.5 L 94.5 87 L 100.5 89 L 99.5 86 Z " /><path fill="rgb(173,69,38)" stroke="rgb(173,69,38)" stroke-width="1" opacity="1" d="M 94.5 92 L 96 94.5 L 94 93.5 L 94.5 92 Z " /><path fill="rgb(173,69,38)" stroke="rgb(173,69,38)" stroke-width="1" opacity="1" d="M 262.5 93 L 262 94.5 L 257.5 103 L 258 101.5 L 262.5 93 Z " /><path fill="rgb(173,69,38)" stroke="rgb(173,69,38)" stroke-width="1" opacity="1" d="M 96.5 96 Q 99.6 103.9 106 108.5 L 99 102.5 L 96.5 96 Z " /><path fill="rgb(173,69,38)" stroke="rgb(173,69,38)" stroke-width="1" opacity="1" d="M 116.5 97 L 119 97.5 L 116.5 98 L 116.5 97 Z " /><path fill="rgb(173,69,38)" stroke="rgb(173,69,38)" stroke-width="1" opacity="1" d="M 120.5 98 L 121.5 100 L 120.5 98 Z " /><path fill="rgb(173,69,38)" stroke="rgb(173,69,38)" stroke-width="1" opacity="1" d="M 236.5 98 L 235.5 100 L 236.5 98 Z " /><path fill="rgb(173,69,38)" stroke="rgb(173,69,38)" stroke-width="1" opacity="1" d="M 230.5 101 L 232 101.5 L 226 104.5 L 227 108 L 214.5 110 Q 210.3 105.7 200.5 107 L 190 112.5 Q 187.2 114.2 188 119.5 L 183.5 127 L 184 125.5 L 187 119.5 L 187 115.5 L 191.5 110 L 199.5 106 L 209.5 106 L 218.5 109 L 226 106.5 L 225 104.5 L 230.5 101 Z " /><path fill="rgb(173,69,38)" stroke="rgb(173,69,38)" stroke-width="1" opacity="1" d="M 255.5 104 L 255 105.5 Q 255.8 107.8 253.5 107 L 252 107.5 L 255.5 104 Z " /><path fill="rgb(173,69,38)" stroke="rgb(173,69,38)" stroke-width="1" opacity="1" d="M 163.5 108 L 162.5 110 L 163.5 108 Z " /><path fill="rgb(173,69,38)" stroke="rgb(173,69,38)" stroke-width="1" opacity="1" d="M 123.5 109 L 124 113.5 L 123 113.5 L 123.5 109 Z " /><path fill="rgb(173,69,38)" stroke="rgb(173,69,38)" stroke-width="1" opacity="1" d="M 234.5 109 L 236 115.5 L 235 115.5 L 234.5 109 Z " /><path fill="rgb(173,69,38)" stroke="rgb(173,69,38)" stroke-width="1" opacity="1" d="M 164.5 110 L 169 113.5 L 170 116.5 L 169 116.5 L 166.5 112 L 164.5 110 Z " /><path fill="rgb(173,69,38)" stroke="rgb(173,69,38)" stroke-width="1" opacity="1" d="M 107.5 112 L 108.5 114 L 107.5 112 Z " /><path fill="rgb(173,69,38)" stroke="rgb(173,69,38)" stroke-width="1" opacity="1" d="M 113.5 112 Q 115.8 111.3 115 113.5 Q 116.3 117.8 121 117 Q 122.1 119.7 119.5 119 L 117 118 L 116.5 116 Q 115.3 118.3 114 115.5 L 115 114.5 L 113.5 112 Z " /><path fill="rgb(173,69,38)" stroke="rgb(173,69,38)" stroke-width="1" opacity="1" d="M 129.5 112 L 129 113.5 L 128.5 117 L 128 113.5 L 129.5 112 Z " /><path fill="rgb(173,69,38)" stroke="rgb(173,69,38)" stroke-width="1" opacity="1" d="M 228.5 112 Q 231.5 113.6 230 119 L 234 118 Q 235.3 121 231.5 120 L 216.5 123 L 210.5 126 L 210.5 125 L 215.5 122 L 224.5 121 L 229 118.5 L 228.5 112 Z " /><path fill="rgb(173,69,38)" stroke="rgb(173,69,38)" stroke-width="1" opacity="1" d="M 223.5 113 L 226 117.5 L 224 116.5 L 223.5 113 Z " /><path fill="rgb(173,69,38)" stroke="rgb(173,69,38)" stroke-width="1" opacity="1" d="M 242.5 113 Q 244.8 112.3 244 114.5 L 241 115.5 Q 241.8 117.8 239.5 117 L 238 117.5 Q 237.3 115.3 239.5 116 L 242.5 113 Z " /><path fill="rgb(173,69,38)" stroke="rgb(173,69,38)" stroke-width="1" opacity="1" d="M 134.5 114 L 135 115.5 L 132 117.5 L 134.5 114 Z " /><path fill="rgb(173,69,38)" stroke="rgb(173,69,38)" stroke-width="1" opacity="1" d="M 246.5 115 L 245.5 117 L 243.5 118 L 244.5 116 L 246.5 115 Z " /><path fill="rgb(173,69,38)" stroke="rgb(173,69,38)" stroke-width="1" opacity="1" d="M 112.5 117 Q 114.8 116.3 114 118.5 L 119 122.5 L 117.5 122 L 112.5 117 Z " /><path fill="rgb(173,69,38)" stroke="rgb(173,69,38)" stroke-width="1" opacity="1" d="M 235.5 117 L 236.5 119 Q 233.7 119.7 235.5 117 Z " /><path fill="rgb(173,69,38)" stroke="rgb(173,69,38)" stroke-width="1" opacity="1" d="M 127.5 118 L 128.5 121 L 141 122 Q 142.1 124.7 139.5 124 L 125 121 L 125.5 119 L 127 119.5 L 127.5 118 Z " /><path fill="rgb(173,69,38)" stroke="rgb(173,69,38)" stroke-width="1" opacity="1" d="M 170.5 118 L 174 126.5 L 172 125.5 L 170.5 118 Z " /><path fill="rgb(173,69,38)" stroke="rgb(173,69,38)" stroke-width="1" opacity="1" d="M 242.5 119 L 240.5 122 L 239 121.5 L 242.5 119 Z " /><path fill="rgb(173,69,38)" stroke="rgb(173,69,38)" stroke-width="1" opacity="1" d="M 237.5 122 Q 240.8 123.8 237 125.5 L 235.5 128 L 236 126.5 L 235 124.5 L 237.5 122 Z " /><path fill="rgb(173,69,38)" stroke="rgb(173,69,38)" stroke-width="1" opacity="1" d="M 120.5 123 Q 124.8 124.7 122 126.5 L 121.5 128 L 120 125.5 L 120.5 123 Z " /><path fill="rgb(173,69,38)" stroke="rgb(173,69,38)" stroke-width="1" opacity="1" d="M 142.5 123 L 147 125.5 L 144.5 126 L 142 125 L 142.5 123 Z " /><path fill="rgb(173,69,38)" stroke="rgb(173,69,38)" stroke-width="1" opacity="1" d="M 174.5 128 Q 181.3 134.3 179 149.5 L 177.5 155 L 177 133.5 L 174.5 128 Z " /><path fill="rgb(173,69,38)" stroke="rgb(173,69,38)" stroke-width="1" opacity="1" d="M 223.5 129 L 227 129.5 L 221 131.5 L 221.5 133 L 211.5 134 L 205.5 137 L 206.5 135 L 209.5 133 L 218.5 132 L 223.5 129 Z " /><path fill="rgb(173,69,38)" stroke="rgb(173,69,38)" stroke-width="1" opacity="1" d="M 228.5 129 L 231.5 130 L 233.5 129 L 233.5 130 L 229.5 131 L 228.5 129 Z " /><path fill="rgb(173,69,38)" stroke="rgb(173,69,38)" stroke-width="1" opacity="1" d="M 125.5 130 L 127.5 131 L 130 130 Q 131.3 133 127.5 132 L 125.5 130 Z " /><path fill="rgb(173,69,38)" stroke="rgb(173,69,38)" stroke-width="1" opacity="1" d="M 131.5 130 L 135.5 130 Q 140.2 133.8 148.5 134 L 153 137.5 L 151.5 137 L 147.5 135 L 138.5 134 L 136.5 132 L 131.5 133 L 131.5 132 L 135 131.5 Q 130.6 131.9 131.5 130 Z " /><path fill="rgb(173,69,38)" stroke="rgb(173,69,38)" stroke-width="1" opacity="1" d="M 224.5 131 L 228 131.5 L 224.5 132 L 224.5 131 Z " /><path fill="rgb(173,69,38)" stroke="rgb(173,69,38)" stroke-width="1" opacity="1" d="M 180.5 132 L 180 133.5 L 179.5 135 L 179 133.5 L 180.5 132 Z " /><path fill="rgb(173,69,38)" stroke="rgb(173,69,38)" stroke-width="1" opacity="1" d="M 156.5 140 L 160 149.5 L 159 149.5 L 156.5 140 Z " /><path fill="rgb(173,69,38)" stroke="rgb(173,69,38)" stroke-width="1" opacity="1" d="M 200.5 141 L 201 142.5 L 199 143.5 L 200.5 141 Z " /><path fill="rgb(173,69,38)" stroke="rgb(173,69,38)" stroke-width="1" opacity="1" d="M 198 145 L 200 145.5 L 198.5 148 L 198 145 Z " /><path fill="rgb(173,69,38)" stroke="rgb(173,69,38)" stroke-width="1" opacity="1" d="M 197 150 L 199 150.5 L 197 151.5 L 197 150 Z " /><path fill="rgb(173,69,38)" stroke="rgb(173,69,38)" stroke-width="1" opacity="1" d="M 160.5 151 L 161 154.5 L 160 154.5 L 160.5 151 Z " /><path fill="rgb(252,35,19)" stroke="rgb(252,35,19)" stroke-width="1" opacity="1" d="M 165.5 26 L 172 26 L 172 34 L 183.5 34 L 186 32.5 L 185 26 L 195.5 27 L 200 29.5 L 198 36.5 L 208.5 42 L 213.5 35 L 225 44.5 L 221.5 49 Q 218.9 48.2 220 51.5 L 227.5 60 L 232.5 56 L 235 56 L 241 69.5 L 233 72 Q 235.6 75.2 235 82.5 L 236.5 84 L 244 83 L 245 91.5 L 239.5 96 L 224.5 104 L 219.5 104 L 213.5 106 L 206 104 L 205.5 102 L 203.5 102 Q 191 98.5 183 90.5 L 178 76.5 L 180 76.5 Q 179.3 74.3 181.5 75 L 184 74 L 185 70 Q 181.2 69 180 71.5 L 180.5 73 L 178 72 L 177.5 74 L 177 72.5 L 192 60.5 L 191.5 58 L 185 63 Q 185 57.2 181.5 54 L 181 56.5 L 183 63.5 L 178.5 67 L 176 66 L 173.5 61 Q 170.8 62.2 173 63.5 L 176 70.5 L 173.5 72 L 172.5 71 L 163.5 71 L 162.5 72 L 149 72 Q 148.9 76.9 152.5 79 L 164 83 Q 166.3 88.5 165 99.5 L 164 100.5 L 164 108 L 157.5 106 L 147.5 106 L 143.5 107 L 125.5 101 L 115.5 95 L 111 90.5 L 112 89.5 L 112 83 Q 117.3 82 119.5 85 Q 121.9 82.7 121 78 L 123 77.5 L 122 75.5 L 123 72 L 116 70 L 116 66.5 L 122.5 56 L 130 60 L 136 51.5 L 136 49.5 L 131 46 L 135.5 40 L 139.5 37 L 141 37.5 L 142.5 35 L 147 42 L 158 38 L 156 29.5 L 165.5 26 Z " /><path fill="rgb(252,35,19)" stroke="rgb(252,35,19)" stroke-width="1" opacity="1" d="M 169.5 75 L 170.5 77 L 169.5 75 Z " /><path fill="rgb(243,183,127)" stroke="rgb(243,183,127)" stroke-width="1" opacity="1" d="M 184.5 12 L 190 12.5 L 184.5 13 L 184.5 12 Z " /><path fill="rgb(243,183,127)" stroke="rgb(243,183,127)" stroke-width="1" opacity="1" d="M 196.5 15 L 201 15.5 L 196.5 16 L 196.5 15 Z " /><path fill="rgb(243,183,127)" stroke="rgb(243,183,127)" stroke-width="1" opacity="1" d="M 185.5 16 L 184.5 18 L 185.5 16 Z " /><path fill="rgb(243,183,127)" stroke="rgb(243,183,127)" stroke-width="1" opacity="1" d="M 145.5 18 L 146 19.5 Q 144.5 22.5 143 19.5 L 145 19.5 L 145.5 18 Z " /><path fill="rgb(243,183,127)" stroke="rgb(243,183,127)" stroke-width="1" opacity="1" d="M 156.5 18 L 154.5 21 L 156.5 18 Z " /><path fill="rgb(243,183,127)" stroke="rgb(243,183,127)" stroke-width="1" opacity="1" d="M 161.5 18 L 160.5 20 L 161.5 18 Z " /><path fill="rgb(243,183,127)" stroke="rgb(243,183,127)" stroke-width="1" opacity="1" d="M 199 19 L 201 19.5 L 199 20.5 L 199 19 Z " /><path fill="rgb(243,183,127)" stroke="rgb(243,183,127)" stroke-width="1" opacity="1" d="M 221.5 24 L 222.5 26 L 220 25.5 L 221.5 24 Z " /><path fill="rgb(243,183,127)" stroke="rgb(243,183,127)" stroke-width="1" opacity="1" d="M 213 25 L 215 25.5 L 213 26.5 L 213 25 Z " /><path fill="rgb(243,183,127)" stroke="rgb(243,183,127)" stroke-width="1" opacity="1" d="M 131.5 26 L 130.5 30 L 128 29.5 L 131.5 26 Z " /><path fill="rgb(243,183,127)" stroke="rgb(243,183,127)" stroke-width="1" opacity="1" d="M 126.5 31 L 125.5 33 L 126.5 31 Z " /><path fill="rgb(243,183,127)" stroke="rgb(243,183,127)" stroke-width="1" opacity="1" d="M 230.5 31 L 231.5 33 L 230.5 31 Z " /><path fill="rgb(243,183,127)" stroke="rgb(243,183,127)" stroke-width="1" opacity="1" d="M 133.5 32 L 132.5 34 L 133.5 32 Z " /><path fill="rgb(243,183,127)" stroke="rgb(243,183,127)" stroke-width="1" opacity="1" d="M 228.5 34 L 232 34.5 L 228.5 35 L 228.5 34 Z " /><path fill="rgb(243,183,127)" stroke="rgb(243,183,127)" stroke-width="1" opacity="1" d="M 228.5 37 L 229.5 39 L 228.5 37 Z " /><path fill="rgb(243,183,127)" stroke="rgb(243,183,127)" stroke-width="1" opacity="1" d="M 232.5 39 L 235 39.5 L 232.5 40 L 232.5 39 Z " /><path fill="rgb(243,183,127)" stroke="rgb(243,183,127)" stroke-width="1" opacity="1" d="M 119.5 46 L 118.5 48 L 119.5 46 Z " /><path fill="rgb(243,183,127)" stroke="rgb(243,183,127)" stroke-width="1" opacity="1" d="M 239.5 50 L 240.5 52 L 239.5 50 Z " /><path fill="rgb(243,183,127)" stroke="rgb(243,183,127)" stroke-width="1" opacity="1" d="M 181.5 54 Q 184.5 55.5 181.5 57 L 181.5 54 Z " /><path fill="rgb(243,183,127)" stroke="rgb(243,183,127)" stroke-width="1" opacity="1" d="M 183.5 57 L 184 58.5 L 182.5 61 L 182 58.5 L 183.5 57 Z " /><path fill="rgb(243,183,127)" stroke="rgb(243,183,127)" stroke-width="1" opacity="1" d="M 190.5 59 L 192 60.5 L 188.5 64 L 187 62.5 L 190.5 59 Z " /><path fill="rgb(243,183,127)" stroke="rgb(243,183,127)" stroke-width="1" opacity="1" d="M 109.5 60 L 110.5 62 Q 107.7 62.7 109.5 60 Z " /><path fill="rgb(243,183,127)" stroke="rgb(243,183,127)" stroke-width="1" opacity="1" d="M 184.5 60 L 187 64.5 L 185 65.5 L 185.5 64 Q 182 64.8 184.5 60 Z " /><path fill="rgb(243,183,127)" stroke="rgb(243,183,127)" stroke-width="1" opacity="1" d="M 251.5 61 L 251.5 63 Q 253.8 62.3 253 64.5 L 250 62.5 L 251.5 61 Z " /><path fill="rgb(243,183,127)" stroke="rgb(243,183,127)" stroke-width="1" opacity="1" d="M 172.5 62 L 175 63.5 L 174.5 66 L 173.5 63 L 172.5 62 Z " /><path fill="rgb(243,183,127)" stroke="rgb(243,183,127)" stroke-width="1" opacity="1" d="M 182.5 64 L 180.5 67 L 182.5 64 Z " /><path fill="rgb(243,183,127)" stroke="rgb(243,183,127)" stroke-width="1" opacity="1" d="M 183.5 66 L 181.5 69 L 183.5 66 Z " /><path fill="rgb(243,183,127)" stroke="rgb(243,183,127)" stroke-width="1" opacity="1" d="M 179.5 69 L 177.5 72 L 179.5 69 Z " /><path fill="rgb(243,183,127)" stroke="rgb(243,183,127)" stroke-width="1" opacity="1" d="M 181.5 70 Q 186.3 68.7 185 72 L 183 72.5 L 183.5 74 L 180.5 72 L 181.5 75 L 179 74 L 181.5 70 Z " /><path fill="rgb(243,183,127)" stroke="rgb(243,183,127)" stroke-width="1" opacity="1" d="M 163.5 71 L 173 71.5 L 163.5 72 L 163.5 71 Z " /><path fill="rgb(243,183,127)" stroke="rgb(243,183,127)" stroke-width="1" opacity="1" d="M 149 72 L 152 72.5 L 150 73 L 152.5 78 L 154 78.5 L 152.5 79 Q 148.9 76.9 149 72 Z " /><path fill="rgb(243,183,127)" stroke="rgb(243,183,127)" stroke-width="1" opacity="1" d="M 100.5 75 L 101 79.5 L 100 79.5 L 100.5 75 Z " /><path fill="rgb(243,183,127)" stroke="rgb(243,183,127)" stroke-width="1" opacity="1" d="M 168.5 75 L 169 77 L 171 77.5 L 169.5 78 L 168.5 75 Z " /><path fill="rgb(243,183,127)" stroke="rgb(243,183,127)" stroke-width="1" opacity="1" d="M 252.5 76 L 254.5 79 L 252.5 76 Z " /><path fill="rgb(243,183,127)" stroke="rgb(243,183,127)" stroke-width="1" opacity="1" d="M 256.5 79 L 257 81.5 L 255 80.5 L 256.5 79 Z " /><path fill="rgb(243,183,127)" stroke="rgb(243,183,127)" stroke-width="1" opacity="1" d="M 251.5 80 L 252 82.5 L 251 82.5 L 251.5 80 Z " /><path fill="rgb(243,183,127)" stroke="rgb(243,183,127)" stroke-width="1" opacity="1" d="M 160.5 81 L 164 82.5 L 162.5 83 L 160.5 81 Z " /><path fill="rgb(243,183,127)" stroke="rgb(243,183,127)" stroke-width="1" opacity="1" d="M 256.5 85 L 257.5 87 L 262.5 86 L 261.5 88 L 258 88.5 L 263 89 L 263 92.5 L 258 101.5 L 248.5 113 L 243 117.5 L 241.5 120 L 235 124.5 L 236 126.5 L 231.5 130 L 221.5 132 L 221.5 131 L 223 130.5 L 220.5 130 L 218.5 132 L 209.5 133 L 201 139.5 L 198 145.5 L 197 155 L 179 155 L 179 135.5 L 178.5 134 L 180 134.5 L 179 132.5 L 182 130.5 L 181.5 129 L 183 128.5 L 182.5 127 L 185 125.5 L 187 120.5 L 186 118.5 L 187 118.5 L 187.5 120 L 189 114.5 L 188.5 113 L 190 113.5 L 191.5 111 L 193 110.5 L 192.5 109 L 194.5 110 L 194.5 108 L 196.5 109 Q 200.2 105.7 208.5 107 L 214.5 110 L 218.5 110 L 217.5 108 L 213 108 Q 214.1 105.3 211.5 106 L 210 106.5 L 212.5 105 L 216.5 107 L 224.5 105 L 225.5 107 L 219 108.5 L 222.5 109 Q 228.3 105.3 239.5 107 L 243 112.5 L 239.5 116 L 230 119 L 229.5 113 Q 230.4 118.4 227.5 120 L 215.5 122 L 212 124.5 L 214.5 125 L 216.5 123 L 236.5 119 L 244 114.5 Q 245.3 107.3 240.5 106 Q 235.1 107.9 236 104.5 L 233.5 106 Q 227.5 107.5 226 104.5 L 239.5 97 L 241 97.5 L 243.5 94 L 247.5 92 L 246.5 95 L 250 92.5 L 254.5 86 L 256.5 85 Z M 256 88 L 250 98 L 253 98 Q 253 92 258 90 L 256 88 Z M 245 96 L 240 100 L 239 102 L 241 102 L 245 98 L 245 96 Z M 243 101 L 241 103 L 244 103 L 243 101 Z M 246 102 L 241 106 Q 245 105 247 108 L 247 107 Q 243 105 246 104 L 246 102 Z M 235 109 L 234 114 L 235 114 L 235 109 Z M 224 129 L 224 130 L 227 130 L 224 129 Z " /><path fill="rgb(243,183,127)" stroke="rgb(243,183,127)" stroke-width="1" opacity="1" d="M 95 86 Q 99.3 85 100.5 88 L 101.5 86 L 107 90.5 L 108 95 L 111.5 96 L 110.5 93 L 116 96.5 Q 115.1 99.5 119.5 98 L 132.5 106 L 137.5 106 L 144 108.5 L 136 109.5 L 144.5 110 L 147.5 108 L 158.5 108 L 163.5 110 Q 164.8 107.8 166 110.5 L 165.5 112 L 168 113.5 L 168.5 115 L 170 114.5 L 169 116.5 L 171 116.5 L 170 120.5 L 172 120.5 L 171 123.5 L 173.5 127 L 176 128.5 L 175 130.5 L 177 130.5 L 176 132.5 L 177 133.5 L 177 155 L 161.5 155 L 161 151.5 Q 159.6 142.9 154.5 138 L 148.5 134 Q 140.2 133.8 135.5 130 L 131.5 130 L 131.5 131 L 135 131.5 L 130 132 Q 131.1 129.3 128.5 130 L 126.5 130 Q 122.5 130.5 122 127.5 L 123 125.5 L 114 118.5 L 110.5 114 L 107 111.5 Q 105.5 105 100 102.5 L 94 90 Q 102.1 88.5 104 94.5 L 105 97.5 L 104.5 99 L 108 98.5 L 102.5 89 L 100.5 89 L 95 88 L 95 86 Z M 115 98 L 115 101 L 114 103 L 117 104 L 117 102 L 119 103 L 120 103 L 115 98 Z M 113 103 L 112 105 L 112 107 L 114 107 Q 117 105 113 103 Z M 122 104 L 121 106 L 115 109 L 116 110 L 121 107 L 133 108 L 132 106 L 130 107 L 124 106 L 122 104 Z M 134 108 L 134 109 L 136 109 L 134 108 Z M 124 109 L 123 114 L 124 114 L 124 109 Z M 115 110 L 113 113 L 114 116 L 120 119 L 129 122 L 139 123 L 145 126 L 147 126 L 141 122 L 129 121 L 128 118 L 127 120 L 119 117 Q 114 116 115 110 Z M 129 113 L 128 117 L 129 117 L 129 113 Z M 135 114 L 133 117 L 135 116 L 135 114 Z " /><path fill="rgb(243,183,127)" stroke="rgb(243,183,127)" stroke-width="1" opacity="1" d="M 165.5 86 L 166 93.5 L 165 93.5 L 165.5 86 Z " /><path fill="rgb(243,183,127)" stroke="rgb(243,183,127)" stroke-width="1" opacity="1" d="M 183.5 91 L 186.5 95 L 183.5 91 Z " /><path fill="rgb(243,183,127)" stroke="rgb(243,183,127)" stroke-width="1" opacity="1" d="M 190.5 96 L 201 101.5 L 199.5 102 L 191.5 98 L 190.5 96 Z " /><path fill="rgb(243,183,127)" stroke="rgb(243,183,127)" stroke-width="1" opacity="1" d="M 164.5 100 L 165 106.5 L 164 106.5 L 164.5 100 Z " /><path fill="rgb(246,239,7)" stroke="rgb(246,239,7)" stroke-width="1" opacity="1" d="M 171.5 12 L 176 12.5 L 169 17.5 L 175.5 18 Q 178.7 10.7 191.5 13 L 191.5 14 L 184 17.5 L 190.5 19 Q 193.9 13.9 204.5 16 L 207 17.5 L 199 19 Q 197.8 22 201.5 21 L 205.5 23 Q 207.5 20 213.5 21 L 221 24.5 L 215.5 26 L 213 25 Q 211.9 27.7 214.5 27 Q 217.4 30.6 225.5 29 L 234 34.5 L 232.5 35 Q 231 32.5 225.5 34 L 229.5 39 Q 240.3 39.3 244 46.5 L 245 48.5 L 243.5 48 L 237 46 L 240.5 52 Q 246.1 51.9 248 55.5 L 252 62.5 L 250.5 62 L 245.5 59 L 245 61.5 L 247 66 L 253 69.5 L 256 79.5 L 255 79.5 L 250.5 74 L 250 76.5 L 252 87.5 L 248.5 92 Q 242.8 93.8 245 87.5 L 244 83 L 236.5 84 L 235 82.5 Q 235.6 75.2 233 72 L 241 69.5 L 235 56 L 232.5 56 L 227.5 60 L 220 51.5 L 220 49 L 225 45.5 L 220.5 40 L 213.5 35 L 208.5 42 L 198 36.5 L 200 29.5 L 195.5 27 L 185 26 Q 186.8 32.1 183.5 34 L 172 34 L 172 26 L 165.5 26 L 156 29.5 L 158 38 L 147 42 L 142.5 35 L 131 44.5 Q 130.3 46.8 132.5 46 Q 136.5 46.5 136 51.5 L 130 60 L 122.5 56 L 116 66.5 L 116 70 L 123 72 L 121 82.5 L 119.5 84 L 112 83 L 112 89.5 L 111 90.5 L 111.5 92 Q 107.1 93.5 108 90.5 L 101 81.5 L 101 71.5 L 102.5 68 Q 102.2 74.8 105.5 78 L 107 69.5 Q 104 67.5 105 61.5 L 108.5 54 L 109 62 Q 111.7 63.1 111 60.5 Q 115 57 113 47.5 L 118.5 40 L 119 41.5 Q 116.7 42.8 118 47.5 L 120 46.5 Q 124.3 44.3 123 36.5 L 127 30 L 131.5 27 L 130 29.5 L 128 36.5 L 131.5 34 L 134 32.5 Q 133.9 24.4 139.5 22 L 144.5 19 L 144 20.5 L 141 27 L 147 25 L 151.5 17 L 160.5 13 L 154.5 21 Q 160 21.5 162 18.5 L 165.5 14 L 171.5 12 Z " /><path fill="rgb(5,174,131)" stroke="rgb(5,174,131)" stroke-width="1" opacity="1" d="M 259.5 84 L 262 84.5 L 259.5 85 L 259.5 84 Z " /><path fill="rgb(5,174,131)" stroke="rgb(5,174,131)" stroke-width="1" opacity="1" d="M 95.5 85 L 99 85.5 L 94.5 87 L 95.5 85 Z " /><path fill="rgb(5,174,131)" stroke="rgb(5,174,131)" stroke-width="1" opacity="1" d="M 94.5 88 L 95 89.5 L 93.5 93 L 93 90.5 L 94.5 88 Z " /><path fill="rgb(5,174,131)" stroke="rgb(5,174,131)" stroke-width="1" opacity="1" d="M 263.5 92 L 264 93.5 L 260.5 99 L 261 97.5 L 263.5 92 Z " /><path fill="rgb(5,174,131)" stroke="rgb(5,174,131)" stroke-width="1" opacity="1" d="M 94.5 94 L 98 99.5 L 96 98.5 L 94.5 94 Z " /><path fill="rgb(5,174,131)" stroke="rgb(5,174,131)" stroke-width="1" opacity="1" d="M 267.5 94 L 268.5 96 L 267.5 94 Z " /><path fill="rgb(5,174,131)" stroke="rgb(5,174,131)" stroke-width="1" opacity="1" d="M 258.5 102 L 255.5 106 L 258.5 102 Z " /><path fill="rgb(5,174,131)" stroke="rgb(5,174,131)" stroke-width="1" opacity="1" d="M 99.5 103 L 103.5 108 L 100 105.5 L 99.5 107 L 98 104.5 L 99.5 103 Z " /><path fill="rgb(5,174,131)" stroke="rgb(5,174,131)" stroke-width="1" opacity="1" d="M 252.5 110 L 248.5 115 L 252.5 110 Z " /><path fill="rgb(5,174,131)" stroke="rgb(5,174,131)" stroke-width="1" opacity="1" d="M 105.5 111 L 109.5 116 L 105.5 111 Z " /><path fill="rgb(5,174,131)" stroke="rgb(5,174,131)" stroke-width="1" opacity="1" d="M 252.5 113 L 251.5 115 L 252.5 113 Z " /><path fill="rgb(5,174,131)" stroke="rgb(5,174,131)" stroke-width="1" opacity="1" d="M 246.5 116 L 245.5 120 L 244.5 119 L 240.5 123 L 239 122.5 L 246.5 116 Z " /><path fill="rgb(5,174,131)" stroke="rgb(5,174,131)" stroke-width="1" opacity="1" d="M 249.5 116 L 248.5 118 L 249.5 116 Z " /><path fill="rgb(5,174,131)" stroke="rgb(5,174,131)" stroke-width="1" opacity="1" d="M 112.5 118 L 115.5 122 L 112.5 118 Z " /><path fill="rgb(5,174,131)" stroke="rgb(5,174,131)" stroke-width="1" opacity="1" d="M 117.5 122 L 123.5 130 L 131 132.5 L 127.5 133 L 125.5 132 L 124 132.5 L 124.5 131 Q 121.2 132.1 122 129.5 L 117.5 122 Z " /><path fill="rgb(5,174,131)" stroke="rgb(5,174,131)" stroke-width="1" opacity="1" d="M 238.5 124 L 237.5 126 L 238.5 124 Z " /><path fill="rgb(5,174,131)" stroke="rgb(5,174,131)" stroke-width="1" opacity="1" d="M 236.5 127 L 236 128.5 Q 236.8 130.8 234.5 130 L 227.5 133 L 217.5 134 L 217.5 133 L 231.5 131 L 236.5 127 Z " /><path fill="rgb(5,174,131)" stroke="rgb(5,174,131)" stroke-width="1" opacity="1" d="M 132.5 133 L 147.5 135 L 156 140.5 L 153.5 139 L 147.5 136 L 132.5 134 L 132.5 133 Z " /><path fill="rgb(5,174,131)" stroke="rgb(5,174,131)" stroke-width="1" opacity="1" d="M 211.5 134 L 216 134.5 L 208.5 136 L 202.5 140 L 204.5 137 L 211.5 134 Z " /><path fill="rgb(5,174,131)" stroke="rgb(5,174,131)" stroke-width="1" opacity="1" d="M 154.5 142 L 153.5 144 L 154.5 142 Z " /><path fill="rgb(5,174,131)" stroke="rgb(5,174,131)" stroke-width="1" opacity="1" d="M 156.5 142 L 158 146.5 L 157 146.5 L 156.5 142 Z " /><path fill="rgb(5,174,131)" stroke="rgb(5,174,131)" stroke-width="1" opacity="1" d="M 199.5 146 L 200 148.5 L 199 148.5 L 199.5 146 Z " /><path fill="rgb(5,174,131)" stroke="rgb(5,174,131)" stroke-width="1" opacity="1" d="M 158.5 148 L 159 150.5 L 158 150.5 L 158.5 148 Z " /><path fill="rgb(5,174,131)" stroke="rgb(5,174,131)" stroke-width="1" opacity="1" d="M 198.5 151 L 199 154.5 Q 197.3 158.7 195.5 156 L 183.5 156 L 181.5 158 L 181.5 156 Q 179.3 155.3 180 157.5 L 179 157.5 L 178.5 156 L 163.5 156 L 163.5 155 L 197.5 155 L 198.5 151 Z " /><path fill="rgb(5,174,131)" stroke="rgb(5,174,131)" stroke-width="1" opacity="1" d="M 159.5 152 L 161 155.5 L 159 156 L 159.5 152 Z " /><path fill="rgb(1,184,136)" stroke="rgb(1,184,136)" stroke-width="1" opacity="1" d="M 0 93 L 93.5 93 L 94 94.5 L 99 103.5 L 109.5 116 L 112 117.5 L 115.5 122 L 119 124.5 L 122 131 L 127.5 133 L 147.5 136 L 156 141.5 L 159 156 L 162.5 155 L 163.5 156 L 179 156 L 179.5 158 L 180 156 L 182.5 157 L 183.5 156 L 195.5 156 Q 197.3 158.7 199 154.5 Q 198.7 143.2 204.5 138 L 216.5 134 L 231.5 132 L 236 130 L 239 123 L 247 116.5 Q 246.3 114.3 248.5 115 L 259 102.5 L 264.5 93 L 359 93 L 359 187 L 0.5 187 L 0 186.5 L 0 93 Z " /></svg>