<?xml version="1.0" encoding="UTF-8" standalone="no"?>
<svg
   xmlns:dc="http://purl.org/dc/elements/1.1/"
   xmlns:cc="http://creativecommons.org/ns#"
   xmlns:rdf="http://www.w3.org/1999/02/22-rdf-syntax-ns#"
   xmlns:svg="http://www.w3.org/2000/svg"
   xmlns="http://www.w3.org/2000/svg"
   xmlns:sodipodi="http://sodipodi.sourceforge.net/DTD/sodipodi-0.dtd"
   xmlns:inkscape="http://www.inkscape.org/namespaces/inkscape"
   inkscape:version="1.0 (4035a4fb49, 2020-05-01)"
   sodipodi:docname="reconquista.svg"
   viewBox="0 0 512.00001 328.79685"
   height="328.79684"
   width="512"
   id="svg10"
   version="1.1">
  <metadata
     id="metadata16">
    <rdf:RDF>
      <cc:Work
         rdf:about="">
        <dc:format>image/svg+xml</dc:format>
        <dc:type
           rdf:resource="http://purl.org/dc/dcmitype/StillImage" />
        <dc:title></dc:title>
      </cc:Work>
    </rdf:RDF>
  </metadata>
  <defs
     id="defs14" />
  <sodipodi:namedview
     inkscape:current-layer="g48"
     inkscape:window-maximized="1"
     inkscape:window-y="-8"
     inkscape:window-x="-8"
     inkscape:cy="147.09111"
     inkscape:cx="419.49979"
     inkscape:zoom="1.1799396"
     showgrid="false"
     id="namedview12"
     inkscape:window-height="705"
     inkscape:window-width="1366"
     inkscape:pageshadow="2"
     inkscape:pageopacity="0"
     guidetolerance="10"
     gridtolerance="10"
     objecttolerance="10"
     borderopacity="1"
     bordercolor="#666666"
     pagecolor="#ffffff" />
  <g
     transform="translate(-158.80754,1.1985475)"
     id="g18"
     inkscape:label="Image"
     inkscape:groupmode="layer">
    <g
       transform="translate(158.80754,-1.1985475)"
       id="g22">
      <g
         id="g48">
        <g
           transform="scale(0.68266667)"
           id="g960">
          <path
             sodipodi:nodetypes="ccccc"
             style="fill:#ffffff;fill-opacity:1;stroke-width:1"
             d="M 0,0 H 750 V 481.636 H 0 Z"
             id="path28-4" />
          <path
             id="path28"
             d="m 0,0 h 372 v 154.76701 l -6.75,0.72213 c -8.78572,0.93992 -21.7467,4.72905 -29.54659,8.63789 -19.597,9.82086 -37.446,29.56949 -43.69375,48.34394 -8.03985,24.15976 -6.10964,50.56547 5.16225,70.62112 1.20109,2.13703 1.99126,4.05155 1.75593,4.25446 L 0,476.64169 Z"
             style="fill:#5c8f44;fill-opacity:1;stroke-width:1"
             sodipodi:nodetypes="cccssssccc" />
          <path
             id="path26"
             d="m 451.01195,286.654 c -0.006,-0.4653 1.58871,-4.21906 3.54507,-8.34169 5.64326,-11.89204 7.75517,-21.74887 7.78025,-36.31231 0.0169,-9.76212 -0.46225,-14.32597 -2.18721,-20.83662 -9.23972,-34.87466 -37.91525,-60.40244 -73.27904,-65.23513 L 378,154.71597 V 0 h 372 v 477.97937 z"
             style="fill:#1b498a;fill-opacity:1;stroke-width:1"
             sodipodi:nodetypes="csscsccccc" />
          <path
             id="path24"
             d="M 5.5274938,481.636 302.43864,292.30031 l 7.45213,7.92166 c 12.41573,13.19801 25.97078,21.39814 42.91076,25.95886 10.27159,2.7654 31.50422,3.02836 41.55191,0.51459 9.34576,-2.33815 18.80643,-6.2267 27.02767,-11.10898 6.59894,-3.91886 19.04322,-15.02285 23.39275,-20.87324 l 2.07187,-2.78679 L 743.9643,481.636 Z"
             style="fill:#a12c1e;fill-opacity:1;stroke-width:1"
             sodipodi:nodetypes="ccsssssccc" />
        </g>
      </g>
    </g>
  </g>
  <style
     type="text/css"
     id="style922">
	.st0{fill:#FEFEFE;}
	.st1{fill:#1B498A;}
	.st2{fill:#5C8F44;}
	.st3{fill:#A12C1E;}
	.st4{fill:#EBF0E4;}
	.st5{fill:#5B9B43;}
</style>
</svg>
